<svg width="69" height="22" viewBox="0 0 69 22" fill="none" xmlns="http://www.w3.org/2000/svg">
<rect width="69" height="21.5591" fill="#4742AF"/>
<path d="M10.062 2.46652C10.1048 2.47912 10.1476 2.49173 10.1916 2.50471C12.1357 3.08714 13.8199 4.53779 14.8176 6.42135C15.8783 8.48605 16.1668 10.8694 15.5625 13.1533C15.2314 14.3181 14.699 15.3414 13.9658 16.2669C13.9271 16.3169 13.8884 16.3669 13.8485 16.4184C12.6374 17.9333 10.9036 18.864 9.08603 19.1754C9.01643 19.1876 9.01643 19.1876 8.94542 19.2001C7.00668 19.47 4.88812 18.932 3.31725 17.667C3.02537 17.4225 2.75057 17.1614 2.48394 16.8857C2.42911 16.8312 2.37427 16.7767 2.31777 16.7206C1.27323 15.6623 0.627796 14.2749 0.244977 12.8013C0.228312 12.7388 0.228312 12.7388 0.21131 12.675C-0.118275 11.3703 -0.0427574 9.69421 0.302386 8.40747C0.318052 8.34583 0.318052 8.34583 0.334034 8.28294C0.888749 6.13745 2.30763 4.32558 4.08064 3.22461C5.85277 2.16591 8.10738 1.85604 10.062 2.46652ZM8.52518 6.22033C8.38579 6.37809 8.24315 6.53174 8.09956 6.68506C7.88088 6.91859 7.6629 7.1528 7.44594 7.38818C7.41831 7.41814 7.39069 7.44811 7.36223 7.47898C7.2778 7.57057 7.1934 7.66219 7.10899 7.75381C6.93943 7.93787 6.76982 8.12188 6.59999 8.30565C6.49525 8.41902 6.39064 8.53252 6.28618 8.64619C6.04127 8.91125 5.7926 9.16519 5.52944 9.40895C5.29072 9.6372 5.06725 9.88275 4.84154 10.1257C4.78881 10.1824 4.73608 10.239 4.68175 10.2974C4.57112 10.4163 4.4606 10.5353 4.35016 10.6544C4.20863 10.8069 4.06671 10.9591 3.92469 11.1111C3.78872 11.2568 3.65315 11.403 3.51754 11.5491C3.44103 11.6309 3.44103 11.6309 3.36298 11.7144C3.2928 11.7903 3.2928 11.7903 3.2212 11.8678C3.15922 11.9344 3.15922 11.9344 3.09598 12.0025C2.98842 12.1204 2.98842 12.1204 2.94322 12.3062C4.03878 12.6109 5.13852 12.8979 6.23947 13.179C6.43537 13.2291 6.6312 13.2793 6.8269 13.3302C7.04999 13.3883 7.27334 13.445 7.49673 13.5016C7.56418 13.5193 7.63163 13.537 7.70113 13.5553C8.16798 13.6881 8.16798 13.6881 8.62675 13.6058C8.74322 13.4401 8.80845 13.2593 8.87815 13.0665C8.91047 12.9832 8.91047 12.9832 8.94345 12.8983C8.98882 12.7809 9.03347 12.6631 9.07744 12.5451C9.1402 12.3768 9.20475 12.2094 9.27012 12.0422C9.37803 11.7654 9.48413 11.4879 9.5896 11.21C9.70681 10.9013 9.82467 10.5928 9.94246 10.2843C9.96651 10.2213 9.99055 10.1583 10.0153 10.0934C10.3336 9.25993 10.6575 8.42901 10.9812 7.598C11.0392 7.44874 11.0971 7.2994 11.1549 7.15004C11.2317 6.95197 11.3096 6.75453 11.3884 6.55736C11.4261 6.4615 11.4639 6.36564 11.5017 6.26978C11.5285 6.20387 11.5285 6.20387 11.5557 6.13662C11.6589 5.88613 11.6589 5.88613 11.612 5.62265C11.3597 5.60152 11.1073 5.58109 10.855 5.56076C10.7845 5.55486 10.7141 5.54896 10.6416 5.54288C10.499 5.53152 10.3563 5.52187 10.2135 5.51387C10.0046 5.49888 10.0046 5.49888 9.81517 5.46455C9.19833 5.38473 8.91807 5.77149 8.52518 6.22033ZM11.9565 6.05584C11.4809 7.1887 11.0411 8.33675 10.6023 9.48657C10.5787 9.54848 10.555 9.61039 10.5307 9.67418C10.5068 9.73673 10.4829 9.79928 10.4584 9.86373C10.1491 10.6736 9.83599 11.4817 9.52308 12.2899C9.47466 12.415 9.42624 12.5401 9.37783 12.6651C9.33399 12.7784 9.29013 12.8916 9.24625 13.0049C9.2085 13.1024 9.17087 13.1999 9.13338 13.2975C9.09452 13.3982 9.05468 13.4984 9.01456 13.5984C8.94475 13.8096 8.97569 13.9472 9.02862 14.1628C9.12502 14.3495 9.23977 14.5181 9.35872 14.6888C9.40402 14.7557 9.40402 14.7557 9.45022 14.8239C9.50991 14.912 9.56989 14.9998 9.63019 15.0874C9.75717 15.2726 9.88084 15.4603 10.0046 15.648C10.0614 15.6276 10.1183 15.6072 10.1768 15.5861C10.2345 15.4225 10.2803 15.2661 10.3224 15.0977C10.3359 15.0463 10.3494 14.995 10.3633 14.9421C10.4082 14.7702 10.452 14.5981 10.4959 14.426C10.5274 14.3047 10.559 14.1833 10.5906 14.062C10.6745 13.7396 10.7576 13.4169 10.8404 13.0941C10.9382 12.7138 11.0369 12.3338 11.1356 11.9538C11.2168 11.6405 11.2979 11.3271 11.3785 11.0136C11.5396 10.3878 11.7036 9.76317 11.8738 9.14015C11.9065 9.01971 11.9392 8.89927 11.9718 8.77882C12.0331 8.55323 12.0953 8.32799 12.1581 8.1029C12.1856 8.00153 12.2132 7.90015 12.2406 7.79876C12.2535 7.75369 12.2664 7.70862 12.2797 7.66219C12.4018 7.20456 12.3147 6.86218 12.1538 6.43102C12.1147 6.32488 12.1147 6.32488 12.0747 6.2166C12.0546 6.16355 12.0346 6.1105 12.0139 6.05584C11.995 6.05584 11.976 6.05584 11.9565 6.05584ZM2.88581 12.7394C3.22843 13.5003 3.22843 13.5003 3.63213 14.2247C3.85017 14.0487 4.01813 13.8618 4.18829 13.6329C4.23232 13.5741 4.27635 13.5153 4.32172 13.4547C4.43984 13.2948 4.43984 13.2948 4.55068 13.1107C4.32717 13.0482 4.10346 12.9866 3.87971 12.9251C3.8164 12.9074 3.75309 12.8896 3.68786 12.8714C3.596 12.8463 3.596 12.8463 3.50229 12.8206C3.41796 12.7973 3.41796 12.7973 3.33193 12.7735C3.17843 12.7406 3.04178 12.733 2.88581 12.7394ZM4.82226 13.366C4.77408 13.4247 4.7259 13.4834 4.67627 13.5439C4.65097 13.5747 4.62567 13.6055 4.5996 13.6372C4.22394 14.0384 4.22394 14.0384 4.034 14.5341C4.74207 14.7118 5.45019 14.8894 6.15838 15.0666C6.48719 15.1489 6.81599 15.2313 7.14475 15.3139C7.46185 15.3935 7.779 15.4729 8.09618 15.5522C8.21735 15.5825 8.33851 15.6129 8.45965 15.6434C8.62896 15.686 8.79832 15.7283 8.96769 15.7706C9.01807 15.7833 9.06845 15.796 9.12036 15.8091C9.16648 15.8206 9.21261 15.8321 9.26013 15.8439C9.30019 15.8539 9.34025 15.8639 9.38153 15.8743C9.49809 15.9012 9.49809 15.9012 9.66012 15.8955C9.56562 15.578 9.38745 15.3309 9.20802 15.064C9.14714 14.9725 9.08629 14.8811 9.02548 14.7896C8.99605 14.7461 8.96661 14.7026 8.93628 14.6577C8.85639 14.5341 8.85639 14.5341 8.7483 14.3255C8.58061 14.101 8.4218 14.0614 8.16748 14.0003C8.12663 13.9881 8.08578 13.9759 8.04369 13.9633C7.90906 13.9247 7.90906 13.9247 7.7082 13.9152C7.57499 14.0208 7.57499 14.0208 7.47857 14.1628C7.20074 14.3564 6.87794 14.3295 6.56001 14.2865C6.31225 14.1838 6.14896 14.0459 5.98951 13.8185C5.9354 13.6847 5.90189 13.5616 5.8711 13.4201C5.75036 13.389 5.62955 13.3581 5.5087 13.3273C5.44143 13.3101 5.37416 13.2929 5.30486 13.2751C5.03674 13.2057 5.03674 13.2057 4.82226 13.366Z" fill="#FEFEFE"/>
<path d="M33.9453 7.04688C34.2105 7.04688 34.4758 7.04688 34.749 7.04688C34.9046 7.47938 35.0373 7.91849 35.1691 8.36C35.193 8.44002 35.217 8.52004 35.241 8.60006C35.3045 8.81224 35.3679 9.02447 35.4312 9.23672C35.4703 9.36763 35.5094 9.49853 35.5485 9.62943C35.9196 10.8706 36.2877 12.1128 36.6436 13.3591C36.8138 12.9173 36.9607 12.4708 37.0974 12.0158C37.1182 11.9472 37.139 11.8787 37.1604 11.808C37.2275 11.5864 37.2943 11.3646 37.3612 11.1429C37.4073 10.9902 37.4535 10.8375 37.4997 10.6848C37.6356 10.2355 37.7711 9.78606 37.9066 9.33662C37.9451 9.20888 37.9836 9.08114 38.0221 8.9534C38.2137 8.31804 38.4048 7.68253 38.5955 7.04688C38.8418 7.04688 39.0881 7.04688 39.3418 7.04688C39.7288 8.33736 40.1134 9.62866 40.4957 10.9208C40.567 11.162 40.6384 11.4031 40.7099 11.6442C40.7658 11.8327 40.8215 12.0212 40.8773 12.2097C40.9037 12.2989 40.9301 12.3879 40.9565 12.477C40.9929 12.5999 41.0292 12.7228 41.0656 12.8457C41.0964 12.95 41.0964 12.95 41.1279 13.0564C41.1683 13.1981 41.2049 13.3387 41.2363 13.4829C41.4911 12.6422 41.7364 11.799 41.969 10.9509C41.9863 10.8879 41.9863 10.8879 42.0039 10.8235C42.0867 10.5213 42.1693 10.2191 42.2517 9.91679C42.335 9.61173 42.4183 9.30672 42.5019 9.00178C42.5345 8.88272 42.5669 8.76361 42.5993 8.6445C42.7464 8.1077 42.9064 7.57675 43.0734 7.04688C43.3197 7.04688 43.566 7.04688 43.8197 7.04688C43.7387 7.47243 43.6292 7.8796 43.504 8.29231C43.484 8.35895 43.464 8.4256 43.4434 8.49427C43.4002 8.63819 43.3569 8.78208 43.3135 8.92593C43.2093 9.27154 43.1057 9.61736 43.0021 9.96319C42.9781 10.0434 42.9541 10.1237 42.93 10.2039C42.6462 11.1512 42.3679 12.1003 42.0903 13.0497C42.0672 13.1288 42.044 13.2078 42.0209 13.2869C41.8932 13.7235 41.7656 14.1602 41.6382 14.5968C41.354 14.5968 41.0698 14.5968 40.777 14.5968C40.3332 13.1778 39.903 11.7545 39.4815 10.3275C39.4439 10.2003 39.4063 10.073 39.3687 9.9458C39.351 9.88576 39.3332 9.82572 39.3149 9.76386C39.1931 9.35212 39.0689 8.94133 38.9399 8.53211C38.843 8.68884 38.7941 8.79512 38.7405 8.9693C38.7247 9.02026 38.7089 9.07122 38.6926 9.12372C38.6756 9.1793 38.6587 9.23488 38.6412 9.29214C38.6141 9.37991 38.6141 9.37991 38.5865 9.46946C38.527 9.66232 38.468 9.8553 38.4089 10.0483C38.3679 10.1816 38.3268 10.315 38.2858 10.4483C38.0789 11.121 37.874 11.7945 37.6711 12.4686C37.6526 12.5299 37.6342 12.5912 37.6151 12.6544C37.5271 12.9468 37.4394 13.2392 37.3521 13.5319C37.3206 13.6371 37.2891 13.7422 37.2576 13.8474C37.2435 13.8949 37.2294 13.9425 37.2149 13.9914C37.1509 14.2044 37.0813 14.3957 36.988 14.5968C36.7417 14.5968 36.4954 14.5968 36.2417 14.5968C36.2239 14.5393 36.2062 14.4817 36.1879 14.4224C36.0167 13.8675 35.8454 13.3127 35.6741 12.758C35.5861 12.4731 35.4981 12.1881 35.4102 11.9032C35.3081 11.5722 35.2059 11.2413 35.1036 10.9103C35.0867 10.8557 35.0698 10.801 35.0524 10.7447C34.8621 10.1288 34.6699 9.51377 34.4737 8.9001C34.4562 8.84525 34.4387 8.79041 34.4207 8.7339C34.3371 8.47247 34.2533 8.21116 34.1689 7.95004C34.1391 7.85729 34.1094 7.76455 34.0797 7.6718C34.066 7.62975 34.0523 7.5877 34.0381 7.54437C33.9823 7.36957 33.9453 7.23332 33.9453 7.04688Z" fill="#FEFEFE"/>
<path d="M45.1387 3.70312C45.385 3.70312 45.6312 3.70312 45.885 3.70312C45.9039 5.19393 45.9229 6.68474 45.9424 8.22072C46.1697 7.91439 46.1697 7.91439 46.4017 7.60187C47.1531 6.94965 47.9197 6.80496 48.8703 6.85926C49.6414 6.96283 50.3292 7.28351 50.8222 7.94611C51.5648 9.06389 51.7159 10.4727 51.5421 11.8125C51.394 12.5842 51.05 13.1792 50.5352 13.7285C50.5005 13.7679 50.4659 13.8073 50.4302 13.8479C49.7208 14.596 48.6447 14.8318 47.6876 14.8441C46.8167 14.8334 45.9498 14.6971 45.1387 14.3473C45.1387 10.8347 45.1387 7.32215 45.1387 3.70312ZM46.861 8.22072C46.8274 8.24896 46.7938 8.2772 46.7591 8.3063C46.506 8.54216 46.3612 8.824 46.2115 9.14126C46.1824 9.20251 46.1824 9.20251 46.1528 9.265C45.8916 9.84646 45.8688 10.4012 45.8738 11.0406C45.8739 11.1195 45.8741 11.1984 45.8743 11.2796C45.8748 11.4875 45.8758 11.6953 45.8771 11.9032C45.8783 12.116 45.8788 12.3288 45.8794 12.5417C45.8806 12.9579 45.8826 13.3741 45.885 13.7904C46.4618 13.9676 46.9885 14.0768 47.5929 14.065C47.6569 14.0654 47.721 14.0659 47.7869 14.0663C48.6649 14.0591 49.4255 13.7842 50.0718 13.1299C50.6615 12.4152 50.8336 11.5642 50.8222 10.6342C50.7672 9.69984 50.5635 8.82702 49.9144 8.17044C49.4561 7.76172 48.9783 7.65215 48.4002 7.64829C48.3536 7.64701 48.3069 7.64574 48.2589 7.64442C47.6929 7.64054 47.2858 7.82681 46.861 8.22072Z" fill="#FEFEFE"/>
<path d="M58.2297 7.47813C59.032 8.17499 59.4333 9.08383 59.5491 10.1724C59.6076 10.7795 59.6076 10.7795 59.6076 11.0675C56.6806 11.0981 56.6806 11.0981 53.6944 11.1293C53.842 12.0838 54.0749 12.8378 54.7881 13.4597C55.5192 14.003 56.3334 14.0894 57.1923 13.9357C57.8004 13.7656 58.341 13.4432 58.8038 12.9859C59.0312 13.2003 59.0312 13.2003 59.2631 13.4191C58.9661 14.0595 58.3502 14.3728 57.7503 14.6087C56.7179 14.9591 55.6506 14.916 54.6704 14.4092C53.9015 13.9772 53.3369 13.2738 53.0465 12.39C52.7084 11.1579 52.7362 9.87279 53.2925 8.71583C53.7674 7.8482 54.4398 7.21294 55.3521 6.95598C56.3528 6.70317 57.362 6.87758 58.2297 7.47813ZM54.3654 8.47989C53.9361 9.03664 53.6944 9.66476 53.6944 10.3867C55.3616 10.3867 57.0287 10.3867 58.7464 10.3867C58.7464 9.57866 58.4737 8.88573 57.9627 8.29714C57.4475 7.7797 56.7786 7.56583 56.0843 7.58691C55.3974 7.65512 54.8432 7.94142 54.3654 8.47989Z" fill="#FEFEFE"/>
<path d="M32.1147 7.6829C32.7953 8.30489 33.3185 9.24182 33.427 10.2045C33.5011 11.4656 33.3361 12.5222 32.5408 13.5037C32.4545 13.6015 32.3673 13.6983 32.2788 13.7938C32.2423 13.8339 32.2057 13.874 32.1681 13.9154C31.4984 14.5998 30.5969 14.8448 29.6954 14.8458C28.8861 14.793 28.2069 14.5185 27.5713 13.9794C27.5361 13.9524 27.501 13.9254 27.4648 13.8975C26.815 13.3638 26.3769 12.4209 26.2509 11.5659C26.147 10.2873 26.311 9.26557 27.0602 8.2459C28.3606 6.5994 30.5182 6.44786 32.1147 7.6829ZM27.6329 8.72696C27.0698 9.56832 26.8792 10.4828 27.0239 11.5074C27.2277 12.4044 27.6928 13.1555 28.4073 13.67C29.1242 14.1263 29.8558 14.199 30.6559 13.9811C31.443 13.7145 31.9807 13.1343 32.3706 12.3639C32.7496 11.5206 32.7923 10.5958 32.5085 9.70939C32.1977 8.8354 31.6348 8.17574 30.8436 7.79095C29.6802 7.28859 28.4271 7.71872 27.6329 8.72696Z" fill="#FEFEFE"/>
<path d="M24.7004 7.47746C24.9914 7.71328 25.2133 7.90292 25.3319 8.28197C25.2594 8.34439 25.1863 8.40615 25.1131 8.46762C25.0724 8.50208 25.0318 8.53655 24.9899 8.57205C24.8727 8.65328 24.8727 8.65328 24.7004 8.65328C24.6614 8.59967 24.6223 8.54606 24.582 8.49083C24.2364 8.01762 23.68 7.81517 23.154 7.68246C22.3922 7.59866 21.7129 7.73263 21.0836 8.22008C21.0471 8.24736 21.0107 8.27465 20.9731 8.30276C20.4276 8.75388 20.1382 9.49354 19.9929 10.2004C19.9065 11.2957 20.082 12.2263 20.7154 13.1126C21.138 13.6114 21.7544 13.9624 22.3812 13.9962C23.2852 14.0138 23.994 13.8717 24.6847 13.1979C24.7495 13.1293 24.8116 13.0577 24.8727 12.9852C25.0989 13.0884 25.2624 13.2468 25.4467 13.4184C25.1963 14.0396 24.5591 14.3439 24.0115 14.5942C23.159 14.9422 22.1441 14.9371 21.2953 14.5826C20.3189 14.0987 19.6954 13.3065 19.306 12.2414C18.954 11.149 19.07 9.9148 19.5192 8.87761C19.9932 7.93844 20.7153 7.30684 21.6606 6.98456C22.7051 6.68626 23.7969 6.8303 24.7004 7.47746Z" fill="#FEFEFE"/>
<path d="M64.0273 3.70312C64.2736 3.70312 64.5199 3.70312 64.7737 3.70312C64.7737 7.2974 64.7737 10.8917 64.7737 14.5949C64.5274 14.5949 64.2811 14.5949 64.0273 14.5949C64.0273 11.0006 64.0273 7.40632 64.0273 3.70312Z" fill="#FEFEFE"/>
<path d="M61.2715 3.70312C61.5178 3.70312 61.7641 3.70312 62.0178 3.70312C62.0178 7.2974 62.0178 10.8917 62.0178 14.5949C61.7715 14.5949 61.5252 14.5949 61.2715 14.5949C61.2715 11.0006 61.2715 7.40632 61.2715 3.70312Z" fill="#FEFEFE"/>
<path d="M68.6778 4.07827C68.9441 4.36106 68.9869 4.64129 69.0008 5.03748C68.9845 5.54226 68.8646 5.79534 68.5415 6.14368C68.2393 6.3453 67.9381 6.40063 67.5871 6.36801C67.2339 6.27809 66.9397 6.15886 66.7152 5.83715C66.4857 5.42832 66.4836 4.9428 66.5875 4.48656C66.7255 4.12948 66.9872 3.93953 67.3 3.76884C67.7809 3.60342 68.3019 3.72158 68.6778 4.07827ZM67.093 4.22476C66.8897 4.47285 66.7959 4.70116 66.7618 5.02588C66.7955 5.38367 66.9136 5.64204 67.1493 5.89614C67.4335 6.0858 67.6638 6.14994 67.9916 6.09194C68.3002 6.00014 68.5005 5.77778 68.6778 5.50162C68.7767 5.18185 68.7729 4.87621 68.6707 4.55788C68.4807 4.25761 68.293 4.0848 67.971 3.98544C67.6474 3.92427 67.3465 3.99205 67.093 4.22476Z" fill="#FEFEFE"/>
<path d="M67.3555 4.32031C67.9296 4.32031 67.9296 4.32031 68.1592 4.44408C68.239 4.61612 68.2272 4.74847 68.2166 4.93916C68.1941 4.98128 68.1716 5.0234 68.1484 5.0668C68.133 5.10637 68.1177 5.14593 68.1018 5.1867C68.1775 5.35022 68.1775 5.35022 68.274 5.49613C68.274 5.53697 68.274 5.57781 68.274 5.6199C68.1448 5.6431 68.1448 5.6431 67.987 5.6199C67.865 5.43811 67.865 5.43811 67.7573 5.24859C67.7005 5.22816 67.6437 5.20774 67.5851 5.1867C67.5851 5.32966 67.5851 5.47261 67.5851 5.6199C67.5093 5.6199 67.4335 5.6199 67.3555 5.6199C67.3555 5.19103 67.3555 4.76217 67.3555 4.32031ZM67.5851 4.56785C67.5851 4.69038 67.5851 4.81292 67.5851 4.93916C67.6988 4.93916 67.8124 4.93916 67.9296 4.93916C67.9515 4.83667 67.9706 4.73342 67.987 4.62974C67.9224 4.54581 67.9224 4.54581 67.7537 4.56398C67.6981 4.56526 67.6424 4.56654 67.5851 4.56785Z" fill="#FEFEFE"/>
</svg>
