<svg width="69" height="22" viewBox="0 0 69 22" fill="none" xmlns="http://www.w3.org/2000/svg">
<rect width="69" height="21.5591" fill="#4742AF"/>
<g clip-path="url(#clip0_643_1028)">
<path d="M55.7422 8.00108C57.8602 7.99833 57.8602 7.99833 58.7457 7.99775C58.9483 7.99762 59.151 7.99748 59.3537 7.99733C59.3791 7.99732 59.4045 7.9973 59.4307 7.99728C59.8402 7.99698 60.2497 7.99645 60.6592 7.99582C61.0798 7.99518 61.5004 7.9948 61.921 7.99466C62.1803 7.99457 62.4396 7.99427 62.6989 7.99372C62.877 7.99336 63.0551 7.99325 63.2331 7.99334C63.3357 7.99338 63.4383 7.99332 63.5409 7.99295C64.5128 7.98963 64.5128 7.98963 64.9301 8.16028C64.9524 8.16931 64.9747 8.17834 64.9978 8.18764C65.2738 8.31177 65.5028 8.52256 65.6351 8.79706C65.7506 9.103 65.7551 9.39006 65.7567 9.71279C65.7571 9.76546 65.7577 9.81813 65.7586 9.87079C65.7599 9.94724 65.7604 10.0237 65.7607 10.1001C65.7612 10.1234 65.7617 10.1467 65.7622 10.1706C65.7617 10.3707 65.7019 10.528 65.564 10.6747C65.4764 10.7558 65.3829 10.83 65.2899 10.9048C65.2096 10.9708 65.1332 11.0405 65.0565 11.1106C64.974 11.1838 64.888 11.2522 64.8015 11.3205C64.7524 11.3632 64.7164 11.4043 64.6799 11.4579C64.7949 11.5634 64.911 11.6667 65.0324 11.7649C65.1351 11.8481 65.2339 11.9345 65.3315 12.0236C65.3808 12.0682 65.4309 12.1114 65.4816 12.1544C65.6218 12.2773 65.7377 12.3884 65.7534 12.584C65.7556 12.6547 65.7563 12.7252 65.7564 12.796C65.7566 12.8222 65.7567 12.8484 65.7569 12.8754C65.7571 12.9308 65.7572 12.9863 65.7572 13.0418C65.7573 13.1255 65.7581 13.2093 65.759 13.293C65.7612 13.7573 65.726 14.1708 65.392 14.5224C64.9936 14.9101 64.4447 14.9907 63.9112 14.9884C63.8758 14.9884 63.8403 14.9885 63.8049 14.9885C63.7083 14.9886 63.6118 14.9885 63.5152 14.9882C63.4108 14.988 63.3063 14.9881 63.2019 14.9881C63.0212 14.9882 62.8405 14.988 62.6599 14.9878C62.3986 14.9874 62.1374 14.9873 61.8762 14.9872C61.4523 14.9871 61.0284 14.9868 60.6045 14.9864C60.1929 14.986 59.7813 14.9856 59.3696 14.9855C59.344 14.9854 59.3183 14.9854 59.2919 14.9854C59.0913 14.9853 58.8906 14.9852 58.6899 14.9851C57.7074 14.9847 56.7248 14.9838 55.7422 14.983C55.7422 12.6789 55.7422 10.3749 55.7422 8.00108ZM57.084 9.20642C57.084 9.75428 57.084 10.3021 57.084 10.8666C59.4931 10.8666 61.9022 10.8666 64.3842 10.8666C64.3842 10.3187 64.3842 9.77088 64.3842 9.20642C61.9752 9.20642 59.5661 9.20642 57.084 9.20642ZM57.084 12.0719C57.084 12.6348 57.084 13.1977 57.084 13.7776C59.4931 13.7776 61.9022 13.7776 64.3842 13.7776C64.3842 13.2147 64.3842 12.6519 64.3842 12.0719C61.9752 12.0719 59.5661 12.0719 57.084 12.0719Z" fill="white"/>
<path d="M41.5938 8.00108C43.7117 7.99833 43.7117 7.99833 44.5972 7.99775C44.7999 7.99762 45.0026 7.99748 45.2052 7.99733C45.2306 7.99732 45.256 7.9973 45.2822 7.99728C45.6917 7.99698 46.1013 7.99645 46.5108 7.99582C46.9314 7.99518 47.352 7.9948 47.7725 7.99466C48.0319 7.99457 48.2912 7.99427 48.5505 7.99372C48.7286 7.99336 48.9066 7.99325 49.0847 7.99334C49.1873 7.99338 49.2899 7.99332 49.3924 7.99295C50.3644 7.98963 50.3644 7.98963 50.7816 8.16028C50.804 8.16931 50.8263 8.17834 50.8493 8.18764C51.1254 8.31177 51.3544 8.52256 51.4866 8.79706C51.5728 9.02507 51.604 9.23623 51.6058 9.47826C51.6059 9.50226 51.6061 9.52627 51.6063 9.551C51.6066 9.60169 51.6069 9.65238 51.6071 9.70308C51.6073 9.75464 51.6078 9.8062 51.6085 9.85776C51.6094 9.93263 51.6098 10.0075 51.61 10.0824C51.6104 10.1051 51.6108 10.1279 51.6112 10.1514C51.6107 10.3276 51.5746 10.4814 51.4695 10.6258C51.4559 10.6382 51.4423 10.6506 51.4284 10.6633C51.4126 10.6779 51.3968 10.6925 51.3805 10.7076C51.3016 10.775 51.2216 10.8407 51.1407 10.9056C51.0606 10.9713 50.9845 11.0408 50.908 11.1106C50.8256 11.1838 50.7395 11.2522 50.6531 11.3205C50.604 11.3632 50.5679 11.4043 50.5315 11.4579C50.6465 11.5634 50.7626 11.6667 50.884 11.7649C50.9867 11.8481 51.0855 11.9345 51.1831 12.0236C51.2323 12.0682 51.2825 12.1114 51.3331 12.1544C51.4734 12.2773 51.5893 12.3884 51.6049 12.584C51.6071 12.6547 51.6078 12.7252 51.608 12.796C51.6081 12.8222 51.6083 12.8484 51.6084 12.8754C51.6087 12.9308 51.6088 12.9863 51.6088 13.0418C51.6089 13.1255 51.6097 13.2093 51.6106 13.293C51.6128 13.7573 51.5776 14.1708 51.2436 14.5224C50.8451 14.9101 50.2963 14.9907 49.7628 14.9884C49.7273 14.9884 49.6919 14.9885 49.6565 14.9885C49.5599 14.9886 49.4633 14.9885 49.3668 14.9882C49.2623 14.988 49.1579 14.9881 49.0535 14.9881C48.8728 14.9882 48.6921 14.988 48.5114 14.9878C48.2502 14.9874 47.989 14.9873 47.7277 14.9872C47.3039 14.9871 46.88 14.9868 46.4561 14.9864C46.0445 14.986 45.6328 14.9856 45.2212 14.9855C45.1956 14.9854 45.1699 14.9854 45.1435 14.9854C44.9428 14.9853 44.7422 14.9852 44.5415 14.9851C43.5589 14.9847 42.5763 14.9838 41.5938 14.983C41.5938 12.6789 41.5938 10.3749 41.5938 8.00108ZM42.9355 9.20642C42.9355 9.75428 42.9355 10.3021 42.9355 10.8666C45.3446 10.8666 47.7537 10.8666 50.2358 10.8666C50.2358 10.3187 50.2358 9.77088 50.2358 9.20642C47.8267 9.20642 45.4176 9.20642 42.9355 9.20642ZM42.9355 12.0719C42.9355 12.6348 42.9355 13.1977 42.9355 13.7776C45.3446 13.7776 47.7537 13.7776 50.2358 13.7776C50.2358 13.2147 50.2358 12.6519 50.2358 12.0719C47.8267 12.0719 45.4176 12.0719 42.9355 12.0719Z" fill="white"/>
<path d="M1.57796 7.99623C1.6064 7.99619 1.63484 7.99614 1.66414 7.99609C1.6954 7.99616 1.72666 7.99623 1.75793 7.99629C1.79137 7.99628 1.82481 7.99626 1.85824 7.99624C1.94994 7.99618 2.04163 7.99628 2.13332 7.99639C2.23227 7.99649 2.33122 7.99645 2.43017 7.99644C2.60154 7.99643 2.77292 7.9965 2.94429 7.99662C3.19207 7.99681 3.43985 7.99687 3.68763 7.9969C4.08964 7.99695 4.49165 7.9971 4.89366 7.99731C5.28416 7.99752 5.67466 7.99768 6.06516 7.99778C6.10127 7.99779 6.10127 7.99779 6.13811 7.9978C6.25888 7.99783 6.37965 7.99786 6.50042 7.99788C7.50221 7.99812 8.50399 7.99853 9.50578 7.99903C9.50578 8.4118 9.50578 8.82457 9.50578 9.24985C6.81901 9.24985 4.13224 9.24985 1.36406 9.24985C1.36406 10.7283 1.36406 12.2068 1.36406 13.7301C4.05083 13.7301 6.7376 13.7301 9.50578 13.7301C9.50578 14.1428 9.50578 14.5556 9.50578 14.9809C8.48134 14.983 7.45689 14.9846 6.43245 14.9855C6.31136 14.9857 6.19027 14.9858 6.06918 14.9859C6.04508 14.9859 6.02097 14.9859 5.99613 14.986C5.6064 14.9864 5.21666 14.9871 4.82693 14.9879C4.42669 14.9888 4.02645 14.9893 3.62621 14.9895C3.37947 14.9896 3.13272 14.99 2.88598 14.9907C2.71652 14.9912 2.54706 14.9913 2.3776 14.9912C2.27999 14.9912 2.18239 14.9913 2.08479 14.9917C1.46941 14.9947 0.864804 14.9766 0.381874 14.536C0.126229 14.2646 -0.00392015 13.8932 -0.0038272 13.525C-0.00391081 13.507 -0.00399437 13.4891 -0.00408052 13.4706C-0.00433031 13.4105 -0.00441879 13.3505 -0.00450562 13.2905C-0.00464819 13.2474 -0.00479936 13.2043 -0.00495848 13.1612C-0.00543605 13.0197 -0.00567262 12.8782 -0.00589925 12.7367C-0.00599135 12.6879 -0.00608502 12.639 -0.00618016 12.5902C-0.00661331 12.3606 -0.0069369 12.131 -0.00712648 11.9015C-0.0073484 11.6372 -0.00794614 11.3728 -0.00886626 11.1085C-0.00955424 10.9038 -0.0098891 10.6991 -0.00996423 10.4944C-0.0100175 10.3723 -0.0102184 10.2503 -0.0107934 10.1282C-0.0113266 10.0132 -0.0114178 9.89815 -0.0111856 9.78312C-0.0111744 9.74117 -0.0113155 9.69922 -0.0116303 9.65727C-0.0149825 9.18353 0.0760114 8.77222 0.41652 8.41834C0.72419 8.13684 1.16486 7.99609 1.57796 7.99623Z" fill="white"/>
<path d="M13.3262 8C13.769 8 14.2118 8 14.668 8C14.668 8.93812 14.668 9.87624 14.668 10.8428C16.9795 10.8428 19.291 10.8428 21.6726 10.8428C21.6726 9.90466 21.6726 8.96655 21.6726 8C22.1154 8 22.5582 8 23.0144 8C23.0144 10.304 23.0144 12.608 23.0144 14.9819C22.5716 14.9819 22.1288 14.9819 21.6726 14.9819C21.6726 14.0287 21.6726 13.0756 21.6726 12.0936C19.3611 12.0936 17.0495 12.0936 14.668 12.0936C14.668 13.0467 14.668 13.9999 14.668 14.9819C14.2252 14.9819 13.7824 14.9819 13.3262 14.9819C13.3262 12.6779 13.3262 10.3738 13.3262 8Z" fill="white"/>
<path d="M27.5173 8C27.9601 8 28.4029 8 28.8591 8C28.8591 9.89125 28.8591 11.7825 28.8591 13.731C31.1331 13.731 33.4071 13.731 35.75 13.731C35.75 11.8398 35.75 9.94856 35.75 8C36.1928 8 36.6356 8 37.0918 8C37.0933 8.70652 37.0946 9.41305 37.0953 10.1196C37.0954 10.2031 37.0955 10.2867 37.0956 10.3703C37.0956 10.3869 37.0956 10.4036 37.0956 10.4207C37.0959 10.6894 37.0964 10.9582 37.0971 11.2269C37.0977 11.503 37.0981 11.7791 37.0982 12.0552C37.0983 12.2102 37.0985 12.3651 37.099 12.52C37.0995 12.6661 37.0996 12.8121 37.0995 12.9582C37.0995 13.0116 37.0997 13.0649 37.0999 13.1183C37.1025 13.6694 37.0481 14.1451 36.6554 14.5654C36.3108 14.8949 35.8354 14.9894 35.374 14.9878C35.3329 14.9879 35.3329 14.9879 35.291 14.9881C35.2159 14.9883 35.1407 14.9882 35.0655 14.9882C34.9841 14.9881 34.9027 14.9883 34.8213 14.9885C34.6622 14.9888 34.503 14.9888 34.3439 14.9887C34.2144 14.9887 34.0849 14.9887 33.9554 14.9888C33.9277 14.9889 33.9277 14.9889 33.8994 14.9889C33.8619 14.9889 33.8244 14.9889 33.7868 14.989C33.4352 14.9892 33.0836 14.9892 32.732 14.989C32.411 14.9889 32.09 14.9892 31.769 14.9896C31.4387 14.99 31.1084 14.9902 30.7782 14.9901C30.593 14.9901 30.4078 14.9902 30.2227 14.9905C30.065 14.9907 29.9074 14.9908 29.7497 14.9905C29.6695 14.9904 29.5892 14.9903 29.5089 14.9906C28.9149 14.9922 28.3561 14.9511 27.9005 14.5269C27.6152 14.2179 27.5093 13.83 27.5118 13.4178C27.5118 13.3944 27.5118 13.3711 27.5117 13.347C27.5117 13.2696 27.5119 13.1921 27.5122 13.1146C27.5122 13.0588 27.5122 13.0029 27.5121 12.9471C27.5121 12.8273 27.5123 12.7075 27.5125 12.5876C27.5129 12.4144 27.513 12.2412 27.5131 12.0679C27.5132 11.7868 27.5135 11.5057 27.5139 11.2245C27.5143 10.9516 27.5146 10.6786 27.5148 10.4057C27.5148 10.3888 27.5148 10.372 27.5149 10.3546C27.5149 10.2701 27.515 10.1855 27.515 10.101C27.5155 9.40068 27.5163 8.70034 27.5173 8Z" fill="white"/>
<path d="M68.6002 8.13664C68.6199 8.15165 68.6396 8.16666 68.6599 8.18213C68.6787 8.19479 68.6974 8.20746 68.7168 8.22051C68.8834 8.37461 68.9998 8.5999 69.0139 8.82726C69.0146 8.86901 69.0145 8.91077 69.0138 8.95252C69.0136 8.97446 69.0133 8.99639 69.013 9.01899C69.0049 9.28336 68.923 9.46561 68.7384 9.65602C68.5113 9.85892 68.269 9.92418 67.9688 9.91694C67.7182 9.89743 67.4836 9.78169 67.3106 9.59792C67.1292 9.3529 67.0672 9.09754 67.0907 8.79617C67.142 8.52831 67.2644 8.30757 67.4892 8.1489C67.8343 7.93447 68.2496 7.92887 68.6002 8.13664ZM67.5168 8.34239C67.3178 8.55612 67.2592 8.7549 67.2647 9.04189C67.2752 9.23406 67.3616 9.41449 67.5001 9.54666C67.7183 9.71927 67.927 9.77991 68.2051 9.75134C68.4233 9.70764 68.5931 9.58348 68.7205 9.40168C68.844 9.18787 68.8793 8.97056 68.827 8.72705C68.7526 8.50019 68.6269 8.34827 68.4195 8.23197C68.1211 8.08563 67.7697 8.11383 67.5168 8.34239Z" fill="white"/>
<path d="M67.7031 8.38672C68.2489 8.38672 68.2489 8.38672 68.4081 8.45495C68.4837 8.53439 68.5055 8.5981 68.5105 8.70511C68.5057 8.81191 68.4823 8.8752 68.4081 8.95528C68.3342 8.99792 68.3342 8.99792 68.2717 9.0235C68.343 9.15957 68.4228 9.28474 68.5138 9.40861C68.5446 9.4556 68.5446 9.4556 68.5446 9.50109C68.4715 9.51392 68.4325 9.52074 68.3627 9.50109C68.2789 9.41749 68.2237 9.31354 68.1704 9.20873C68.1597 9.18841 68.1491 9.16809 68.1381 9.14716C68.1292 9.12837 68.1204 9.10958 68.1112 9.09022C68.053 9.0232 68.053 9.0232 67.8623 9.0235C67.8623 9.18111 67.8623 9.33871 67.8623 9.50109C67.8098 9.50109 67.7573 9.50109 67.7031 9.50109C67.7031 9.13335 67.7031 8.7656 67.7031 8.38672ZM67.8623 8.52317C67.8623 8.64325 67.8623 8.76333 67.8623 8.88705C68.1008 8.90177 68.1008 8.90177 68.3172 8.81882C68.3495 8.75421 68.3471 8.70841 68.3399 8.63688C68.2891 8.57212 68.2592 8.54933 68.1807 8.52317C68.0745 8.52008 67.9686 8.5222 67.8623 8.52317Z" fill="white"/>
</g>
<defs>
<clipPath id="clip0_643_1028">
<rect width="69" height="6.98187" fill="white" transform="translate(0 8)"/>
</clipPath>
</defs>
</svg>
