<svg width="69" height="22" viewBox="0 0 69 22" fill="none" xmlns="http://www.w3.org/2000/svg">
<rect width="69" height="21.5591" fill="#4742AF"/>
<g clip-path="url(#clip0_643_1006)">
<path d="M0 3C2.64767 3 5.29535 3 8.02326 3C7.77782 3.81812 7.52625 4.59184 7.20357 5.3766C7.15974 5.48455 7.1159 5.59251 7.07073 5.70373C6.92587 6.06019 6.78024 6.41632 6.63461 6.77247C6.53173 7.02528 6.42891 7.27812 6.32615 7.53098C6.16227 7.93423 5.99834 8.33745 5.83421 8.74059C5.40465 9.79591 4.97757 10.8522 4.55165 11.909C4.5201 11.9873 4.48855 12.0656 4.45604 12.1462C4.17513 12.8431 3.89432 13.5401 3.61352 14.2371C3.23267 15.1822 2.85132 16.1271 2.46869 17.0716C2.39988 17.2414 2.39988 17.2414 2.32968 17.4147C2.20734 17.7161 2.08452 18.0173 1.96145 18.3184C1.92636 18.4049 1.89126 18.4914 1.8551 18.5805C1.619 19.1556 1.619 19.1556 1.48122 19.2934C0.992415 19.2934 0.503614 19.2934 0 19.2934C0 13.9166 0 8.53975 0 3Z" fill="white"/>
<path d="M9.13389 4.23438C9.21536 4.23438 9.29683 4.23438 9.38076 4.23438C9.73177 5.16493 10.0827 6.09549 10.4337 7.02607C10.5968 7.45853 10.7599 7.891 10.923 8.32345C11.2665 9.23401 11.6098 10.1446 11.9528 11.0554C12.0996 11.4449 12.2464 11.8345 12.3934 12.224C12.5519 12.644 12.7101 13.0641 12.8683 13.4843C12.9391 13.6718 12.9391 13.6718 13.0114 13.8632C13.0539 13.976 13.0963 14.0888 13.14 14.2051C13.1771 14.3034 13.2141 14.4017 13.2523 14.5031C13.3307 14.7263 13.3307 14.7263 13.3307 14.8498C10.6015 14.8498 7.87239 14.8498 5.06055 14.8498C5.48762 13.6397 5.91144 12.439 6.38313 11.2475C6.43483 11.116 6.48653 10.9845 6.53979 10.849C6.70211 10.4364 6.86493 10.0239 7.02779 9.6115C7.13607 9.3366 7.24432 9.06168 7.35253 8.78675C7.51063 8.38507 7.66875 7.98339 7.82702 7.58178C8.26609 6.46731 8.7011 5.3513 9.13389 4.23438Z" fill="white"/>
<path d="M4.44451 16.332C7.58098 16.332 10.7175 16.332 13.949 16.332C15.0599 19.0476 15.0599 19.0476 15.0599 19.2945C11.2309 19.2945 7.402 19.2945 3.45703 19.2945C3.58047 18.5539 3.58047 18.5539 4.44451 16.332Z" fill="white"/>
<path d="M33.1215 5.93579C33.4144 6.15146 33.6195 6.40281 33.8202 6.70388C33.8787 6.61223 33.9373 6.52058 33.9976 6.42615C34.606 5.77325 35.291 5.56359 36.1732 5.53125C36.8387 5.55834 37.372 5.65575 37.8935 6.08671C38.689 7.0035 38.6528 8.0293 38.6462 9.18366C38.646 9.30025 38.6458 9.41684 38.6457 9.53696C38.645 9.90667 38.6434 10.2764 38.6419 10.6461C38.6412 10.8978 38.6407 11.1496 38.6402 11.4014C38.6388 12.0162 38.6367 12.6311 38.6341 13.2459C38.2675 13.2459 37.9009 13.2459 37.5232 13.2459C37.5214 13.0778 37.5196 12.9097 37.5178 12.7364C37.5106 12.1112 37.5011 11.4859 37.4908 10.8607C37.4867 10.5904 37.4833 10.32 37.4805 10.0497C37.4763 9.66052 37.4699 9.27144 37.463 8.88231C37.4622 8.76193 37.4614 8.64156 37.4606 8.51753C37.4465 7.86563 37.401 7.38771 37.0295 6.82731C36.5386 6.51874 35.9897 6.51164 35.4248 6.58044C34.9201 6.74545 34.6667 6.92761 34.3988 7.37506C34.1612 7.87669 34.0539 8.26682 34.0417 8.81782C34.0392 8.91663 34.0368 9.01545 34.0343 9.11725C34.0312 9.27543 34.0312 9.27543 34.028 9.4368C34.0254 9.54569 34.0229 9.65458 34.0202 9.76678C34.0122 10.1139 34.0049 10.461 33.9976 10.8081C33.9923 11.0437 33.9869 11.2793 33.9815 11.5149C33.9683 12.0919 33.9558 12.6689 33.9436 13.2459C33.6178 13.2459 33.2919 13.2459 32.9561 13.2459C32.9543 13.0859 32.9525 12.9259 32.9507 12.7611C32.9435 12.165 32.934 11.569 32.9237 10.973C32.9197 10.7154 32.9162 10.4579 32.9134 10.2004C32.9092 9.8293 32.9028 9.45829 32.8959 9.08723C32.8951 8.97289 32.8943 8.85855 32.8935 8.74075C32.878 8.05329 32.791 7.55878 32.4624 6.95075C32.1132 6.65007 31.8931 6.58677 31.4364 6.52644C30.8612 6.59469 30.4533 6.71829 29.9937 7.07418C29.5159 7.8042 29.426 8.54811 29.4248 9.40064C29.4227 9.5114 29.4207 9.62216 29.4186 9.73627C29.4126 10.0858 29.41 10.4353 29.4074 10.7849C29.4039 11.0237 29.4002 11.2624 29.3963 11.5012C29.3872 12.0828 29.3811 12.6643 29.3765 13.2459C29.0099 13.2459 28.6433 13.2459 28.2656 13.2459C28.2656 10.8019 28.2656 8.3579 28.2656 5.83984C28.5915 5.83984 28.9174 5.83984 29.2531 5.83984C29.2938 6.08424 29.3346 6.32864 29.3765 6.58044C29.4303 6.52985 29.4841 6.47925 29.5395 6.42712C30.5589 5.50479 31.8794 5.22415 33.1215 5.93579Z" fill="white"/>
<path d="M22.748 2.98828C22.8611 2.98971 22.9743 2.99115 23.0908 2.99262C23.2043 2.99373 23.3177 2.99485 23.4346 2.996C23.5223 2.99743 23.6099 2.99886 23.7003 3.00034C24.5564 5.06432 25.3818 7.14039 26.2 9.21967C26.313 9.50677 26.4262 9.7938 26.5396 10.0808C26.7011 10.4897 26.8618 10.8988 27.0224 11.3081C27.0715 11.432 27.1205 11.556 27.1711 11.6837C27.2387 11.8567 27.2387 11.8567 27.3077 12.0332C27.3471 12.1336 27.3866 12.234 27.4273 12.3375C27.5301 12.6381 27.5949 12.9329 27.6502 13.2454C27.2428 13.2454 26.8355 13.2454 26.4158 13.2454C26.23 12.7777 26.0451 12.3095 25.8604 11.8413C25.8074 11.708 25.7544 11.5747 25.6998 11.4373C25.6497 11.31 25.5996 11.1827 25.5479 11.0516C25.5014 10.9339 25.4549 10.8163 25.4069 10.6951C25.3049 10.4064 25.3049 10.4064 25.3049 10.1595C23.7978 10.2003 22.2906 10.241 20.7378 10.283C20.3712 11.2606 20.0046 12.2382 19.6269 13.2454C19.2196 13.2454 18.8123 13.2454 18.3926 13.2454C18.7049 12.0993 19.1525 11.0167 19.6038 9.92039C19.7697 9.51499 19.9353 9.10943 20.1009 8.70389C20.1431 8.60067 20.1853 8.49746 20.2288 8.39112C20.5282 7.65813 20.8235 6.92358 21.1163 6.18794C21.1562 6.0878 21.1961 5.98767 21.2372 5.88449C21.3918 5.49603 21.5463 5.10753 21.7003 4.71881C21.8057 4.45254 21.9116 4.18641 22.0175 3.92031C22.0775 3.76903 22.1374 3.61775 22.1992 3.46189C22.3935 3.00343 22.3935 3.00343 22.748 2.98828ZM22.9597 4.23468C22.6957 4.9179 22.432 5.60122 22.1686 6.28464C22.0789 6.51732 21.9891 6.74996 21.8992 6.98258C21.7703 7.31616 21.6417 7.64983 21.5132 7.98353C21.4727 8.08819 21.4322 8.19285 21.3904 8.30069C21.1956 8.72531 21.1956 8.72531 21.1081 9.17207C22.3709 9.17207 23.6336 9.17207 24.9346 9.17207C24.7208 8.58653 24.5069 8.00098 24.2866 7.3977C24.2202 7.21561 24.1538 7.03352 24.0854 6.84592C23.7648 5.96988 23.4376 5.09771 23.0831 4.23468C23.0424 4.23468 23.0016 4.23468 22.9597 4.23468Z" fill="white"/>
<path d="M63.3221 5.96486C63.7803 6.38 64.1502 6.84022 64.3096 7.44608C64.325 7.79324 64.325 7.79324 64.3096 8.06325C63.9837 8.06325 63.6579 8.06325 63.3221 8.06325C63.2922 7.99626 63.2623 7.92928 63.2315 7.86026C62.9154 7.17191 62.9154 7.17191 62.3346 6.70547C61.7091 6.49696 61.1114 6.50042 60.4985 6.73633C60.1176 6.91922 60.1176 6.91922 59.9277 7.17606C59.8368 7.5734 59.8523 7.79972 59.9894 8.18668C60.7468 8.71044 61.5329 8.86842 62.4217 9.05892C63.19 9.23459 63.7524 9.43823 64.2864 10.0459C64.6385 10.6203 64.6298 11.2372 64.5565 11.8897C64.1966 12.6094 63.6957 13.0477 62.9518 13.3401C61.9719 13.6373 60.8276 13.6414 59.8664 13.2697C59.285 12.9274 58.8971 12.396 58.5776 11.8126C58.4942 11.4605 58.4914 11.1393 58.5082 10.7788C58.834 10.7788 59.1599 10.7788 59.4956 10.7788C59.527 10.8547 59.5583 10.9306 59.5906 11.0088C59.6331 11.1086 59.6756 11.2083 59.7194 11.3111C59.7609 11.4099 59.8024 11.5087 59.8452 11.6106C60.0618 12.0299 60.2603 12.2161 60.6914 12.4066C61.5389 12.6145 62.3111 12.5747 63.0752 12.1366C63.3899 11.7838 63.4455 11.613 63.4455 11.1414C63.2829 10.6635 63.1315 10.5593 62.7049 10.2851C62.2645 10.1326 61.8155 10.0237 61.3626 9.91477C59.5168 9.46746 59.5168 9.46746 58.8862 8.79614C58.6269 8.07936 58.6307 7.3555 58.9402 6.65918C60.0144 5.53121 61.9393 5.06714 63.3221 5.96486Z" fill="white"/>
<path d="M51.225 5.83984C51.5508 5.83984 51.8767 5.83984 52.2125 5.83984C52.2143 5.98733 52.2161 6.13482 52.2179 6.28678C52.2251 6.83824 52.2346 7.38963 52.2448 7.94104C52.2489 8.1789 52.2524 8.41677 52.2552 8.65464C52.2594 8.99819 52.2659 9.34163 52.2727 9.68512C52.2735 9.79009 52.2743 9.89506 52.2751 10.0032C52.2941 10.7905 52.3753 11.67 52.9453 12.2584C53.4842 12.5197 53.9579 12.5467 54.5577 12.5053C55.1373 12.2894 55.4576 12.0368 55.7921 11.5178C56.1109 10.7905 56.2191 10.1975 56.2255 9.40788C56.2277 9.30516 56.23 9.20245 56.2322 9.09662C56.2389 8.77222 56.2431 8.44783 56.2472 8.12339C56.2513 7.90191 56.2556 7.68043 56.26 7.45896C56.2704 6.91927 56.2787 6.37959 56.2858 5.83984C56.6117 5.83984 56.9375 5.83984 57.2733 5.83984C57.2733 8.28385 57.2733 10.7279 57.2733 13.2459C56.9881 13.2459 56.703 13.2459 56.4092 13.2459C56.3481 12.8182 56.3481 12.8182 56.2858 12.3819C56.1918 12.4711 56.1918 12.4711 56.0958 12.5622C55.2431 13.3447 54.6116 13.5563 53.4516 13.5304C52.7765 13.4627 52.2192 13.2904 51.7645 12.7681C51.3486 12.1412 51.2088 11.5657 51.211 10.8144C51.211 10.7033 51.211 10.5921 51.211 10.4776C51.2116 10.3593 51.2123 10.241 51.2129 10.1191C51.2131 9.99666 51.2133 9.87424 51.2134 9.74812C51.2141 9.35826 51.2157 8.96841 51.2173 8.57855C51.2179 8.31376 51.2184 8.04897 51.2189 7.78418C51.2203 7.13607 51.2224 6.48796 51.225 5.83984Z" fill="white"/>
<path d="M39.2539 3C41.9423 3 44.6307 3 47.4006 3C47.4006 3.32587 47.4006 3.65174 47.4006 3.98748C46.2193 3.98748 45.0381 3.98748 43.821 3.98748C43.821 7.04249 43.821 10.0975 43.821 13.2451C43.4951 13.2451 43.1693 13.2451 42.8335 13.2451C42.8335 10.1901 42.8335 7.13506 42.8335 3.98748C41.6522 3.98748 40.471 3.98748 39.2539 3.98748C39.2539 3.66161 39.2539 3.33574 39.2539 3Z" fill="white"/>
<path d="M66.2836 3.61719C66.6094 3.61719 66.9353 3.61719 67.271 3.61719C67.271 4.35039 67.271 5.08359 67.271 5.83901C67.7598 5.83901 68.2486 5.83901 68.7523 5.83901C68.7523 6.12415 68.7523 6.40928 68.7523 6.70305C68.2635 6.70305 67.7747 6.70305 67.271 6.70305C67.2795 7.45222 67.2904 8.2013 67.3034 8.9504C67.3075 9.2053 67.311 9.46021 67.3138 9.71512C67.3179 10.0813 67.3244 10.4474 67.3313 10.8135C67.3321 10.9277 67.3329 11.0419 67.3337 11.1596C67.3361 11.2658 67.3386 11.372 67.3411 11.4815C67.3425 11.5749 67.3438 11.6684 67.3453 11.7647C67.4075 12.0758 67.5175 12.1879 67.7648 12.3811C68.0183 12.4256 68.0183 12.4256 68.2817 12.4042C68.437 12.3966 68.5923 12.3889 68.7523 12.3811C68.7523 12.7069 68.7523 13.0328 68.7523 13.3685C67.1292 13.4394 67.1292 13.4394 66.5304 12.9982C66.299 12.6286 66.2532 12.3483 66.2555 11.9159C66.2556 11.7417 66.2556 11.7417 66.2556 11.564C66.2569 11.4397 66.2581 11.3153 66.2595 11.1872C66.2598 11.0591 66.2602 10.9311 66.2605 10.7991C66.2619 10.3904 66.265 9.98165 66.2681 9.57291C66.2694 9.29567 66.2705 9.01842 66.2715 8.74117C66.2742 8.06179 66.2785 7.38243 66.2836 6.70305C65.8355 6.70305 65.3874 6.70305 64.9258 6.70305C64.9258 6.41792 64.9258 6.13279 64.9258 5.83901C65.3738 5.83901 65.8219 5.83901 66.2836 5.83901C66.2836 5.10581 66.2836 4.37261 66.2836 3.61719Z" fill="white"/>
<path d="M50.4862 5.71476C50.4862 6.04062 50.4862 6.36649 50.4862 6.70223C50.3983 6.72037 50.3103 6.73851 50.2196 6.7572C49.4385 6.94013 48.7513 7.13975 48.2644 7.81315C47.956 8.52251 47.8375 9.09996 47.831 9.8691C47.8287 9.96634 47.8265 10.0636 47.8242 10.1638C47.8176 10.4706 47.8134 10.7773 47.8093 11.0842C47.8052 11.2938 47.8009 11.5033 47.7965 11.7129C47.7861 12.2233 47.7778 12.7338 47.7707 13.2443C47.4448 13.2443 47.1189 13.2443 46.7832 13.2443C46.7832 10.8003 46.7832 8.35626 46.7832 5.83819C47.1091 5.83819 47.4349 5.83819 47.7707 5.83819C47.8114 6.16406 47.8521 6.48993 47.8941 6.82567C47.9582 6.76616 48.0224 6.70665 48.0884 6.64534C48.9039 5.90672 49.3887 5.67755 50.4862 5.71476Z" fill="white"/>
<path d="M22.3418 16.082C23.0824 16.082 23.0824 16.082 23.43 16.4027C23.5453 16.5434 23.6582 16.6861 23.769 16.8304C23.8253 16.8996 23.8815 16.9689 23.9395 17.0403C24.3333 17.5306 24.6908 18.0376 25.0574 18.5507C25.0981 17.7361 25.1388 16.9214 25.1808 16.082C25.3437 16.082 25.5067 16.082 25.6745 16.082C25.6745 17.1411 25.6745 18.2002 25.6745 19.2913C24.8105 19.2913 24.8105 19.2913 24.5956 19.1425C24.5218 19.0398 24.5218 19.0398 24.4465 18.935C24.3902 18.8598 24.334 18.7846 24.276 18.7072C24.2207 18.6276 24.1654 18.5479 24.1085 18.4659C24.0517 18.3886 23.995 18.3114 23.9366 18.2318C23.8296 18.0861 23.7239 17.9396 23.6197 17.7919C23.4087 17.503 23.1825 17.2255 22.959 16.9461C22.9182 17.72 22.8775 18.4939 22.8355 19.2913C22.6726 19.2913 22.5097 19.2913 22.3418 19.2913C22.3418 18.2323 22.3418 17.1732 22.3418 16.082Z" fill="white"/>
<path d="M53.5703 16.0859C54.3109 16.0859 54.3109 16.0859 54.5689 16.3169C54.6441 16.4214 54.7194 16.526 54.7969 16.6337C54.8795 16.7452 54.9621 16.8568 55.0472 16.9717C55.1301 17.0867 55.213 17.2018 55.2984 17.3203C55.4622 17.5318 55.6267 17.7427 55.7921 17.9529C55.9754 18.1897 55.9754 18.1897 56.1624 18.4312C56.2032 17.6573 56.2439 16.8833 56.2859 16.0859C56.4488 16.0859 56.6117 16.0859 56.7796 16.0859C56.7796 17.145 56.7796 18.2041 56.7796 19.2952C56.039 19.2952 56.039 19.2952 55.7983 19.1065C55.7305 19.0202 55.6628 18.9339 55.593 18.8449C55.518 18.7513 55.443 18.6578 55.3657 18.5614C55.2522 18.4129 55.2522 18.4129 55.1364 18.2615C55.0193 18.1145 55.0193 18.1145 54.8999 17.9645C54.3418 17.2587 54.3418 17.2587 54.1875 16.95C54.1468 17.7239 54.106 18.4979 54.0641 19.2952C53.9011 19.2952 53.7382 19.2952 53.5703 19.2952C53.5703 18.2362 53.5703 17.1771 53.5703 16.0859Z" fill="white"/>
<path d="M41.2266 16.0851C41.7574 16.0775 41.7574 16.0775 42.2989 16.0697C42.4093 16.0675 42.5197 16.0652 42.6334 16.0629C43.1651 16.0592 43.5845 16.0758 44.0656 16.332C44.189 16.4554 44.189 16.4554 44.201 16.7245C44.1996 16.8343 44.1982 16.9441 44.1967 17.0572C44.1956 17.1663 44.1945 17.2755 44.1933 17.388C44.1919 17.4876 44.1905 17.5872 44.189 17.6898C44.189 17.812 44.189 17.9342 44.189 18.0601C44.189 18.4715 44.189 18.883 44.189 19.2944C44.0261 19.2944 43.8631 19.2944 43.6953 19.2944C43.6545 18.9686 43.6138 18.6427 43.5718 18.307C42.9608 18.2662 42.3498 18.2255 41.7203 18.1835C41.7203 18.5501 41.7203 18.9167 41.7203 19.2944C41.5574 19.2944 41.3944 19.2944 41.2266 19.2944C41.2266 18.2354 41.2266 17.1763 41.2266 16.0851ZM41.7203 16.5789C41.7203 16.9455 41.7203 17.3121 41.7203 17.6898C42.0031 17.6964 42.286 17.7012 42.5689 17.7052C42.7264 17.7081 42.884 17.711 43.0463 17.7139C43.459 17.7338 43.459 17.7338 43.6953 17.4429C43.7158 17.0623 43.7158 17.0623 43.6953 16.7023C43.3246 16.517 42.9805 16.5674 42.5689 16.5712C42.4108 16.5723 42.2526 16.5734 42.0896 16.5745C41.9678 16.576 41.8459 16.5774 41.7203 16.5789Z" fill="white"/>
<path d="M30.3124 16.048C30.45 16.0485 30.5876 16.0489 30.7294 16.0494C31.093 16.0852 31.3073 16.1181 31.6007 16.3334C31.6933 16.7809 31.6933 16.7809 31.7242 17.1975C31.5612 17.1975 31.3983 17.1975 31.2304 17.1975C31.1489 17.0345 31.0675 16.8716 30.9835 16.7037C30.4947 16.7037 30.0059 16.7037 29.5023 16.7037C29.4616 16.9074 29.4209 17.1111 29.3789 17.3209C29.4876 17.3269 29.5962 17.333 29.7082 17.3392C29.9233 17.3531 29.9233 17.3531 30.1426 17.3672C30.2844 17.3758 30.4262 17.3844 30.5723 17.3932C30.9878 17.4449 31.4163 17.5068 31.7242 17.8146C31.7492 18.088 31.7492 18.088 31.755 18.4241C31.7582 18.5347 31.7614 18.6453 31.7647 18.7592C31.7513 18.8548 31.7379 18.9505 31.7242 19.049C31.223 19.3831 30.8316 19.3457 30.2429 19.3499C30.1417 19.3539 30.0405 19.358 29.9363 19.3622C29.655 19.3647 29.4064 19.3583 29.132 19.2959C28.7746 18.9012 28.7617 18.7231 28.7617 18.1849C28.9247 18.1849 29.0876 18.1849 29.2555 18.1849C29.2962 18.3886 29.3369 18.5923 29.3789 18.8021C29.9899 18.8021 30.6009 18.8021 31.2304 18.8021C31.2304 18.5577 31.2304 18.3133 31.2304 18.0615C31.0818 18.0466 30.9332 18.0316 30.7801 18.0162C30.5856 17.9953 30.3911 17.9744 30.1966 17.9535C30.0986 17.9438 30.0006 17.9341 29.8996 17.9241C29.16 17.8426 29.16 17.8426 28.8852 17.5678C28.8393 17.3137 28.8393 17.3137 28.8312 17.02C28.8262 16.9234 28.8213 16.8269 28.8162 16.7274C28.8852 16.4569 28.8852 16.4569 29.1465 16.2389C29.5617 16.0611 29.8619 16.0412 30.3124 16.048Z" fill="white"/>
<path d="M66.4082 16.082C67.2636 16.082 68.119 16.082 69.0003 16.082C69.0003 16.245 69.0003 16.4079 69.0003 16.5758C68.3079 16.5758 67.6154 16.5758 66.9019 16.5758C66.9019 16.8609 66.9019 17.146 66.9019 17.4398C67.5537 17.4398 68.2054 17.4398 68.8769 17.4398C68.8769 17.6027 68.8769 17.7657 68.8769 17.9336C68.2252 17.9336 67.5734 17.9336 66.9019 17.9336C66.9019 18.2594 66.9019 18.5853 66.9019 18.921C67.5944 18.921 68.2869 18.921 69.0003 18.921C69.0003 19.0432 69.0003 19.1654 69.0003 19.2913C68.1449 19.2913 67.2895 19.2913 66.4082 19.2913C66.4082 18.2323 66.4082 17.1732 66.4082 16.082Z" fill="white"/>
<path d="M61.5773 16.06C61.7272 16.0582 61.8771 16.0565 62.0315 16.0547C62.4375 16.0818 62.7103 16.1551 63.074 16.33C63.1147 16.6151 63.1554 16.9003 63.1974 17.194C63.0345 17.194 62.8715 17.194 62.7037 17.194C62.6222 17.0311 62.5407 16.8682 62.4568 16.7003C61.8458 16.7003 61.2348 16.7003 60.6053 16.7003C60.6027 16.9804 60.6002 17.2604 60.5976 17.5489C60.5961 17.7064 60.5947 17.864 60.5932 18.0263C60.5767 18.4144 60.5767 18.4144 60.7287 18.6753C61.0758 18.791 61.295 18.8153 61.6545 18.8141C61.7499 18.8144 61.8454 18.8148 61.9438 18.8151C62.2327 18.8088 62.2327 18.8088 62.5802 18.6753C62.6707 18.4265 62.6707 18.4265 62.7037 18.1815C62.8666 18.1815 63.0295 18.1815 63.1974 18.1815C63.2427 18.8609 63.2427 18.8609 63.0443 19.1291C62.7733 19.3329 62.6274 19.3386 62.2909 19.3373C62.1365 19.3372 62.1365 19.3372 61.979 19.337C61.8719 19.335 61.7648 19.3331 61.6545 19.331C61.5474 19.3314 61.4403 19.3318 61.33 19.3322C60.5313 19.3254 60.5313 19.3254 60.1115 19.0456C59.9603 18.5917 59.9606 18.1683 59.9572 17.6955C59.9547 17.6071 59.9521 17.5187 59.9495 17.4277C59.9466 17.0327 59.9615 16.7492 60.152 16.399C60.569 16.0102 61.0358 16.0629 61.5773 16.06Z" fill="white"/>
<path d="M48.5101 16.0859C48.7545 16.0859 48.9989 16.0859 49.2507 16.0859C49.4778 16.5742 49.7038 17.0629 49.9296 17.5517C49.9944 17.691 50.0591 17.8302 50.1259 17.9736C50.1871 18.1065 50.2484 18.2393 50.3115 18.3762C50.3684 18.499 50.4253 18.6219 50.4839 18.7484C50.6085 19.0484 50.6085 19.0484 50.6085 19.2952C50.4048 19.2952 50.2012 19.2952 49.9913 19.2952C49.9302 18.9897 49.9302 18.9897 49.8679 18.6781C49.2162 18.6781 48.5644 18.6781 47.893 18.6781C47.7708 18.9836 47.7708 18.9836 47.6461 19.2952C47.4831 19.2952 47.3202 19.2952 47.1523 19.2952C47.4797 18.17 48.0016 17.1379 48.5101 16.0859ZM48.8804 16.7031C48.636 17.1919 48.3916 17.6807 48.1398 18.1843C48.6286 18.1843 49.1174 18.1843 49.621 18.1843C49.4174 17.6955 49.2137 17.2067 49.0039 16.7031C48.9631 16.7031 48.9224 16.7031 48.8804 16.7031Z" fill="white"/>
<path d="M34.9335 16.0859C35.0964 16.0859 35.2593 16.0859 35.4272 16.0859C35.4679 16.9821 35.5087 17.8782 35.5506 18.8015C36.4913 18.844 36.4913 18.844 37.4022 18.6781C37.4429 17.8227 37.4836 16.9673 37.5256 16.0859C37.6885 16.0859 37.8515 16.0859 38.0193 16.0859C38.0301 16.5514 38.0367 17.0168 38.0425 17.4823C38.0456 17.6146 38.0487 17.7469 38.0519 17.8832C38.0531 18.0101 38.0543 18.137 38.0555 18.2677C38.0574 18.3847 38.0594 18.5017 38.0614 18.6223C38.0193 18.9249 38.0193 18.9249 37.8654 19.1481C37.596 19.3313 37.4371 19.343 37.1129 19.3444C37.0099 19.3449 36.907 19.3454 36.8009 19.3459C36.6403 19.3437 36.6403 19.3437 36.4764 19.3415C36.3693 19.343 36.2622 19.3444 36.1519 19.3459C36.0489 19.3454 35.946 19.3449 35.8399 19.3444C35.699 19.3438 35.699 19.3438 35.5552 19.3432C35.2282 19.2809 35.1221 19.1985 34.9335 18.9249C34.8914 18.6223 34.8914 18.6223 34.8973 18.2677C34.8991 18.0774 34.8991 18.0774 34.9009 17.8832C34.904 17.7509 34.9071 17.6186 34.9103 17.4823C34.9128 17.2817 34.9128 17.2817 34.9154 17.077C34.9197 16.7466 34.9258 16.4163 34.9335 16.0859Z" fill="white"/>
<path d="M18.6387 16.0859C18.8016 16.0859 18.9645 16.0859 19.1324 16.0859C19.1324 17.145 19.1324 18.2041 19.1324 19.2952C18.9695 19.2952 18.8065 19.2952 18.6387 19.2952C18.6387 18.2362 18.6387 17.1771 18.6387 16.0859Z" fill="white"/>
</g>
<defs>
<clipPath id="clip0_643_1006">
<rect width="69" height="16.2934" fill="white" transform="translate(0 3)"/>
</clipPath>
</defs>
</svg>
