<svg width="69" height="22" viewBox="0 0 69 22" fill="none" xmlns="http://www.w3.org/2000/svg">
<rect width="69" height="21.5591" fill="#4F49BB" fill-opacity="0.15"/>
<path d="M6.25463 3.23438C7.52041 3.23438 8.7862 3.23438 10.0903 3.23438C10.0903 3.85908 10.0872 4.47958 10.065 5.10315C10.0622 5.18367 10.0595 5.26419 10.0568 5.34471C10.0495 5.5596 10.042 5.77449 10.0345 5.98938C10.0266 6.21532 10.019 6.44127 10.0113 6.66722C9.99672 7.09344 9.982 7.51965 9.96721 7.94586C9.95036 8.43178 9.93371 8.91771 9.91707 9.40364C9.88289 10.4017 9.84847 11.3998 9.81389 12.3978C9.82779 12.3828 9.84168 12.3677 9.856 12.3522C9.91954 12.2833 9.98314 12.2146 10.0467 12.1458C10.0795 12.1103 10.0795 12.1103 10.113 12.074C10.24 11.9368 10.3685 11.8041 10.5058 11.6787C10.5917 11.5993 10.6745 11.5166 10.7577 11.434C10.9119 11.2824 11.0704 11.1387 11.2328 10.9975C11.3469 10.8967 11.4583 10.7931 11.5698 10.689C11.7865 10.4874 12.0091 10.2955 12.2355 10.1067C12.3068 10.047 12.3778 9.98679 12.4488 9.92654C12.8078 9.62233 13.1731 9.3296 13.5459 9.04535C13.5765 9.02201 13.607 8.99866 13.6384 8.97461C15.3574 7.66259 15.3574 7.66259 16.041 7.33229C16.2329 7.23409 16.3159 7.14822 16.3892 6.93288C16.3989 6.90057 16.4086 6.86825 16.4187 6.83495C16.4356 6.78369 16.4356 6.78369 16.4528 6.7314C16.4884 6.62227 16.5225 6.51265 16.5566 6.40294C16.5797 6.33172 16.6029 6.26055 16.6261 6.18941C16.6958 5.97497 16.7625 5.75956 16.8287 5.54386C16.8402 5.50681 16.8517 5.46975 16.8636 5.43158C16.8976 5.32164 16.9312 5.21154 16.9645 5.10138C16.9747 5.06843 16.9849 5.03547 16.9954 5.00152C17.071 4.74852 17.1376 4.5074 17.0663 4.2471C16.9551 4.04323 16.7965 3.93144 16.5869 3.86762C16.2556 3.80323 15.9204 3.77706 15.5847 3.75587C15.6043 3.58053 15.6357 3.44202 15.6884 3.27162C17.513 3.27162 19.3375 3.27162 21.2174 3.27162C21.1137 3.68137 21.1137 3.68137 21.0791 3.75587C21.003 3.7688 21.003 3.7688 20.9026 3.77421C20.866 3.77655 20.8294 3.77889 20.7917 3.78131C20.7525 3.78367 20.7134 3.78603 20.6731 3.78847C20.0478 3.82768 20.0478 3.82768 19.5241 4.16562C19.3311 4.44621 19.2092 4.74491 19.0986 5.07126C19.0764 5.13496 19.0764 5.13496 19.0538 5.19996C18.9885 5.38806 18.9258 5.57658 18.8675 5.76736C18.9033 5.75086 18.9033 5.75086 18.9398 5.73401C20.1426 5.18165 21.3679 4.70368 22.6385 4.36584C22.6926 4.35129 22.6926 4.35129 22.7478 4.33646C22.7809 4.328 22.8141 4.31955 22.8482 4.31084C22.8915 4.2997 22.8915 4.2997 22.9357 4.28834C23.0187 4.27675 23.0735 4.28677 23.1525 4.31462C23.1199 4.32395 23.0872 4.33329 23.0536 4.3429C22.054 4.63017 21.0878 4.96453 20.1461 5.43211C20.1121 5.4489 20.078 5.46569 20.043 5.48299C18.9842 6.00823 17.9867 6.64336 17.0361 7.36911C17.011 7.38826 16.9859 7.40741 16.96 7.42715C16.4862 7.78962 16.0292 8.16845 15.5877 8.57536C15.4895 8.66566 15.3894 8.75321 15.2888 8.84047C15.1137 8.99401 14.948 9.15669 14.7827 9.3221C14.702 9.40223 14.6204 9.4804 14.5373 9.55753C14.4305 9.65718 14.3312 9.76248 14.2323 9.87113C14.1719 9.93519 14.1096 9.99444 14.045 10.0536C13.864 10.2232 13.6956 10.4058 13.5265 10.5889C13.4952 10.6225 13.4638 10.6562 13.4315 10.6908C13.2739 10.861 13.1204 11.0328 12.976 11.2163C12.9208 11.2842 12.8628 11.3475 12.803 11.4107C12.6981 11.522 12.601 11.6386 12.5049 11.7588C12.4341 11.8465 12.3616 11.9324 12.289 12.0183C12.1556 12.1776 12.0295 12.3418 11.9045 12.5086C11.8244 12.6132 11.7423 12.7152 11.6591 12.817C11.4582 13.0631 11.2688 13.3156 11.0857 13.5773C10.9642 13.7511 10.8396 13.9215 10.7123 14.0904C10.5011 14.3722 10.3047 14.6648 10.1101 14.9602C10.0593 15.0372 10.0083 15.1139 9.95711 15.1906C9.40007 16.0289 8.87275 16.8946 8.38588 17.7822C8.29676 17.9445 8.29676 17.9445 8.25887 17.9853C8.15995 17.988 8.06188 17.9887 7.96299 17.9876C7.93512 17.9875 7.90726 17.9873 7.87855 17.9871C7.80951 17.9867 7.74046 17.986 7.67142 17.9853C7.65717 16.8007 7.694 15.6169 7.72493 14.4329C7.7328 14.1313 7.74047 13.8296 7.74814 13.528C7.76181 12.9902 7.77562 12.4523 7.78953 11.9145C7.80301 11.3935 7.81642 10.8725 7.82976 10.3515C7.83058 10.3192 7.83141 10.287 7.83226 10.2537C7.84047 9.93286 7.84867 9.61198 7.85687 9.2911C7.86006 9.16641 7.86325 9.04173 7.86644 8.91704C7.86801 8.85553 7.86958 8.79402 7.87115 8.73252C7.88113 8.34207 7.89116 7.95163 7.90124 7.5612C7.9063 7.36494 7.91135 7.16868 7.9164 6.97242C7.91975 6.84233 7.9231 6.71223 7.92648 6.58214C7.93013 6.44126 7.93376 6.30038 7.93737 6.1595C7.93845 6.11832 7.93952 6.07714 7.94063 6.03471C7.94208 5.97814 7.94208 5.97814 7.94355 5.92042C7.94481 5.87169 7.94481 5.87169 7.9461 5.82197C7.94789 5.72924 7.94818 5.63661 7.94787 5.54386C7.42559 6.69303 6.90358 7.84234 6.3881 8.99508C6.18369 9.45215 5.97871 9.90892 5.77285 10.3652C5.74335 10.4307 5.71389 10.4961 5.68447 10.5616C5.4912 10.9915 5.29051 11.4163 5.08234 11.8381C5.03289 11.9385 4.98403 12.0392 4.93529 12.14C4.91984 12.1719 4.90438 12.2039 4.88846 12.2368C4.85566 12.3047 4.82288 12.3726 4.79011 12.4405C4.70333 12.6203 4.61616 12.7997 4.52777 12.9786C4.25467 13.533 4.00539 14.0976 3.7666 14.6701C3.75269 14.7033 3.73879 14.7365 3.72447 14.7708C3.23904 15.8447 3.23904 15.8447 3.21802 16.9889C3.29845 17.1917 3.44043 17.2989 3.62621 17.38C3.85213 17.4689 4.09682 17.4722 4.33461 17.4848C4.36319 17.4864 4.39176 17.488 4.4212 17.4896C4.49096 17.4935 4.56073 17.4973 4.6305 17.5011C4.61403 17.5678 4.59745 17.6346 4.58082 17.7013C4.5716 17.7384 4.56238 17.7756 4.55288 17.8139C4.52683 17.9108 4.52683 17.9108 4.49227 17.9853C3.00982 17.9853 1.52737 17.9853 0 17.9853C0.0240993 17.8035 0.0468772 17.6684 0.103668 17.5011C0.137566 17.4978 0.171465 17.4946 0.206391 17.4913C0.978744 17.4086 1.5562 17.0827 2.04941 16.4361C2.34872 16.0193 2.55115 15.5266 2.77176 15.0587C2.8737 14.8432 2.98023 14.6306 3.08844 14.4186C3.12201 14.3528 3.15557 14.2869 3.18914 14.221C3.20492 14.1901 3.2207 14.1591 3.23695 14.1272C3.41598 13.7743 3.58829 13.418 3.75396 13.0577C4.00283 12.5184 4.26376 11.9853 4.52467 11.4526C4.70917 11.0759 4.89061 10.6975 5.07185 10.3189C5.15383 10.1477 5.23588 9.97645 5.31804 9.8053C5.66815 9.07581 6.01356 8.34388 6.35464 7.60943C6.40753 7.49557 6.46055 7.38179 6.51369 7.26807C6.79203 6.6723 7.0661 6.07518 7.32114 5.46733C7.33606 5.43189 7.33606 5.43189 7.35128 5.39574C7.63326 4.8041 7.63327 4.8041 7.63686 4.16562C7.5163 3.93924 7.34631 3.86512 7.11853 3.79312C6.92068 3.74644 6.71981 3.74348 6.51812 3.73492C6.48279 3.73331 6.44747 3.7317 6.41107 3.73005C6.32437 3.72611 6.23767 3.72231 6.15096 3.71862C6.17048 3.54328 6.20194 3.40477 6.25463 3.23438Z" fill="#FEFEFE"/>
<path d="M51.5917 6.92321C51.717 6.91622 51.717 6.91622 51.8336 6.92321C51.8339 6.94416 51.8342 6.96511 51.8346 6.98669C51.8599 8.34267 52.0238 9.69055 52.1697 11.0361C52.1813 11.1439 52.1928 11.2518 52.2043 11.3596C52.2226 11.5315 52.2413 11.7034 52.2604 11.8752C52.2674 11.9395 52.2744 12.0038 52.2812 12.0681C52.2906 12.1572 52.3006 12.2462 52.3106 12.3352C52.3146 12.3742 52.3146 12.3742 52.3186 12.4139C52.3378 12.5774 52.3766 12.7047 52.4556 12.8459C52.5325 12.9023 52.5325 12.9023 52.6284 12.8832C53.013 12.6492 53.1421 12.1256 53.2741 11.7052C53.2929 11.6464 53.3117 11.5876 53.3306 11.5288C53.3842 11.3609 53.4373 11.1928 53.4903 11.0247C53.5295 10.9004 53.5689 10.7762 53.6083 10.652C53.6958 10.3761 53.7831 10.1001 53.8702 9.82404C53.8913 9.75734 53.8913 9.75734 53.9128 9.6893C54.0038 9.4008 54.0939 9.112 54.1834 8.82295C54.1945 8.78734 54.2056 8.75173 54.2171 8.71504C54.2473 8.61776 54.2771 8.52032 54.3066 8.4228C54.3153 8.39507 54.324 8.36734 54.333 8.33877C54.3822 8.17365 54.4086 8.02987 54.3907 7.85445C54.2363 7.59619 53.9162 7.48463 53.6651 7.37253C53.6251 7.35417 53.5851 7.3358 53.544 7.31688C53.4463 7.27206 53.3484 7.22777 53.2504 7.18396C53.2504 7.15937 53.2504 7.13479 53.2504 7.10946C53.4631 7.10115 53.6758 7.09508 53.8886 7.09104C53.9609 7.08936 54.0333 7.08707 54.1056 7.08417C54.2098 7.08008 54.3138 7.07819 54.418 7.07672C54.4502 7.07499 54.4824 7.07326 54.5155 7.07147C54.6099 7.0714 54.6817 7.07592 54.7708 7.10946C54.863 7.20882 54.9189 7.32046 54.9782 7.4447C55.0027 7.48853 55.0275 7.5322 55.0527 7.57563C55.0753 7.61718 55.098 7.65872 55.1214 7.70152C55.1404 7.73622 55.1404 7.73622 55.1598 7.77162C55.1868 7.82095 55.2138 7.87031 55.2408 7.91969C55.3134 8.05275 55.3864 8.18562 55.4594 8.31847C55.4742 8.34542 55.489 8.37237 55.5043 8.40013C55.6439 8.65399 55.7859 8.90624 55.9285 9.1582C56.1523 9.55389 56.3726 9.95173 56.5916 10.3506C56.8209 10.7682 57.0532 11.1837 57.2877 11.5979C57.3107 11.6386 57.3337 11.6793 57.3574 11.7212C57.3777 11.7569 57.3979 11.7926 57.4188 11.8294C57.4662 11.9147 57.4662 11.9147 57.5008 11.9892C57.7612 11.1641 58.01 10.3351 58.2551 9.50456C58.2781 9.42645 58.3012 9.34836 58.3243 9.27027C58.3615 9.14473 58.3985 9.01915 58.4355 8.89352C58.4556 8.82509 58.4759 8.75668 58.4961 8.68828C58.5625 8.46183 58.626 8.23462 58.685 8.00583C58.7023 7.93962 58.7023 7.93962 58.7198 7.87208C58.754 7.69487 58.7636 7.54288 58.7102 7.3702C58.6481 7.34125 58.6481 7.34125 58.572 7.3283C58.5304 7.31966 58.5304 7.31966 58.4879 7.31084C58.3549 7.28815 58.2222 7.27221 58.0882 7.25846C58.0882 7.20929 58.0882 7.16012 58.0882 7.10946C58.6698 7.10946 59.2514 7.10946 59.8506 7.10946C59.8506 7.15863 59.8506 7.2078 59.8506 7.25846C59.8057 7.25999 59.7608 7.26153 59.7145 7.26311C59.5196 7.28697 59.3697 7.37315 59.2286 7.5192C59.1225 7.7005 59.0565 7.87078 59.0031 8.07635C58.9872 8.13527 58.9713 8.19418 58.9554 8.2531C58.9471 8.28404 58.9389 8.31499 58.9304 8.34687C58.7769 8.92207 58.611 9.49198 58.4338 10.0592C58.4136 10.1241 58.3934 10.189 58.3732 10.2539C58.2922 10.5137 58.211 10.7734 58.1295 11.0331C58.0793 11.1933 58.0296 11.3537 57.9802 11.5143C57.9617 11.5741 57.943 11.6339 57.9241 11.6936C57.8981 11.7758 57.8728 11.8582 57.8475 11.9407C57.8331 11.9871 57.8186 12.0336 57.8037 12.0814C57.7625 12.2855 57.7889 12.4536 57.8832 12.6348C57.8971 12.6622 57.911 12.6896 57.9254 12.7178C57.9399 12.7455 57.9544 12.7732 57.9694 12.8017C57.9984 12.8577 58.0272 12.9139 58.056 12.97C58.0688 12.9945 58.0816 13.019 58.0948 13.0442C58.1228 13.1067 58.1228 13.1067 58.1228 13.1812C57.8891 13.2439 57.6589 13.2899 57.4317 13.1812C57.2089 12.9423 57.0775 12.6091 56.9403 12.3077C56.8554 12.1252 56.7589 11.9517 56.6606 11.7773C56.6244 11.7114 56.5882 11.6454 56.5521 11.5794C56.5233 11.527 56.5233 11.527 56.494 11.4735C56.4469 11.3877 56.3999 11.3018 56.3529 11.216C56.0443 10.652 55.7353 10.089 55.4068 9.53801C55.3544 9.44961 55.3025 9.36084 55.2507 9.27198C55.2235 9.22533 55.2235 9.22533 55.1958 9.17774C55.1619 9.1196 55.128 9.06144 55.0942 9.00326C54.998 8.83858 54.8992 8.67594 54.799 8.5141C54.7619 8.45422 54.7619 8.45422 54.724 8.39313C54.7053 8.36287 54.6865 8.33262 54.6672 8.30145C54.5558 8.65411 54.4446 9.00685 54.3336 9.35968C54.2821 9.52366 54.2304 9.68761 54.1787 9.85151C53.9679 10.5186 53.7598 11.1862 53.5687 11.8601C53.5577 11.8985 53.5577 11.8985 53.5465 11.9376C53.406 12.3644 53.406 12.3644 53.4167 12.804C53.4558 12.8878 53.4558 12.8878 53.5268 12.9577C53.6315 12.9887 53.7369 13.0124 53.8431 13.0367C53.9446 13.0704 53.9758 13.0994 54.0452 13.1812C53.0195 13.1852 51.9947 13.189 50.9697 13.1439C51.0512 13.052 51.1197 13.0028 51.2289 12.953C51.269 12.9344 51.269 12.9344 51.3099 12.9155C51.3685 12.8901 51.4281 12.8675 51.488 12.8459C51.6363 12.6015 51.6314 12.3479 51.6155 12.0683C51.5912 11.6076 51.5743 11.1465 51.5571 10.6854C50.8387 10.6854 50.1203 10.6854 49.3801 10.6854C49.3573 10.7469 49.3345 10.8084 49.311 10.8717C49.282 10.9223 49.2512 10.9718 49.2191 11.0201C49.2005 11.0484 49.1819 11.0766 49.1627 11.1058C49.1425 11.1361 49.1223 11.1664 49.1015 11.1976C48.8857 11.5255 48.6747 11.8566 48.4659 12.1896C48.4288 12.2487 48.3917 12.3077 48.3546 12.3668C48.3226 12.4179 48.3226 12.4179 48.2899 12.47C48.2398 12.5479 48.2398 12.5479 48.2052 12.5852C48.1922 12.7136 48.1922 12.7136 48.241 12.8272C48.3414 12.91 48.4553 12.9436 48.5745 12.9833C48.6109 12.9959 48.6109 12.9959 48.648 13.0087C48.7077 13.0292 48.7674 13.0494 48.8272 13.0694C48.8272 13.094 48.8272 13.1186 48.8272 13.1439C47.6983 13.1439 46.5693 13.1439 45.4062 13.1439C45.498 13.0779 45.5651 13.0468 45.6675 13.0089C46.0202 12.8582 46.2521 12.5967 46.4429 12.2499C46.6744 11.551 46.8656 10.8371 47.0649 10.1267C45.2517 10.1083 45.2517 10.1083 43.4019 10.0894C43.3791 10.2001 43.3563 10.3107 43.3328 10.4247C43.3112 10.5038 43.2883 10.5826 43.2642 10.6609C43.2509 10.7042 43.2377 10.7475 43.224 10.792C43.2099 10.8377 43.1958 10.8833 43.1812 10.9303C43.1665 10.9786 43.1518 11.0268 43.1371 11.0751C43.0752 11.2785 43.0131 11.4819 42.9504 11.685C42.9118 11.8099 42.8737 11.9349 42.8359 12.06C42.8145 12.1304 42.7926 12.2005 42.7707 12.2706C42.7578 12.3135 42.7448 12.3564 42.7315 12.4006C42.72 12.4382 42.7085 12.4757 42.6966 12.5144C42.6733 12.6381 42.6802 12.7245 42.7108 12.8459C42.7867 12.8958 42.7867 12.8958 42.8836 12.9204C42.9564 12.9529 43.0291 12.9855 43.1017 13.0182C43.1571 13.0431 43.1571 13.0431 43.2136 13.0686C43.2416 13.0811 43.2695 13.0937 43.2983 13.1067C43.2983 13.119 43.2983 13.1313 43.2983 13.1439C42.5456 13.1439 41.793 13.1439 41.0176 13.1439C41.175 13.0167 41.3075 12.9804 41.4947 12.9264C41.7561 12.824 41.8612 12.6166 41.9851 12.3617C42.0485 12.1988 42.1013 12.0328 42.1535 11.8654C42.1688 11.8172 42.1841 11.769 42.1995 11.7209C42.2404 11.5925 42.2807 11.464 42.3209 11.3355C42.3544 11.2286 42.3881 11.1218 42.4219 11.0149C42.6347 10.3414 42.8425 9.66606 43.0434 8.98824C43.0539 8.95295 43.0644 8.91765 43.0752 8.88128C43.1396 8.66367 43.2026 8.44565 43.2637 8.22695C43.2752 8.18619 43.2752 8.18619 43.287 8.14461C43.3082 8.06867 43.3286 7.99255 43.3488 7.91629C43.36 7.87433 43.3712 7.83236 43.3828 7.78913C43.4077 7.63171 43.4108 7.47533 43.3242 7.33994C43.1875 7.23997 43.0528 7.21061 42.8901 7.19792C42.8395 7.19375 42.8395 7.19375 42.7879 7.18949C42.7625 7.18766 42.737 7.18584 42.7108 7.18396C42.7222 7.13479 42.7336 7.08562 42.7454 7.03496C43.498 7.03496 44.2506 7.03496 45.0261 7.03496C45.0261 7.05954 45.0261 7.08413 45.0261 7.10946C44.9915 7.11719 44.9568 7.12492 44.9212 7.13288C44.5918 7.21249 44.4031 7.29343 44.2129 7.60622C43.8621 8.24868 43.6835 9.06709 43.4711 9.75419C44.6912 9.75419 45.9114 9.75419 47.1685 9.75419C47.1799 9.66815 47.1913 9.5821 47.2031 9.49344C47.2198 9.42836 47.2381 9.36375 47.2583 9.29984C47.2695 9.26404 47.2807 9.22824 47.2922 9.19135C47.3102 9.13453 47.3102 9.13453 47.3286 9.07657C47.3539 8.99526 47.3791 8.91394 47.4044 8.83262C47.4441 8.7052 47.4841 8.57784 47.5243 8.45057C47.5631 8.32723 47.6014 8.2037 47.6396 8.08013C47.6579 8.0232 47.6579 8.0232 47.6765 7.96512C47.7569 7.70873 47.7569 7.70873 47.7214 7.4447C47.6148 7.28096 47.4688 7.24494 47.2981 7.19327C47.2724 7.18506 47.2466 7.17685 47.2201 7.16839C47.157 7.14831 47.0936 7.12883 47.0303 7.10946C47.0303 7.09716 47.0303 7.08487 47.0303 7.07221C47.7943 7.07221 48.5584 7.07221 49.3456 7.07221C49.2005 7.17647 49.0455 7.20343 48.8772 7.24754C48.6653 7.33325 48.5631 7.50385 48.4471 7.70545C48.4141 7.78983 48.3839 7.8755 48.356 7.96198C48.3478 7.98706 48.3396 8.01214 48.3312 8.03799C48.304 8.12181 48.2773 8.2058 48.2506 8.28981C48.2311 8.35025 48.2117 8.41068 48.1923 8.47111C48.1269 8.67508 48.0623 8.87937 47.9979 9.0837C47.9861 9.12097 47.9743 9.15825 47.9622 9.19665C47.7018 10.021 47.4431 10.8464 47.2085 11.6798C47.1922 11.7377 47.1757 11.7955 47.1591 11.8533C47.0131 12.3444 47.0131 12.3444 47.0649 12.8459C47.1734 12.8993 47.2261 12.925 47.3413 12.9204C47.5672 12.792 47.7279 12.5239 47.8828 12.3122C47.9337 12.2432 47.9855 12.1749 48.0374 12.1068C48.2458 11.833 48.4502 11.5572 48.6448 11.2718C48.6963 11.1962 48.7481 11.1209 48.7998 11.0456C49.0578 10.6697 49.3129 10.2916 49.5663 9.91207C49.6225 9.82792 49.6789 9.7439 49.7354 9.6599C49.9174 9.3891 50.0982 9.11759 50.2764 8.8439C50.621 8.31572 50.9801 7.7994 51.3445 7.28694C51.3667 7.25564 51.389 7.22435 51.4119 7.1921C51.4316 7.16442 51.4513 7.13674 51.4717 7.10822C51.5135 7.04799 51.553 6.98582 51.5917 6.92321ZM51.2807 7.77995C51.2508 7.82268 51.2225 7.86673 51.1948 7.9112C51.177 7.93968 51.1592 7.96815 51.1408 7.9975C51.1117 8.04424 51.1117 8.04424 51.082 8.09192C50.9268 8.33892 50.7694 8.58381 50.6069 8.82528C50.5792 8.86638 50.5792 8.86638 50.551 8.90832C50.4948 8.99166 50.4385 9.07493 50.3822 9.1582C50.1569 9.49207 49.9325 9.82645 49.7149 10.1663C49.6985 10.1918 49.6821 10.2173 49.6652 10.2436C49.5878 10.3445 49.5878 10.3445 49.5529 10.4619C50.1915 10.4619 50.8301 10.4619 51.488 10.4619C51.4898 10.121 51.4898 10.121 51.4759 9.78309C51.4732 9.74358 51.4706 9.70406 51.4678 9.66335C51.4649 9.62236 51.462 9.58137 51.459 9.53913C51.4545 9.47391 51.4545 9.47391 51.45 9.40736C51.4437 9.31627 51.4373 9.22518 51.4309 9.1341C51.4211 8.99484 51.4115 8.85557 51.402 8.71629C51.3958 8.62739 51.3896 8.53848 51.3834 8.44958C51.3806 8.40813 51.3777 8.36669 51.3748 8.32399C51.3617 8.14086 51.3479 7.96053 51.3152 7.77995C51.3038 7.77995 51.2924 7.77995 51.2807 7.77995Z" fill="#FEFEFE"/>
<path d="M18.5212 6.58594C18.5613 6.71571 18.5494 6.74457 18.5087 6.87007C18.4974 6.90538 18.4862 6.94068 18.4745 6.97706C18.4619 7.01562 18.4492 7.05418 18.4361 7.0939C18.4166 7.15456 18.4166 7.15456 18.3967 7.21644C18.3535 7.35017 18.3099 7.48373 18.2663 7.61729C18.2361 7.71066 18.2059 7.80403 18.1757 7.89741C17.9622 8.55715 17.7458 9.21579 17.5287 9.87413C17.3561 10.3976 17.1864 10.922 17.018 11.447C16.8223 12.0571 16.6243 12.6663 16.4241 13.2746C16.3995 13.3492 16.375 13.4237 16.3505 13.4983C16.1589 14.0809 16.1589 14.0809 16.0685 14.3543C15.7636 15.2765 15.7636 15.2765 15.4846 16.208C15.4732 16.2469 15.4619 16.2857 15.4502 16.3257C15.3761 16.5962 15.3164 16.8926 15.4176 17.1626C15.7557 17.5772 16.3176 17.5368 16.7934 17.5746C16.7712 17.6484 16.7488 17.7221 16.7264 17.7958C16.714 17.8369 16.7016 17.8779 16.6888 17.9202C16.6552 18.0216 16.6552 18.0216 16.6206 18.0589C16.5506 18.0625 16.4805 18.0634 16.4105 18.0634C16.3772 18.0634 16.3772 18.0634 16.3433 18.0635C16.2684 18.0635 16.1935 18.0633 16.1186 18.0631C16.0652 18.0631 16.0117 18.0631 15.9583 18.0631C15.8127 18.0631 15.6671 18.0629 15.5216 18.0627C15.3696 18.0624 15.2176 18.0624 15.0657 18.0624C14.7777 18.0622 14.4897 18.0619 14.2018 18.0616C13.874 18.0611 13.5463 18.0609 13.2185 18.0608C12.5441 18.0604 11.8697 18.0597 11.1953 18.0589C11.2161 17.8888 11.2442 17.7361 11.299 17.5746C11.3275 17.573 11.3561 17.5713 11.3855 17.5696C11.4931 17.5631 11.6006 17.5561 11.7082 17.5489C11.7769 17.5445 11.8457 17.5404 11.9145 17.5364C12.2637 17.5127 12.5994 17.4868 12.858 17.2099C13.0688 16.9435 13.1577 16.5471 13.2648 16.2219C13.2806 16.1741 13.2965 16.1264 13.3123 16.0786C13.346 15.9773 13.3795 15.876 13.413 15.7747C13.466 15.6142 13.5192 15.4538 13.5725 15.2934C13.6357 15.1029 13.699 14.9123 13.7621 14.7217C13.8991 14.3083 14.0369 13.8952 14.175 13.4823C14.2374 13.2954 14.2999 13.1085 14.3623 12.9216C14.3746 12.885 14.3868 12.8483 14.3994 12.8106C14.5054 12.4933 14.6113 12.1759 14.717 11.8585C14.7838 11.6581 14.8508 11.4578 14.9181 11.2577C15.0292 10.9273 15.1395 10.5969 15.2424 10.2633C15.3965 9.76838 15.5467 9.35911 15.9039 8.99528C15.9683 8.92826 16.0283 8.85838 16.0884 8.78688C16.497 8.30068 16.936 7.84738 17.4154 7.44268C17.4636 7.40122 17.5118 7.35975 17.56 7.31827C17.8696 7.05344 18.1833 6.80727 18.5212 6.58594Z" fill="#FEFEFE"/>
<path d="M26.0337 7.02344C26.083 7.02345 26.1324 7.02387 26.1817 7.02462C26.2207 7.02478 26.2207 7.02478 26.2604 7.02494C26.3435 7.02536 26.4266 7.02629 26.5097 7.02724C26.566 7.02761 26.6223 7.02795 26.6786 7.02826C26.8167 7.02908 26.9548 7.03037 27.0929 7.0319C27.0929 7.05648 27.0929 7.08106 27.0929 7.10639C27.0441 7.13009 27.0441 7.13009 26.9943 7.15427C26.6451 7.32247 26.6451 7.32247 26.4017 7.62789C26.2883 7.96941 26.2084 8.32473 26.1222 8.67511C26.1089 8.72889 26.0956 8.78266 26.0822 8.83644C26.0469 8.97919 26.0117 9.12198 25.9764 9.26477C25.9105 9.53226 25.8444 9.79972 25.7782 10.0672C25.7673 10.1115 25.7673 10.1115 25.7561 10.1566C25.6601 10.5452 25.5624 10.9333 25.4627 11.3209C25.4413 11.404 25.42 11.4872 25.3987 11.5704C25.3693 11.6853 25.3397 11.8001 25.3096 11.9148C25.2826 12.0181 25.256 12.1215 25.2295 12.2249C25.2216 12.2545 25.2137 12.284 25.2055 12.3145C25.1643 12.4779 25.1466 12.6012 25.1923 12.7684C25.3552 12.949 25.5285 12.9956 25.756 13.0035C26.0283 12.9975 26.2318 12.9273 26.4363 12.7311C26.5965 12.4603 26.6926 12.1547 26.7805 11.8496C26.7985 11.7887 26.7985 11.7887 26.8169 11.7265C26.8559 11.5943 26.8945 11.4619 26.933 11.3296C26.9603 11.237 26.9876 11.1444 27.0149 11.0518C27.0639 10.8854 27.1129 10.7189 27.1617 10.5524C27.2478 10.2586 27.3346 9.96497 27.4219 9.67154C27.4344 9.6298 27.4468 9.58806 27.4596 9.54505C27.484 9.46313 27.5083 9.3812 27.5327 9.29928C27.6315 8.96741 27.6315 8.96741 27.7297 8.63536C27.779 8.46828 27.8289 8.30147 27.8802 8.13508C27.8899 8.10306 27.8996 8.07104 27.9096 8.03805C27.9278 7.9784 27.9462 7.91884 27.9649 7.8594C28.0156 7.69143 28.0441 7.54591 28.0259 7.36714C27.9615 7.26352 27.8942 7.23789 27.7836 7.21189C27.7574 7.20553 27.7312 7.19916 27.7043 7.19261C27.6771 7.18644 27.65 7.18027 27.622 7.17391C27.5944 7.16731 27.5669 7.16071 27.5385 7.1539C27.4707 7.1377 27.4027 7.122 27.3347 7.10639C27.3347 7.0941 27.3347 7.08181 27.3347 7.06914C28.6918 7.06914 30.0488 7.06914 31.4469 7.06914C31.3443 7.41333 31.2416 7.75752 31.1359 8.11214C31.1017 8.11214 31.0675 8.11214 31.0322 8.11214C31.0292 8.07666 31.0263 8.04117 31.0232 8.00461C31.0183 7.95789 31.0135 7.91117 31.0085 7.86303C31.0019 7.79367 31.0019 7.79367 30.9951 7.72291C30.9571 7.56585 30.9057 7.50606 30.7903 7.40439C30.5482 7.2884 30.2759 7.28672 30.0147 7.28508C29.988 7.28487 29.9613 7.28465 29.9337 7.28443C29.8777 7.28408 29.8216 7.28384 29.7656 7.2837C29.6802 7.28333 29.5949 7.28217 29.5095 7.281C29.4547 7.28076 29.4 7.28056 29.3452 7.28042C29.3199 7.27996 29.2947 7.2795 29.2686 7.27903C29.1049 7.27979 28.9939 7.31075 28.8552 7.40439C28.7255 7.57196 28.6762 7.74534 28.6241 7.9515C28.5283 8.31331 28.4197 8.66962 28.3078 9.02602C28.2326 9.26649 28.1607 9.50744 28.095 9.75113C28.2806 9.75392 28.4662 9.75593 28.6518 9.75727C28.7148 9.75783 28.7778 9.75859 28.8408 9.75956C29.4304 9.76844 29.7849 9.69745 30.2374 9.26688C30.1537 9.55502 30.0476 9.82997 29.9372 10.1073C29.9196 10.152 29.9019 10.1967 29.8837 10.2427C29.8405 10.3521 29.7971 10.4614 29.7537 10.5706C29.7309 10.5706 29.708 10.5706 29.6846 10.5706C29.6846 10.3985 29.6846 10.2264 29.6846 10.0491C29.5597 9.98184 29.5209 9.96517 29.3911 9.96275C29.3606 9.96201 29.3302 9.96127 29.2988 9.96051C29.2663 9.96008 29.2338 9.95965 29.2002 9.95921C29.1667 9.95849 29.1331 9.95776 29.0986 9.95702C28.9915 9.9548 28.8845 9.95307 28.7775 9.95135C28.7048 9.94993 28.6322 9.94847 28.5596 9.94698C28.3817 9.94341 28.2038 9.94028 28.0259 9.93738C27.7162 10.8756 27.7162 10.8756 27.4471 11.8278C27.4392 11.8582 27.4314 11.8887 27.4233 11.92C27.3264 12.3072 27.3264 12.3072 27.3758 12.6939C27.4419 12.8118 27.4618 12.8337 27.5766 12.8801C27.663 12.8916 27.663 12.8916 27.757 12.8903C27.7931 12.8907 27.8291 12.8911 27.8662 12.8914C27.905 12.8914 27.9438 12.8914 27.9838 12.8913C28.0441 12.8916 28.0441 12.8916 28.1057 12.8918C28.191 12.892 28.2763 12.892 28.3615 12.8919C28.4909 12.8918 28.6203 12.8926 28.7497 12.8936C28.8327 12.8937 28.9158 12.8937 28.9988 12.8936C29.0562 12.8942 29.0562 12.8942 29.1147 12.8947C29.7109 12.8909 30.1755 12.6722 30.597 12.2278C30.6702 12.1521 30.7422 12.0862 30.8249 12.0234C30.8477 12.0357 30.8705 12.048 30.894 12.0606C30.8707 12.1969 30.8163 12.2995 30.7515 12.4184C30.7299 12.4581 30.7083 12.4978 30.6861 12.5387C30.6635 12.5799 30.6409 12.6211 30.6176 12.6636C30.5949 12.7053 30.5723 12.7469 30.549 12.7898C30.3811 13.0978 30.3811 13.0978 30.3411 13.1409C30.2555 13.1445 30.1708 13.1457 30.0851 13.1453C30.0444 13.1454 30.0444 13.1454 30.0029 13.1454C29.9113 13.1455 29.8197 13.1453 29.7281 13.1451C29.6628 13.1451 29.5974 13.1451 29.532 13.1451C29.354 13.1451 29.1759 13.1449 28.9979 13.1446C28.812 13.1444 28.6261 13.1444 28.4403 13.1443C28.0881 13.1442 27.7358 13.1439 27.3836 13.1435C26.9828 13.1431 26.5819 13.1429 26.181 13.1427C25.3561 13.1424 24.5312 13.1417 23.7064 13.1409C23.7064 13.104 23.7064 13.0671 23.7064 13.0291C23.7483 13.0236 23.7483 13.0236 23.791 13.0181C23.8464 13.0097 23.8464 13.0097 23.9029 13.0012C23.9394 12.996 23.9759 12.9908 24.0135 12.9855C24.1418 12.9487 24.1982 12.9049 24.2938 12.8056C24.3352 12.7142 24.3674 12.6315 24.3972 12.536C24.4059 12.5096 24.4146 12.4832 24.4235 12.456C24.4501 12.3741 24.4758 12.292 24.5012 12.2096C24.5086 12.1855 24.5161 12.1614 24.5238 12.1366C24.5777 11.9607 24.6282 11.7838 24.6783 11.6066C24.6864 11.5779 24.6946 11.5491 24.7031 11.5195C25.0177 10.4129 25.3099 9.29881 25.6069 8.18664C25.5955 8.17435 25.5841 8.16205 25.5724 8.14939C25.3347 8.49582 25.0975 8.84265 24.864 9.19238C24.6104 9.57209 24.3524 9.94833 24.0944 10.3246C23.8773 10.6414 23.6608 10.9587 23.4472 11.2784C23.1369 11.7428 22.8216 12.2032 22.5034 12.6613C22.4858 12.6867 22.4682 12.712 22.45 12.7382C22.3284 12.9128 22.3284 12.9128 22.2896 12.9546C22.1973 12.9599 22.1056 12.9562 22.0131 12.9546C21.9833 12.6491 21.9686 12.3436 21.9578 12.0367C21.9549 11.9524 21.9518 11.868 21.9486 11.7837C21.9397 11.5441 21.9311 11.3045 21.9225 11.0649C21.9162 10.8889 21.9097 10.713 21.9031 10.537C21.9015 10.4939 21.9015 10.4939 21.8999 10.45C21.8833 10.0148 21.8596 9.58087 21.8276 9.14666C21.8124 8.93753 21.8024 8.73168 21.8058 8.52189C21.783 8.52189 21.7602 8.52189 21.7367 8.52189C21.7281 8.55234 21.7196 8.5828 21.7108 8.61418C21.6601 8.76808 21.5964 8.91067 21.5291 9.05677C21.5153 9.08692 21.5016 9.11706 21.4874 9.14812C21.4579 9.21296 21.4282 9.27777 21.3986 9.34256C21.3197 9.51488 21.2414 9.6875 21.1631 9.86012C21.1473 9.89501 21.1315 9.9299 21.1152 9.96585C20.7975 10.6669 20.4855 11.371 20.2011 12.0886C20.1854 12.128 20.1696 12.1675 20.1534 12.2082C20.0206 12.5133 20.0206 12.5133 20.0441 12.834C20.136 12.9459 20.2087 12.9575 20.3436 12.9849C20.3844 12.9936 20.4252 13.0023 20.4672 13.0112C20.4984 13.0171 20.5296 13.023 20.5618 13.0291C20.5618 13.066 20.5618 13.1029 20.5618 13.1409C19.9916 13.1409 19.4214 13.1409 18.834 13.1409C18.834 13.104 18.834 13.0671 18.834 13.0291C18.8632 13.0214 18.8924 13.0137 18.9225 13.0057C18.9617 12.9942 19.0009 12.9827 19.0413 12.9709C19.0798 12.9601 19.1183 12.9493 19.1579 12.9382C19.5617 12.7511 19.6976 12.3648 19.8771 11.9605C19.9062 11.8962 19.9354 11.832 19.9646 11.7677C20.0495 11.5803 20.1331 11.3922 20.2162 11.2039C20.2273 11.1788 20.2384 11.1537 20.2498 11.1279C20.3709 10.8535 20.489 10.5776 20.6059 10.3011C20.673 10.1428 20.741 9.98487 20.8089 9.82694C21.0424 9.28377 21.2742 8.73968 21.497 8.1913C21.5232 8.12795 21.5232 8.12795 21.55 8.06332C21.6647 7.7807 21.6647 7.7807 21.6676 7.47889C21.4947 7.27612 21.2586 7.24448 21.0153 7.21349C20.9796 7.20866 20.9796 7.20866 20.9432 7.20374C20.8852 7.19592 20.8272 7.18838 20.7691 7.18089C20.7805 7.14402 20.7919 7.10714 20.8037 7.06914C21.3054 7.06914 21.8072 7.06914 22.3241 7.06914C22.363 7.40438 22.363 7.40438 22.3705 7.56743C22.3731 7.62273 22.3731 7.62273 22.3758 7.67914C22.3775 7.71859 22.3793 7.75804 22.3811 7.79868C22.3831 7.84099 22.385 7.88331 22.3871 7.9269C22.3913 8.01834 22.3955 8.10978 22.3997 8.20122C22.4063 8.34587 22.413 8.49052 22.4198 8.63516C22.4365 8.99416 22.4531 9.35318 22.4696 9.7122C22.4835 10.0161 22.4976 10.3199 22.5118 10.6238C22.5184 10.7664 22.5249 10.909 22.5314 11.0517C22.5355 11.1388 22.5395 11.226 22.5436 11.3131C22.5454 11.3529 22.5471 11.3926 22.549 11.4336C22.5516 11.4882 22.5516 11.4882 22.5542 11.544C22.5557 11.5756 22.5571 11.6072 22.5586 11.6398C22.5657 11.7215 22.5799 11.7955 22.6006 11.8744C22.8151 11.5685 23.0278 11.2614 23.2355 10.9501C23.4505 10.628 23.6685 10.3083 23.8872 9.9892C23.9883 9.84165 24.0892 9.69395 24.1902 9.54626C24.3114 9.36881 24.4327 9.19139 24.5542 9.01414C24.751 8.72693 24.9469 8.43913 25.1404 8.14939C25.3028 7.90642 25.4662 7.66431 25.6307 7.42302C25.6515 7.39248 25.6722 7.36194 25.6936 7.33048C25.7129 7.30224 25.7322 7.27401 25.7521 7.24492C25.7691 7.21992 25.7862 7.19493 25.8037 7.16918C25.9015 7.0331 25.9015 7.0331 26.0337 7.02344Z" fill="#FEFEFE"/>
<path d="M34.6589 14.6328C34.6923 14.9256 34.7021 15.2181 34.7088 15.5127C34.7107 15.5965 34.7128 15.6804 34.7149 15.7642C34.7202 15.9721 34.7252 16.18 34.7301 16.3879C34.7343 16.5643 34.7387 16.7407 34.7432 16.9171C34.7452 16.9993 34.7471 17.0815 34.749 17.1637C34.7502 17.2144 34.7515 17.2652 34.7528 17.3159C34.7538 17.3599 34.7549 17.4038 34.756 17.4491C34.7627 17.5799 34.7782 17.707 34.7971 17.8363C35.0095 17.904 35.1964 17.9372 35.4077 17.8487C35.6985 17.6692 35.7952 17.0218 35.8964 16.6955C35.9178 16.627 35.9393 16.5585 35.9607 16.4901C36.0129 16.3233 36.0648 16.1565 36.1167 15.9896C36.1568 15.8606 36.1973 15.7318 36.2378 15.6029C36.2629 15.5225 36.2881 15.442 36.3132 15.3615C36.3245 15.3254 36.3358 15.2894 36.3475 15.2522C36.3575 15.22 36.3675 15.1877 36.3777 15.1545C36.3862 15.1271 36.3947 15.0998 36.4035 15.0716C36.4244 15.0049 36.4244 15.0049 36.4212 14.9308C36.377 14.9277 36.3328 14.9247 36.2873 14.9215C36.2109 14.9117 36.2109 14.9117 36.1448 14.8936C36.0929 14.8167 36.0929 14.8167 36.0756 14.7446C36.2139 14.67 36.3836 14.6907 36.5357 14.6864C36.5718 14.684 36.608 14.6817 36.6452 14.6793C36.6802 14.6785 36.7152 14.6777 36.7512 14.6769C36.7832 14.6756 36.8151 14.6743 36.8481 14.6729C36.9981 14.7294 37.0414 14.8585 37.1123 15.0053C37.129 15.0394 37.1456 15.0735 37.1628 15.1086C37.2198 15.2278 37.2755 15.3477 37.3309 15.4679C37.3613 15.5336 37.3613 15.5336 37.3924 15.6006C37.4351 15.6926 37.4777 15.7848 37.5202 15.877C37.5745 15.9948 37.6291 16.1125 37.6837 16.2301C37.736 16.3431 37.7883 16.4561 37.8406 16.5691C37.8698 16.6322 37.8698 16.6322 37.8997 16.6967C37.9269 16.7556 37.9269 16.7556 37.9546 16.8157C37.9784 16.8674 37.9784 16.8674 38.0028 16.92C38.0437 17.0131 38.08 17.107 38.1144 17.2031C38.1373 17.2031 38.1601 17.2031 38.1836 17.2031C38.1925 17.1554 38.2015 17.1077 38.2107 17.0586C38.2506 16.8653 38.3089 16.6824 38.3716 16.4965C38.3948 16.4261 38.4181 16.3557 38.4413 16.2853C38.4777 16.1759 38.5141 16.0666 38.5507 15.9573C38.5863 15.8508 38.6215 15.7441 38.6567 15.6374C38.6676 15.6051 38.6786 15.5729 38.6898 15.5397C38.757 15.3349 38.7904 15.1475 38.8056 14.9308C38.7749 14.9254 38.7443 14.9201 38.7127 14.9145C38.6165 14.8969 38.521 14.8775 38.4254 14.8563C38.4254 14.8071 38.4254 14.758 38.4254 14.7073C38.7904 14.7073 39.1553 14.7073 39.5312 14.7073C39.5426 14.7565 39.554 14.8057 39.5658 14.8563C39.5302 14.8609 39.4945 14.8655 39.4578 14.8703C39.3321 14.8921 39.2322 14.911 39.1166 14.9681C39.0525 15.071 39.0525 15.071 39.0109 15.1994C39.0024 15.2226 38.9939 15.2458 38.9852 15.2697C38.9589 15.3426 38.9339 15.4159 38.9092 15.4896C38.8943 15.5338 38.8794 15.578 38.8641 15.6235C38.8193 15.7603 38.7764 15.8976 38.7339 16.0352C38.7182 16.0855 38.7025 16.1359 38.6867 16.1862C38.6459 16.3169 38.6052 16.4477 38.5646 16.5786C38.4994 16.7887 38.4339 16.9987 38.3683 17.2087C38.3457 17.2813 38.3232 17.3539 38.3006 17.4265C38.2306 17.6517 38.1591 17.8755 38.0799 18.097C38.0343 18.097 37.9887 18.097 37.9417 18.097C37.4992 17.1185 37.06 16.1385 36.6285 15.1543C36.4868 15.5017 36.3699 15.8562 36.2565 16.2152C36.2269 16.309 36.1969 16.4026 36.1669 16.4962C35.9562 17.1324 35.9562 17.1324 35.9029 17.799C36.028 17.8546 36.1543 17.9029 36.283 17.948C36.2716 17.9849 36.2602 18.0218 36.2484 18.0598C35.4388 18.0598 34.6291 18.0598 33.795 18.0598C33.8064 18.0106 33.8178 17.9615 33.8295 17.9108C33.8657 17.9047 33.8657 17.9047 33.9027 17.8984C33.9341 17.8925 33.9656 17.8866 33.998 17.8805C34.0449 17.8721 34.0449 17.8721 34.0927 17.8635C34.187 17.8426 34.187 17.8426 34.2442 17.7245C34.2537 17.6235 34.2537 17.6235 34.2509 17.5099C34.2507 17.4683 34.2505 17.4266 34.2503 17.3837C34.2497 17.3402 34.2491 17.2967 34.2485 17.2519C34.2482 17.208 34.2479 17.1641 34.2476 17.1189C34.2467 17.0103 34.2456 16.9018 34.2442 16.7933C34.0782 16.7885 33.9125 16.7864 33.7464 16.7867C33.6901 16.7865 33.6338 16.7855 33.5775 16.7837C33.2304 16.7689 33.2304 16.7689 32.9235 16.9184C32.8364 17.0214 32.7624 17.1257 32.6892 17.2403C32.6422 17.3006 32.5948 17.3604 32.5466 17.4196C32.434 17.5642 32.4473 17.5851 32.4473 17.799C32.5841 17.8359 32.721 17.8728 32.8619 17.9108C32.8619 17.96 32.8619 18.0091 32.8619 18.0598C32.6079 18.0626 32.3539 18.0646 32.0999 18.0659C32.0135 18.0665 31.927 18.0673 31.8406 18.0682C31.7165 18.0696 31.5924 18.0702 31.4682 18.0707C31.4295 18.0713 31.3907 18.0719 31.3507 18.0725C31.2968 18.0725 31.2968 18.0725 31.2418 18.0725C31.2101 18.0727 31.1784 18.073 31.1457 18.0732C31.0479 18.0569 31.0205 18.0321 30.9614 17.948C30.9173 17.8507 30.8767 17.7543 30.8379 17.6546C30.8265 17.626 30.8151 17.5974 30.8034 17.5679C30.7795 17.5075 30.7558 17.4471 30.7321 17.3867C30.6958 17.2939 30.659 17.2014 30.6222 17.1088C30.599 17.0502 30.5759 16.9915 30.5528 16.9328C30.5418 16.9051 30.5307 16.8773 30.5194 16.8487C30.443 16.653 30.443 16.653 30.443 16.5698C30.424 16.5759 30.4049 16.582 30.3853 16.5883C30.2956 16.6092 30.215 16.6107 30.1234 16.6094C30.0926 16.609 30.0617 16.6087 30.03 16.6084C30.0066 16.6079 29.9833 16.6075 29.9592 16.6071C29.9549 16.6335 29.9505 16.6599 29.946 16.6871C29.9242 16.7957 29.8945 16.8968 29.8608 17.0018C29.8423 17.0604 29.8423 17.0604 29.8234 17.1202C29.7973 17.202 29.7711 17.2838 29.7448 17.3655C29.7325 17.4045 29.7202 17.4435 29.7075 17.4837C29.6961 17.5192 29.6848 17.5547 29.6731 17.5913C29.6421 17.6946 29.6421 17.6946 29.6482 17.8363C29.7276 17.8791 29.7891 17.885 29.8772 17.8945C29.9195 17.8992 29.9195 17.8992 29.9628 17.904C29.9844 17.9062 30.0061 17.9085 30.0284 17.9108C30.0398 17.96 30.0512 18.0091 30.0629 18.0598C29.5726 18.0598 29.0822 18.0598 28.577 18.0598C28.5941 17.986 28.5941 17.986 28.6116 17.9108C28.6395 17.9097 28.6674 17.9087 28.6962 17.9076C28.7331 17.904 28.7701 17.9005 28.8081 17.8968C28.8628 17.8929 28.8628 17.8929 28.9187 17.889C29.1098 17.7954 29.1643 17.5605 29.2372 17.3574C29.2752 17.2429 29.3114 17.1279 29.3471 17.0126C29.3603 16.9704 29.3736 16.9283 29.3872 16.8849C29.4291 16.7512 29.4706 16.6174 29.5122 16.4837C29.5402 16.3943 29.5682 16.305 29.5962 16.2157C29.6233 16.129 29.6504 16.0423 29.6775 15.9556C29.6961 15.8963 29.6961 15.8963 29.715 15.8359C29.7507 15.7206 29.786 15.6051 29.821 15.4896C29.8345 15.4453 29.848 15.4011 29.8619 15.3555C29.8749 15.3117 29.8879 15.268 29.9013 15.223C29.9132 15.1831 29.9251 15.1432 29.9374 15.1021C29.9692 15.0067 29.9692 15.0067 29.9247 14.9308C29.8304 14.9235 29.7361 14.9166 29.6418 14.9099C29.6152 14.9078 29.5886 14.9057 29.5612 14.9035C29.4865 14.8983 29.4121 14.8954 29.3372 14.8936C29.3053 14.8925 29.2734 14.8914 29.2405 14.8902C29.0476 14.9932 28.9862 15.3817 28.9211 15.5889C28.9088 15.6282 28.8966 15.6676 28.884 15.7081C28.857 15.7934 28.8301 15.8787 28.8031 15.9641C28.7613 16.097 28.7195 16.2299 28.678 16.363C28.6376 16.4925 28.5966 16.6218 28.5557 16.7511C28.5436 16.7903 28.5315 16.8295 28.519 16.8699C28.3889 17.2787 28.2283 17.7249 27.8523 17.9294C27.5733 18.0581 27.3533 18.1045 27.0522 18.1064C27.0211 18.1071 26.99 18.1079 26.958 18.1087C26.6077 18.1109 26.2846 18.0192 26.0199 17.7618C25.9113 17.6094 25.8579 17.4473 25.8685 17.2527C25.9456 16.7424 26.1461 16.241 26.3045 15.755C26.3375 15.6537 26.3701 15.5524 26.4027 15.451C26.4179 15.4048 26.4179 15.4048 26.4334 15.3576C26.4803 15.2112 26.5174 15.0882 26.5036 14.9308C26.482 14.9299 26.4604 14.9289 26.438 14.9279C26.3957 14.9247 26.3957 14.9247 26.3525 14.9215C26.3244 14.9198 26.2963 14.918 26.2674 14.9163C26.1926 14.8936 26.1926 14.8936 26.1481 14.8173C26.1359 14.7813 26.1359 14.7813 26.1235 14.7446C26.1581 14.7073 26.1581 14.7073 26.2921 14.7031C26.3518 14.7031 26.4116 14.7033 26.4714 14.7037C26.5028 14.7037 26.5342 14.7038 26.5665 14.7038C26.6672 14.704 26.7679 14.7045 26.8686 14.705C26.9367 14.7052 27.0048 14.7053 27.0729 14.7055C27.2403 14.7059 27.4076 14.7065 27.5749 14.7073C27.592 14.7811 27.592 14.7811 27.6094 14.8563C27.5051 14.9125 27.3968 14.906 27.2814 14.9131C27.1777 14.9343 27.1347 14.9665 27.0565 15.0426C27.0141 15.1284 27.0141 15.1284 26.9849 15.2283C26.9726 15.2661 26.9604 15.3039 26.9478 15.3429C26.9351 15.3838 26.9225 15.4246 26.9094 15.4667C26.896 15.5088 26.8825 15.551 26.8687 15.5944C26.8403 15.6836 26.8121 15.7728 26.7842 15.8622C26.7415 15.9984 26.6983 16.1343 26.655 16.2703C26.6274 16.3571 26.5999 16.4439 26.5725 16.5307C26.5597 16.5711 26.5469 16.6116 26.5337 16.6533C26.358 17.1431 26.358 17.1431 26.4086 17.6407C26.5375 17.8193 26.6779 17.8795 26.8838 17.9108C27.2621 17.936 27.5615 17.911 27.881 17.6845C28.0716 17.4997 28.1631 17.2828 28.2432 17.0268C28.2532 16.9959 28.2632 16.965 28.2735 16.9331C28.2946 16.8677 28.3154 16.8022 28.3361 16.7367C28.3669 16.6391 28.3983 16.5418 28.4298 16.4444C28.5355 16.1157 28.636 15.7854 28.7305 15.4527C28.7394 15.4218 28.7484 15.3908 28.7576 15.3589C28.7984 15.2126 28.8307 15.0855 28.8189 14.9308C28.7825 14.9254 28.7462 14.9201 28.7088 14.9145C28.6062 14.8982 28.5055 14.8795 28.4042 14.8563C28.4042 14.8071 28.4042 14.758 28.4042 14.7073C28.8095 14.7047 29.2147 14.7027 29.6199 14.7015C29.8081 14.7009 29.9963 14.7002 30.1844 14.6989C30.3662 14.6977 30.5479 14.697 30.7296 14.6967C30.7988 14.6965 30.868 14.6961 30.9372 14.6955C31.0344 14.6947 31.1316 14.6946 31.2288 14.6946C31.2572 14.6942 31.2856 14.6938 31.3149 14.6934C31.5454 14.6947 31.7243 14.7514 31.9225 14.8842C32.0414 15.0161 32.0956 15.1357 32.1075 15.3167C32.0956 15.6242 31.9584 15.8438 31.7562 16.053C31.5193 16.2574 31.2142 16.3991 30.9268 16.4953C30.9366 16.5204 30.9463 16.5456 30.9563 16.5715C31.0012 16.6873 31.0461 16.8032 31.091 16.919C31.1063 16.9585 31.1216 16.9981 31.1374 17.0388C31.1525 17.0779 31.1677 17.117 31.1833 17.1574C31.2058 17.2156 31.2058 17.2156 31.2288 17.275C31.2812 17.4124 31.331 17.5508 31.38 17.6896C31.4087 17.7684 31.4087 17.7684 31.4797 17.8363C31.6233 17.8662 31.7647 17.8668 31.8986 17.7993C32.1597 17.5988 32.3601 17.3116 32.5596 17.0447C32.7012 16.8557 32.8527 16.6792 33.0072 16.5025C33.1192 16.3735 33.226 16.2423 33.3284 16.1042C33.4859 15.8922 33.6571 15.6957 33.8292 15.4977C34.0371 15.2586 34.23 15.0088 34.4198 14.7529C34.5049 14.6465 34.5281 14.6328 34.6589 14.6328ZM30.4776 14.9681C30.4309 15.0707 30.3986 15.1774 30.3658 15.286C30.3512 15.3326 30.3512 15.3326 30.3362 15.3802C30.3051 15.4794 30.2747 15.5787 30.2443 15.6781C30.2234 15.7452 30.2023 15.8123 30.1813 15.8793C30.1614 15.943 30.1416 16.0068 30.1218 16.0706C30.1124 16.1008 30.103 16.131 30.0933 16.1622C30.0456 16.307 30.0456 16.307 30.0284 16.4581C30.5529 16.432 31.0533 16.3331 31.4234 15.9003C31.5744 15.6978 31.6028 15.5039 31.5954 15.2509C31.5779 15.1099 31.5368 15.0322 31.4451 14.9308C31.2709 14.8483 31.1093 14.8438 30.9225 14.8447C30.8811 14.8438 30.8811 14.8438 30.8389 14.8429C30.8123 14.8428 30.7856 14.8428 30.7581 14.8428C30.7341 14.8427 30.71 14.8426 30.6853 14.8424C30.5864 14.8622 30.5483 14.8892 30.4776 14.9681ZM34.1751 15.3778C34.1162 15.4428 34.0589 15.5085 34.0023 15.5757C33.9852 15.5959 33.9681 15.6161 33.9505 15.6369C33.8143 15.7989 33.6853 15.9665 33.5582 16.1369C33.4615 16.2641 33.3598 16.3858 33.257 16.5072C33.2038 16.5608 33.2038 16.5608 33.2075 16.6071C33.5496 16.6071 33.8917 16.6071 34.2442 16.6071C34.2328 16.2014 34.2214 15.7958 34.2096 15.3778C34.1982 15.3778 34.1868 15.3778 34.1751 15.3778Z" fill="#FEFEFE"/>
<path d="M31.9984 7.0319C32.3679 7.02843 32.7374 7.02579 33.1069 7.02418C33.2786 7.0234 33.4502 7.02236 33.6218 7.02066C33.7878 7.01902 33.9539 7.01814 34.1199 7.01776C34.1828 7.01749 34.2458 7.01696 34.3087 7.01614C34.8714 7.00918 35.4698 7.06765 35.9175 7.48151C36.1295 7.72003 36.2152 7.94974 36.2293 8.27744C36.2182 8.63456 36.0697 8.94456 35.8341 9.19239C35.3826 9.57541 34.8242 9.79635 34.2791 9.97463C34.2983 10.0031 34.3176 10.0316 34.3374 10.0609C34.3638 10.1008 34.3901 10.1407 34.4173 10.1818C34.443 10.2203 34.4686 10.2588 34.495 10.2984C34.7925 10.782 34.9934 11.3208 35.1973 11.8551C35.4324 12.4905 35.4324 12.4905 35.9029 12.9283C36.0483 12.9834 36.2003 13.0066 36.3524 13.0291C36.341 13.0537 36.3296 13.0783 36.3179 13.1036C36.1185 13.1609 35.9072 13.1683 35.7023 13.1874C35.6626 13.1918 35.6228 13.1961 35.5819 13.2005C35.5236 13.2059 35.5236 13.2059 35.4641 13.2113C35.4115 13.2165 35.4115 13.2165 35.3578 13.2218C35.212 13.2134 35.0939 13.1905 34.9702 13.1036C34.899 13.0051 34.8577 12.8983 34.8141 12.7832C34.7945 12.7351 34.7945 12.7351 34.7746 12.686C34.7467 12.6174 34.7194 12.5486 34.6924 12.4796C34.6503 12.372 34.6071 12.2649 34.5635 12.1579C34.506 12.0165 34.4488 11.875 34.392 11.7333C34.2928 11.4865 34.1893 11.2422 34.0825 10.999C34.0676 10.9638 34.0527 10.9286 34.0373 10.8924C33.9054 10.5926 33.7355 10.2734 33.4497 10.1236C33.37 10.1085 33.37 10.1085 33.2892 10.1127C33.2456 10.1133 33.2456 10.1133 33.2012 10.1138C33.1713 10.1147 33.1414 10.1157 33.1106 10.1166C33.0801 10.1172 33.0496 10.1177 33.0181 10.1182C32.9431 10.1195 32.8681 10.1215 32.7932 10.1236C32.3249 11.3181 32.3249 11.3181 32.0934 12.5635C32.0925 12.5985 32.0916 12.6334 32.0907 12.6694C32.1046 12.7909 32.1216 12.8347 32.2057 12.9174C32.2951 12.9499 32.3777 12.9752 32.4692 12.9965C32.5553 13.0174 32.6391 13.0404 32.7241 13.0664C32.7355 13.091 32.7469 13.1155 32.7586 13.1409C31.9946 13.1409 31.2305 13.1409 30.4434 13.1409C30.5742 13.0468 30.7139 13.01 30.8649 12.9689C31.0735 12.9019 31.1951 12.7819 31.3073 12.5821C31.4026 12.36 31.4695 12.1251 31.5405 11.893C31.5625 11.8229 31.5845 11.7528 31.6066 11.6828C31.6544 11.5307 31.7019 11.3786 31.749 11.2263C31.8292 10.968 31.9111 10.7103 31.9931 10.4526C32.3415 9.35747 32.3415 9.35747 32.6758 8.25724C32.6904 8.20786 32.7053 8.15853 32.7202 8.10925C32.7402 8.04354 32.7594 7.97759 32.7786 7.91163C32.7891 7.87614 32.7995 7.84065 32.8103 7.80409C32.8309 7.68383 32.821 7.59705 32.7932 7.4789C32.6629 7.29028 32.5204 7.24606 32.318 7.19254C32.222 7.1661 32.1278 7.13767 32.0329 7.1064C32.0158 7.06952 32.0158 7.06952 31.9984 7.0319ZM33.639 7.35718C33.5788 7.45685 33.5446 7.55333 33.508 7.66558C33.4932 7.71095 33.4783 7.75631 33.4629 7.80305C33.447 7.85253 33.4311 7.90201 33.4152 7.9515C33.3986 8.00249 33.382 8.05348 33.3655 8.10447C33.2392 8.49412 33.116 8.88495 32.994 9.2762C32.9856 9.30309 32.9772 9.32998 32.9685 9.35769C32.9447 9.43387 32.921 9.51013 32.8975 9.58642C32.884 9.62998 32.8705 9.67355 32.8566 9.71843C32.8229 9.82492 32.8229 9.82492 32.8277 9.93738C33.6151 9.97195 34.4759 9.85671 35.0849 9.26325C35.3275 8.98969 35.4254 8.73226 35.4367 8.35427C35.4267 8.02122 35.364 7.78507 35.1516 7.53943C34.8664 7.25701 34.5511 7.17577 34.1711 7.16926C34.1475 7.1686 34.124 7.16794 34.0997 7.16726C33.9148 7.16755 33.7646 7.20323 33.639 7.35718Z" fill="#FEFEFE"/>
<path d="M39.9705 6.94546C39.9948 6.94554 40.0191 6.94562 40.0441 6.94571C40.8732 6.9501 41.8892 7.11394 42.5039 7.7766C42.3671 8.07162 42.2302 8.36664 42.0893 8.6706C42.0778 8.6706 42.0664 8.6706 42.0547 8.6706C42.0534 8.62464 42.0534 8.62464 42.052 8.57776C42.0348 8.21371 41.9963 7.91761 41.7459 7.65554C41.197 7.17544 40.4447 7.08698 39.7628 7.15088C38.9017 7.25223 38.2445 7.64009 37.6716 8.34582C37.0899 9.135 36.8865 10.0978 36.9901 11.0872C37.0934 11.7107 37.4055 12.2074 37.8734 12.5795C38.5057 13.0213 39.2816 13.1248 40.0159 12.9869C40.536 12.8574 40.9066 12.4799 41.2845 12.0957C41.4259 11.9523 41.4259 11.9523 41.5018 11.9113C41.4521 12.1985 41.3654 12.4619 41.2599 12.7308C41.2449 12.7705 41.23 12.8102 41.2146 12.851C41.0873 13.0765 40.8057 13.1119 40.5816 13.177C40.2187 13.2649 39.8482 13.264 39.4781 13.2663C39.4528 13.2666 39.4274 13.2669 39.4013 13.2672C38.9129 13.2716 38.4319 13.2139 37.9685 13.0381C37.93 13.0239 37.93 13.0239 37.8908 13.0093C37.2156 12.7495 36.6504 12.2821 36.3389 11.578C36.1891 11.2114 36.1326 10.8673 36.1348 10.4679C36.135 10.4321 36.1352 10.3963 36.1353 10.3594C36.1482 9.51542 36.4674 8.78845 37.0095 8.18635C37.0303 8.16123 37.051 8.13612 37.0724 8.11025C37.4935 7.61802 38.1069 7.301 38.6941 7.11076C38.7161 7.10364 38.7381 7.09652 38.7607 7.08918C39.1588 6.96973 39.5591 6.94301 39.9705 6.94546Z" fill="#FEFEFE"/>
<path d="M60.3 6.66016C60.3457 6.66016 60.3913 6.66016 60.4383 6.66016C60.4854 6.73389 60.5314 6.80848 60.5765 6.88366C60.698 6.97913 60.7839 7.0095 60.9334 7.01085C60.9699 7.01143 61.0063 7.01202 61.0439 7.01262C61.1034 7.01272 61.1034 7.01272 61.1641 7.01282C61.2271 7.01356 61.2271 7.01356 61.2915 7.01432C61.4067 7.01551 61.5218 7.01619 61.637 7.01655C61.7092 7.01679 61.7814 7.01718 61.8535 7.01761C62.1059 7.01909 62.3583 7.01991 62.6107 7.0202C62.8449 7.0205 63.0791 7.02233 63.3133 7.02486C63.5151 7.02697 63.7169 7.02791 63.9187 7.02799C64.0389 7.02806 64.1591 7.02859 64.2792 7.03033C64.9988 7.04256 64.9988 7.04256 65.6217 6.69741C65.6445 6.69741 65.6673 6.69741 65.6908 6.69741C65.6179 7.04004 65.5419 7.38161 65.4597 7.72178C65.4523 7.75271 65.4449 7.78365 65.4372 7.81553C65.3839 8.03394 65.3839 8.03394 65.3452 8.07565C65.2876 8.07716 65.23 8.07724 65.1724 8.07565C65.1746 8.03186 65.1767 7.98807 65.1789 7.94295C65.1786 7.74154 65.1221 7.58783 65.004 7.43076C64.8286 7.28062 64.6604 7.28324 64.4461 7.28613C64.4016 7.28629 64.4016 7.28629 64.3562 7.28645C64.2618 7.28686 64.1675 7.2878 64.0731 7.28875C64.009 7.28912 63.9448 7.28946 63.8807 7.28977C63.7238 7.29058 63.5669 7.29187 63.4101 7.2934C63.0491 8.43487 62.6898 9.57688 62.341 10.7227C62.3283 10.7643 62.3156 10.8059 62.3025 10.8487C62.1774 11.2583 62.0547 11.6686 61.9413 12.0822C61.9325 12.1134 61.9237 12.1447 61.9146 12.1769C61.8633 12.3682 61.8406 12.5325 61.8551 12.7319C61.9584 12.892 62.062 12.943 62.2327 12.9801C62.2563 12.9842 62.28 12.9884 62.3043 12.9926C62.3279 12.9968 62.3515 13.0009 62.3758 13.0051C62.4325 13.0143 62.4893 13.0222 62.5462 13.0299C62.5576 13.0668 62.569 13.1036 62.5807 13.1416C62.0494 13.1837 61.5194 13.1832 60.9868 13.1812C60.8998 13.181 60.8127 13.1808 60.7256 13.1807C60.5147 13.1803 60.3037 13.1797 60.0927 13.1789C60.1532 13.0345 60.1532 13.0345 60.2309 12.9926C60.3028 12.9868 60.3749 12.9824 60.4469 12.9787C60.6431 12.9637 60.7802 12.9336 60.9378 12.8014C61.0175 12.6976 61.0545 12.5775 61.0977 12.4526C61.1077 12.4242 61.1177 12.3958 61.1281 12.3666C61.1613 12.272 61.194 12.1772 61.2266 12.0823C61.2437 12.0328 61.2437 12.0328 61.2612 11.9823C61.5318 11.1981 61.765 10.4023 61.9933 9.60289C62.0177 9.51763 62.0421 9.43237 62.0665 9.34711C62.1663 8.99843 62.2661 8.64972 62.3651 8.30079C62.3821 8.24103 62.3821 8.24103 62.3994 8.18006C62.4204 8.10584 62.4415 8.03161 62.4625 7.95736C62.5221 7.74738 62.5844 7.53861 62.6498 7.33065C62.4616 7.28868 62.2781 7.28677 62.0867 7.28584C62.0525 7.28562 62.0183 7.28541 61.9831 7.28519C61.911 7.28484 61.8389 7.2846 61.7667 7.28445C61.6572 7.28409 61.5477 7.28294 61.4382 7.28176C61.3679 7.28152 61.2975 7.28132 61.2271 7.28118C61.1948 7.28072 61.1624 7.28026 61.1291 7.27979C60.7965 7.28098 60.4954 7.36704 60.2309 7.5914C60.1509 7.68677 60.0897 7.78247 60.0236 7.8894C59.9894 7.87711 59.9552 7.86482 59.9199 7.85215C59.9391 7.59514 60.0246 7.36963 60.11 7.13044C60.1244 7.08928 60.1388 7.04813 60.1536 7.00574C60.2603 6.70295 60.2603 6.70295 60.3 6.66016Z" fill="#FEFEFE"/>
<path d="M58.258 14.705C58.3178 14.705 58.3775 14.7052 58.4373 14.7056C58.4687 14.7056 58.5001 14.7057 58.5325 14.7057C58.6332 14.7059 58.7339 14.7064 58.8346 14.7069C58.9027 14.7071 58.9708 14.7072 59.0389 14.7074C59.2062 14.7078 59.3735 14.7085 59.5408 14.7092C59.5579 14.783 59.5579 14.783 59.5754 14.8582C59.472 14.9139 59.3652 14.904 59.2507 14.9077C59.1259 14.9424 59.0607 15.0083 58.9879 15.119C58.9268 15.2635 58.8818 15.4128 58.8362 15.5638C58.8227 15.607 58.8092 15.6502 58.7953 15.6947C58.7525 15.8324 58.7104 15.9704 58.6683 16.1084C58.6394 16.2014 58.6105 16.2944 58.5816 16.3874C58.5289 16.5575 58.4762 16.7277 58.4242 16.898C58.4137 16.9322 58.4033 16.9664 58.3925 17.0016C58.3253 17.2329 58.3033 17.4482 58.3551 17.6869C58.4168 17.7914 58.463 17.8046 58.5732 17.8382C58.6331 17.8589 58.6331 17.8589 58.6942 17.8801C59.0516 17.9708 59.4244 17.9302 59.7556 17.7621C60.1739 17.4808 60.3067 16.7417 60.4499 16.2711C60.487 16.1497 60.5247 16.0286 60.5625 15.9075C60.5865 15.8295 60.6105 15.7515 60.6344 15.6735C60.6456 15.6377 60.6568 15.602 60.6683 15.5652C60.7324 15.3526 60.7691 15.1557 60.7848 14.9327C60.7485 14.9273 60.7121 14.922 60.6747 14.9164C60.5721 14.9001 60.4715 14.8814 60.3701 14.8582C60.3701 14.809 60.3701 14.7599 60.3701 14.7092C60.7889 14.7066 61.2076 14.7046 61.6264 14.7034C61.8208 14.7028 62.0153 14.7021 62.2097 14.7008C62.3975 14.6996 62.5853 14.6989 62.773 14.6986C62.8446 14.6984 62.9161 14.698 62.9876 14.6974C63.088 14.6966 63.1884 14.6965 63.2888 14.6965C63.3182 14.6961 63.3476 14.6957 63.3779 14.6953C63.6584 14.6969 63.8803 14.779 64.088 14.9876C64.2097 15.1296 64.2234 15.2874 64.2188 15.4741C64.1827 15.7301 64.0447 15.964 63.8693 16.1374C63.2911 16.5949 62.6127 16.6173 61.9252 16.609C61.9201 16.6312 61.915 16.6534 61.9098 16.6763C61.848 16.9341 61.7699 17.1823 61.6826 17.4311C61.6347 17.5718 61.6017 17.6857 61.6142 17.8382C61.6935 17.881 61.755 17.8869 61.8431 17.8964C61.8855 17.9011 61.8855 17.9011 61.9287 17.9059C61.9503 17.9081 61.972 17.9104 61.9943 17.9127C61.9943 17.9619 61.9943 18.011 61.9943 18.0617C61.5153 18.0617 61.0364 18.0617 60.5429 18.0617C60.56 17.9879 60.56 17.9879 60.5775 17.9127C60.6168 17.9066 60.6168 17.9066 60.657 17.9003C60.6913 17.8944 60.7257 17.8885 60.7611 17.8824C60.7951 17.8768 60.8292 17.8712 60.8643 17.8654C60.9677 17.8353 60.9945 17.8137 61.0613 17.7265C61.098 17.6424 61.098 17.6424 61.1268 17.546C61.1445 17.4909 61.1445 17.4909 61.1625 17.4347C61.1749 17.3949 61.1874 17.3551 61.2002 17.3141C61.2133 17.2728 61.2265 17.2314 61.2401 17.1888C61.2823 17.0562 61.324 16.9234 61.3658 16.7906C61.4072 16.66 61.4486 16.5294 61.4901 16.3989C61.517 16.314 61.5438 16.2292 61.5706 16.1442C61.6286 15.96 61.6872 15.7762 61.7493 15.5935C61.7641 15.55 61.7641 15.55 61.7791 15.5056C61.7968 15.4536 61.8147 15.4018 61.8331 15.35C61.8821 15.206 61.8991 15.0859 61.8906 14.9327C61.7689 14.8671 61.6317 14.8823 61.4975 14.8792C61.4677 14.8775 61.4378 14.8758 61.4071 14.874C61.3782 14.8735 61.3494 14.8729 61.3196 14.8723C61.2933 14.8714 61.2669 14.8705 61.2398 14.8695C61.1457 14.9021 61.1107 14.9531 61.0608 15.0432C60.987 15.2073 60.9377 15.3811 60.8857 15.5543C60.8589 15.6412 60.8321 15.7281 60.8053 15.8149C60.7638 15.9508 60.7224 16.0867 60.6811 16.2227C60.2505 17.6357 60.2505 17.6357 59.8518 17.9127C59.5721 18.0639 59.3273 18.1064 59.0181 18.1083C58.9871 18.109 58.956 18.1098 58.9239 18.1106C58.5975 18.1126 58.2741 18.0344 58.0203 17.801C57.9088 17.6673 57.838 17.5332 57.8281 17.3516C57.869 16.7998 58.0975 16.2544 58.2705 15.7389C58.3034 15.6405 58.336 15.542 58.3686 15.4434C58.3788 15.4136 58.3889 15.3837 58.3994 15.3529C58.447 15.2084 58.4831 15.0887 58.4696 14.9327C58.4479 14.9318 58.4263 14.9308 58.404 14.9298C58.3616 14.9266 58.3616 14.9266 58.3184 14.9234C58.2903 14.9217 58.2623 14.9199 58.2333 14.9182C58.1586 14.8955 58.1586 14.8955 58.114 14.8192C58.1019 14.7832 58.1019 14.7832 58.0895 14.7465C58.124 14.7092 58.124 14.7092 58.258 14.705ZM62.5126 14.8955C62.4152 15.0421 62.3625 15.2053 62.3081 15.3743C62.2991 15.402 62.29 15.4297 62.2807 15.4582C62.2617 15.5163 62.2428 15.5745 62.224 15.6328C62.1951 15.7221 62.1659 15.8113 62.1366 15.9006C62.1182 15.9572 62.0997 16.0138 62.0813 16.0704C62.0726 16.0972 62.0638 16.1239 62.0548 16.1514C62.0098 16.2839 62.0098 16.2839 61.9943 16.4227C62.108 16.426 62.2217 16.428 62.3355 16.4297C62.3672 16.4306 62.3989 16.4316 62.4316 16.4325C62.8236 16.437 63.1537 16.3203 63.4383 16.0229C63.6378 15.7835 63.7079 15.5837 63.6997 15.26C63.6835 15.1222 63.6493 15.0574 63.5493 14.97C63.2661 14.8252 62.8127 14.7979 62.5126 14.8955Z" fill="#FEFEFE"/>
<path d="M67.6025 6.90641C67.6434 6.90669 67.6843 6.90698 67.7264 6.90727C68.1738 6.91633 68.6049 7.0004 68.9739 7.29521C69.0085 7.40696 69.0085 7.40696 68.9775 7.49145C68.9614 7.52364 68.9453 7.55582 68.9287 7.58899C68.9028 7.64138 68.9028 7.64138 68.8764 7.69484C68.858 7.73121 68.8396 7.76759 68.8206 7.80506C68.8023 7.84187 68.784 7.87867 68.7652 7.91659C68.7199 8.00765 68.6743 8.0985 68.6284 8.1892C68.617 8.1892 68.6056 8.1892 68.5938 8.1892C68.5925 8.15727 68.5912 8.12534 68.5899 8.09244C68.5704 7.67776 68.5704 7.67776 68.3627 7.34177C68.1332 7.15699 67.8952 7.12646 67.6176 7.12991C67.5856 7.13022 67.5536 7.13053 67.5207 7.13085C67.1171 7.14155 66.8172 7.2558 66.5205 7.55596C66.2877 7.82005 66.2567 8.06766 66.2645 8.42318C66.3275 9.04471 66.925 9.52616 67.3159 9.9363C68.228 10.8952 68.228 10.8952 68.2828 11.5044C68.2868 11.9181 68.2029 12.311 67.9373 12.6219C67.3266 13.2311 66.4924 13.2842 65.7067 13.2619C65.2855 13.2383 64.9139 13.1129 64.5508 12.8827C64.6385 12.5518 64.785 12.2559 64.9309 11.9514C64.9827 11.9952 64.9827 11.9952 65.0346 12.0632C65.041 12.1533 65.041 12.1533 65.0346 12.2564C65.03 12.4757 65.0444 12.6577 65.1844 12.8267C65.4721 13.0816 65.8893 13.1006 66.244 13.0689C66.6958 13.0082 67.1106 12.8368 67.4008 12.4447C67.5644 12.1851 67.5911 11.927 67.5571 11.6162C67.4574 11.2348 67.1908 10.8593 66.9153 10.6064C65.6645 9.43494 65.6645 9.43494 65.615 8.67781C65.6086 8.2011 65.7064 7.85966 66.0075 7.50561C66.4446 7.04823 67.0084 6.90065 67.6025 6.90641Z" fill="#FEFEFE"/>
<path d="M51.1427 14.708C51.3942 14.7054 51.6456 14.7034 51.8971 14.7022C52.0139 14.7016 52.1306 14.7008 52.2474 14.6995C52.382 14.6982 52.5166 14.6976 52.6512 14.6971C52.7134 14.6962 52.7134 14.6962 52.7769 14.6953C53.0343 14.6953 53.289 14.7042 53.498 14.8837C53.5133 14.9056 53.5286 14.9275 53.5444 14.9501C53.5684 14.9829 53.5684 14.9829 53.593 15.0164C53.6802 15.1642 53.6879 15.3211 53.6653 15.4902C53.5525 15.8646 53.3132 16.0928 52.9972 16.2705C52.8316 16.36 52.6673 16.4364 52.4904 16.496C52.59 16.7585 52.691 17.0203 52.7936 17.2814C52.8279 17.3694 52.8613 17.4576 52.8942 17.5462C52.9704 17.7504 52.9704 17.7504 53.125 17.8797C53.2035 17.9 53.2738 17.9107 53.3543 17.9115C53.3543 17.9483 53.3543 17.9852 53.3543 18.0232C53.2748 18.109 53.0853 18.0691 52.9785 18.0698C52.9466 18.0705 52.9147 18.0713 52.8817 18.0721C52.8511 18.0723 52.8204 18.0725 52.7887 18.0727C52.7606 18.073 52.7324 18.0734 52.7033 18.0737C52.6093 18.057 52.5865 18.0256 52.525 17.9487C52.4928 17.8844 52.4928 17.8844 52.4656 17.8129C52.4553 17.7861 52.4449 17.7592 52.4342 17.7316C52.418 17.6885 52.418 17.6885 52.4015 17.6445C52.3901 17.6148 52.3788 17.5852 52.3671 17.5547C52.3309 17.4603 52.2951 17.3658 52.2593 17.2712C52.2349 17.2071 52.2104 17.143 52.1858 17.0789C52.1258 16.922 52.0662 16.7649 52.0066 16.6077C51.847 16.6077 51.6873 16.6077 51.5229 16.6077C51.514 16.6551 51.5052 16.7025 51.4961 16.7513C51.4482 16.9839 51.3709 17.2033 51.2945 17.4264C51.2839 17.458 51.2733 17.4896 51.2623 17.5222C51.2526 17.5505 51.243 17.5788 51.233 17.608C51.2056 17.698 51.2056 17.698 51.2119 17.837C51.2912 17.8797 51.3527 17.8857 51.4408 17.8952C51.469 17.8983 51.4973 17.9014 51.5264 17.9046C51.548 17.9069 51.5697 17.9091 51.592 17.9115C51.6034 17.9606 51.6148 18.0098 51.6265 18.0605C51.1362 18.0605 50.6458 18.0605 50.1406 18.0605C50.152 18.0113 50.1634 17.9621 50.1752 17.9115C50.2031 17.9104 50.231 17.9093 50.2598 17.9083C50.2967 17.9047 50.3337 17.9012 50.3717 17.8975C50.4264 17.8936 50.4264 17.8936 50.4823 17.8896C50.6786 17.7935 50.7327 17.5478 50.8074 17.3399C50.8553 17.1976 50.9015 17.0549 50.947 16.9118C50.9639 16.8593 50.9808 16.8067 50.9977 16.7541C51.0327 16.6448 51.0676 16.5354 51.1024 16.426C51.1469 16.2858 51.192 16.1458 51.2373 16.0059C51.2722 15.8978 51.3067 15.7896 51.3412 15.6813C51.3577 15.6296 51.3743 15.578 51.391 15.5263C51.4143 15.4545 51.437 15.3824 51.4597 15.3103C51.4728 15.2694 51.4859 15.2285 51.4993 15.1864C51.5226 15.0814 51.5234 15.0309 51.4883 14.9315C51.4667 14.9292 51.445 14.927 51.4227 14.9246C51.3945 14.9215 51.3662 14.9184 51.3371 14.9152C51.295 14.9106 51.295 14.9106 51.2521 14.906C51.1773 14.8942 51.1773 14.8942 51.1082 14.857C51.1196 14.8078 51.131 14.7586 51.1427 14.708ZM52.0412 15.006C51.9963 15.1078 51.9628 15.2127 51.9294 15.3194C51.9197 15.3496 51.9099 15.3798 51.8998 15.4109C51.8793 15.4745 51.859 15.5382 51.8388 15.602C51.8079 15.6998 51.7765 15.7974 51.7449 15.895C51.725 15.9569 51.7052 16.0188 51.6854 16.0807C51.6713 16.1246 51.6713 16.1246 51.6569 16.1695C51.6091 16.3109 51.6091 16.3109 51.592 16.4587C52.0748 16.4431 52.5254 16.356 52.9051 16.0117C53.0643 15.8052 53.1524 15.6357 53.1578 15.3668C53.1591 15.3247 53.1604 15.2826 53.1617 15.2392C53.1438 15.0911 53.1079 15.0343 53.0088 14.9315C52.8536 14.8313 52.6813 14.8433 52.5055 14.843C52.4762 14.8421 52.4468 14.8412 52.4165 14.8402C52.3881 14.8401 52.3597 14.84 52.3305 14.8398C52.3048 14.8395 52.2791 14.8392 52.2526 14.8389C52.1443 14.8657 52.1092 14.9111 52.0412 15.006Z" fill="#FEFEFE"/>
<path d="M56.9401 14.9701C57.2624 15.2704 57.41 15.5695 57.4591 16.0258C57.4847 16.5204 57.2993 16.9645 56.9995 17.3324C56.9484 17.389 56.8966 17.445 56.844 17.5001C56.816 17.5314 56.816 17.5314 56.7874 17.5633C56.3744 17.9906 55.807 18.1149 55.2567 18.1118C54.8137 18.0993 54.4824 17.9235 54.1573 17.6025C53.9152 17.327 53.8082 16.9766 53.8008 16.6024C53.8205 16.0619 54.057 15.5942 54.4163 15.2245C55.1035 14.5967 56.1801 14.3464 56.9401 14.9701ZM54.8736 15.2761C54.4881 15.73 54.2885 16.359 54.3083 16.9703C54.3431 17.2887 54.4736 17.5531 54.7015 17.7608C55.0008 17.9488 55.3161 17.9937 55.6572 17.9299C56.0573 17.8139 56.3973 17.5573 56.6062 17.1671C56.8687 16.6342 57.0482 16.0859 56.9131 15.4769C56.8273 15.2145 56.6527 15.0008 56.4228 14.8739C55.8614 14.6465 55.2831 14.8264 54.8736 15.2761Z" fill="#FEFEFE"/>
<path d="M49.8918 14.6261C49.9289 14.6257 49.9661 14.6254 50.0043 14.625C50.2115 14.6259 50.391 14.6449 50.5894 14.7099C50.6491 14.898 50.5705 15.0283 50.4987 15.2011C50.4809 15.2476 50.4809 15.2476 50.4627 15.295C50.4285 15.3783 50.3956 15.4545 50.3475 15.5294C50.2517 15.5685 50.2517 15.5685 50.1747 15.5666C50.1335 15.4333 50.1534 15.3694 50.1747 15.2314C50.1778 15.1196 50.1768 15.008 50.1747 14.8961C49.5904 14.7049 48.9588 14.8966 48.4322 15.1893C47.9508 15.4686 47.5576 15.8868 47.3885 16.4598C47.3238 16.8403 47.3798 17.1477 47.583 17.4664C47.7931 17.7294 48.0614 17.8687 48.3778 17.9134C48.7603 17.9473 48.7603 17.9473 49.1035 17.8016C49.1677 17.6964 49.2034 17.5849 49.2417 17.4664C49.2571 17.4234 49.2725 17.3805 49.2884 17.3363C49.3945 17.0375 49.3945 17.0375 49.4145 16.7214C49.3005 16.6968 49.1864 16.6722 49.0689 16.6469C49.0518 16.5731 49.0518 16.5731 49.0344 16.4979C49.4905 16.4979 49.9467 16.4979 50.4166 16.4979C50.4166 16.547 50.4166 16.5962 50.4166 16.6469C50.3929 16.651 50.3691 16.655 50.3447 16.6592C50.3135 16.6652 50.2824 16.6711 50.2503 16.6771C50.2195 16.6828 50.1886 16.6884 50.1568 16.6942C50.058 16.7255 50.0312 16.7471 49.9674 16.8331C49.9241 16.946 49.9241 16.946 49.8878 17.0764C49.8732 17.1248 49.8585 17.1731 49.8439 17.2215C49.8213 17.2974 49.7989 17.3734 49.7768 17.4495C49.7553 17.5233 49.733 17.5967 49.7107 17.6701C49.6977 17.714 49.6848 17.758 49.6715 17.8033C49.6131 17.9328 49.5698 17.9673 49.4491 18.0251C48.9108 18.2132 48.1743 18.1724 47.6522 17.9506C47.6198 17.9371 47.5875 17.9236 47.5542 17.9097C47.2356 17.7576 47.0372 17.5187 46.8888 17.1831C46.7724 16.8529 46.8047 16.522 46.9265 16.1999C47.2272 15.5435 47.7698 15.1464 48.394 14.8997C48.8941 14.717 49.3635 14.6303 49.8918 14.6261Z" fill="#FEFEFE"/>
<path d="M42.9871 14.707C43.8081 14.707 44.6292 14.707 45.4751 14.707C45.514 14.9166 45.514 14.9166 45.4677 15.0418C45.4582 15.0681 45.4488 15.0944 45.439 15.1215C45.4288 15.1484 45.4187 15.1752 45.4082 15.2029C45.3931 15.2443 45.3931 15.2443 45.3777 15.2865C45.353 15.3543 45.3277 15.4218 45.3023 15.4893C45.2567 15.477 45.2111 15.4647 45.1641 15.452C45.159 15.4211 45.154 15.3901 45.1487 15.3582C45.141 15.3177 45.1332 15.2772 45.1252 15.2355C45.1144 15.1752 45.1144 15.1752 45.1034 15.1137C45.0679 15.0004 45.0679 15.0004 44.9805 14.9352C44.7898 14.8725 44.6063 14.8816 44.4082 14.8863C44.3679 14.8868 44.3277 14.8873 44.2862 14.8878C44.1872 14.8891 44.0882 14.891 43.9892 14.8933C43.881 15.1776 43.7827 15.4652 43.6869 15.7547C43.6655 15.8188 43.6655 15.8188 43.6438 15.8842C43.6091 15.9884 43.5745 16.0927 43.54 16.197C43.6739 16.194 43.8078 16.1898 43.9417 16.1854C43.9984 16.1841 43.9984 16.1841 44.0563 16.1828C44.2977 16.1742 44.4767 16.1632 44.6498 15.9638C44.6699 15.934 44.6899 15.9041 44.7106 15.8734C44.7312 15.8433 44.7517 15.8132 44.7729 15.7822C44.7955 15.7478 44.7955 15.7478 44.8186 15.7128C44.887 15.7312 44.887 15.7312 44.9568 15.75C44.9083 15.9078 44.8597 16.0656 44.811 16.2234C44.7945 16.2771 44.778 16.3308 44.7615 16.3845C44.7378 16.4616 44.714 16.5387 44.6902 16.6158C44.6759 16.6622 44.6616 16.7086 44.6469 16.7565C44.6112 16.8675 44.6112 16.8675 44.5767 16.942C44.5311 16.942 44.4854 16.942 44.4384 16.942C44.4364 16.9075 44.4343 16.873 44.4321 16.8374C44.4292 16.7928 44.4263 16.7482 44.4233 16.7022C44.4205 16.6577 44.4177 16.6132 44.4148 16.5673C44.4151 16.462 44.4151 16.462 44.3693 16.4205C44.3028 16.4173 44.2361 16.4165 44.1694 16.4169C44.129 16.417 44.0886 16.4171 44.0469 16.4172C44.0044 16.4176 43.9618 16.4179 43.9179 16.4182C43.8753 16.4184 43.8326 16.4185 43.7886 16.4187C43.6827 16.4191 43.5768 16.4198 43.4709 16.4205C43.4212 16.5747 43.372 16.7291 43.3232 16.8836C43.3066 16.9361 43.2899 16.9885 43.273 17.0409C43.2486 17.1165 43.2247 17.1923 43.2009 17.2681C43.1864 17.3136 43.172 17.359 43.157 17.4058C43.1243 17.5423 43.1195 17.6584 43.1253 17.7988C43.4739 17.9805 44.0705 17.8958 44.4255 17.7654C44.6235 17.6634 44.7218 17.5162 44.8322 17.315C44.8505 17.2902 44.8688 17.2655 44.8877 17.24C44.9333 17.24 44.9789 17.24 45.0259 17.24C45.0108 17.5168 44.9351 17.7749 44.8186 18.0223C44.6953 18.0665 44.5839 18.0644 44.4557 18.0637C44.4294 18.0637 44.4031 18.0638 44.376 18.0638C44.289 18.0637 44.2021 18.0634 44.1152 18.0632C44.0549 18.0631 43.9946 18.063 43.9343 18.063C43.7756 18.0629 43.617 18.0625 43.4583 18.0621C43.2964 18.0617 43.1345 18.0615 42.9726 18.0613C42.6549 18.0609 42.3372 18.0603 42.0195 18.0595C42.0195 18.0103 42.0195 17.9612 42.0195 17.9105C42.062 17.9063 42.062 17.9063 42.1054 17.9021C42.1612 17.8947 42.1612 17.8947 42.2182 17.8872C42.2551 17.8829 42.292 17.8786 42.33 17.8741C42.4714 17.8224 42.4975 17.7496 42.5724 17.6125C42.6033 17.5338 42.6315 17.4538 42.6574 17.373C42.6647 17.3502 42.6721 17.3274 42.6797 17.3039C42.7038 17.2293 42.7274 17.1545 42.751 17.0797C42.7678 17.0272 42.7845 16.9748 42.8013 16.9224C42.8363 16.8128 42.8711 16.7032 42.9058 16.5935C42.95 16.4535 42.9947 16.3137 43.0396 16.1739C43.0743 16.0658 43.1087 15.9576 43.143 15.8493C43.1594 15.7977 43.1759 15.7462 43.1924 15.6947C43.2735 15.4418 43.3509 15.1994 43.3672 14.9305C43.2879 14.8878 43.2263 14.8818 43.1383 14.8723C43.11 14.8692 43.0818 14.8661 43.0527 14.8629C43.0311 14.8606 43.0094 14.8584 42.9871 14.856C42.9871 14.8069 42.9871 14.7577 42.9871 14.707Z" fill="#FEFEFE"/>
<path d="M20.6403 14.6853C20.6766 14.683 20.7129 14.6807 20.7503 14.6783C20.7854 14.6775 20.8206 14.6767 20.8568 14.6759C20.889 14.6746 20.9211 14.6732 20.9543 14.6719C21.1042 14.728 21.148 14.858 21.2191 15.0043C21.2341 15.0345 21.2491 15.0646 21.2646 15.0957C21.314 15.1968 21.3622 15.2986 21.4101 15.4007C21.4278 15.438 21.4454 15.4754 21.4636 15.5139C21.5197 15.6327 21.5757 15.7515 21.6316 15.8704C21.669 15.9496 21.7064 16.0288 21.7438 16.108C21.9157 16.472 22.0873 16.8362 22.2558 17.202C22.3863 16.806 22.5162 16.4098 22.6452 16.0133C22.668 15.943 22.6909 15.8727 22.7138 15.8024C22.7487 15.6948 22.7831 15.5871 22.8173 15.4792C22.8272 15.4488 22.8371 15.4183 22.8473 15.3869C22.8967 15.229 22.9233 15.0989 22.9123 14.9298C22.8817 14.9244 22.851 14.919 22.8195 14.9135C22.7233 14.8959 22.6278 14.8765 22.5322 14.8553C22.5322 14.8061 22.5322 14.757 22.5322 14.7063C22.8971 14.7063 23.262 14.7063 23.638 14.7063C23.6494 14.7555 23.6608 14.8046 23.6726 14.8553C23.6612 14.8676 23.6498 14.8799 23.638 14.8925C23.569 14.8925 23.4999 14.8924 23.4309 14.8902C23.3543 14.8892 23.3543 14.8892 23.2579 14.9298C22.9914 15.429 22.8551 16.0194 22.6871 16.5638C22.626 16.7617 22.5644 16.9594 22.5029 17.1572C22.4817 17.2253 22.4607 17.2934 22.4397 17.3615C22.3626 17.6099 22.2801 17.8542 22.1867 18.096C22.0539 18.0666 22.0539 18.0666 22.005 17.9959C21.9926 17.9684 21.9803 17.9409 21.9676 17.9125C21.9532 17.8811 21.9388 17.8496 21.924 17.8172C21.9088 17.7825 21.8935 17.7477 21.8778 17.7119C21.8614 17.6755 21.845 17.6392 21.8281 17.6017C21.6791 17.2692 21.5354 16.9339 21.3921 16.5985C21.2935 16.3677 21.1935 16.1376 21.0907 15.9089C21.0802 15.8856 21.0698 15.8623 21.059 15.8383C21.0084 15.726 20.9577 15.6138 20.9068 15.5017C20.8798 15.442 20.8798 15.442 20.8523 15.3812C20.8364 15.3461 20.8204 15.3109 20.804 15.2748C20.7699 15.1905 20.7699 15.1905 20.7699 15.116C20.7471 15.116 20.7242 15.116 20.7007 15.116C20.6974 15.1457 20.694 15.1753 20.6905 15.2058C20.6598 15.3747 20.6083 15.5304 20.5543 15.6921C20.5314 15.7618 20.5085 15.8316 20.4857 15.9013C20.4498 16.0099 20.4138 16.1185 20.3778 16.2271C20.093 16.9927 20.093 16.9927 20.0096 17.798C20.0342 17.8044 20.0587 17.8107 20.084 17.8172C20.1316 17.8308 20.1316 17.8308 20.1803 17.8446C20.2119 17.8532 20.2436 17.8619 20.2762 17.8708C20.3023 17.8837 20.3283 17.8965 20.3552 17.9098C20.3666 17.959 20.378 18.0081 20.3897 18.0588C20.0134 18.0588 19.6371 18.0588 19.2494 18.0588C19.238 18.0342 19.2266 18.0096 19.2148 17.9843C19.2319 17.9474 19.2319 17.9474 19.2494 17.9098C19.3032 17.8978 19.3572 17.8871 19.4114 17.8772C19.5212 17.8419 19.5805 17.8189 19.6498 17.7187C19.8091 17.3582 19.9255 16.9846 20.042 16.606C20.0725 16.5082 20.103 16.4104 20.1335 16.3125C20.1537 16.2477 20.1739 16.1828 20.1939 16.1179C20.2462 15.9494 20.2997 15.7814 20.3552 15.6141C20.3664 15.5802 20.3777 15.5462 20.3892 15.5112C20.4108 15.4464 20.4325 15.3817 20.4544 15.317C20.4689 15.2733 20.4689 15.2733 20.4836 15.2288C20.4965 15.1906 20.4965 15.1906 20.5096 15.1517C20.534 15.0674 20.534 15.0674 20.528 14.9298C20.4367 14.9175 20.3455 14.9052 20.2515 14.8925C20.2321 14.8204 20.2321 14.8204 20.217 14.7435C20.304 14.6497 20.5237 14.6886 20.6403 14.6853Z" fill="#FEFEFE"/>
<path d="M26.2921 14.7031C26.3518 14.7031 26.4116 14.7033 26.4714 14.7037C26.5028 14.7038 26.5342 14.7038 26.5665 14.7039C26.6672 14.7041 26.7679 14.7046 26.8686 14.705C26.9367 14.7052 27.0048 14.7054 27.0729 14.7055C27.2403 14.7059 27.4076 14.7066 27.5749 14.7074C27.592 14.7811 27.592 14.7811 27.6094 14.8564C27.5051 14.9126 27.3968 14.906 27.2814 14.9131C27.1777 14.9343 27.1347 14.9666 27.0565 15.0426C27.0141 15.1284 27.0141 15.1284 26.9849 15.2284C26.9726 15.2662 26.9604 15.304 26.9478 15.3429C26.9351 15.3838 26.9225 15.4247 26.9094 15.4668C26.896 15.5089 26.8825 15.551 26.8687 15.5944C26.8403 15.6836 26.8121 15.7729 26.7842 15.8622C26.7415 15.9984 26.6983 16.1344 26.655 16.2703C26.6274 16.3571 26.5999 16.4439 26.5725 16.5307C26.5597 16.5712 26.5469 16.6117 26.5337 16.6534C26.358 17.1431 26.358 17.1431 26.4086 17.6408C26.5375 17.8193 26.6779 17.8796 26.8838 17.9108C27.2621 17.9361 27.5615 17.911 27.881 17.6846C28.0716 17.4997 28.1631 17.2829 28.2432 17.0269C28.2532 16.9959 28.2632 16.965 28.2735 16.9331C28.2946 16.8677 28.3154 16.8023 28.3361 16.7368C28.3669 16.6392 28.3983 16.5418 28.4298 16.4445C28.5355 16.1158 28.636 15.7854 28.7305 15.4528C28.7394 15.4218 28.7484 15.3908 28.7576 15.3589C28.7984 15.2126 28.8307 15.0855 28.8189 14.9309C28.7825 14.9255 28.7462 14.9201 28.7088 14.9146C28.6062 14.8982 28.5055 14.8795 28.4042 14.8564C28.4042 14.8072 28.4042 14.758 28.4042 14.7074C29.4419 14.7074 30.4797 14.7074 31.5488 14.7074C31.5488 14.7196 31.5488 14.7319 31.5488 14.7446C31.5248 14.7448 31.5008 14.745 31.476 14.7453C31.2498 14.7474 31.0235 14.7501 30.7973 14.7534C30.6809 14.7551 30.5646 14.7565 30.4483 14.7575C30.3145 14.7588 30.1808 14.7607 30.0471 14.7628C29.9844 14.7631 29.9844 14.7631 29.9205 14.7635C29.8817 14.7643 29.843 14.765 29.8031 14.7657C29.7689 14.7662 29.7348 14.7666 29.6996 14.767C29.5998 14.7843 29.5748 14.8135 29.51 14.8936C29.4291 14.8998 29.3542 14.8912 29.2735 14.883C29.1946 14.8854 29.1946 14.8854 29.147 14.9557C29.0895 15.0524 29.0572 15.1425 29.0234 15.2513C29.0103 15.2933 28.9971 15.3352 28.9835 15.3784C28.9696 15.4236 28.9557 15.4688 28.9413 15.5154C28.9265 15.5626 28.9117 15.6099 28.8968 15.6571C28.8339 15.857 28.7716 16.0571 28.7095 16.2573C28.6713 16.38 28.6328 16.5026 28.5941 16.6252C28.5726 16.6937 28.5515 16.7624 28.5304 16.8311C28.3976 17.2521 28.241 17.718 27.8523 17.9295C27.5733 18.0581 27.3533 18.1046 27.0522 18.1064C27.0211 18.1072 26.99 18.1079 26.958 18.1087C26.6077 18.1109 26.2846 18.0193 26.0199 17.7618C25.9113 17.6094 25.8579 17.4474 25.8685 17.2528C25.9456 16.7424 26.1461 16.241 26.3045 15.755C26.3375 15.6538 26.3701 15.5524 26.4027 15.451C26.4179 15.4048 26.4179 15.4048 26.4334 15.3577C26.4803 15.2112 26.5174 15.0882 26.5036 14.9309C26.482 14.9299 26.4604 14.9289 26.438 14.9279C26.3957 14.9248 26.3957 14.9248 26.3525 14.9215C26.3244 14.9198 26.2963 14.9181 26.2674 14.9163C26.1926 14.8936 26.1926 14.8936 26.1481 14.8174C26.1359 14.7813 26.1359 14.7813 26.1235 14.7446C26.1581 14.7074 26.1581 14.7074 26.2921 14.7031Z" fill="#FEFEFE"/>
<path d="M42.1748 14.6261C42.2047 14.6257 42.2346 14.6254 42.2654 14.625C42.5485 14.6266 42.5485 14.6266 42.678 14.7099C42.7163 14.8337 42.71 14.858 42.673 14.9766C42.6639 15.0061 42.6547 15.0357 42.6453 15.0662C42.6354 15.0969 42.6256 15.1276 42.6154 15.1592C42.6059 15.1901 42.5965 15.2209 42.5867 15.2527C42.5145 15.4822 42.5145 15.4822 42.4361 15.5666C42.3905 15.5543 42.3449 15.542 42.2979 15.5294C42.2979 15.2958 42.2979 15.0623 42.2979 14.8216C41.4627 14.8216 40.7104 15.0946 40.1056 15.7297C39.8107 16.0644 39.6601 16.4094 39.6263 16.868C39.6348 17.1563 39.7241 17.4452 39.9136 17.6526C40.1986 17.9005 40.5238 17.9518 40.8811 17.9134C41.301 17.8127 41.5219 17.5516 41.7499 17.1743C41.7711 17.1478 41.7923 17.1212 41.8141 17.0939C41.8598 17.0939 41.9054 17.0939 41.9524 17.0939C41.9322 17.2807 41.8958 17.4461 41.8379 17.6247C41.8167 17.6918 41.8167 17.6918 41.7951 17.7603C41.7412 17.8849 41.7128 17.9172 41.6068 17.9879C41.3075 18.0971 41.0047 18.119 40.6911 18.1159C40.6502 18.1156 40.6092 18.1152 40.5671 18.1149C40.1008 18.1049 39.7466 18.0047 39.3952 17.6526C39.161 17.353 39.1002 17.0681 39.1058 16.68C39.1388 16.3113 39.3087 16.0236 39.5335 15.7529C39.5631 15.7157 39.5631 15.7157 39.5934 15.6778C40.0648 15.1261 40.7416 14.8813 41.3995 14.7099C41.4349 14.7006 41.4704 14.6913 41.5069 14.6818C41.7287 14.6335 41.9493 14.6281 42.1748 14.6261Z" fill="#FEFEFE"/>
<path d="M25.6757 14.7813C25.6928 14.7997 25.6928 14.7997 25.7103 14.8185C25.7083 15.0547 25.6485 15.2698 25.572 15.489C25.5264 15.4767 25.4808 15.4644 25.4338 15.4518C25.4304 15.4239 25.427 15.3961 25.4236 15.3674C25.3944 15.1463 25.3944 15.1463 25.3086 14.9466C25.0762 14.795 24.8293 14.7957 24.5699 14.8558C24.4058 14.9192 24.2681 14.9894 24.1509 15.1305C24.102 15.2887 24.0885 15.4087 24.1515 15.5658C24.3203 15.8729 24.5978 16.0817 24.8541 16.2992C25.0312 16.4536 25.154 16.6328 25.2265 16.8673C25.2528 17.1787 25.2009 17.402 25.0213 17.6518C24.7854 17.9298 24.4111 18.0908 24.0653 18.109C24.0075 18.1101 23.9496 18.1106 23.8918 18.1105C23.8463 18.1105 23.8463 18.1105 23.8 18.1105C23.5054 18.1049 23.2299 18.0523 22.9803 17.873C22.9765 17.7645 22.9787 17.6662 22.9868 17.5587C22.9884 17.5298 22.9899 17.5008 22.9915 17.471C23.0007 17.3292 23.0097 17.2482 23.084 17.128C23.1182 17.1403 23.1524 17.1526 23.1877 17.1653C23.2183 17.2764 23.2183 17.2764 23.246 17.4167C23.3024 17.6529 23.3024 17.6529 23.4641 17.8101C23.735 17.9544 24.0373 17.95 24.3215 17.8521C24.4969 17.7764 24.61 17.6745 24.7081 17.5005C24.765 17.3167 24.7643 17.1585 24.6909 16.9813C24.5583 16.7225 24.3444 16.5444 24.1337 16.3621C23.9159 16.173 23.6953 15.9813 23.6628 15.666C23.651 15.4042 23.7003 15.2182 23.8581 15.0177C24.3293 14.5297 25.1046 14.5258 25.6757 14.7813Z" fill="#FEFEFE"/>
<path d="M18.5561 14.707C19.0236 14.707 19.4911 14.707 19.9729 14.707C19.99 14.7808 19.99 14.7808 20.0074 14.856C19.9649 14.8629 19.9649 14.8629 19.9216 14.87C19.8843 14.8777 19.8471 14.8854 19.8087 14.8933C19.7534 14.9037 19.7534 14.9037 19.6969 14.9142C19.495 15.018 19.4409 15.2998 19.369 15.5155C19.3372 15.6135 19.3059 15.7116 19.2747 15.8098C19.2579 15.8624 19.241 15.915 19.2242 15.9676C19.1891 16.0772 19.1541 16.1869 19.1193 16.2966C19.0747 16.437 19.0296 16.5772 18.9845 16.7174C18.9497 16.8257 18.9151 16.9341 18.8806 17.0425C18.8641 17.0943 18.8475 17.146 18.8308 17.1977C18.8076 17.2699 18.7847 17.3422 18.7619 17.4145C18.7488 17.4555 18.7357 17.4966 18.7222 17.5389C18.6957 17.644 18.6885 17.7278 18.6943 17.836C18.7736 17.8788 18.8352 17.8847 18.9232 17.8942C18.9515 17.8973 18.9797 17.9005 19.0088 17.9037C19.0304 17.9059 19.0521 17.9082 19.0744 17.9105C19.0744 17.9597 19.0744 18.0089 19.0744 18.0595C18.5955 18.0595 18.1165 18.0595 17.623 18.0595C17.6345 18.0103 17.6459 17.9612 17.6576 17.9105C17.6784 17.9083 17.6993 17.906 17.7208 17.9037C17.7484 17.9006 17.776 17.8974 17.8045 17.8942C17.8317 17.8912 17.859 17.8882 17.8871 17.8851C17.914 17.8812 17.9409 17.8773 17.9686 17.8733C17.9934 17.8713 18.0181 17.8693 18.0437 17.8673C18.0645 17.857 18.0854 17.8467 18.1068 17.836C18.132 17.7623 18.1545 17.6876 18.1759 17.6125C18.1928 17.5595 18.2098 17.5066 18.227 17.4537C18.2365 17.4244 18.246 17.3951 18.2557 17.3649C18.2658 17.3337 18.2759 17.3025 18.2864 17.2704C18.3084 17.2025 18.3304 17.1346 18.3524 17.0667C18.3638 17.0314 18.3752 16.9962 18.387 16.9599C18.4223 16.8508 18.4576 16.7416 18.4928 16.6325C18.591 16.3288 18.6891 16.0251 18.79 15.7224C18.803 15.683 18.816 15.6437 18.8295 15.6031C18.8523 15.5343 18.8753 15.4656 18.8987 15.397C18.9521 15.2355 18.9835 15.1049 18.9707 14.9305C18.947 14.9287 18.9232 14.9269 18.8988 14.925C18.8676 14.9222 18.8365 14.9194 18.8044 14.9166C18.7736 14.914 18.7427 14.9114 18.7109 14.9087C18.6252 14.8933 18.6252 14.8933 18.5215 14.8188C18.5329 14.7819 18.5443 14.745 18.5561 14.707Z" fill="#FEFEFE"/>
<path d="M65.7046 14.7729C65.8633 14.8705 65.9718 15.0101 66.0372 15.1943C66.0906 15.4201 66.0583 15.584 65.9681 15.7903C65.8733 15.9567 65.7609 16.0645 65.5879 16.1255C65.3481 16.1583 65.152 16.1522 64.9528 15.9952C64.8218 15.8645 64.7352 15.7148 64.7158 15.5221C64.7095 15.2942 64.7314 15.1181 64.8623 14.9335C65.1002 14.6992 65.404 14.6221 65.7046 14.7729ZM64.8817 15.0476C64.7848 15.2441 64.7569 15.4312 64.8143 15.6459C64.884 15.8205 64.9746 15.9277 65.129 16.0196C65.3126 16.0928 65.4853 16.0759 65.6679 16.0091C65.8104 15.9019 65.912 15.7853 65.9681 15.604C65.9888 15.3948 65.9897 15.2067 65.8778 15.0281C65.7659 14.8943 65.6413 14.8034 65.476 14.7679C65.229 14.7541 65.0357 14.8391 64.8817 15.0476Z" fill="#FEFEFE"/>
<path d="M65.2849 15.0012C65.421 15.0026 65.5547 15.0102 65.6564 15.1199C65.6727 15.3215 65.6727 15.3215 65.6046 15.4132C65.5875 15.4271 65.5704 15.4409 65.5527 15.4551C65.5741 15.4974 65.5955 15.5397 65.6175 15.5832C65.6296 15.607 65.6416 15.6307 65.654 15.6552C65.688 15.7221 65.688 15.7221 65.7601 15.7531C65.7601 15.7777 65.7601 15.8023 65.7601 15.8276C65.7031 15.8276 65.646 15.8276 65.5873 15.8276C65.5756 15.8039 65.564 15.7801 65.5519 15.7556C65.5365 15.7248 65.5211 15.6941 65.5052 15.6623C65.49 15.6317 65.4748 15.601 65.4591 15.5694C65.4202 15.4874 65.4202 15.4874 65.3454 15.4551C65.3454 15.5535 65.3454 15.6518 65.3454 15.7531C65.3682 15.7531 65.391 15.7531 65.4145 15.7531C65.4145 15.7777 65.4145 15.8023 65.4145 15.8276C65.3233 15.8276 65.2321 15.8276 65.1381 15.8276C65.1267 15.8031 65.1153 15.7785 65.1035 15.7531C65.1377 15.7531 65.1719 15.7531 65.2072 15.7531C65.2072 15.5319 65.2072 15.3106 65.2072 15.0826C65.173 15.0704 65.1388 15.0581 65.1035 15.0454C65.1575 14.9873 65.2103 15.0018 65.2849 15.0012ZM65.3454 15.0826C65.3454 15.181 65.3454 15.2793 65.3454 15.3806C65.4024 15.3684 65.4594 15.3561 65.5182 15.3434C65.5421 15.2746 65.5421 15.2746 65.5527 15.1944C65.5299 15.1575 65.5071 15.1206 65.4836 15.0826C65.438 15.0826 65.3924 15.0826 65.3454 15.0826Z" fill="#FEFEFE"/>
<path d="M65.1026 14.7461C65.1482 14.7707 65.1938 14.7953 65.2408 14.8206C65.2133 14.8315 65.2133 14.8315 65.1852 14.8427C65.0114 14.922 64.9208 14.998 64.8478 15.1879C64.7952 15.3819 64.8064 15.5381 64.8802 15.7239C64.9595 15.8766 65.0535 15.9555 65.2063 16.0126C65.2996 16.0332 65.3873 16.0426 65.4827 16.0498C65.4827 16.0621 65.4827 16.0744 65.4827 16.0871C65.31 16.1306 65.1797 16.1476 65.0227 16.0475C64.8709 15.9305 64.7816 15.7939 64.7225 15.6028C64.6973 15.3517 64.7147 15.137 64.8607 14.9323C64.9381 14.8589 65.0142 14.8047 65.1026 14.7461Z" fill="#FEFEFE"/>
<path d="M17.0376 7.78125C17.0604 7.79354 17.0832 7.80583 17.1067 7.8185C16.7076 8.24874 16.3085 8.67897 15.8972 9.12224C15.8744 9.10995 15.8516 9.09766 15.8281 9.08499C15.8478 9.06425 15.8674 9.04351 15.8877 9.02213C16.0168 8.88455 16.1439 8.74695 16.2622 8.59842C16.4498 8.36356 16.6545 8.15163 16.873 7.95047C16.9304 7.89632 16.9843 7.84005 17.0376 7.78125Z" fill="#FEFEFE"/>
<path d="M41.1558 13.0312C41.19 13.0435 41.2242 13.0557 41.2595 13.0683C41.3247 13.0716 41.39 13.0727 41.4552 13.0725C41.5154 13.0725 41.5154 13.0725 41.5768 13.0725C41.6418 13.0722 41.6418 13.0722 41.708 13.0719C41.7524 13.0719 41.7967 13.0718 41.8424 13.0718C41.9602 13.0716 42.0779 13.0713 42.1957 13.0709C42.3159 13.0705 42.4361 13.0703 42.5563 13.0701C42.7921 13.0697 43.0279 13.0691 43.2637 13.0683C43.2808 13.105 43.2808 13.105 43.2983 13.1424C42.5456 13.1424 41.793 13.1424 41.0176 13.1424C41.0632 13.1057 41.1088 13.0691 41.1558 13.0312Z" fill="#FEFEFE"/>
<path d="M65.3105 15.0781C65.322 15.0781 65.3334 15.0781 65.3451 15.0781C65.3451 15.1765 65.3451 15.2748 65.3451 15.3761C65.3651 15.3792 65.385 15.3823 65.4056 15.3854C65.5315 15.4307 65.6005 15.5183 65.6604 15.6439C65.6704 15.6661 65.6804 15.6884 65.6907 15.7114C65.7135 15.7237 65.7363 15.736 65.7598 15.7486C65.7598 15.7732 65.7598 15.7978 65.7598 15.8231C65.7028 15.8231 65.6457 15.8231 65.587 15.8231C65.5753 15.7994 65.5637 15.7756 65.5516 15.7511C65.5362 15.7203 65.5208 15.6895 65.5049 15.6578C65.4821 15.6118 65.4821 15.6118 65.4588 15.5648C65.4199 15.4829 65.4199 15.4829 65.3451 15.4506C65.3451 15.549 65.3451 15.6473 65.3451 15.7486C65.3337 15.7486 65.3223 15.7486 65.3105 15.7486C65.3105 15.5274 65.3105 15.3061 65.3105 15.0781Z" fill="#FEFEFE"/>
<path d="M65.517 15.043C65.5626 15.0676 65.6082 15.0921 65.6552 15.1175C65.666 15.2222 65.666 15.2222 65.6552 15.341C65.5688 15.4108 65.5688 15.4108 65.4824 15.4527C65.4824 15.341 65.4824 15.341 65.5019 15.2665C65.5246 15.1848 65.5246 15.1848 65.4824 15.0802C65.4938 15.0679 65.5052 15.0556 65.517 15.043Z" fill="#FEFEFE"/>
<path d="M65.8302 15.8242C65.853 15.8488 65.8759 15.8734 65.8994 15.8987C65.7389 16.0486 65.6458 16.128 65.4264 16.1245C65.3845 16.124 65.3845 16.124 65.3417 16.1235C65.3099 16.1229 65.3099 16.1229 65.2773 16.1222C65.2773 16.1099 65.2773 16.0976 65.2773 16.085C65.3187 16.075 65.36 16.065 65.4026 16.0547C65.5655 16.0108 65.7097 15.9542 65.8302 15.8242Z" fill="#FEFEFE"/>
<path d="M64.9648 15.9375C64.9896 15.9428 65.0143 15.9481 65.0398 15.9536C65.0882 15.964 65.0882 15.964 65.1376 15.9746C65.2756 16.0042 65.2756 16.0042 65.4137 16.0338C65.4481 16.0412 65.4481 16.0412 65.4832 16.0487C65.4832 16.0609 65.4832 16.0732 65.4832 16.0858C65.2778 16.1264 65.1487 16.138 64.9648 16.0116C64.9648 15.9872 64.9648 15.9627 64.9648 15.9375Z" fill="#FEFEFE"/>
<path d="M65.9669 15.3047C65.9784 15.3047 65.9898 15.3047 66.0015 15.3047C66.0394 15.5261 66.0502 15.6653 65.9324 15.8634C65.9096 15.8634 65.8868 15.8634 65.8633 15.8634C65.874 15.8266 65.8847 15.7897 65.8957 15.7517C65.9353 15.6035 65.952 15.4579 65.9669 15.3047Z" fill="#FEFEFE"/>
<path d="M65.1032 14.7422C65.1488 14.7668 65.1944 14.7914 65.2414 14.8167C65.1978 14.8427 65.1538 14.8683 65.1097 14.8935C65.0852 14.9078 65.0608 14.922 65.0356 14.9367C64.965 14.9657 64.965 14.9657 64.8613 14.9284C64.9412 14.867 65.021 14.8055 65.1032 14.7422Z" fill="#FEFEFE"/>
<path d="M64.862 14.9688C64.8848 14.9688 64.9076 14.9688 64.9311 14.9688C64.885 15.0929 64.839 15.2171 64.7929 15.3412C64.7815 15.3412 64.7701 15.3412 64.7583 15.3412C64.7504 15.2158 64.7466 15.1396 64.8059 15.0293C64.8244 15.0093 64.8429 14.9893 64.862 14.9688Z" fill="#FEFEFE"/>
<path d="M29.7181 10.0898C29.7296 10.0898 29.741 10.0898 29.7527 10.0898C29.7594 10.1566 29.7659 10.2233 29.7721 10.2901C29.7758 10.3272 29.7794 10.3644 29.7831 10.4027C29.7873 10.4996 29.7873 10.4996 29.7527 10.5741C29.7299 10.5741 29.7071 10.5741 29.6836 10.5741C29.695 10.4143 29.7064 10.2545 29.7181 10.0898Z" fill="#FEFEFE"/>
<path d="M65.9681 15.1172C66.0649 15.2215 66.0623 15.3083 66.0718 15.4524C66.049 15.477 66.0262 15.5016 66.0027 15.5269C65.9902 15.4657 65.978 15.4044 65.966 15.343C65.9592 15.3089 65.9524 15.2747 65.9453 15.2396C65.9415 15.2115 65.9376 15.1834 65.9336 15.1544C65.945 15.1421 65.9564 15.1299 65.9681 15.1172Z" fill="#FEFEFE"/>
</svg>
