<svg width="69" height="22" viewBox="0 0 69 22" fill="none" xmlns="http://www.w3.org/2000/svg">
<rect width="69" height="21.5591" fill="#AEABE2" fill-opacity="0.32"/>
<g clip-path="url(#clip0_643_1038)">
<path d="M8.53458 1.99344C8.55551 1.99316 8.57645 1.99288 8.59802 1.99258C9.77214 1.97999 10.7997 2.26587 11.7292 3.00654C11.7457 3.02348 11.7621 3.04041 11.7791 3.05786C11.9394 3.21772 12.0702 3.23953 12.2916 3.25271C13.2398 3.33971 14.1106 3.7111 14.8342 4.32904C14.8496 4.34213 14.865 4.35522 14.8808 4.3687C15.0897 4.54846 15.27 4.74249 15.4379 4.96154C15.4698 5.00134 15.4698 5.00134 15.5023 5.04195C16.0894 5.7923 16.4118 6.73805 16.4298 7.6874C16.4311 7.7273 16.4311 7.7273 16.4325 7.768C16.4325 7.79318 16.4325 7.81835 16.4325 7.84429C16.4328 7.87747 16.4328 7.87747 16.4331 7.91132C16.4067 8.01438 16.3493 8.08319 16.2717 8.15279C16.1994 8.19267 16.1341 8.22418 16.0581 8.25409C16.0266 8.26715 16.0266 8.26715 15.9945 8.28048C15.9254 8.30905 15.856 8.33693 15.7865 8.36482C15.7374 8.38498 15.6883 8.40518 15.6392 8.42542C15.5369 8.46748 15.4345 8.50926 15.332 8.55079C15.1875 8.60936 15.0432 8.66853 14.899 8.7279C14.7376 8.79433 14.5761 8.86063 14.4145 8.92672C14.1191 9.04752 13.8241 9.16919 13.5294 9.29142C13.4549 9.32227 13.3804 9.35304 13.3058 9.38381C13.0756 9.47898 12.8461 9.57542 12.618 9.67542C12.5575 9.70167 12.4971 9.72788 12.4366 9.75407C12.3817 9.77806 12.3272 9.80264 12.2726 9.82728C12.0715 9.9144 11.8922 9.97653 11.6717 9.93529C11.5318 9.86259 11.4825 9.74516 11.4201 9.60646C11.0836 8.90313 10.5309 8.40377 9.80295 8.12404C9.66135 8.07667 9.51756 8.04084 9.3717 8.00904C9.33865 8.00152 9.33865 8.00152 9.30493 7.99385C8.56462 7.86345 7.84647 8.05629 7.21544 8.44029C7.11556 8.51262 7.0214 8.58992 6.92794 8.67029C6.88597 8.70359 6.88597 8.70359 6.84315 8.73756C6.74977 8.81548 6.67524 8.90321 6.60091 8.99912C6.58733 9.01661 6.57374 9.0341 6.55974 9.05212C6.08651 9.67485 5.87073 10.4311 5.96403 11.2091C6.04881 11.8059 6.29384 12.3334 6.69794 12.7815C6.71944 12.8057 6.74093 12.8299 6.76308 12.8549C7.23168 13.3537 7.94406 13.6843 8.63004 13.7084C9.44432 13.7234 10.1993 13.5095 10.7988 12.9359C10.841 12.8945 10.8826 12.8524 10.9242 12.8103C10.9439 12.7905 10.9637 12.7707 10.9841 12.7503C11.2101 12.5085 11.3617 12.2033 11.5095 11.9098C11.56 11.8275 11.5858 11.79 11.6717 11.7465C11.8623 11.7023 11.9962 11.7258 12.1721 11.8047C12.1947 11.8143 12.2173 11.8238 12.2405 11.8337C12.3147 11.8652 12.3885 11.8975 12.4623 11.9298C12.5148 11.9523 12.5674 11.9747 12.6199 11.997C12.7291 12.0435 12.8381 12.0902 12.947 12.1371C13.1724 12.2339 13.3992 12.3274 13.6259 12.4209C13.748 12.4713 13.8699 12.5219 13.9919 12.5725C14.041 12.5929 14.09 12.6132 14.1391 12.6336C14.2653 12.6859 14.3916 12.7383 14.5178 12.7906C14.569 12.8119 14.6202 12.8331 14.6714 12.8543C14.7965 12.9062 14.9216 12.9581 15.0466 13.0101C15.2508 13.095 15.455 13.1798 15.6605 13.2618C15.7389 13.2931 15.8173 13.3247 15.8957 13.3563C15.9483 13.3774 16.0011 13.398 16.0539 13.4186C16.085 13.4312 16.1162 13.4438 16.1483 13.4567C16.1885 13.4726 16.1885 13.4726 16.2296 13.4888C16.3318 13.5469 16.392 13.6259 16.4442 13.7303C16.5181 14.8993 16.0439 16.0539 15.2799 16.9224C15.0888 17.1343 14.8909 17.3259 14.6617 17.4965C14.6388 17.5138 14.616 17.531 14.5924 17.5488C13.9059 18.0477 13.031 18.4222 12.173 18.4183C11.9649 18.4287 11.8541 18.5385 11.71 18.6741C10.878 19.4552 9.64507 19.7181 8.54359 19.6858C7.66537 19.6451 6.76436 19.3266 6.06724 18.7867C6.0517 18.7747 6.03617 18.7627 6.02016 18.7503C5.95415 18.6982 5.89178 18.6454 5.83252 18.5857C5.66894 18.4286 5.50961 18.4227 5.29301 18.4077C4.27988 18.3357 3.3401 17.8461 2.61544 17.1515C2.5905 17.1284 2.56556 17.1053 2.53986 17.0815C1.80643 16.3804 1.25704 15.2855 1.23297 14.2572C1.2326 14.2256 1.23223 14.1941 1.23185 14.1615C1.22002 13.9818 1.15194 13.9082 1.02645 13.7849C0.408113 13.1285 0.000168311 12.089 -0.00765592 11.192C-0.00788799 11.1661 -0.00812049 11.1403 -0.00835958 11.1137C-0.00875632 11.0589 -0.00906467 11.0042 -0.00929136 10.9494C-0.0096193 10.8946 -0.010202 10.8397 -0.0110602 10.7849C-0.0188643 10.2847 0.0420154 9.81285 0.207632 9.33873C0.220394 9.30146 0.220394 9.30146 0.233413 9.26343C0.42697 8.71575 0.735471 8.17336 1.14167 7.75557C1.22651 7.63616 1.22942 7.54828 1.23544 7.40529C1.30389 6.46068 1.68424 5.56539 2.29919 4.84654C2.31858 4.82364 2.33796 4.80073 2.35793 4.77714C3.13855 3.88134 4.20513 3.37474 5.37544 3.23654C5.40313 3.23579 5.43081 3.23503 5.45934 3.23425C5.60531 3.22975 5.69392 3.2233 5.79838 3.1157C5.81401 3.09752 5.82964 3.07935 5.84575 3.06062C6.44091 2.37872 7.65978 2.00325 8.53458 1.99344ZM6.75544 3.32279C6.78422 3.33076 6.78422 3.33076 6.81357 3.33889C7.55693 3.54793 8.20093 3.83345 8.79669 4.32904C8.91325 4.28879 8.99538 4.23334 9.09138 4.15654C9.64279 3.73128 10.2615 3.51103 10.9242 3.32279C10.5202 2.96775 9.86787 2.78413 9.34295 2.71904C9.30531 2.71432 9.30531 2.71432 9.26692 2.7095C8.52507 2.6299 7.3066 2.74002 6.75544 3.32279ZM5.26584 4.99928C5.08838 5.39726 4.98281 5.82185 4.94419 6.25529C4.96209 6.25787 4.97998 6.26045 4.99841 6.26311C5.84195 6.3874 6.59393 6.63542 7.30169 7.11779C7.30766 7.08503 7.31363 7.05227 7.31978 7.01851C7.46841 6.23931 7.77941 5.548 8.27291 4.92572C8.31341 4.87766 8.31341 4.87766 8.30795 4.81779C7.71087 4.34769 7.02065 4.05074 6.26669 3.95529C6.23897 3.94999 6.21125 3.94469 6.18269 3.93923C5.75174 3.88503 5.42696 4.67597 5.26584 4.99928ZM9.40044 4.78904C9.38147 4.8175 9.3625 4.84597 9.34295 4.87529C9.35862 4.89312 9.3743 4.91094 9.39045 4.92931C9.83819 5.45512 10.1169 6.08018 10.2917 6.74404C10.2968 6.76341 10.3019 6.78278 10.3072 6.80274C10.332 6.89788 10.3557 6.99324 10.3779 7.08904C10.4223 7.06514 10.4666 7.04117 10.5109 7.01717C10.5401 7.00138 10.5693 6.98559 10.5994 6.96933C10.6615 6.93475 10.7229 6.89899 10.7836 6.86196C11.3664 6.50924 12.0333 6.33112 12.7067 6.25529C12.691 5.53855 12.3759 4.78848 11.9326 4.23156C11.8729 4.15654 11.8729 4.15654 11.8304 4.09051C11.7734 4.00696 11.7334 3.96318 11.6334 3.93923C10.847 3.90294 9.99979 4.30631 9.40044 4.78904ZM3.03232 5.10889C2.59357 5.55765 2.04044 6.32965 2.04044 6.97404C2.15584 6.93242 2.26031 6.87663 2.36763 6.81802C2.96238 6.49449 3.57968 6.31921 4.25419 6.25529C4.25842 6.21871 4.26264 6.18213 4.267 6.14445C4.34959 5.47872 4.53966 4.86529 4.86558 4.2785C4.90734 4.20044 4.94229 4.12444 4.97294 4.04154C4.29244 4.04154 3.49187 4.66948 3.03232 5.10889ZM12.6779 4.04154C12.6874 4.05803 12.6968 4.07453 12.7066 4.09152C13.096 4.78705 13.311 5.46708 13.4254 6.25529C13.4442 6.25787 13.463 6.26045 13.4823 6.26311C14.2708 6.374 14.9566 6.59018 15.6392 7.00279C15.5049 6.35432 15.213 5.77594 14.7767 5.27779C14.7581 5.25541 14.7396 5.23302 14.7204 5.20996C14.5742 5.03727 14.4092 4.89828 14.2304 4.76029C14.2069 4.74139 14.1834 4.72249 14.1591 4.70302C13.7785 4.40912 13.1733 4.04154 12.6779 4.04154ZM8.79669 5.39279C8.33586 5.91482 8.05704 6.60494 7.96294 7.29029C7.97243 7.30927 7.98192 7.32824 7.9917 7.34779C8.02171 7.34157 8.05173 7.33534 8.08266 7.32892C8.62648 7.22318 9.14575 7.24261 9.68795 7.34779C9.58511 6.63516 9.33392 5.94289 8.8542 5.39279C8.83522 5.39279 8.81625 5.39279 8.79669 5.39279ZM3.73669 7.03514C3.69693 7.04491 3.69693 7.04491 3.65636 7.05488C3.05397 7.20779 2.36519 7.49283 1.95419 7.98029C1.81378 8.53371 2.19893 9.35117 2.47169 9.82029C2.57777 9.98952 2.69643 10.1497 2.81669 10.309C2.93564 10.293 3.00274 10.2278 3.09341 10.1527C3.67721 9.68913 4.37017 9.46411 5.08794 9.30279C5.04785 9.19902 5.00304 9.11288 4.9406 9.02068C4.53798 8.39336 4.3549 7.70665 4.25419 6.97404C4.07197 6.96687 3.91335 6.99147 3.73669 7.03514ZM4.94419 6.97404C5.01847 7.6636 5.26026 8.42245 5.72044 8.95779C5.73942 8.95779 5.75839 8.95779 5.77794 8.95779C5.81268 8.9087 5.84521 8.85804 5.87677 8.80685C6.13306 8.41364 6.48268 8.07315 6.87617 7.81857C6.89326 7.80553 6.91034 7.79248 6.92794 7.77904C6.92794 7.76007 6.92794 7.74109 6.92794 7.72154C6.86725 7.67401 6.80707 7.63095 6.74287 7.58857C6.72356 7.57582 6.70425 7.56306 6.68436 7.54992C6.18271 7.22708 5.54851 6.9594 4.94419 6.97404ZM10.7229 7.72154C10.7229 7.74052 10.7229 7.75949 10.7229 7.77904C10.7762 7.81793 10.8311 7.85465 10.8865 7.89045C11.3076 8.17331 11.625 8.5348 11.9017 8.95779C12.023 8.84661 12.1052 8.72972 12.1874 8.58764C12.1999 8.56608 12.2124 8.54453 12.2253 8.52233C12.34 8.32021 12.4308 8.11445 12.5054 7.89404C12.5121 7.87447 12.5187 7.85491 12.5255 7.83474C12.6198 7.55009 12.6776 7.27258 12.7067 6.97404C12.0206 6.95159 11.2545 7.3083 10.7229 7.72154ZM13.4254 6.97404C13.3871 7.05072 13.383 7.12761 13.3723 7.21182C13.3109 7.68362 13.1781 8.1191 12.9775 8.5499C12.9458 8.62119 12.9251 8.6815 12.9079 8.75654C13.0852 8.70013 13.2569 8.63549 13.428 8.56282C13.4647 8.54739 13.4647 8.54739 13.5021 8.53164C13.5544 8.50965 13.6067 8.48761 13.6589 8.46554C13.7965 8.4074 13.9342 8.34957 14.0719 8.29171C14.0996 8.28005 14.1273 8.26839 14.1559 8.25637C14.4264 8.14271 14.6976 8.03069 14.969 7.9192C15.0008 7.90612 15.0008 7.90612 15.0332 7.89278C15.149 7.84523 15.2647 7.79774 15.3804 7.75029C15.3154 7.55513 14.9625 7.42278 14.7857 7.32982C14.3798 7.13206 13.8817 6.94666 13.4254 6.97404ZM1.29294 8.75654C0.743046 9.66234 0.54105 10.716 0.791322 11.755C0.90326 12.171 1.0861 12.5496 1.29294 12.9253C1.34475 12.8476 1.36351 12.8043 1.38571 12.7167C1.39532 12.6803 1.39532 12.6803 1.40512 12.6431C1.41198 12.617 1.41884 12.591 1.42591 12.5641C1.58859 11.9735 1.86418 11.4513 2.24169 10.9703C2.27055 10.932 2.29934 10.8937 2.32794 10.8553C2.28795 10.7652 2.23497 10.6894 2.17631 10.6105C1.75512 10.0433 1.51488 9.43169 1.32169 8.75654C1.31221 8.75654 1.30272 8.75654 1.29294 8.75654ZM4.88849 10.0539C4.86441 10.0604 4.84033 10.0668 4.81552 10.0735C4.31564 10.2122 3.77516 10.4357 3.39169 10.7978C3.39169 10.8263 3.39169 10.8547 3.39169 10.884C3.86808 11.3023 4.67356 11.689 5.31794 11.689C5.31172 11.6445 5.31172 11.6445 5.30537 11.5991C5.23509 11.0609 5.24284 10.5299 5.31794 9.99279C5.1651 9.98448 5.03462 10.0144 4.88849 10.0539ZM2.84544 11.344C2.35027 11.9175 2.04407 12.6332 1.95419 13.3853C1.95008 13.4129 1.94597 13.4404 1.94173 13.4688C1.93143 13.5842 1.92886 13.6655 1.99687 13.7623C2.06501 13.8262 2.1361 13.8784 2.21294 13.9315C2.2433 13.954 2.27365 13.9764 2.30492 13.9995C2.85576 14.3956 3.5653 14.7171 4.25419 14.7078C4.25807 14.681 4.25807 14.681 4.26201 14.6536C4.37473 13.8886 4.57439 13.2059 5.00158 12.5561C5.06164 12.4695 5.06164 12.4695 5.08794 12.379C5.05277 12.371 5.0176 12.363 4.98137 12.3547C4.24914 12.1826 3.58107 11.9109 2.98796 11.4399C2.91069 11.3742 2.91069 11.3742 2.84544 11.344ZM5.74919 12.724C5.60212 12.8902 5.48948 13.072 5.38802 13.2685C5.37446 13.2947 5.36089 13.3208 5.34692 13.3478C5.14046 13.7567 4.96028 14.2434 4.97294 14.7078C5.65434 14.6463 6.47431 14.4201 6.95669 13.9028C6.93372 13.8878 6.91074 13.8728 6.88707 13.8573C6.44955 13.5663 6.08867 13.2163 5.80838 12.7685C5.79834 12.7538 5.78829 12.7392 5.77794 12.724C5.76846 12.724 5.75897 12.724 5.74919 12.724ZM11.9017 12.724C11.8685 12.7683 11.8364 12.8134 11.8047 12.8588C11.5014 13.2784 11.1683 13.63 10.7229 13.9028C11.1604 14.3659 11.9383 14.6432 12.5629 14.7078C12.6109 14.7085 12.6588 14.7086 12.7067 14.7078C12.6895 14.0139 12.3727 13.2547 11.9304 12.724C11.921 12.724 11.9115 12.724 11.9017 12.724ZM12.9079 12.9253C12.9225 12.9581 12.9371 12.9908 12.9522 13.0246C13.193 13.5741 13.3356 14.115 13.4254 14.7078C14.1188 14.6838 14.8713 14.3994 15.4092 13.9603C15.3167 13.8987 15.222 13.8573 15.12 13.8147C15.0993 13.806 15.0786 13.7973 15.0572 13.7883C14.9883 13.7593 14.9193 13.7304 14.8504 13.7015C14.8267 13.6916 14.8031 13.6817 14.7788 13.6715C14.3926 13.5095 14.0057 13.3493 13.6183 13.1902C13.5616 13.1669 13.5049 13.1436 13.4482 13.1202C13.3686 13.0875 13.289 13.0549 13.2094 13.0223C13.1855 13.0125 13.1616 13.0026 13.1369 12.9924C13.0261 12.9432 13.0261 12.9432 12.9079 12.9253ZM7.9917 14.334C8.01589 14.9723 8.29298 15.5711 8.65295 16.0878C8.66888 16.1107 8.68482 16.1337 8.70124 16.1573C8.73253 16.2016 8.76449 16.2454 8.79669 16.289C9.07794 16.1845 9.27848 15.6877 9.40044 15.4265C9.50757 15.1867 9.58437 14.9421 9.64302 14.6862C9.64809 14.6643 9.65316 14.6424 9.65838 14.6198C9.68088 14.5139 9.69055 14.4374 9.65919 14.334C9.64003 14.3379 9.62087 14.3417 9.60113 14.3456C9.05111 14.451 8.54076 14.4235 7.9917 14.334ZM7.15804 14.6414C6.59096 15.024 5.96019 15.2527 5.28919 15.369C5.2275 15.3804 5.16581 15.3918 5.10412 15.4032C5.0604 15.411 5.01668 15.4188 4.97294 15.4265C4.96835 15.5903 4.98141 15.7361 5.01787 15.8955C5.02294 15.9177 5.02801 15.9399 5.03323 15.9628C5.16169 16.4967 5.38633 16.9923 5.72415 17.4269C5.77794 17.4965 5.77794 17.4965 5.82186 17.568C5.87001 17.639 5.90574 17.6817 5.97919 17.7265C6.12742 17.7457 6.26487 17.7242 6.41044 17.6978C6.43075 17.6944 6.45105 17.6909 6.47197 17.6874C7.16277 17.5664 7.7927 17.2769 8.33669 16.8353C8.31416 16.8062 8.29163 16.7772 8.26841 16.7472C8.02458 16.42 7.81644 16.0854 7.6467 15.714C7.63135 15.6812 7.61601 15.6483 7.6002 15.6144C7.45405 15.2778 7.38078 14.9211 7.30169 14.564C7.24507 14.564 7.20328 14.6106 7.15804 14.6414ZM10.3779 14.5928C10.3685 14.6336 10.3685 14.6336 10.3589 14.6752C10.1728 15.4596 9.87361 16.1899 9.34295 16.8065C9.81882 17.3102 10.5729 17.5859 11.2404 17.6978C11.269 17.7036 11.269 17.7036 11.2981 17.7096C11.4379 17.7374 11.559 17.7499 11.7004 17.7265C11.832 17.6349 11.9057 17.5155 11.9879 17.3815C12.0148 17.3408 12.0416 17.3001 12.0686 17.2595C12.4142 16.7266 12.7112 16.0738 12.7067 15.4265C12.6863 15.4232 12.666 15.4199 12.645 15.4165C11.8787 15.2898 11.1366 15.0939 10.4973 14.634C10.4399 14.5875 10.4399 14.5875 10.3779 14.5928ZM2.04044 14.679C2.14173 15.519 2.7279 16.3566 3.38013 16.8758C3.85179 17.2392 4.36455 17.4961 4.94419 17.6403C4.96317 17.6308 4.98214 17.6213 5.00169 17.6115C4.98776 17.5906 4.97382 17.5696 4.95947 17.548C4.54385 16.9006 4.33381 16.1876 4.25419 15.4265C4.22754 15.4222 4.22754 15.4222 4.20034 15.4178C3.48068 15.3 2.85133 15.1187 2.21134 14.7667C2.15494 14.7363 2.09792 14.7074 2.04044 14.679ZM15.4488 14.7711C14.8033 15.141 14.1583 15.3174 13.4254 15.4265C13.4218 15.4475 13.4182 15.4685 13.4145 15.49C13.2889 16.2135 13.1399 16.9143 12.7129 17.5282C12.6728 17.5801 12.6728 17.5801 12.6779 17.6403C13.4218 17.4797 14.0241 17.1247 14.5754 16.6053C14.5945 16.5881 14.6136 16.5708 14.6333 16.5531C15.1509 16.067 15.5011 15.3697 15.6392 14.679C15.5702 14.679 15.5076 14.7372 15.4488 14.7711ZM8.82545 17.324C8.80347 17.3418 8.78149 17.3595 8.75885 17.3778C8.1628 17.8521 7.49758 18.1603 6.75544 18.3303C6.84955 18.4378 6.95747 18.4972 7.08427 18.5585C7.10477 18.5685 7.12527 18.5785 7.14639 18.5888C8.05607 19.0263 9.11116 19.1047 10.0717 18.7808C10.5558 18.6266 10.5558 18.6266 10.9242 18.3303C10.8914 18.3226 10.8587 18.3149 10.8249 18.3069C10.1618 18.1452 9.56997 17.8829 9.0267 17.4678C8.98669 17.4389 8.94657 17.4101 8.9063 17.3815C8.87962 17.3626 8.85294 17.3436 8.82545 17.324Z" fill="white"/>
<path d="M24.6983 6.51316C24.7203 6.51763 24.7424 6.52211 24.7651 6.52672C25.2541 6.63182 25.7544 6.84798 26.1358 7.17441C26.1639 7.19831 26.1921 7.22222 26.2211 7.24685C26.7665 7.72204 27.1276 8.3353 27.2858 9.04316C27.2858 9.0906 27.2858 9.13803 27.2858 9.18691C26.8968 9.18691 26.5078 9.18691 26.107 9.18691C26.0785 9.11101 26.0501 9.03511 26.0208 8.95691C25.9224 8.70436 25.8172 8.47884 25.647 8.26691C25.6278 8.24301 25.6086 8.2191 25.5888 8.19447C25.1663 7.69793 24.5962 7.46387 23.9541 7.40858C23.0722 7.34811 22.26 7.5581 21.5804 8.14102C20.893 8.75203 20.6241 9.73613 20.5583 10.6244C20.511 11.6665 20.6808 12.829 21.4082 13.627C21.4594 13.6812 21.5117 13.7341 21.5645 13.7869C21.5837 13.8061 21.6028 13.8252 21.6226 13.845C22.1589 14.3452 22.888 14.541 23.6022 14.5416C23.6322 14.5416 23.6322 14.5416 23.6629 14.5417C24.1064 14.541 24.49 14.4895 24.8995 14.3044C24.9263 14.2924 24.9532 14.2803 24.9808 14.2679C25.4736 14.0236 25.8401 13.547 26.0247 13.035C26.039 12.9865 26.0524 12.9378 26.0647 12.8887C26.0783 12.8382 26.0783 12.8382 26.107 12.8094C26.1941 12.8069 26.2806 12.8061 26.3677 12.8066C26.3938 12.8066 26.4199 12.8067 26.4468 12.8067C26.5306 12.8069 26.6144 12.8072 26.6982 12.8076C26.7548 12.8078 26.8115 12.8079 26.8682 12.808C27.0074 12.8083 27.1466 12.8088 27.2858 12.8094C27.2817 12.85 27.2776 12.8906 27.2733 12.9311C27.2699 12.965 27.2699 12.965 27.2664 12.9996C27.1737 13.6784 26.687 14.368 26.1583 14.7805C25.5007 15.2753 24.7155 15.5196 23.8933 15.5407C23.8704 15.5412 23.8476 15.5418 23.8241 15.5424C22.7767 15.5656 21.7476 15.3402 20.932 14.6494C20.9099 14.6308 20.9099 14.6308 20.8874 14.6118C20.542 14.3165 20.2622 13.9837 20.0408 13.5857C20.0314 13.5691 20.022 13.5526 20.0124 13.5356C19.6454 12.88 19.4367 12.1007 19.4302 11.3494C19.4299 11.3229 19.4296 11.2964 19.4293 11.269C19.4199 10.1595 19.4199 10.1595 19.552 9.64691C19.5583 9.62182 19.5646 9.59674 19.5711 9.57089C19.6575 9.23751 19.7752 8.92137 19.9258 8.61191C19.9346 8.59357 19.9434 8.57524 19.9525 8.55635C20.0863 8.28137 20.2457 8.04016 20.4433 7.80691C20.4557 7.7922 20.4681 7.77749 20.4809 7.76234C21.0334 7.11611 21.7491 6.71558 22.5708 6.51316C22.5917 6.508 22.6126 6.50285 22.6342 6.49754C23.2846 6.34714 24.0486 6.38057 24.6983 6.51316Z" fill="white"/>
<path d="M39.9708 9.48957C40.5003 9.94068 40.7538 10.5485 40.8192 11.2292C40.8306 11.3931 40.8288 11.5572 40.8284 11.7215C40.8284 11.7617 40.8284 11.802 40.8284 11.8423C40.8284 11.9507 40.8282 12.0591 40.828 12.1676C40.8279 12.2812 40.8278 12.3949 40.8278 12.5085C40.8277 12.7234 40.8275 12.9382 40.8272 13.153C40.8269 13.3978 40.8267 13.6425 40.8266 13.8873C40.8263 14.3904 40.8257 14.8935 40.8251 15.3966C40.5026 15.3966 40.18 15.3966 39.8476 15.3966C39.8207 15.0066 39.8207 15.0066 39.8124 14.8848C39.8101 14.8527 39.8078 14.8205 39.8055 14.7873C39.8021 14.7383 39.8021 14.7383 39.7987 14.6883C39.7898 14.5883 39.7764 14.4896 39.7614 14.3903C39.7389 14.4253 39.7389 14.4253 39.7159 14.461C39.3568 15.0064 38.8933 15.3588 38.2459 15.4955C38.0901 15.522 37.9354 15.5341 37.7776 15.5403C37.7499 15.5415 37.7222 15.5427 37.6936 15.5439C37.0583 15.5576 36.3586 15.3997 35.8859 14.9518C35.5568 14.6192 35.347 14.1721 35.3339 13.7003C35.3324 13.677 35.331 13.6537 35.3295 13.6297C35.3123 13.159 35.4572 12.7154 35.7741 12.3652C36.2887 11.826 37.0267 11.6433 37.7489 11.6016C37.9048 11.598 38.0606 11.5982 38.2165 11.5988C38.2605 11.5988 38.3045 11.5989 38.3485 11.5989C38.463 11.599 38.5776 11.5993 38.6922 11.5996C38.8095 11.5999 38.9269 11.6 39.0443 11.6002C39.2737 11.6005 39.5032 11.601 39.7326 11.6016C39.7242 11.5195 39.7156 11.4374 39.7069 11.3553C39.7046 11.3323 39.7022 11.3093 39.6998 11.2856C39.6567 10.884 39.5224 10.501 39.1987 10.2396C38.7752 9.95572 38.3047 9.85792 37.8022 9.95383C37.3972 10.0539 37.0227 10.2279 36.7911 10.5881C36.7147 10.7246 36.6659 10.8665 36.6208 11.0159C36.5989 11.0841 36.5989 11.0841 36.5701 11.1128C36.4893 11.1154 36.4092 11.1161 36.3283 11.1156C36.3041 11.1156 36.2799 11.1155 36.255 11.1155C36.1773 11.1153 36.0997 11.115 36.0221 11.1146C35.9696 11.1145 35.9171 11.1143 35.8646 11.1142C35.7356 11.1139 35.6066 11.1134 35.4776 11.1128C35.5216 10.5122 35.7597 10.0386 36.2161 9.64118C37.2051 8.85226 38.9404 8.6636 39.9708 9.48957ZM36.7025 12.8944C36.4945 13.1576 36.4588 13.4312 36.4839 13.7578C36.5436 14.0078 36.6838 14.2207 36.8936 14.3688C37.3018 14.6191 37.7691 14.6701 38.2353 14.5845C38.4913 14.5219 38.719 14.4062 38.9276 14.2466C38.9489 14.2304 38.9701 14.2143 38.992 14.1976C39.3717 13.8854 39.5772 13.4446 39.6859 12.9744C39.6932 12.9433 39.6932 12.9433 39.7005 12.9116C39.7247 12.7968 39.7349 12.6886 39.7338 12.5711C39.7336 12.5456 39.7335 12.52 39.7333 12.4937C39.7331 12.4745 39.7329 12.4552 39.7326 12.4353C39.4964 12.434 39.2602 12.433 39.024 12.4323C38.9143 12.432 38.8046 12.4316 38.6948 12.431C38.5886 12.4303 38.4823 12.43 38.3761 12.4299C38.3359 12.4298 38.2957 12.4296 38.2556 12.4292C37.6974 12.425 37.1103 12.469 36.7025 12.8944Z" fill="white"/>
<path d="M59.6874 9.71874C60.3254 10.2712 60.655 11.0855 60.7215 11.9172C60.7494 12.5049 60.6974 13.0606 60.4915 13.6135C60.4844 13.6326 60.4773 13.6518 60.47 13.6715C60.1989 14.3823 59.6621 14.9457 58.9704 15.2618C58.5849 15.4289 58.181 15.5261 57.7603 15.5397C57.7337 15.5409 57.7071 15.542 57.6797 15.5432C56.8409 15.5625 56.036 15.2881 55.4206 14.71C54.8253 14.1287 54.4949 13.3236 54.4769 12.4932C54.4667 11.4655 54.6757 10.5808 55.4135 9.82745C56.5562 8.69379 58.4776 8.70851 59.6874 9.71874ZM56.1215 10.566C55.6687 11.1093 55.5374 11.8293 55.5753 12.521C55.63 13.0973 55.824 13.6301 56.2365 14.0447C56.2556 14.0648 56.2747 14.085 56.2945 14.1057C56.6611 14.4646 57.1564 14.6067 57.6577 14.603C58.1664 14.5877 58.6442 14.3811 59.0027 14.0188C59.4559 13.5301 59.612 12.9291 59.611 12.2748C59.611 12.2464 59.611 12.2464 59.611 12.2174C59.6081 11.5635 59.4448 10.9696 58.9965 10.4797C58.6243 10.1126 58.1368 9.91512 57.6165 9.89752C57.0326 9.90473 56.5213 10.1485 56.1215 10.566Z" fill="white"/>
<path d="M31.1919 8.98182C32.0028 8.9599 32.8332 9.20476 33.4347 9.76267C33.4591 9.7848 33.4835 9.80692 33.5087 9.82972C34.1193 10.4085 34.4233 11.2469 34.4461 12.0773C34.4624 13.0352 34.2183 13.9451 33.5497 14.6502C32.9471 15.2682 32.1124 15.5269 31.2657 15.5416C30.3697 15.5392 29.6092 15.1829 28.976 14.5627C28.4027 13.9588 28.1893 13.0863 28.1914 12.2765C28.1914 12.255 28.1914 12.2334 28.1914 12.2112C28.1924 11.8719 28.2183 11.5548 28.3172 11.2289C28.3224 11.2103 28.3277 11.1916 28.3331 11.1724C28.4501 10.7564 28.6322 10.3731 28.921 10.0502C28.9404 10.0267 28.9598 10.0032 28.9798 9.97897C29.4731 9.39746 30.2149 9.08455 30.9622 8.9954C31.0387 8.9896 31.1152 8.98592 31.1919 8.98182ZM29.8492 10.5486C29.3619 11.1166 29.261 11.8582 29.2947 12.5802C29.3454 13.1706 29.5858 13.7212 30.0135 14.1327C30.4406 14.492 30.9498 14.6292 31.4978 14.5986C32.0059 14.5543 32.4734 14.3024 32.8058 13.917C33.2658 13.3108 33.3887 12.5422 33.2999 11.8003C33.2233 11.3374 33.0569 10.8945 32.7447 10.5389C32.728 10.5195 32.7112 10.5 32.6939 10.48C32.3587 10.1172 31.8913 9.93905 31.406 9.90058C30.8126 9.88917 30.2575 10.1201 29.8492 10.5486Z" fill="white"/>
<path d="M66.183 9.21862C66.2233 9.23669 66.2233 9.23669 66.2644 9.25512C66.7712 9.50637 67.1148 9.98336 67.2944 10.5103C67.4751 11.0916 67.4563 11.7044 67.4539 12.3061C67.4535 12.4142 67.4535 12.5223 67.4534 12.6304C67.4532 12.8343 67.4528 13.0381 67.4522 13.2419C67.4515 13.4744 67.4512 13.7068 67.4509 13.9392C67.4503 14.4165 67.4493 14.8938 67.448 15.3711C67.0875 15.3711 66.727 15.3711 66.3555 15.3711C66.3549 15.1986 66.3549 15.1986 66.3543 15.0226C66.3528 14.6412 66.3509 14.2597 66.3488 13.8783C66.3475 13.6472 66.3463 13.4161 66.3456 13.185C66.3449 12.9833 66.344 12.7817 66.3426 12.58C66.342 12.4735 66.3414 12.3669 66.3412 12.2603C66.3488 11.2132 66.3488 11.2132 65.8668 10.3111C65.5408 10.0246 65.1316 9.92032 64.703 9.9321C64.244 9.96554 63.789 10.1412 63.4695 10.4836C62.9842 11.0838 62.9454 11.746 62.9456 12.4867C62.9455 12.5885 62.9448 12.6902 62.9441 12.792C62.9429 12.9838 62.9423 13.1756 62.942 13.3674C62.9415 13.5861 62.9404 13.8049 62.9392 14.0236C62.9369 14.4728 62.9354 14.922 62.9343 15.3711C62.5738 15.3711 62.2132 15.3711 61.8418 15.3711C61.8418 13.3123 61.8418 11.2535 61.8418 9.13237C62.1644 9.13237 62.4869 9.13237 62.8193 9.13237C62.8404 9.25873 62.855 9.37699 62.8634 9.5041C62.8672 9.55969 62.8672 9.55969 62.871 9.61641C62.8735 9.65512 62.8761 9.69382 62.8786 9.73253C62.8812 9.77191 62.8839 9.81129 62.8865 9.85068C62.8929 9.94665 62.8993 10.0426 62.9055 10.1386C62.9187 10.1196 62.9319 10.1005 62.9454 10.0809C63.3505 9.49714 63.8704 9.12979 64.5798 9.00042C65.1338 8.94007 65.6722 8.9877 66.183 9.21862Z" fill="white"/>
<path d="M48.472 7.63281C48.785 7.63281 49.0981 7.63281 49.4207 7.63281C49.4207 8.12616 49.4207 8.61951 49.4207 9.12781C49.9046 9.12781 50.3884 9.12781 50.887 9.12781C50.887 9.43141 50.887 9.73501 50.887 10.0478C50.4031 10.0478 49.9192 10.0478 49.4207 10.0478C49.4225 10.5179 49.4247 10.988 49.4275 11.4581C49.4288 11.6764 49.4299 11.8947 49.4307 12.1131C49.4313 12.3035 49.4323 12.4939 49.4336 12.6843C49.4343 12.785 49.4348 12.8857 49.435 12.9864C49.4352 13.0992 49.4361 13.2119 49.437 13.3247C49.437 13.3576 49.4369 13.3905 49.4369 13.4244C49.4401 13.6978 49.4635 14.0027 49.6507 14.2166C49.941 14.4771 50.4394 14.4349 50.8007 14.4466C50.8007 14.7502 50.8007 15.0538 50.8007 15.3666C50.6617 15.3692 50.5228 15.3715 50.3838 15.3729C50.3367 15.3734 50.2897 15.3742 50.2426 15.3752C49.7184 15.3862 49.2208 15.3067 48.8062 14.9569C48.4276 14.5929 48.3427 14.0876 48.3251 13.5817C48.3206 13.3509 48.3214 13.1201 48.3224 12.8893C48.3227 12.789 48.3228 12.6888 48.3228 12.5886C48.323 12.3996 48.3235 12.2107 48.3241 12.0217C48.3247 11.8062 48.325 11.5908 48.3253 11.3753C48.3259 10.9328 48.327 10.4903 48.3282 10.0478C48.0246 10.0478 47.721 10.0478 47.4082 10.0478C47.4082 9.74421 47.4082 9.44061 47.4082 9.12781C47.7118 9.12781 48.0154 9.12781 48.3282 9.12781C48.3362 9.03675 48.3441 8.9457 48.3523 8.85188C48.3601 8.76329 48.3679 8.6747 48.3758 8.58612C48.3812 8.52474 48.3865 8.46337 48.3919 8.40199C48.3996 8.31357 48.4074 8.22514 48.4152 8.13672C48.4188 8.09583 48.4188 8.09583 48.4224 8.05412C48.4259 8.01529 48.4259 8.01529 48.4294 7.97567C48.4314 7.95314 48.4333 7.9306 48.4354 7.90738C48.4452 7.81557 48.4589 7.72422 48.472 7.63281Z" fill="white"/>
<path d="M42.291 6.33984C42.6515 6.33984 43.0121 6.33984 43.3835 6.33984C43.3835 9.31892 43.3835 12.298 43.3835 15.3673C43.023 15.3673 42.6625 15.3673 42.291 15.3673C42.291 12.3883 42.291 9.40919 42.291 6.33984Z" fill="white"/>
<path d="M52.209 9.12891C52.5695 9.12891 52.93 9.12891 53.3015 9.12891C53.3015 11.1877 53.3015 13.2465 53.3015 15.3677C52.941 15.3677 52.5804 15.3677 52.209 15.3677C52.209 13.3089 52.209 11.2501 52.209 9.12891Z" fill="white"/>
<path d="M45.1094 9.12891C45.4699 9.12891 45.8304 9.12891 46.2019 9.12891C46.2019 11.1877 46.2019 13.2465 46.2019 15.3677C45.8414 15.3677 45.4808 15.3677 45.1094 15.3677C45.1094 13.3089 45.1094 11.2501 45.1094 9.12891Z" fill="white"/>
<path d="M53.0851 6.38638C53.2558 6.49078 53.4018 6.62714 53.4625 6.82156C53.5028 7.03529 53.5069 7.27326 53.3888 7.46271C53.2748 7.60463 53.1426 7.74473 52.9575 7.77896C52.7219 7.8012 52.5229 7.80204 52.325 7.66396C52.2995 7.64855 52.274 7.63313 52.2477 7.61724C52.0906 7.45583 52.0281 7.28441 52.0195 7.06021C52.0285 6.84365 52.0786 6.67082 52.237 6.51756C52.4749 6.33007 52.7978 6.25512 53.0851 6.38638Z" fill="white"/>
<path d="M46.0155 6.39856C46.1963 6.50321 46.3109 6.66106 46.3749 6.85856C46.3984 7.08746 46.402 7.30148 46.2599 7.49106C46.1121 7.65728 45.9764 7.76443 45.7499 7.78608C45.5146 7.79475 45.3372 7.76578 45.1598 7.60437C44.9706 7.40293 44.925 7.24671 44.9301 6.97277C44.9455 6.79243 45.0094 6.64281 45.1386 6.51356C45.4013 6.32582 45.7085 6.25934 46.0155 6.39856Z" fill="white"/>
<path d="M68.742 6.45504C68.9064 6.59813 68.9883 6.73965 69.0114 6.95861C69.0156 7.19554 69.0053 7.38413 68.857 7.57629C68.6939 7.74285 68.529 7.79406 68.2999 7.81527C68.0759 7.79596 67.8917 7.73858 67.727 7.58055C67.5989 7.41823 67.5425 7.21199 67.5542 7.00656C67.5868 6.77888 67.6721 6.60407 67.8507 6.45504C68.1297 6.28635 68.4632 6.28529 68.742 6.45504ZM67.8507 6.71379C67.7579 6.85964 67.7159 7.01185 67.7483 7.18243C67.8048 7.3734 67.8837 7.50109 68.061 7.60144C68.2247 7.65138 68.3399 7.65216 68.503 7.59964C68.6631 7.51203 68.7673 7.40439 68.8282 7.23129C68.8477 7.0526 68.8504 6.89286 68.742 6.74254C68.6067 6.60072 68.4819 6.52463 68.2838 6.50355C68.1132 6.52096 67.9729 6.59505 67.8507 6.71379Z" fill="white"/>
<path d="M67.9922 6.68769C68.1096 6.68502 68.1096 6.68502 68.2294 6.6823C68.2538 6.68151 68.2783 6.68073 68.3035 6.67992C68.4002 6.67885 68.4651 6.6796 68.5524 6.72419C68.6158 6.79667 68.6218 6.85248 68.63 6.94622C68.6216 7.03761 68.5736 7.08571 68.5097 7.14769C68.5481 7.25102 68.5948 7.34189 68.6534 7.43519C68.5636 7.44929 68.4839 7.4554 68.3947 7.43519C68.3427 7.37982 68.3124 7.32632 68.2789 7.25831C68.2549 7.20018 68.2549 7.20018 68.1934 7.17644C68.1934 7.26183 68.1934 7.34722 68.1934 7.43519C68.127 7.43519 68.0606 7.43519 67.9922 7.43519C67.9922 7.18852 67.9922 6.94184 67.9922 6.68769ZM68.1934 6.86019C68.1934 6.90763 68.1934 6.95507 68.1934 7.00394C68.2504 7.00394 68.3073 7.00394 68.3659 7.00394C68.3754 6.96599 68.3849 6.92804 68.3947 6.88894C68.3283 6.87945 68.2619 6.86997 68.1934 6.86019Z" fill="white"/>
</g>
<defs>
<clipPath id="clip0_643_1038">
<rect width="69" height="17.6812" fill="white" transform="translate(0 2)"/>
</clipPath>
</defs>
</svg>
