<svg width="69" height="22" viewBox="0 0 69 22" fill="none" xmlns="http://www.w3.org/2000/svg">
<rect width="69" height="21.5591" rx="10.7796" fill="#4742AF"/>
<path d="M15.1309 7C15.8076 7 16.4844 7 17.1817 7C17.8087 7.99278 17.8087 7.99278 18.0818 8.43845C18.1441 8.53993 18.2064 8.6414 18.2687 8.74288C18.3 8.79374 18.3312 8.8446 18.3633 8.897C18.4568 9.04914 18.5504 9.20116 18.644 9.35315C18.6745 9.40265 18.705 9.45215 18.7364 9.50315C18.7971 9.60158 18.8578 9.69999 18.9185 9.79838C19.071 10.0458 19.2222 10.2939 19.3714 10.5433C19.4008 10.5922 19.4302 10.641 19.4604 10.6914C19.5163 10.7847 19.572 10.878 19.6273 10.9716C19.652 11.0128 19.6767 11.054 19.7022 11.0964C19.7238 11.1328 19.7454 11.1691 19.7677 11.2066C19.7961 11.2449 19.7961 11.2449 19.8251 11.284C19.8551 11.284 19.8852 11.284 19.9162 11.284C19.9699 11.2151 19.9699 11.2151 20.0207 11.1231C20.0416 11.0876 20.0624 11.0521 20.0839 11.0156C20.1066 10.9763 20.1293 10.9371 20.1526 10.8966C20.2021 10.8125 20.2517 10.7284 20.3014 10.6444C20.3277 10.5999 20.354 10.5554 20.3811 10.5096C20.5181 10.2805 20.6601 10.0545 20.8021 9.82848C20.8604 9.73549 20.9187 9.6425 20.9771 9.54951C21.0198 9.4814 21.0198 9.4814 21.0634 9.41192C21.1907 9.20849 21.3169 9.00437 21.443 8.8002C21.6931 8.39526 21.9452 7.99148 22.1979 7.58811C22.2252 7.54443 22.2526 7.50075 22.2807 7.45575C22.3049 7.41721 22.329 7.37867 22.3539 7.33896C22.4236 7.22665 22.4915 7.11332 22.5595 7C23.2363 7 23.9131 7 24.6104 7C24.6104 9.79737 24.6104 12.5947 24.6104 15.4769C24.0539 15.4769 23.4975 15.4769 22.9241 15.4769C22.9091 13.5368 22.894 11.5967 22.8786 9.59776C22.477 10.2252 22.0756 10.8526 21.676 11.4813C21.5547 11.6719 21.433 11.8622 21.311 12.0524C21.2942 12.0786 21.2774 12.1048 21.2601 12.1319C21.1778 12.2603 21.0954 12.3887 21.0129 12.517C20.9835 12.563 20.954 12.6089 20.9236 12.6562C20.8974 12.6971 20.8712 12.738 20.8441 12.7801C20.7818 12.8761 20.7818 12.8761 20.7365 12.9703C20.5048 12.9873 20.2734 12.9996 20.0411 13.0078C19.9624 13.0113 19.8837 13.0159 19.8051 13.0219C19.1728 13.0685 19.1728 13.0685 18.972 12.9075C18.8296 12.7458 18.7304 12.5629 18.6361 12.3702C18.5837 12.2649 18.5213 12.1683 18.456 12.0705C18.4167 12.0078 18.3774 11.945 18.3382 11.8822C18.0912 11.4888 17.8411 11.0974 17.59 10.7066C17.3443 10.3237 17.1039 9.93808 16.8627 9.55218C16.8477 11.5073 16.8326 13.4625 16.8171 15.4769C16.2607 15.4769 15.7042 15.4769 15.1309 15.4769C15.1309 12.6795 15.1309 9.88214 15.1309 7Z" fill="#FEFEFE"/>
<path d="M36.2305 7.01979C37.0576 7.01603 37.8848 7.01227 38.7371 7.00839C38.9969 7.00673 39.2568 7.00507 39.5245 7.00336C39.8452 7.00254 39.8452 7.00254 39.996 7.00239C40.0999 7.00211 40.2038 7.00147 40.3076 7.00054C41.3454 6.99169 42.3052 7.08406 43.0905 7.84618C43.6168 8.4555 43.7846 9.18107 43.7405 9.97627C43.6642 10.6858 43.3729 11.3 42.8233 11.7647C42.4456 12.0326 41.9876 12.2712 41.5171 12.2609C42.0103 13.0436 42.5199 13.8147 43.0348 14.5832C43.06 14.6209 43.0852 14.6585 43.1111 14.6973C43.1586 14.7682 43.2061 14.8391 43.2537 14.91C43.568 15.3792 43.568 15.3792 43.568 15.4967C43.2981 15.516 43.0287 15.5299 42.7583 15.5392C42.6666 15.5431 42.5749 15.5484 42.4834 15.5551C41.7466 15.608 41.7466 15.608 41.5203 15.4258C41.362 15.2428 41.255 15.0356 41.1528 14.8175C41.0933 14.6935 41.0206 14.5812 40.9441 14.467C40.8967 14.3925 40.8494 14.3179 40.8022 14.2434C40.6256 13.9649 40.4483 13.687 40.2693 13.41C40.2358 13.3581 40.2023 13.3061 40.1688 13.2541C40.1042 13.154 40.0395 13.054 39.9746 12.9541C39.9306 12.8858 39.9306 12.8858 39.8857 12.8161C39.8597 12.776 39.8337 12.7358 39.8069 12.6944C39.7397 12.5799 39.7397 12.5799 39.6486 12.352C39.1071 12.352 38.5657 12.352 38.0079 12.352C38.0079 13.3898 38.0079 14.4275 38.0079 15.4967C37.4213 15.4967 36.8348 15.4967 36.2305 15.4967C36.2305 12.6993 36.2305 9.90193 36.2305 7.01979ZM38.0079 8.52375C38.0079 9.29077 38.0079 10.0578 38.0079 10.8481C38.3673 10.8509 38.7267 10.8537 39.0862 10.8551C39.2536 10.8559 39.421 10.8568 39.5885 10.8584C39.7501 10.8599 39.9117 10.8607 40.0734 10.861C40.1642 10.8614 40.2551 10.8625 40.3459 10.8635C40.7983 10.8636 41.2484 10.8303 41.6083 10.529C41.8722 10.2626 41.9859 10.0523 41.9871 9.66881C41.9812 9.31542 41.9208 9.08549 41.6806 8.81322C41.397 8.57161 41.0319 8.51788 40.6724 8.51858C40.5835 8.51858 40.5835 8.51858 40.4928 8.51859C40.4285 8.51882 40.3642 8.51906 40.3 8.5193C40.2339 8.51939 40.1678 8.51945 40.1017 8.5195C39.9282 8.51967 39.7548 8.52012 39.5814 8.52062C39.373 8.52117 39.1646 8.52138 38.9562 8.52164C38.6401 8.52209 38.324 8.52296 38.0079 8.52375Z" fill="#FEFEFE"/>
<path d="M11.6212 6C11.6212 9.85015 11.6212 13.7003 11.6212 17.6671C10.4481 17.6671 9.27505 17.6671 8.06641 17.6671C8.06641 14.2832 8.06641 10.8993 8.06641 7.41281C8.83753 7.09373 9.60683 6.77606 10.385 6.47569C10.5062 6.4288 10.6273 6.38188 10.7484 6.33489C10.8221 6.30631 10.8958 6.2778 10.9695 6.24936C11.1269 6.18843 11.2831 6.12601 11.4379 6.05876C11.5757 6 11.5757 6 11.6212 6Z" fill="#FEFEFE"/>
<path d="M54.6895 7C56.795 7 58.9006 7 61.0699 7C61.0699 7.49631 61.0699 7.99262 61.0699 8.50396C59.5359 8.50396 58.0018 8.50396 56.4213 8.50396C56.4213 9.13563 56.4213 9.76729 56.4213 10.4181C57.6696 10.4181 58.9179 10.4181 60.204 10.4181C60.204 10.8994 60.204 11.3806 60.204 11.8765C58.9557 11.8765 57.7074 11.8765 56.4213 11.8765C56.4213 12.5533 56.4213 13.2301 56.4213 13.9274C57.9553 13.9274 59.4894 13.9274 61.0699 13.9274C61.0699 14.4387 61.0699 14.95 61.0699 15.4769C58.9644 15.4769 56.8588 15.4769 54.6895 15.4769C54.6895 12.6795 54.6895 9.88214 54.6895 7Z" fill="#FEFEFE"/>
<path d="M29.5327 7C30.1042 7 30.6757 7 31.2645 7C31.6324 7.80149 31.9989 8.6032 32.3555 9.40976C32.6054 9.97493 32.86 10.5377 33.1189 11.0989C33.4059 11.7213 33.6889 12.3453 33.9681 12.9713C34.0792 13.2201 34.1918 13.4682 34.3043 13.7164C34.3606 13.8407 34.4169 13.965 34.4731 14.0893C34.5099 14.1703 34.5467 14.2514 34.5835 14.3324C34.6354 14.4463 34.687 14.5603 34.7385 14.6743C34.7539 14.7079 34.7692 14.7415 34.7851 14.776C34.8896 15.0081 34.9658 15.2327 35.0472 15.4769C34.4306 15.4769 33.814 15.4769 33.1787 15.4769C32.911 14.9416 32.6797 14.3886 32.4495 13.8362C31.0959 13.8362 29.7423 13.8362 28.3478 13.8362C28.1522 14.2874 27.9567 14.7386 27.7553 15.2034C27.7102 15.2937 27.665 15.3839 27.6186 15.4769C27.0019 15.4769 26.3853 15.4769 25.75 15.4769C25.8373 15.2149 25.923 14.9718 26.0388 14.7242C26.0531 14.693 26.0675 14.6618 26.0823 14.6296C26.113 14.563 26.1438 14.4964 26.1747 14.4298C26.2577 14.2511 26.3399 14.072 26.4222 13.893C26.4388 13.8569 26.4555 13.8209 26.4726 13.7837C26.6193 13.4651 26.7634 13.1453 26.9065 12.825C26.9546 12.7174 27.0027 12.6097 27.0508 12.5021C27.0632 12.4744 27.0755 12.4468 27.0883 12.4183C27.2596 12.0352 27.432 11.6525 27.6043 11.2698C27.6569 11.153 27.7095 11.0362 27.762 10.9194C27.7975 10.8407 27.833 10.7619 27.8685 10.6831C27.9922 10.4081 28.1159 10.1331 28.2395 9.85803C28.6682 8.90427 29.0994 7.95166 29.5327 7ZM30.353 9.05086C30.1968 9.35484 30.0547 9.66194 29.9231 9.97731C29.9049 10.0207 29.8866 10.064 29.8678 10.1087C29.8101 10.246 29.7526 10.3833 29.6951 10.5206C29.6378 10.657 29.5805 10.7933 29.5232 10.9296C29.4863 11.0175 29.4494 11.1054 29.4126 11.1933C29.333 11.383 29.2531 11.5725 29.1711 11.7612C29.1581 11.7911 29.1451 11.8211 29.1317 11.8519C29.0981 11.9292 29.0642 12.0063 29.0303 12.0835C28.9802 12.1895 28.9802 12.1895 28.9858 12.2867C29.9183 12.2867 30.8507 12.2867 31.8114 12.2867C31.7041 11.9602 31.7041 11.9602 31.5799 11.6434C31.5625 11.6026 31.5451 11.5618 31.5273 11.5198C31.5089 11.4771 31.4905 11.4343 31.4716 11.3903C31.4522 11.3449 31.4328 11.2994 31.4128 11.2526C31.3512 11.1082 31.2894 10.964 31.2275 10.8197C31.1663 10.6766 31.1052 10.5335 31.0441 10.3903C31.0047 10.2981 30.9652 10.206 30.9256 10.1139C30.8416 9.91854 30.7581 9.72312 30.6781 9.52608C30.6656 9.49586 30.6532 9.46565 30.6404 9.43451C30.6088 9.35726 30.5777 9.27979 30.5466 9.20231C30.4974 9.08161 30.4974 9.08161 30.353 9.05086Z" fill="#FEFEFE"/>
<path d="M45.3926 7.05627C45.9641 7.05627 46.5356 7.05627 47.1244 7.05627C47.1244 8.18424 47.1244 9.31222 47.1244 10.4744C47.6186 10.4723 47.6186 10.4723 47.9134 10.2209C47.9506 10.1792 47.9878 10.1376 48.0261 10.0946C48.0594 10.0545 48.0927 10.0144 48.1271 9.97305C48.1763 9.916 48.2257 9.85902 48.2752 9.80215C48.2999 9.77324 48.3245 9.74434 48.3499 9.71456C48.4831 9.56755 48.6241 9.42894 48.7651 9.28943C48.957 9.09955 49.1421 8.90875 49.3165 8.70248C49.4635 8.53848 49.6222 8.3859 49.7788 8.23105C49.9093 8.10145 50.0361 7.97146 50.1551 7.83104C50.178 7.80553 50.2009 7.78001 50.2245 7.75372C50.3207 7.64455 50.3207 7.64455 50.4209 7.50264C50.6263 7.2416 50.8157 7.05192 51.1562 7.00809C51.4432 6.9908 51.7283 7.0044 52.0151 7.01924C52.1156 7.02222 52.2161 7.02492 52.3166 7.02734C52.561 7.03382 52.805 7.04369 53.0491 7.05627C52.7649 7.39044 52.7649 7.39044 52.6151 7.54869C52.5727 7.59364 52.5727 7.59364 52.5294 7.63951C52.4997 7.67075 52.4701 7.702 52.4396 7.73419C52.3752 7.80232 52.3108 7.87044 52.2464 7.93857C52.2135 7.97332 52.1806 8.00807 52.1468 8.04387C52.047 8.14956 51.9474 8.25551 51.848 8.36156C51.8158 8.39582 51.7837 8.43007 51.7506 8.46537C51.6896 8.53042 51.6286 8.5955 51.5676 8.66062C51.4292 8.80799 51.2895 8.95346 51.146 9.09592C51.0416 9.19965 50.9419 9.30467 50.8473 9.41761C50.6856 9.6055 50.5105 9.7779 50.3342 9.95204C50.2074 10.0805 50.089 10.2144 49.9716 10.3515C49.8926 10.4425 49.8091 10.5277 49.7222 10.6111C49.7963 10.8427 49.9353 11.0191 50.0782 11.2121C50.1321 11.2858 50.186 11.3595 50.2399 11.4332C50.2675 11.4708 50.295 11.5083 50.3235 11.547C50.4514 11.7215 50.5782 11.8969 50.7049 12.0723C50.7294 12.1062 50.7539 12.1402 50.7792 12.1751C50.9678 12.4364 51.1538 12.6994 51.3392 12.963C51.5292 13.2328 51.7223 13.5003 51.9159 13.7674C52.1098 14.0352 52.3006 14.3051 52.4902 14.5759C52.6615 14.8196 52.8402 15.0565 53.0242 15.2907C53.0947 15.3964 53.0947 15.3964 53.0947 15.5332C52.8305 15.5479 52.5665 15.5586 52.3019 15.5657C52.2122 15.5687 52.1224 15.5727 52.0328 15.5779C51.3126 15.6182 51.3126 15.6182 51.0979 15.4799C50.9333 15.3248 50.8315 15.1381 50.7248 14.9407C50.6741 14.8662 50.6225 14.7922 50.5699 14.719C50.5246 14.6515 50.4794 14.584 50.4343 14.5163C50.2492 14.242 50.0596 13.9732 49.8589 13.7102C49.6314 13.4118 49.4174 13.1057 49.2079 12.7945C49.0207 12.5171 48.8256 12.2496 48.6284 11.9783C48.1321 11.9633 47.6358 11.9483 47.1244 11.9328C47.1244 13.1209 47.1244 14.309 47.1244 15.5332C46.5529 15.5332 45.9814 15.5332 45.3926 15.5332C45.3926 12.7358 45.3926 9.93841 45.3926 7.05627Z" fill="#FEFEFE"/>
<path d="M7.60951 6C7.60951 9.32376 7.60951 12.6475 7.60951 16.072C6.43642 16.072 5.26333 16.072 4.05469 16.072C4.05469 13.2145 4.05469 10.3569 4.05469 7.41281C4.61866 7.15647 4.61866 7.15647 4.83997 7.06993C4.88956 7.05046 4.93915 7.03099 4.99024 7.01093C5.04205 6.99075 5.09385 6.97056 5.14723 6.94977C5.23108 6.91691 5.31492 6.88405 5.39876 6.85119C5.51479 6.80576 5.63088 6.76045 5.74696 6.71513C5.92191 6.64681 6.09679 6.5783 6.27168 6.50981C6.40786 6.45649 6.54406 6.4032 6.68029 6.34998C6.94764 6.24549 7.2145 6.14003 7.48036 6.03182C7.56394 6 7.56394 6 7.60951 6Z" fill="#FEFEFE"/>
<path d="M3.6004 7C3.6004 9.79737 3.6004 12.5947 3.6004 15.4769C2.41227 15.4769 1.22414 15.4769 0 15.4769C0 13.1457 0 10.8146 0 8.41281C0.615072 8.15654 0.615072 8.15654 0.843309 8.06549C0.895111 8.04479 0.946913 8.0241 1.00028 8.00278C1.08182 7.97028 1.08182 7.97028 1.165 7.93713C1.28446 7.88949 1.40392 7.84184 1.52337 7.79417C1.56993 7.7756 1.56993 7.7756 1.61743 7.75666C1.8261 7.67337 2.03459 7.58962 2.24298 7.50561C2.38989 7.44639 2.53685 7.38728 2.68382 7.32818C2.75546 7.29933 2.82709 7.27043 2.89869 7.24147C2.9989 7.20095 3.09918 7.16063 3.19948 7.12035C3.22957 7.10812 3.25965 7.0959 3.29064 7.08331C3.49887 7 3.49887 7 3.6004 7Z" fill="#FEFEFE"/>
<path d="M62.8027 7C63.3742 7 63.9457 7 64.5346 7C64.5346 9.28603 64.5346 11.5721 64.5346 13.9274C66.0085 13.9274 67.4823 13.9274 69.0009 13.9274C69.0009 14.4387 69.0009 14.95 69.0009 15.4769C66.9555 15.4769 64.9101 15.4769 62.8027 15.4769C62.8027 12.6795 62.8027 9.88214 62.8027 7Z" fill="#FEFEFE"/>
</svg>
