<svg width="77" height="73" viewBox="0 0 77 73" fill="none" xmlns="http://www.w3.org/2000/svg">
<g filter="url(#filter0_d_1684_2441)">
<rect x="4" width="69" height="64.6875" rx="8.625" fill="#3E3E3E"/>
<rect x="6.1167" y="2.11719" width="64.7669" height="55.0307" rx="5.75" fill="url(#paint0_linear_1684_2441)"/>
<g filter="url(#filter1_d_1684_2441)">
<rect x="46.4751" y="7.625" width="21.7877" height="28.8814" rx="1.74113" transform="rotate(8.76938 46.4751 7.625)" fill="white" shape-rendering="crispEdges"/>
<rect x="48.5156" y="11.0156" width="16.7208" height="1.01338" rx="0.506691" transform="rotate(8.76938 48.5156 11.0156)" fill="#D9D9D9"/>
<rect x="47.9751" y="14.5215" width="8.10706" height="1.01338" rx="0.506691" transform="rotate(8.76938 47.9751 14.5215)" fill="#D9D9D9"/>
<rect x="47.4341" y="18.0273" width="16.7208" height="1.01338" rx="0.506691" transform="rotate(8.76938 47.4341 18.0273)" fill="#D9D9D9"/>
<rect x="46.8936" y="21.5312" width="11.1472" height="1.01338" rx="0.506691" transform="rotate(8.76938 46.8936 21.5312)" fill="#D9D9D9"/>
<rect x="46.3525" y="25.0371" width="16.7208" height="1.01338" rx="0.506691" transform="rotate(8.76938 46.3525 25.0371)" fill="#D9D9D9"/>
<rect x="45.812" y="28.543" width="6.08029" height="1.01338" rx="0.506691" transform="rotate(8.76938 45.812 28.543)" fill="#D9D9D9"/>
<rect x="45.2715" y="32.0488" width="16.7208" height="1.01338" rx="0.506691" transform="rotate(8.76938 45.2715 32.0488)" fill="#D9D9D9"/>
</g>
<g filter="url(#filter2_d_1684_2441)">
<rect x="32.8525" y="14.9082" width="25.9673" height="28.8814" rx="1.74113" transform="rotate(2.25177 32.8525 14.9082)" fill="white" shape-rendering="crispEdges"/>
<rect x="35.2646" y="18.0449" width="19.6882" height="1.01338" rx="0.506691" transform="rotate(2.25177 35.2646 18.0449)" fill="#D9D9D9"/>
<rect x="35.125" y="21.5879" width="8.10706" height="1.01338" rx="0.506691" transform="rotate(2.25177 35.125 21.5879)" fill="#D9D9D9"/>
<rect x="34.9858" y="25.1328" width="19.6882" height="1.01338" rx="0.506691" transform="rotate(2.25177 34.9858 25.1328)" fill="#D9D9D9"/>
<rect x="34.8467" y="28.6777" width="11.1472" height="1.01338" rx="0.506691" transform="rotate(2.25177 34.8467 28.6777)" fill="#D9D9D9"/>
<rect x="34.707" y="32.2207" width="19.6882" height="1.01338" rx="0.506691" transform="rotate(2.25177 34.707 32.2207)" fill="#D9D9D9"/>
<rect x="34.5679" y="35.7656" width="6.08029" height="1.01338" rx="0.506691" transform="rotate(2.25177 34.5679 35.7656)" fill="#D9D9D9"/>
<rect x="34.4287" y="39.3086" width="19.6882" height="1.01338" rx="0.506691" transform="rotate(2.25177 34.4287 39.3086)" fill="#D9D9D9"/>
</g>
<g filter="url(#filter3_d_1684_2441)">
<rect x="8.23291" y="13.6367" width="25.9673" height="28.8814" rx="1.74113" transform="rotate(-8.94151 8.23291 13.6367)" fill="white" shape-rendering="crispEdges"/>
<rect x="11.208" y="16.2461" width="19.6882" height="1.01338" rx="0.506691" transform="rotate(-8.94151 11.208 16.2461)" fill="#D9D9D9"/>
<rect x="11.7593" y="19.75" width="8.10706" height="1.01338" rx="0.506691" transform="rotate(-8.94151 11.7593 19.75)" fill="#D9D9D9"/>
<rect x="12.3105" y="23.2539" width="19.6882" height="1.01338" rx="0.506691" transform="rotate(-8.94151 12.3105 23.2539)" fill="#D9D9D9"/>
<rect x="12.8618" y="26.7578" width="11.1472" height="1.01338" rx="0.506691" transform="rotate(-8.94151 12.8618 26.7578)" fill="#D9D9D9"/>
<rect x="13.4131" y="30.2617" width="19.6882" height="1.01338" rx="0.506691" transform="rotate(-8.94151 13.4131 30.2617)" fill="#D9D9D9"/>
<rect x="13.9644" y="33.7656" width="6.08029" height="1.01338" rx="0.506691" transform="rotate(-8.94151 13.9644 33.7656)" fill="#D9D9D9"/>
<rect x="14.5156" y="37.2676" width="19.6882" height="1.01338" rx="0.506691" transform="rotate(-8.94151 14.5156 37.2676)" fill="#D9D9D9"/>
</g>
<path d="M64.2636 31.9214L29.7261 31.899L26.8961 26.2403L25.6994 23.8457H9.16865C7.4334 23.8457 6.0293 24.9754 6.0293 26.3709V60.8944C6.0293 62.2881 7.4334 63.4192 9.16865 63.4192H67.8292C69.5642 63.4192 70.9705 62.2881 70.9705 60.8944V37.14C70.9705 34.7417 68.95 32.7238 66.21 32.1043C65.5148 31.9782 64.2636 31.9214 64.2636 31.9214ZM70.2734 57.7786V59.6628H6.73115V57.7786H70.2734Z" fill="#3E3E3E"/>
<path opacity="0.8" d="M11.81 47V40H12.87V46.05H16.32V47H11.81ZM19.9961 47.12C19.4294 47.12 18.9394 46.9733 18.5261 46.68C18.1128 46.3867 17.7961 45.97 17.5761 45.43C17.3561 44.89 17.2461 44.2467 17.2461 43.5C17.2461 42.7533 17.3561 42.11 17.5761 41.57C17.7961 41.03 18.1128 40.6133 18.5261 40.32C18.9394 40.0267 19.4294 39.88 19.9961 39.88C20.5694 39.88 21.0594 40.0267 21.4661 40.32C21.8794 40.6133 22.1961 41.03 22.4161 41.57C22.6361 42.11 22.7461 42.7533 22.7461 43.5C22.7461 44.2467 22.6361 44.89 22.4161 45.43C22.1961 45.97 21.8794 46.3867 21.4661 46.68C21.0594 46.9733 20.5694 47.12 19.9961 47.12ZM19.9961 46.12C20.4961 46.12 20.8994 45.8967 21.2061 45.45C21.5128 44.9967 21.6661 44.3467 21.6661 43.5C21.6661 42.6533 21.5128 42.0067 21.2061 41.56C20.8994 41.1067 20.4961 40.88 19.9961 40.88C19.4894 40.88 19.0828 41.1067 18.7761 41.56C18.4761 42.0067 18.3261 42.6533 18.3261 43.5C18.3261 44.3467 18.4761 44.9967 18.7761 45.45C19.0828 45.8967 19.4894 46.12 19.9961 46.12ZM26.0622 47.12C25.5689 47.12 25.1355 47.03 24.7622 46.85C24.3955 46.67 24.1055 46.4133 23.8922 46.08C23.6855 45.7467 23.5789 45.35 23.5722 44.89H24.6922C24.6989 45.2433 24.8189 45.5467 25.0522 45.8C25.2922 46.0467 25.6255 46.17 26.0522 46.17C26.4455 46.17 26.7522 46.08 26.9722 45.9C27.1922 45.7133 27.3022 45.4733 27.3022 45.18C27.3022 44.9333 27.2355 44.73 27.1022 44.57C26.9755 44.4033 26.7755 44.2567 26.5022 44.13C26.2289 43.9967 25.8755 43.86 25.4422 43.72C24.8622 43.5333 24.4355 43.2767 24.1622 42.95C23.8889 42.6167 23.7522 42.21 23.7522 41.73C23.7522 41.1767 23.9522 40.73 24.3522 40.39C24.7522 40.05 25.3022 39.88 26.0022 39.88C26.6822 39.88 27.2289 40.0567 27.6422 40.41C28.0555 40.7567 28.2689 41.24 28.2822 41.86H27.1522C27.1522 41.6933 27.1055 41.5333 27.0122 41.38C26.9189 41.22 26.7855 41.09 26.6122 40.99C26.4389 40.8833 26.2255 40.83 25.9722 40.83C25.6589 40.8233 25.3955 40.9 25.1822 41.06C24.9689 41.2133 24.8622 41.4233 24.8622 41.69C24.8622 42.0167 24.9922 42.2733 25.2522 42.46C25.5122 42.64 25.9355 42.8267 26.5222 43.02C26.8889 43.14 27.2122 43.2867 27.4922 43.46C27.7789 43.6267 28.0022 43.8433 28.1622 44.11C28.3289 44.37 28.4122 44.7033 28.4122 45.11C28.4122 45.4833 28.3189 45.8233 28.1322 46.13C27.9455 46.43 27.6755 46.67 27.3222 46.85C26.9755 47.03 26.5555 47.12 26.0622 47.12ZM32.0583 47.12C31.5649 47.12 31.1316 47.03 30.7583 46.85C30.3916 46.67 30.1016 46.4133 29.8883 46.08C29.6816 45.7467 29.5749 45.35 29.5683 44.89H30.6883C30.6949 45.2433 30.8149 45.5467 31.0483 45.8C31.2883 46.0467 31.6216 46.17 32.0483 46.17C32.4416 46.17 32.7483 46.08 32.9683 45.9C33.1883 45.7133 33.2983 45.4733 33.2983 45.18C33.2983 44.9333 33.2316 44.73 33.0983 44.57C32.9716 44.4033 32.7716 44.2567 32.4983 44.13C32.2249 43.9967 31.8716 43.86 31.4383 43.72C30.8583 43.5333 30.4316 43.2767 30.1583 42.95C29.8849 42.6167 29.7483 42.21 29.7483 41.73C29.7483 41.1767 29.9483 40.73 30.3483 40.39C30.7483 40.05 31.2983 39.88 31.9983 39.88C32.6783 39.88 33.2249 40.0567 33.6383 40.41C34.0516 40.7567 34.2649 41.24 34.2783 41.86H33.1483C33.1483 41.6933 33.1016 41.5333 33.0083 41.38C32.9149 41.22 32.7816 41.09 32.6083 40.99C32.4349 40.8833 32.2216 40.83 31.9683 40.83C31.6549 40.8233 31.3916 40.9 31.1783 41.06C30.9649 41.2133 30.8583 41.4233 30.8583 41.69C30.8583 42.0167 30.9883 42.2733 31.2483 42.46C31.5083 42.64 31.9316 42.8267 32.5183 43.02C32.8849 43.14 33.2083 43.2867 33.4883 43.46C33.7749 43.6267 33.9983 43.8433 34.1583 44.11C34.3249 44.37 34.4083 44.7033 34.4083 45.11C34.4083 45.4833 34.3149 45.8233 34.1283 46.13C33.9416 46.43 33.6716 46.67 33.3183 46.85C32.9716 47.03 32.5516 47.12 32.0583 47.12ZM41.7305 47V40H44.0205C44.5671 40 45.0171 40.0933 45.3705 40.28C45.7305 40.4667 45.9971 40.72 46.1705 41.04C46.3505 41.3533 46.4405 41.71 46.4405 42.11C46.4405 42.5633 46.3238 42.9667 46.0905 43.32C45.8638 43.6667 45.5138 43.92 45.0405 44.08L46.5105 47H45.2805L43.9405 44.23H42.7905V47H41.7305ZM42.7905 43.27H43.9605C44.4405 43.27 44.7905 43.1633 45.0105 42.95C45.2371 42.7367 45.3505 42.4567 45.3505 42.11C45.3505 41.7567 45.2405 41.4767 45.0205 41.27C44.8005 41.0567 44.4438 40.95 43.9505 40.95H42.7905V43.27ZM49.9566 47.12C49.4832 47.12 49.0599 47.0233 48.6866 46.83C48.3199 46.6367 48.0299 46.3433 47.8166 45.95C47.6032 45.55 47.4966 45.0467 47.4966 44.44V40H48.5566V44.5C48.5566 45.0333 48.6832 45.4467 48.9366 45.74C49.1899 46.0267 49.5366 46.17 49.9766 46.17C50.4166 46.17 50.7632 46.0267 51.0166 45.74C51.2699 45.4467 51.3966 45.0333 51.3966 44.5V40H52.4566V44.44C52.4566 45.0467 52.3466 45.55 52.1266 45.95C51.9066 46.3433 51.6066 46.6367 51.2266 46.83C50.8532 47.0233 50.4299 47.12 49.9566 47.12ZM53.4827 47V40H54.5227L57.4527 45.13V40H58.4627V47H57.4227L54.4927 41.87V47H53.4827Z" fill="white"/>
<path d="M12.4658 54.357C12.2287 54.357 12.0175 54.3162 11.8322 54.2347C11.648 54.1521 11.5024 54.0388 11.3954 53.8948C11.2896 53.7498 11.235 53.5825 11.2319 53.393H11.9243C11.9285 53.4724 11.9545 53.5423 12.0021 53.6026C12.0508 53.6619 12.1154 53.708 12.1958 53.7408C12.2763 53.7736 12.3668 53.79 12.4674 53.79C12.5722 53.79 12.6649 53.7715 12.7453 53.7344C12.8258 53.6974 12.8888 53.646 12.9343 53.5804C12.9798 53.5147 13.0026 53.439 13.0026 53.3533C13.0026 53.2665 12.9783 53.1897 12.9296 53.123C12.8819 53.0552 12.8131 53.0023 12.7231 52.9642C12.6342 52.9261 12.5283 52.907 12.4055 52.907H12.1022V52.402H12.4055C12.5092 52.402 12.6008 52.384 12.6802 52.348C12.7607 52.312 12.8232 52.2622 12.8676 52.1987C12.9121 52.1341 12.9343 52.059 12.9343 51.9732C12.9343 51.8917 12.9147 51.8202 12.8756 51.7588C12.8374 51.6963 12.7835 51.6476 12.7136 51.6127C12.6448 51.5778 12.5643 51.5603 12.4722 51.5603C12.379 51.5603 12.2938 51.5772 12.2165 51.6111C12.1392 51.6439 12.0773 51.6911 12.0307 51.7525C11.9841 51.8139 11.9592 51.8859 11.956 51.9684H11.297C11.3002 51.781 11.3536 51.6159 11.4574 51.473C11.5611 51.33 11.7009 51.2183 11.8766 51.1379C12.0534 51.0563 12.253 51.0156 12.4754 51.0156C12.6998 51.0156 12.8962 51.0563 13.0645 51.1379C13.2329 51.2194 13.3636 51.3295 13.4568 51.4682C13.551 51.6058 13.5976 51.7604 13.5966 51.9319C13.5976 52.114 13.541 52.266 13.4266 52.3877C13.3134 52.5095 13.1657 52.5867 12.9836 52.6196V52.645C13.2228 52.6757 13.4049 52.7588 13.5299 52.8943C13.6559 53.0288 13.7183 53.1971 13.7173 53.3993C13.7183 53.5846 13.6649 53.7492 13.5569 53.8932C13.4499 54.0372 13.3022 54.1505 13.1138 54.2331C12.9253 54.3157 12.7093 54.357 12.4658 54.357ZM15.7825 52.7085V53.2453H14.2992V52.7085H15.7825ZM16.8213 55.2273C16.7356 55.2273 16.6551 55.2204 16.5799 55.2066C16.5058 55.1939 16.4444 55.1775 16.3957 55.1574L16.5482 54.6524C16.6276 54.6767 16.6991 54.6899 16.7626 54.6921C16.8272 54.6942 16.8827 54.6794 16.9293 54.6476C16.977 54.6158 17.0156 54.5618 17.0453 54.4856L17.085 54.3824L16.2099 51.8732H16.9214L17.4264 53.6645H17.4518L17.9616 51.8732H18.6778L17.7297 54.5761C17.6842 54.7074 17.6223 54.8218 17.5439 54.9192C17.4666 55.0176 17.3687 55.0933 17.2501 55.1463C17.1316 55.2003 16.9886 55.2273 16.8213 55.2273ZM20.1018 54.3601C19.8509 54.3601 19.6349 54.3093 19.4539 54.2077C19.2739 54.105 19.1352 53.9599 19.0378 53.7725C18.9404 53.5841 18.8917 53.3612 18.8917 53.1039C18.8917 52.853 18.9404 52.6328 19.0378 52.4433C19.1352 52.2538 19.2723 52.1061 19.4491 52.0002C19.627 51.8943 19.8356 51.8414 20.0748 51.8414C20.2358 51.8414 20.3856 51.8673 20.5243 51.9192C20.664 51.97 20.7858 52.0468 20.8895 52.1495C20.9944 52.2522 21.0759 52.3814 21.1341 52.537C21.1924 52.6916 21.2215 52.8726 21.2215 53.0801V53.2659H19.1617V52.8467H20.5846C20.5846 52.7493 20.5635 52.663 20.5211 52.5878C20.4788 52.5126 20.42 52.4539 20.3448 52.4115C20.2707 52.3681 20.1844 52.3464 20.086 52.3464C19.9833 52.3464 19.8922 52.3702 19.8128 52.4179C19.7345 52.4645 19.6731 52.5275 19.6286 52.6069C19.5841 52.6852 19.5614 52.7726 19.5603 52.8689V53.2675C19.5603 53.3882 19.5825 53.4925 19.627 53.5804C19.6725 53.6683 19.7366 53.736 19.8192 53.7837C19.9017 53.8313 19.9997 53.8551 20.113 53.8551C20.1881 53.8551 20.257 53.8445 20.3194 53.8234C20.3819 53.8022 20.4353 53.7704 20.4798 53.7281C20.5243 53.6857 20.5582 53.6338 20.5815 53.5724L21.2072 53.6137C21.1754 53.7641 21.1103 53.8954 21.0118 54.0076C20.9144 54.1188 20.7884 54.2056 20.6339 54.268C20.4803 54.3294 20.303 54.3601 20.1018 54.3601ZM22.4033 54.3586C22.2476 54.3586 22.1089 54.3316 21.9872 54.2776C21.8654 54.2225 21.7691 54.1415 21.6982 54.0346C21.6283 53.9266 21.5933 53.7921 21.5933 53.6312C21.5933 53.4957 21.6182 53.3819 21.668 53.2898C21.7177 53.1976 21.7855 53.1235 21.8713 53.0674C21.957 53.0113 22.0544 52.969 22.1635 52.9404C22.2736 52.9118 22.389 52.8917 22.5097 52.88C22.6516 52.8652 22.7659 52.8514 22.8527 52.8387C22.9395 52.825 23.0025 52.8049 23.0417 52.7784C23.0809 52.7519 23.1005 52.7127 23.1005 52.6609V52.6513C23.1005 52.5508 23.0687 52.4729 23.0052 52.4179C22.9427 52.3628 22.8538 52.3353 22.7384 52.3353C22.6166 52.3353 22.5197 52.3623 22.4477 52.4163C22.3757 52.4692 22.3281 52.5359 22.3048 52.6164L21.6791 52.5656C21.7109 52.4174 21.7733 52.2892 21.8665 52.1813C21.9597 52.0722 22.0798 51.9886 22.227 51.9303C22.3752 51.871 22.5467 51.8414 22.7415 51.8414C22.8771 51.8414 23.0068 51.8573 23.1306 51.889C23.2556 51.9208 23.3662 51.97 23.4625 52.0367C23.56 52.1034 23.6367 52.1892 23.6928 52.294C23.7489 52.3978 23.777 52.5222 23.777 52.6672V54.3125H23.1354V53.9742H23.1163C23.0772 54.0505 23.0248 54.1177 22.9591 54.1759C22.8935 54.2331 22.8146 54.2781 22.7225 54.3109C22.6304 54.3427 22.524 54.3586 22.4033 54.3586ZM22.597 53.8916C22.6965 53.8916 22.7844 53.8721 22.8607 53.8329C22.9369 53.7927 22.9967 53.7387 23.0401 53.6709C23.0835 53.6031 23.1052 53.5264 23.1052 53.4406V53.1818C23.084 53.1955 23.0549 53.2082 23.0179 53.2199C22.9819 53.2305 22.9411 53.2405 22.8956 53.2501C22.8501 53.2585 22.8045 53.2665 22.759 53.2739C22.7135 53.2802 22.6722 53.286 22.6351 53.2913C22.5557 53.303 22.4864 53.3215 22.4271 53.3469C22.3678 53.3723 22.3218 53.4067 22.2889 53.4502C22.2561 53.4925 22.2397 53.5454 22.2397 53.609C22.2397 53.7011 22.2731 53.7715 22.3398 53.8202C22.4075 53.8678 22.4933 53.8916 22.597 53.8916ZM24.3466 54.3125V51.8732H25.0025V52.2988H25.0279C25.0724 52.1474 25.147 52.033 25.2518 51.9557C25.3566 51.8774 25.4773 51.8382 25.6139 51.8382C25.6478 51.8382 25.6843 51.8403 25.7235 51.8446C25.7627 51.8488 25.7971 51.8546 25.8267 51.862V52.4623C25.7949 52.4528 25.751 52.4443 25.6949 52.4369C25.6388 52.4295 25.5874 52.4258 25.5408 52.4258C25.4413 52.4258 25.3524 52.4475 25.274 52.4909C25.1968 52.5333 25.1354 52.5926 25.0898 52.6688C25.0454 52.745 25.0231 52.8329 25.0231 52.9324V54.3125H24.3466ZM27.9775 51.06V54.3125H27.301V51.06H27.9775ZM29.6663 54.3601C29.4197 54.3601 29.2063 54.3077 29.0263 54.2029C28.8474 54.097 28.7092 53.9499 28.6118 53.7614C28.5144 53.5719 28.4657 53.3522 28.4657 53.1024C28.4657 52.8504 28.5144 52.6302 28.6118 52.4417C28.7092 52.2522 28.8474 52.105 29.0263 52.0002C29.2063 51.8943 29.4197 51.8414 29.6663 51.8414C29.913 51.8414 30.1258 51.8943 30.3048 52.0002C30.4847 52.105 30.6234 52.2522 30.7208 52.4417C30.8183 52.6302 30.867 52.8504 30.867 53.1024C30.867 53.3522 30.8183 53.5719 30.7208 53.7614C30.6234 53.9499 30.4847 54.097 30.3048 54.2029C30.1258 54.3077 29.913 54.3601 29.6663 54.3601ZM29.6695 53.8361C29.7817 53.8361 29.8754 53.8043 29.9506 53.7408C30.0258 53.6762 30.0824 53.5883 30.1205 53.4772C30.1597 53.366 30.1793 53.2395 30.1793 53.0976C30.1793 52.9557 30.1597 52.8292 30.1205 52.718C30.0824 52.6069 30.0258 52.519 29.9506 52.4544C29.8754 52.3898 29.7817 52.3575 29.6695 52.3575C29.5562 52.3575 29.4609 52.3898 29.3837 52.4544C29.3074 52.519 29.2497 52.6069 29.2106 52.718C29.1724 52.8292 29.1534 52.9557 29.1534 53.0976C29.1534 53.2395 29.1724 53.366 29.2106 53.4772C29.2497 53.5883 29.3074 53.6762 29.3837 53.7408C29.4609 53.8043 29.5562 53.8361 29.6695 53.8361ZM33.3812 52.5688L32.7618 52.6069C32.7512 52.5539 32.7285 52.5063 32.6935 52.4639C32.6586 52.4205 32.6125 52.3861 32.5554 52.3607C32.4993 52.3342 32.432 52.321 32.3537 52.321C32.2489 52.321 32.1605 52.3432 32.0885 52.3877C32.0165 52.4311 31.9805 52.4893 31.9805 52.5624C31.9805 52.6206 32.0038 52.6699 32.0504 52.7101C32.0969 52.7503 32.1769 52.7826 32.2902 52.807L32.7317 52.8959C32.9688 52.9446 33.1456 53.023 33.2621 53.1309C33.3785 53.2389 33.4368 53.3808 33.4368 53.5566C33.4368 53.7164 33.3897 53.8567 33.2954 53.9774C33.2023 54.0981 33.0742 54.1923 32.9111 54.2601C32.7491 54.3268 32.5623 54.3601 32.3505 54.3601C32.0276 54.3601 31.7703 54.2929 31.5787 54.1585C31.3881 54.0229 31.2764 53.8387 31.2436 53.6058L31.909 53.5709C31.9291 53.6693 31.9778 53.7445 32.0551 53.7964C32.1324 53.8472 32.2314 53.8726 32.3521 53.8726C32.4707 53.8726 32.566 53.8498 32.638 53.8043C32.711 53.7577 32.7481 53.6979 32.7491 53.6248C32.7481 53.5634 32.7221 53.5131 32.6713 53.474C32.6205 53.4337 32.5421 53.403 32.4363 53.3819L32.0138 53.2977C31.7756 53.2501 31.5983 53.1675 31.4818 53.0499C31.3664 52.9324 31.3087 52.7826 31.3087 52.6005C31.3087 52.4438 31.3511 52.3088 31.4358 52.1955C31.5215 52.0823 31.6417 51.9949 31.7963 51.9335C31.9519 51.8721 32.134 51.8414 32.3426 51.8414C32.6507 51.8414 32.8931 51.9065 33.0699 52.0367C33.2478 52.167 33.3515 52.3443 33.3812 52.5688ZM35.9371 52.5688L35.3178 52.6069C35.3072 52.5539 35.2844 52.5063 35.2495 52.4639C35.2145 52.4205 35.1685 52.3861 35.1113 52.3607C35.0552 52.3342 34.988 52.321 34.9096 52.321C34.8048 52.321 34.7164 52.3432 34.6444 52.3877C34.5724 52.4311 34.5364 52.4893 34.5364 52.5624C34.5364 52.6206 34.5597 52.6699 34.6063 52.7101C34.6529 52.7503 34.7328 52.7826 34.8461 52.807L35.2876 52.8959C35.5247 52.9446 35.7015 53.023 35.818 53.1309C35.9345 53.2389 35.9927 53.3808 35.9927 53.5566C35.9927 53.7164 35.9456 53.8567 35.8514 53.9774C35.7582 54.0981 35.6301 54.1923 35.467 54.2601C35.305 54.3268 35.1182 54.3601 34.9064 54.3601C34.5835 54.3601 34.3262 54.2929 34.1346 54.1585C33.944 54.0229 33.8323 53.8387 33.7995 53.6058L34.4649 53.5709C34.4851 53.6693 34.5338 53.7445 34.611 53.7964C34.6883 53.8472 34.7873 53.8726 34.908 53.8726C35.0266 53.8726 35.1219 53.8498 35.1939 53.8043C35.2669 53.7577 35.304 53.6979 35.305 53.6248C35.304 53.5634 35.2781 53.5131 35.2272 53.474C35.1764 53.4337 35.0981 53.403 34.9922 53.3819L34.5698 53.2977C34.3315 53.2501 34.1542 53.1675 34.0377 53.0499C33.9223 52.9324 33.8646 52.7826 33.8646 52.6005C33.8646 52.4438 33.907 52.3088 33.9917 52.1955C34.0774 52.0823 34.1976 51.9949 34.3522 51.9335C34.5078 51.8721 34.6899 51.8414 34.8985 51.8414C35.2066 51.8414 35.449 51.9065 35.6258 52.0367C35.8037 52.167 35.9075 52.3443 35.9371 52.5688ZM38.2197 52.9023V54.3125H37.5432V51.06H38.2007V52.3035H38.2293C38.2843 52.1595 38.3733 52.0468 38.4961 51.9653C38.6189 51.8827 38.7729 51.8414 38.9582 51.8414C39.1276 51.8414 39.2753 51.8785 39.4013 51.9526C39.5284 52.0256 39.6268 52.131 39.6967 52.2686C39.7676 52.4052 39.8026 52.5688 39.8015 52.7593V54.3125H39.125V52.88C39.126 52.7297 39.0879 52.6127 39.0106 52.529C38.9344 52.4454 38.8275 52.4036 38.6898 52.4036C38.5977 52.4036 38.5162 52.4232 38.4453 52.4623C38.3754 52.5015 38.3203 52.5587 38.2801 52.6339C38.2409 52.708 38.2208 52.7974 38.2197 52.9023ZM40.3786 54.3125V51.8732H41.0552V54.3125H40.3786ZM40.7185 51.5587C40.6179 51.5587 40.5316 51.5254 40.4596 51.4587C40.3887 51.3909 40.3532 51.3099 40.3532 51.2157C40.3532 51.1225 40.3887 51.0426 40.4596 50.9759C40.5316 50.9081 40.6179 50.8742 40.7185 50.8742C40.8191 50.8742 40.9048 50.9081 40.9758 50.9759C41.0478 51.0426 41.0838 51.1225 41.0838 51.2157C41.0838 51.3099 41.0478 51.3909 40.9758 51.4587C40.9048 51.5254 40.8191 51.5587 40.7185 51.5587ZM43.6715 52.5688L43.0521 52.6069C43.0415 52.5539 43.0187 52.5063 42.9838 52.4639C42.9489 52.4205 42.9028 52.3861 42.8456 52.3607C42.7895 52.3342 42.7223 52.321 42.6439 52.321C42.5391 52.321 42.4507 52.3432 42.3787 52.3877C42.3067 52.4311 42.2707 52.4893 42.2707 52.5624C42.2707 52.6206 42.294 52.6699 42.3406 52.7101C42.3872 52.7503 42.4671 52.7826 42.5804 52.807L43.0219 52.8959C43.2591 52.9446 43.4359 53.023 43.5523 53.1309C43.6688 53.2389 43.727 53.3808 43.727 53.5566C43.727 53.7164 43.6799 53.8567 43.5857 53.9774C43.4925 54.0981 43.3644 54.1923 43.2014 54.2601C43.0394 54.3268 42.8525 54.3601 42.6408 54.3601C42.3179 54.3601 42.0606 54.2929 41.8689 54.1585C41.6784 54.0229 41.5667 53.8387 41.5339 53.6058L42.1993 53.5709C42.2194 53.6693 42.2681 53.7445 42.3454 53.7964C42.4227 53.8472 42.5217 53.8726 42.6424 53.8726C42.7609 53.8726 42.8562 53.8498 42.9282 53.8043C43.0013 53.7577 43.0383 53.6979 43.0394 53.6248C43.0383 53.5634 43.0124 53.5131 42.9616 53.474C42.9107 53.4337 42.8324 53.403 42.7265 53.3819L42.3041 53.2977C42.0659 53.2501 41.8885 53.1675 41.7721 53.0499C41.6567 52.9324 41.599 52.7826 41.599 52.6005C41.599 52.4438 41.6413 52.3088 41.726 52.1955C41.8118 52.0823 41.9319 51.9949 42.0865 51.9335C42.2422 51.8721 42.4243 51.8414 42.6328 51.8414C42.9409 51.8414 43.1834 51.9065 43.3602 52.0367C43.5381 52.167 43.6418 52.3443 43.6715 52.5688ZM45.4953 51.8732V52.3814H44.0263V51.8732H45.4953ZM44.3598 51.2887H45.0363V53.5629C45.0363 53.6254 45.0458 53.6741 45.0649 53.709C45.0839 53.7429 45.1104 53.7667 45.1443 53.7805C45.1792 53.7942 45.2195 53.8011 45.265 53.8011C45.2967 53.8011 45.3285 53.7985 45.3603 53.7932C45.392 53.7868 45.4164 53.7821 45.4333 53.7789L45.5397 54.2823C45.5058 54.2929 45.4582 54.3051 45.3968 54.3189C45.3354 54.3337 45.2607 54.3427 45.1729 54.3459C45.0098 54.3522 44.8669 54.3305 44.7441 54.2807C44.6223 54.231 44.5276 54.1537 44.4598 54.0489C44.3921 53.9441 44.3587 53.8117 44.3598 53.6518V51.2887ZM47.0566 54.3601C46.8099 54.3601 46.5966 54.3077 46.4166 54.2029C46.2377 54.097 46.0995 53.9499 46.0021 53.7614C45.9047 53.5719 45.856 53.3522 45.856 53.1024C45.856 52.8504 45.9047 52.6302 46.0021 52.4417C46.0995 52.2522 46.2377 52.105 46.4166 52.0002C46.5966 51.8943 46.8099 51.8414 47.0566 51.8414C47.3033 51.8414 47.5161 51.8943 47.6951 52.0002C47.875 52.105 48.0137 52.2522 48.1111 52.4417C48.2085 52.6302 48.2572 52.8504 48.2572 53.1024C48.2572 53.3522 48.2085 53.5719 48.1111 53.7614C48.0137 53.9499 47.875 54.097 47.6951 54.2029C47.5161 54.3077 47.3033 54.3601 47.0566 54.3601ZM47.0598 53.8361C47.172 53.8361 47.2657 53.8043 47.3409 53.7408C47.4161 53.6762 47.4727 53.5883 47.5108 53.4772C47.55 53.366 47.5696 53.2395 47.5696 53.0976C47.5696 52.9557 47.55 52.8292 47.5108 52.718C47.4727 52.6069 47.4161 52.519 47.3409 52.4544C47.2657 52.3898 47.172 52.3575 47.0598 52.3575C46.9465 52.3575 46.8512 52.3898 46.7739 52.4544C46.6977 52.519 46.64 52.6069 46.6008 52.718C46.5627 52.8292 46.5437 52.9557 46.5437 53.0976C46.5437 53.2395 46.5627 53.366 46.6008 53.4772C46.64 53.5883 46.6977 53.6762 46.7739 53.7408C46.8512 53.8043 46.9465 53.8361 47.0598 53.8361ZM48.7419 54.3125V51.8732H49.3978V52.2988H49.4232C49.4676 52.1474 49.5423 52.033 49.6471 51.9557C49.7519 51.8774 49.8726 51.8382 50.0092 51.8382C50.0431 51.8382 50.0796 51.8403 50.1188 51.8446C50.1579 51.8488 50.1923 51.8546 50.222 51.862V52.4623C50.1902 52.4528 50.1463 52.4443 50.0902 52.4369C50.0341 52.4295 49.9827 52.4258 49.9361 52.4258C49.8366 52.4258 49.7477 52.4475 49.6693 52.4909C49.592 52.5333 49.5306 52.5926 49.4851 52.6688C49.4406 52.745 49.4184 52.8329 49.4184 52.9324V54.3125H48.7419ZM51.1084 55.2273C51.0227 55.2273 50.9422 55.2204 50.867 55.2066C50.7929 55.1939 50.7315 55.1775 50.6828 55.1574L50.8353 54.6524C50.9147 54.6767 50.9861 54.6899 51.0497 54.6921C51.1142 54.6942 51.1698 54.6794 51.2164 54.6476C51.2641 54.6158 51.3027 54.5618 51.3323 54.4856L51.372 54.3824L50.497 51.8732H51.2085L51.7135 53.6645H51.7389L52.2487 51.8732H52.9649L52.0168 54.5761C51.9713 54.7074 51.9094 54.8218 51.831 54.9192C51.7537 55.0176 51.6558 55.0933 51.5372 55.1463C51.4186 55.2003 51.2757 55.2273 51.1084 55.2273Z" fill="white"/>
</g>
<defs>
<filter id="filter0_d_1684_2441" x="0" y="0" width="77" height="72.9414" filterUnits="userSpaceOnUse" color-interpolation-filters="sRGB">
<feFlood flood-opacity="0" result="BackgroundImageFix"/>
<feColorMatrix in="SourceAlpha" type="matrix" values="0 0 0 0 0 0 0 0 0 0 0 0 0 0 0 0 0 0 127 0" result="hardAlpha"/>
<feOffset dy="4"/>
<feGaussianBlur stdDeviation="2"/>
<feComposite in2="hardAlpha" operator="out"/>
<feColorMatrix type="matrix" values="0 0 0 0 0.150916 0 0 0 0 0.150916 0 0 0 0 0.150916 0 0 0 0.25 0"/>
<feBlend mode="normal" in2="BackgroundImageFix" result="effect1_dropShadow_1684_2441"/>
<feBlend mode="normal" in="SourceGraphic" in2="effect1_dropShadow_1684_2441" result="shape"/>
</filter>
<filter id="filter1_d_1684_2441" x="38.1104" y="7.625" width="33.8593" height="39.788" filterUnits="userSpaceOnUse" color-interpolation-filters="sRGB">
<feFlood flood-opacity="0" result="BackgroundImageFix"/>
<feColorMatrix in="SourceAlpha" type="matrix" values="0 0 0 0 0 0 0 0 0 0 0 0 0 0 0 0 0 0 127 0" result="hardAlpha"/>
<feOffset dy="3.9614"/>
<feGaussianBlur stdDeviation="1.9807"/>
<feComposite in2="hardAlpha" operator="out"/>
<feColorMatrix type="matrix" values="0 0 0 0 0.623967 0 0 0 0 0.584278 0 0 0 0 0.584278 0 0 0 0.25 0"/>
<feBlend mode="normal" in2="BackgroundImageFix" result="effect1_dropShadow_1684_2441"/>
<feBlend mode="normal" in="SourceGraphic" in2="effect1_dropShadow_1684_2441" result="shape"/>
</filter>
<filter id="filter2_d_1684_2441" x="27.7564" y="14.9082" width="35.0048" height="37.8017" filterUnits="userSpaceOnUse" color-interpolation-filters="sRGB">
<feFlood flood-opacity="0" result="BackgroundImageFix"/>
<feColorMatrix in="SourceAlpha" type="matrix" values="0 0 0 0 0 0 0 0 0 0 0 0 0 0 0 0 0 0 127 0" result="hardAlpha"/>
<feOffset dy="3.9614"/>
<feGaussianBlur stdDeviation="1.9807"/>
<feComposite in2="hardAlpha" operator="out"/>
<feColorMatrix type="matrix" values="0 0 0 0 0.623967 0 0 0 0 0.584278 0 0 0 0 0.584278 0 0 0 0.25 0"/>
<feBlend mode="normal" in2="BackgroundImageFix" result="effect1_dropShadow_1684_2441"/>
<feBlend mode="normal" in="SourceGraphic" in2="effect1_dropShadow_1684_2441" result="shape"/>
</filter>
<filter id="filter3_d_1684_2441" x="4.27151" y="9.60156" width="38.0634" height="40.4892" filterUnits="userSpaceOnUse" color-interpolation-filters="sRGB">
<feFlood flood-opacity="0" result="BackgroundImageFix"/>
<feColorMatrix in="SourceAlpha" type="matrix" values="0 0 0 0 0 0 0 0 0 0 0 0 0 0 0 0 0 0 127 0" result="hardAlpha"/>
<feOffset dy="3.9614"/>
<feGaussianBlur stdDeviation="1.9807"/>
<feComposite in2="hardAlpha" operator="out"/>
<feColorMatrix type="matrix" values="0 0 0 0 0.623967 0 0 0 0 0.584278 0 0 0 0 0.584278 0 0 0 0.25 0"/>
<feBlend mode="normal" in2="BackgroundImageFix" result="effect1_dropShadow_1684_2441"/>
<feBlend mode="normal" in="SourceGraphic" in2="effect1_dropShadow_1684_2441" result="shape"/>
</filter>
<linearGradient id="paint0_linear_1684_2441" x1="38.5001" y1="2.11719" x2="38.5001" y2="57.1479" gradientUnits="userSpaceOnUse">
<stop stop-color="#FF2A2A"/>
<stop offset="1" stop-color="#FC7005"/>
</linearGradient>
</defs>
</svg>
