<svg width="77" height="73" viewBox="0 0 77 73" fill="none" xmlns="http://www.w3.org/2000/svg">
<g filter="url(#filter0_d_1684_2478)">
<rect x="4" width="69" height="64.6875" rx="8.625" fill="#3E3E3E"/>
<rect x="6.0293" y="2.11719" width="64.7669" height="55.0307" rx="5.75" fill="url(#paint0_linear_1684_2478)"/>
<g filter="url(#filter1_d_1684_2478)">
<rect x="46.4751" y="7.61914" width="21.7877" height="28.8814" rx="1.74113" transform="rotate(8.76938 46.4751 7.61914)" fill="white" shape-rendering="crispEdges"/>
<rect x="48.5156" y="11.0098" width="16.7208" height="1.01338" rx="0.506691" transform="rotate(8.76938 48.5156 11.0098)" fill="#D9D9D9"/>
<rect x="47.9751" y="14.5156" width="8.10706" height="1.01338" rx="0.506691" transform="rotate(8.76938 47.9751 14.5156)" fill="#D9D9D9"/>
<rect x="47.4341" y="18.0215" width="16.7208" height="1.01338" rx="0.506691" transform="rotate(8.76938 47.4341 18.0215)" fill="#D9D9D9"/>
<rect x="46.8936" y="21.5254" width="11.1472" height="1.01338" rx="0.506691" transform="rotate(8.76938 46.8936 21.5254)" fill="#D9D9D9"/>
<rect x="46.3525" y="25.0312" width="16.7208" height="1.01338" rx="0.506691" transform="rotate(8.76938 46.3525 25.0312)" fill="#D9D9D9"/>
<rect x="45.812" y="28.5371" width="6.08029" height="1.01338" rx="0.506691" transform="rotate(8.76938 45.812 28.5371)" fill="#D9D9D9"/>
<rect x="45.271" y="32.043" width="16.7208" height="1.01338" rx="0.506691" transform="rotate(8.76938 45.271 32.043)" fill="#D9D9D9"/>
</g>
<g filter="url(#filter2_d_1684_2478)">
<rect x="32.8525" y="14.9043" width="25.9673" height="28.8814" rx="1.74113" transform="rotate(2.25177 32.8525 14.9043)" fill="white" shape-rendering="crispEdges"/>
<rect x="35.2646" y="18.041" width="19.6882" height="1.01338" rx="0.506691" transform="rotate(2.25177 35.2646 18.041)" fill="#D9D9D9"/>
<rect x="35.125" y="21.5859" width="8.10706" height="1.01338" rx="0.506691" transform="rotate(2.25177 35.125 21.5859)" fill="#D9D9D9"/>
<rect x="34.9858" y="25.1289" width="19.6882" height="1.01338" rx="0.506691" transform="rotate(2.25177 34.9858 25.1289)" fill="#D9D9D9"/>
<rect x="34.8467" y="28.6738" width="11.1472" height="1.01338" rx="0.506691" transform="rotate(2.25177 34.8467 28.6738)" fill="#D9D9D9"/>
<rect x="34.707" y="32.2168" width="19.6882" height="1.01338" rx="0.506691" transform="rotate(2.25177 34.707 32.2168)" fill="#D9D9D9"/>
<rect x="34.5679" y="35.7617" width="6.08029" height="1.01338" rx="0.506691" transform="rotate(2.25177 34.5679 35.7617)" fill="#D9D9D9"/>
<rect x="34.4287" y="39.3047" width="19.6882" height="1.01338" rx="0.506691" transform="rotate(2.25177 34.4287 39.3047)" fill="#D9D9D9"/>
</g>
<g filter="url(#filter3_d_1684_2478)">
<rect x="8.2334" y="13.6348" width="25.9673" height="28.8814" rx="1.74113" transform="rotate(-8.94151 8.2334 13.6348)" fill="white" shape-rendering="crispEdges"/>
<rect x="11.2085" y="16.2441" width="19.6882" height="1.01338" rx="0.506691" transform="rotate(-8.94151 11.2085 16.2441)" fill="#D9D9D9"/>
<rect x="11.7598" y="19.748" width="8.10706" height="1.01338" rx="0.506691" transform="rotate(-8.94151 11.7598 19.748)" fill="#D9D9D9"/>
<rect x="12.311" y="23.252" width="19.6882" height="1.01338" rx="0.506691" transform="rotate(-8.94151 12.311 23.252)" fill="#D9D9D9"/>
<rect x="12.8623" y="26.7559" width="11.1472" height="1.01338" rx="0.506691" transform="rotate(-8.94151 12.8623 26.7559)" fill="#D9D9D9"/>
<rect x="13.4136" y="30.2598" width="19.6882" height="1.01338" rx="0.506691" transform="rotate(-8.94151 13.4136 30.2598)" fill="#D9D9D9"/>
<rect x="13.9648" y="33.7637" width="6.08029" height="1.01338" rx="0.506691" transform="rotate(-8.94151 13.9648 33.7637)" fill="#D9D9D9"/>
<rect x="14.5161" y="37.2656" width="19.6882" height="1.01338" rx="0.506691" transform="rotate(-8.94151 14.5161 37.2656)" fill="#D9D9D9"/>
</g>
<path d="M65.0687 27.3649L29.452 27.341L26.5335 21.3196L25.2995 18.7715H8.2521C6.46263 18.7715 5.01465 19.9735 5.01465 21.4586V58.1951C5.01465 59.6782 6.46263 60.8818 8.2521 60.8818H68.7458C70.5351 60.8818 71.9852 59.6782 71.9852 58.1951V32.918C71.9852 30.366 69.9016 28.2187 67.076 27.5595C66.3591 27.4253 65.0687 27.3649 65.0687 27.3649ZM71.2664 54.8795V56.8845H5.73843V54.8795H71.2664Z" fill="#3E3E3E"/>
<path opacity="0.8" d="M10.28 40L12.37 33H13.63L15.72 40H14.57L14.1 38.32H11.9L11.43 40H10.28ZM12.97 34.5L12.14 37.47H13.86L13.03 34.5H12.97ZM19.0161 40.12C18.4294 40.12 17.9294 39.97 17.5161 39.67C17.1094 39.37 16.7961 38.95 16.5761 38.41C16.3628 37.8633 16.2561 37.23 16.2561 36.51C16.2561 35.7833 16.3628 35.15 16.5761 34.61C16.7961 34.0633 17.1128 33.64 17.5261 33.34C17.9394 33.0333 18.4361 32.88 19.0161 32.88C19.7694 32.88 20.3694 33.0867 20.8161 33.5C21.2628 33.9067 21.5228 34.46 21.5961 35.16H20.4261C20.3661 34.7933 20.2161 34.49 19.9761 34.25C19.7428 34.0033 19.4194 33.88 19.0061 33.88C18.4794 33.88 18.0694 34.1133 17.7761 34.58C17.4828 35.0467 17.3361 35.69 17.3361 36.51C17.3361 37.3233 17.4828 37.9633 17.7761 38.43C18.0694 38.89 18.4794 39.12 19.0061 39.12C19.4328 39.12 19.7594 39.01 19.9861 38.79C20.2128 38.5633 20.3594 38.2667 20.4261 37.9H21.5961C21.4894 38.5867 21.2194 39.13 20.7861 39.53C20.3528 39.9233 19.7628 40.12 19.0161 40.12ZM24.9922 40.12C24.4255 40.12 23.9355 39.9733 23.5222 39.68C23.1089 39.3867 22.7922 38.97 22.5722 38.43C22.3522 37.89 22.2422 37.2467 22.2422 36.5C22.2422 35.7533 22.3522 35.11 22.5722 34.57C22.7922 34.03 23.1089 33.6133 23.5222 33.32C23.9355 33.0267 24.4255 32.88 24.9922 32.88C25.5655 32.88 26.0555 33.0267 26.4622 33.32C26.8755 33.6133 27.1922 34.03 27.4122 34.57C27.6322 35.11 27.7422 35.7533 27.7422 36.5C27.7422 37.2467 27.6322 37.89 27.4122 38.43C27.1922 38.97 26.8755 39.3867 26.4622 39.68C26.0555 39.9733 25.5655 40.12 24.9922 40.12ZM24.9922 39.12C25.4922 39.12 25.8955 38.8967 26.2022 38.45C26.5089 37.9967 26.6622 37.3467 26.6622 36.5C26.6622 35.6533 26.5089 35.0067 26.2022 34.56C25.8955 34.1067 25.4922 33.88 24.9922 33.88C24.4855 33.88 24.0789 34.1067 23.7722 34.56C23.4722 35.0067 23.3222 35.6533 23.3222 36.5C23.3222 37.3467 23.4722 37.9967 23.7722 38.45C24.0789 38.8967 24.4855 39.12 24.9922 39.12ZM28.7383 40V33H31.0283C31.5749 33 32.0249 33.0933 32.3783 33.28C32.7383 33.4667 33.0049 33.72 33.1783 34.04C33.3583 34.3533 33.4483 34.71 33.4483 35.11C33.4483 35.5633 33.3316 35.9667 33.0983 36.32C32.8716 36.6667 32.5216 36.92 32.0483 37.08L33.5183 40H32.2883L30.9483 37.23H29.7983V40H28.7383ZM29.7983 36.27H30.9683C31.4483 36.27 31.7983 36.1633 32.0183 35.95C32.2449 35.7367 32.3583 35.4567 32.3583 35.11C32.3583 34.7567 32.2483 34.4767 32.0283 34.27C31.8083 34.0567 31.4516 33.95 30.9583 33.95H29.7983V36.27ZM34.5544 40V33H36.2344C37.361 33 38.1977 33.3133 38.7444 33.94C39.291 34.56 39.5644 35.4133 39.5644 36.5C39.5644 37.5867 39.291 38.4433 38.7444 39.07C38.1977 39.69 37.361 40 36.2344 40H34.5544ZM35.6144 39.02H36.1944C37.0077 39.02 37.5944 38.7933 37.9544 38.34C38.3144 37.88 38.4944 37.2667 38.4944 36.5C38.4944 35.7333 38.3144 35.1233 37.9544 34.67C37.5944 34.21 37.0077 33.98 36.1944 33.98H35.6144V39.02ZM46.6366 40V39.05H48.3666V34.25L46.7166 34.55V33.69L48.7766 33H49.4266V39.05H51.2866V40H46.6366ZM52.6727 40V39.16C53.3593 38.6133 53.9593 38.11 54.4727 37.65C54.9927 37.19 55.3993 36.7467 55.6927 36.32C55.986 35.8933 56.1327 35.46 56.1327 35.02C56.1327 34.6533 56.0293 34.3667 55.8227 34.16C55.616 33.9467 55.336 33.84 54.9827 33.84C54.576 33.84 54.2627 33.97 54.0427 34.23C53.8227 34.4833 53.7127 34.7867 53.7127 35.14H52.6827C52.6893 34.6467 52.7927 34.2333 52.9927 33.9C53.1927 33.5667 53.4627 33.3133 53.8027 33.14C54.1493 32.9667 54.5427 32.88 54.9827 32.88C55.696 32.88 56.246 33.0733 56.6327 33.46C57.0193 33.84 57.2127 34.35 57.2127 34.99C57.2127 35.3967 57.1227 35.79 56.9427 36.17C56.7693 36.5433 56.5393 36.9 56.2527 37.24C55.966 37.58 55.646 37.9033 55.2927 38.21C54.946 38.5167 54.596 38.81 54.2427 39.09H57.4027V40H52.6727ZM60.9588 40.12C60.4721 40.12 60.0488 40.03 59.6888 39.85C59.3288 39.67 59.0454 39.4233 58.8388 39.11C58.6388 38.7967 58.5221 38.4433 58.4888 38.05H59.5688C59.6354 38.3767 59.7888 38.64 60.0288 38.84C60.2754 39.04 60.5888 39.14 60.9688 39.14C61.4154 39.14 61.7688 39 62.0288 38.72C62.2888 38.4333 62.4188 38.0667 62.4188 37.62C62.4188 37.1467 62.2854 36.78 62.0188 36.52C61.7521 36.26 61.4121 36.13 60.9988 36.13C60.6654 36.13 60.3821 36.2067 60.1488 36.36C59.9154 36.5133 59.7321 36.7067 59.5988 36.94H58.5788L59.1788 33H62.9888V33.98H59.9988L59.6588 35.77H59.7288C59.8688 35.61 60.0554 35.4767 60.2888 35.37C60.5288 35.2633 60.8121 35.21 61.1388 35.21C61.6188 35.21 62.0288 35.3133 62.3688 35.52C62.7154 35.7267 62.9821 36.0133 63.1688 36.38C63.3554 36.74 63.4488 37.15 63.4488 37.61C63.4488 38.0767 63.3454 38.5 63.1388 38.88C62.9388 39.26 62.6521 39.5633 62.2788 39.79C61.9054 40.01 61.4654 40.12 60.9588 40.12Z" fill="white"/>
<path d="M13.1524 46.9448H12.4568C12.4441 46.8548 12.4182 46.7749 12.379 46.705C12.3398 46.6341 12.2895 46.5737 12.2281 46.524C12.1667 46.4742 12.0958 46.4361 12.0153 46.4096C11.9359 46.3832 11.8496 46.3699 11.7565 46.3699C11.5881 46.3699 11.4415 46.4117 11.3165 46.4954C11.1916 46.578 11.0947 46.6987 11.0259 46.8575C10.9571 47.0152 10.9227 47.2069 10.9227 47.4324C10.9227 47.6642 10.9571 47.859 11.0259 48.0168C11.0958 48.1745 11.1932 48.2937 11.3181 48.3741C11.4431 48.4546 11.5876 48.4948 11.7517 48.4948C11.8438 48.4948 11.929 48.4826 12.0074 48.4583C12.0868 48.4339 12.1572 48.3985 12.2186 48.3519C12.28 48.3042 12.3308 48.2465 12.3711 48.1788C12.4123 48.111 12.4409 48.0337 12.4568 47.9469L13.1524 47.9501C13.1344 48.0994 13.0894 48.2434 13.0174 48.3821C12.9465 48.5197 12.8507 48.643 12.73 48.7521C12.6103 48.8601 12.4674 48.9458 12.3012 49.0094C12.136 49.0718 11.9491 49.1031 11.7406 49.1031C11.4505 49.1031 11.1911 49.0374 10.9624 48.9061C10.7348 48.7749 10.5548 48.5848 10.4224 48.336C10.2912 48.0872 10.2255 47.786 10.2255 47.4324C10.2255 47.0777 10.2922 46.7759 10.4256 46.5271C10.559 46.2783 10.7401 46.0888 10.9687 45.9586C11.1974 45.8273 11.4547 45.7617 11.7406 45.7617C11.929 45.7617 12.1037 45.7881 12.2647 45.8411C12.4266 45.894 12.5701 45.9713 12.695 46.0729C12.82 46.1735 12.9216 46.2969 12.9999 46.443C13.0794 46.5891 13.1302 46.7564 13.1524 46.9448ZM14.7797 49.1062C14.533 49.1062 14.3197 49.0538 14.1397 48.949C13.9607 48.8431 13.8226 48.696 13.7252 48.5075C13.6278 48.318 13.5791 48.0983 13.5791 47.8485C13.5791 47.5965 13.6278 47.3763 13.7252 47.1878C13.8226 46.9983 13.9607 46.8511 14.1397 46.7463C14.3197 46.6404 14.533 46.5875 14.7797 46.5875C15.0264 46.5875 15.2392 46.6404 15.4181 46.7463C15.5981 46.8511 15.7368 46.9983 15.8342 47.1878C15.9316 47.3763 15.9803 47.5965 15.9803 47.8485C15.9803 48.0983 15.9316 48.318 15.8342 48.5075C15.7368 48.696 15.5981 48.8431 15.4181 48.949C15.2392 49.0538 15.0264 49.1062 14.7797 49.1062ZM14.7829 48.5822C14.8951 48.5822 14.9888 48.5504 15.064 48.4869C15.1391 48.4223 15.1958 48.3344 15.2339 48.2232C15.2731 48.1121 15.2926 47.9856 15.2926 47.8437C15.2926 47.7018 15.2731 47.5753 15.2339 47.4641C15.1958 47.353 15.1391 47.2651 15.064 47.2005C14.9888 47.1359 14.8951 47.1036 14.7829 47.1036C14.6696 47.1036 14.5743 47.1359 14.497 47.2005C14.4208 47.2651 14.3631 47.353 14.3239 47.4641C14.2858 47.5753 14.2667 47.7018 14.2667 47.8437C14.2667 47.9856 14.2858 48.1121 14.3239 48.2232C14.3631 48.3344 14.4208 48.4223 14.497 48.4869C14.5743 48.5504 14.6696 48.5822 14.7829 48.5822ZM16.4649 49.0586V46.6193H17.1097V47.0496H17.1383C17.1891 46.9067 17.2738 46.7939 17.3924 46.7114C17.511 46.6288 17.6528 46.5875 17.818 46.5875C17.9853 46.5875 18.1277 46.6293 18.2452 46.7129C18.3627 46.7955 18.4411 46.9078 18.4802 47.0496H18.5057C18.5554 46.9099 18.6454 46.7982 18.7756 46.7145C18.9069 46.6298 19.062 46.5875 19.2409 46.5875C19.4686 46.5875 19.6533 46.66 19.7952 46.8051C19.9381 46.949 20.0096 47.1534 20.0096 47.4181V49.0586H19.3346V47.5515C19.3346 47.416 19.2987 47.3143 19.2267 47.2466C19.1547 47.1788 19.0647 47.1449 18.9567 47.1449C18.8339 47.1449 18.738 47.1841 18.6692 47.2624C18.6004 47.3397 18.566 47.4419 18.566 47.5689V49.0586H17.9101V47.5372C17.9101 47.4175 17.8757 47.3223 17.8069 47.2513C17.7391 47.1804 17.6497 47.1449 17.5385 47.1449C17.4633 47.1449 17.3956 47.164 17.3352 47.2021C17.2759 47.2391 17.2288 47.2916 17.1939 47.3593C17.1589 47.426 17.1415 47.5044 17.1415 47.5944V49.0586H16.4649ZM20.5887 49.0586V46.6193H21.2335V47.0496H21.2621C21.3129 46.9067 21.3976 46.7939 21.5162 46.7114C21.6348 46.6288 21.7766 46.5875 21.9418 46.5875C22.1091 46.5875 22.2515 46.6293 22.369 46.7129C22.4865 46.7955 22.5649 46.9078 22.604 47.0496H22.6294C22.6792 46.9099 22.7692 46.7982 22.8994 46.7145C23.0307 46.6298 23.1858 46.5875 23.3647 46.5875C23.5924 46.5875 23.7771 46.66 23.919 46.8051C24.0619 46.949 24.1334 47.1534 24.1334 47.4181V49.0586H23.4584V47.5515C23.4584 47.416 23.4224 47.3143 23.3504 47.2466C23.2785 47.1788 23.1885 47.1449 23.0805 47.1449C22.9577 47.1449 22.8618 47.1841 22.793 47.2624C22.7242 47.3397 22.6898 47.4419 22.6898 47.5689V49.0586H22.0339V47.5372C22.0339 47.4175 21.9995 47.3223 21.9307 47.2513C21.8629 47.1804 21.7735 47.1449 21.6623 47.1449C21.5871 47.1449 21.5194 47.164 21.459 47.2021C21.3997 47.2391 21.3526 47.2916 21.3177 47.3593C21.2827 47.426 21.2653 47.5044 21.2653 47.5944V49.0586H20.5887ZM25.8242 49.1062C25.5733 49.1062 25.3573 49.0554 25.1762 48.9538C24.9963 48.8511 24.8576 48.706 24.7602 48.5186C24.6627 48.3302 24.614 48.1073 24.614 47.85C24.614 47.5991 24.6627 47.3789 24.7602 47.1894C24.8576 46.9999 24.9947 46.8522 25.1715 46.7463C25.3493 46.6404 25.5579 46.5875 25.7972 46.5875C25.9581 46.5875 26.1079 46.6134 26.2466 46.6653C26.3864 46.7161 26.5081 46.7929 26.6119 46.8956C26.7167 46.9983 26.7982 47.1274 26.8565 47.2831C26.9147 47.4377 26.9438 47.6187 26.9438 47.8262V48.012H24.884V47.5928H26.307C26.307 47.4954 26.2858 47.4091 26.2435 47.3339C26.2011 47.2587 26.1423 47.2 26.0672 47.1576C25.9931 47.1142 25.9068 47.0925 25.8083 47.0925C25.7056 47.0925 25.6146 47.1163 25.5352 47.164C25.4568 47.2106 25.3954 47.2736 25.3509 47.353C25.3065 47.4313 25.2837 47.5187 25.2826 47.615V48.0136C25.2826 48.1343 25.3049 48.2386 25.3493 48.3265C25.3949 48.4143 25.4589 48.4821 25.5415 48.5298C25.6241 48.5774 25.722 48.6012 25.8353 48.6012C25.9105 48.6012 25.9793 48.5906 26.0418 48.5695C26.1042 48.5483 26.1577 48.5165 26.2022 48.4742C26.2466 48.4318 26.2805 48.3799 26.3038 48.3185L26.9295 48.3598C26.8978 48.5102 26.8326 48.6414 26.7342 48.7537C26.6368 48.8648 26.5108 48.9517 26.3562 49.0141C26.2027 49.0755 26.0254 49.1062 25.8242 49.1062ZM27.43 49.0586V46.6193H28.0859V47.0449H28.1113C28.1558 46.8935 28.2304 46.7791 28.3353 46.7018C28.4401 46.6235 28.5608 46.5843 28.6973 46.5843C28.7312 46.5843 28.7677 46.5864 28.8069 46.5907C28.8461 46.5949 28.8805 46.6007 28.9101 46.6081V47.2084C28.8784 47.1989 28.8344 47.1904 28.7783 47.183C28.7222 47.1756 28.6709 47.1719 28.6243 47.1719C28.5248 47.1719 28.4358 47.1936 28.3575 47.237C28.2802 47.2794 28.2188 47.3387 28.1733 47.4149C28.1288 47.4911 28.1066 47.579 28.1066 47.6785V49.0586H27.43ZM30.2933 49.1062C30.0434 49.1062 29.8285 49.0533 29.6485 48.9474C29.4696 48.8405 29.3319 48.6923 29.2356 48.5028C29.1403 48.3132 29.0926 48.0951 29.0926 47.8485C29.0926 47.5986 29.1408 47.3794 29.2372 47.191C29.3346 47.0015 29.4727 46.8538 29.6517 46.7479C29.8306 46.641 30.0434 46.5875 30.2901 46.5875C30.5029 46.5875 30.6892 46.6261 30.8491 46.7034C31.009 46.7807 31.1355 46.8892 31.2287 47.029C31.3218 47.1687 31.3732 47.3328 31.3827 47.5213H30.7443C30.7263 47.3995 30.6786 47.3016 30.6013 47.2275C30.5251 47.1523 30.4251 47.1147 30.3012 47.1147C30.1964 47.1147 30.1048 47.1433 30.0265 47.2005C29.9492 47.2566 29.8888 47.3387 29.8454 47.4467C29.802 47.5546 29.7803 47.6854 29.7803 47.8389C29.7803 47.9946 29.8015 48.1269 29.8438 48.236C29.8872 48.345 29.9481 48.4281 30.0265 48.4853C30.1048 48.5425 30.1964 48.571 30.3012 48.571C30.3785 48.571 30.4478 48.5552 30.5092 48.5234C30.5717 48.4916 30.6231 48.4456 30.6633 48.3852C30.7046 48.3238 30.7316 48.2502 30.7443 48.1645H31.3827C31.3721 48.3508 31.3213 48.5149 31.2302 48.6568C31.1402 48.7976 31.0158 48.9077 30.857 48.9871C30.6982 49.0665 30.5103 49.1062 30.2933 49.1062ZM31.8606 49.0586V46.6193H32.5371V49.0586H31.8606ZM32.2004 46.3048C32.0999 46.3048 32.0136 46.2715 31.9416 46.2048C31.8706 46.137 31.8352 46.056 31.8352 45.9618C31.8352 45.8686 31.8706 45.7887 31.9416 45.722C32.0136 45.6542 32.0999 45.6203 32.2004 45.6203C32.301 45.6203 32.3868 45.6542 32.4577 45.722C32.5297 45.7887 32.5657 45.8686 32.5657 45.9618C32.5657 46.056 32.5297 46.137 32.4577 46.2048C32.3868 46.2715 32.301 46.3048 32.2004 46.3048ZM33.8194 49.1046C33.6637 49.1046 33.525 49.0777 33.4033 49.0237C33.2815 48.9686 33.1852 48.8876 33.1143 48.7807C33.0444 48.6727 33.0094 48.5382 33.0094 48.3773C33.0094 48.2418 33.0343 48.128 33.0841 48.0358C33.1338 47.9437 33.2016 47.8696 33.2874 47.8135C33.3731 47.7574 33.4705 47.715 33.5796 47.6865C33.6897 47.6579 33.8051 47.6378 33.9258 47.6261C34.0677 47.6113 34.182 47.5975 34.2688 47.5848C34.3556 47.5711 34.4186 47.5509 34.4578 47.5245C34.497 47.498 34.5166 47.4588 34.5166 47.407V47.3974C34.5166 47.2968 34.4848 47.219 34.4213 47.164C34.3588 47.1089 34.2699 47.0814 34.1545 47.0814C34.0327 47.0814 33.9358 47.1084 33.8638 47.1624C33.7918 47.2153 33.7442 47.282 33.7209 47.3625L33.0952 47.3117C33.127 47.1634 33.1894 47.0353 33.2826 46.9273C33.3758 46.8183 33.4959 46.7347 33.6431 46.6764C33.7913 46.6171 33.9628 46.5875 34.1576 46.5875C34.2932 46.5875 34.4229 46.6034 34.5467 46.6351C34.6717 46.6669 34.7823 46.7161 34.8786 46.7828C34.9761 46.8495 35.0528 46.9353 35.1089 47.0401C35.165 47.1439 35.1931 47.2683 35.1931 47.4133V49.0586H34.5515V48.7203H34.5324C34.4933 48.7966 34.4409 48.8638 34.3752 48.922C34.3096 48.9792 34.2307 49.0242 34.1386 49.057C34.0465 49.0888 33.9401 49.1046 33.8194 49.1046ZM34.0131 48.6377C34.1126 48.6377 34.2005 48.6182 34.2768 48.579C34.353 48.5388 34.4128 48.4848 34.4562 48.417C34.4996 48.3492 34.5213 48.2725 34.5213 48.1867V47.9279C34.5001 47.9416 34.471 47.9543 34.434 47.966C34.398 47.9766 34.3572 47.9866 34.3117 47.9961C34.2662 48.0046 34.2206 48.0126 34.1751 48.02C34.1296 48.0263 34.0883 48.0321 34.0512 48.0374C33.9718 48.0491 33.9025 48.0676 33.8432 48.093C33.7839 48.1184 33.7379 48.1528 33.705 48.1962C33.6722 48.2386 33.6558 48.2915 33.6558 48.3551C33.6558 48.4472 33.6891 48.5176 33.7559 48.5663C33.8236 48.6139 33.9094 48.6377 34.0131 48.6377ZM36.4392 45.8061V49.0586H35.7627V45.8061H36.4392ZM38.679 49.0586H37.9421L39.0649 45.8061H39.9511L41.0723 49.0586H40.3354L39.5207 46.5494H39.4953L38.679 49.0586ZM38.6329 47.7802H40.3735V48.3169H38.6329V47.7802ZM41.4957 49.9733V46.6193H42.1628V47.029H42.1929C42.2226 46.9633 42.2655 46.8966 42.3216 46.8289C42.3787 46.7601 42.4528 46.7029 42.5439 46.6574C42.636 46.6108 42.7504 46.5875 42.8869 46.5875C43.0648 46.5875 43.2289 46.6341 43.3792 46.7272C43.5296 46.8194 43.6498 46.9586 43.7398 47.1449C43.8297 47.3302 43.8747 47.5626 43.8747 47.8421C43.8747 48.1142 43.8308 48.3439 43.7429 48.5313C43.6561 48.7177 43.5375 48.859 43.3872 48.9554C43.2379 49.0507 43.0706 49.0983 42.8853 49.0983C42.7541 49.0983 42.6424 49.0766 42.5503 49.0332C42.4592 48.9898 42.3846 48.9353 42.3263 48.8696C42.2681 48.8029 42.2236 48.7357 42.1929 48.6679H42.1723V49.9733H41.4957ZM42.158 47.8389C42.158 47.984 42.1781 48.1105 42.2183 48.2185C42.2586 48.3265 42.3168 48.4106 42.393 48.471C42.4693 48.5303 42.5619 48.5599 42.671 48.5599C42.7811 48.5599 42.8742 48.5298 42.9505 48.4694C43.0267 48.408 43.0844 48.3233 43.1236 48.2153C43.1638 48.1063 43.1839 47.9808 43.1839 47.8389C43.1839 47.6981 43.1643 47.5742 43.1252 47.4673C43.086 47.3604 43.0283 47.2767 42.952 47.2164C42.8758 47.156 42.7821 47.1259 42.671 47.1259C42.5608 47.1259 42.4677 47.155 42.3914 47.2132C42.3163 47.2714 42.2586 47.354 42.2183 47.461C42.1781 47.5679 42.158 47.6939 42.158 47.8389ZM44.3705 49.9733V46.6193H45.0375V47.029H45.0677C45.0973 46.9633 45.1402 46.8966 45.1963 46.8289C45.2535 46.7601 45.3276 46.7029 45.4186 46.6574C45.5108 46.6108 45.6251 46.5875 45.7617 46.5875C45.9395 46.5875 46.1036 46.6341 46.254 46.7272C46.4043 46.8194 46.5245 46.9586 46.6145 47.1449C46.7045 47.3302 46.7495 47.5626 46.7495 47.8421C46.7495 48.1142 46.7055 48.3439 46.6177 48.5313C46.5308 48.7177 46.4123 48.859 46.2619 48.9554C46.1126 49.0507 45.9454 49.0983 45.7601 49.0983C45.6288 49.0983 45.5171 49.0766 45.425 49.0332C45.3339 48.9898 45.2593 48.9353 45.2011 48.8696C45.1428 48.8029 45.0984 48.7357 45.0677 48.6679H45.047V49.9733H44.3705ZM45.0327 47.8389C45.0327 47.984 45.0528 48.1105 45.0931 48.2185C45.1333 48.3265 45.1915 48.4106 45.2678 48.471C45.344 48.5303 45.4366 48.5599 45.5457 48.5599C45.6558 48.5599 45.749 48.5298 45.8252 48.4694C45.9014 48.408 45.9591 48.3233 45.9983 48.2153C46.0385 48.1063 46.0587 47.9808 46.0587 47.8389C46.0587 47.6981 46.0391 47.5742 45.9999 47.4673C45.9607 47.3604 45.903 47.2767 45.8268 47.2164C45.7506 47.156 45.6569 47.1259 45.5457 47.1259C45.4356 47.1259 45.3424 47.155 45.2662 47.2132C45.191 47.2714 45.1333 47.354 45.0931 47.461C45.0528 47.5679 45.0327 47.6939 45.0327 47.8389ZM47.9218 45.8061V49.0586H47.2452V45.8061H47.9218ZM48.5084 49.0586V46.6193H49.185V49.0586H48.5084ZM48.8483 46.3048C48.7477 46.3048 48.6614 46.2715 48.5894 46.2048C48.5185 46.137 48.483 46.056 48.483 45.9618C48.483 45.8686 48.5185 45.7887 48.5894 45.722C48.6614 45.6542 48.7477 45.6203 48.8483 45.6203C48.9489 45.6203 49.0346 45.6542 49.1056 45.722C49.1776 45.7887 49.2136 45.8686 49.2136 45.9618C49.2136 46.056 49.1776 46.137 49.1056 46.2048C49.0346 46.2715 48.9489 46.3048 48.8483 46.3048ZM50.8738 49.1062C50.6239 49.1062 50.409 49.0533 50.229 48.9474C50.0501 48.8405 49.9124 48.6923 49.8161 48.5028C49.7208 48.3132 49.6732 48.0951 49.6732 47.8485C49.6732 47.5986 49.7213 47.3794 49.8177 47.191C49.9151 47.0015 50.0533 46.8538 50.2322 46.7479C50.4111 46.641 50.6239 46.5875 50.8706 46.5875C51.0834 46.5875 51.2698 46.6261 51.4296 46.7034C51.5895 46.7807 51.716 46.8892 51.8092 47.029C51.9024 47.1687 51.9537 47.3328 51.9632 47.5213H51.3248C51.3068 47.3995 51.2592 47.3016 51.1819 47.2275C51.1056 47.1523 51.0056 47.1147 50.8817 47.1147C50.7769 47.1147 50.6853 47.1433 50.607 47.2005C50.5297 47.2566 50.4693 47.3387 50.4259 47.4467C50.3825 47.5546 50.3608 47.6854 50.3608 47.8389C50.3608 47.9946 50.382 48.1269 50.4243 48.236C50.4678 48.345 50.5286 48.4281 50.607 48.4853C50.6853 48.5425 50.7769 48.571 50.8817 48.571C50.959 48.571 51.0284 48.5552 51.0898 48.5234C51.1522 48.4916 51.2036 48.4456 51.2438 48.3852C51.2851 48.3238 51.3121 48.2502 51.3248 48.1645H51.9632C51.9526 48.3508 51.9018 48.5149 51.8108 48.6568C51.7208 48.7976 51.5964 48.9077 51.4376 48.9871C51.2788 49.0665 51.0908 49.1062 50.8738 49.1062ZM53.1367 49.1046C52.9811 49.1046 52.8424 49.0777 52.7206 49.0237C52.5989 48.9686 52.5025 48.8876 52.4316 48.7807C52.3617 48.6727 52.3268 48.5382 52.3268 48.3773C52.3268 48.2418 52.3516 48.128 52.4014 48.0358C52.4512 47.9437 52.5189 47.8696 52.6047 47.8135C52.6904 47.7574 52.7878 47.715 52.8969 47.6865C53.007 47.6579 53.1224 47.6378 53.2431 47.6261C53.385 47.6113 53.4993 47.5975 53.5861 47.5848C53.673 47.5711 53.7359 47.5509 53.7751 47.5245C53.8143 47.498 53.8339 47.4588 53.8339 47.407V47.3974C53.8339 47.2968 53.8021 47.219 53.7386 47.164C53.6761 47.1089 53.5872 47.0814 53.4718 47.0814C53.35 47.0814 53.2532 47.1084 53.1812 47.1624C53.1092 47.2153 53.0615 47.282 53.0382 47.3625L52.4125 47.3117C52.4443 47.1634 52.5067 47.0353 52.5999 46.9273C52.6931 46.8183 52.8133 46.7347 52.9604 46.6764C53.1086 46.6171 53.2802 46.5875 53.475 46.5875C53.6105 46.5875 53.7402 46.6034 53.8641 46.6351C53.989 46.6669 54.0996 46.7161 54.196 46.7828C54.2934 46.8495 54.3701 46.9353 54.4262 47.0401C54.4824 47.1439 54.5104 47.2683 54.5104 47.4133V49.0586H53.8688V48.7203H53.8498C53.8106 48.7966 53.7582 48.8638 53.6925 48.922C53.6269 48.9792 53.548 49.0242 53.4559 49.057C53.3638 49.0888 53.2574 49.1046 53.1367 49.1046ZM53.3305 48.6377C53.43 48.6377 53.5178 48.6182 53.5941 48.579C53.6703 48.5388 53.7301 48.4848 53.7735 48.417C53.8169 48.3492 53.8386 48.2725 53.8386 48.1867V47.9279C53.8175 47.9416 53.7884 47.9543 53.7513 47.966C53.7153 47.9766 53.6745 47.9866 53.629 47.9961C53.5835 48.0046 53.538 48.0126 53.4924 48.02C53.4469 48.0263 53.4056 48.0321 53.3686 48.0374C53.2892 48.0491 53.2198 48.0676 53.1605 48.093C53.1012 48.1184 53.0552 48.1528 53.0224 48.1962C52.9895 48.2386 52.9731 48.2915 52.9731 48.3551C52.9731 48.4472 53.0065 48.5176 53.0732 48.5663C53.1409 48.6139 53.2267 48.6377 53.3305 48.6377ZM56.3775 46.6193V47.1274H54.9085V46.6193H56.3775ZM55.242 46.0348H55.9185V48.309C55.9185 48.3715 55.9281 48.4202 55.9471 48.4551C55.9662 48.489 55.9926 48.5128 56.0265 48.5266C56.0615 48.5403 56.1017 48.5472 56.1472 48.5472C56.179 48.5472 56.2107 48.5446 56.2425 48.5393C56.2743 48.5329 56.2986 48.5282 56.3156 48.525L56.422 49.0284C56.3881 49.039 56.3404 49.0512 56.279 49.0649C56.2176 49.0798 56.143 49.0888 56.0551 49.0919C55.8921 49.0983 55.7491 49.0766 55.6263 49.0268C55.5046 48.9771 55.4098 48.8998 55.3421 48.795C55.2743 48.6902 55.2409 48.5578 55.242 48.3979V46.0348ZM56.8629 49.0586V46.6193H57.5395V49.0586H56.8629ZM57.2028 46.3048C57.1022 46.3048 57.0159 46.2715 56.9439 46.2048C56.873 46.137 56.8375 46.056 56.8375 45.9618C56.8375 45.8686 56.873 45.7887 56.9439 45.722C57.0159 45.6542 57.1022 45.6203 57.2028 45.6203C57.3034 45.6203 57.3891 45.6542 57.4601 45.722C57.532 45.7887 57.568 45.8686 57.568 45.9618C57.568 46.056 57.532 46.137 57.4601 46.2048C57.3891 46.2715 57.3034 46.3048 57.2028 46.3048ZM59.2283 49.1062C58.9816 49.1062 58.7683 49.0538 58.5883 48.949C58.4093 48.8431 58.2712 48.696 58.1738 48.5075C58.0764 48.318 58.0277 48.0983 58.0277 47.8485C58.0277 47.5965 58.0764 47.3763 58.1738 47.1878C58.2712 46.9983 58.4093 46.8511 58.5883 46.7463C58.7683 46.6404 58.9816 46.5875 59.2283 46.5875C59.475 46.5875 59.6878 46.6404 59.8667 46.7463C60.0467 46.8511 60.1854 46.9983 60.2828 47.1878C60.3802 47.3763 60.4289 47.5965 60.4289 47.8485C60.4289 48.0983 60.3802 48.318 60.2828 48.5075C60.1854 48.696 60.0467 48.8431 59.8667 48.949C59.6878 49.0538 59.475 49.1062 59.2283 49.1062ZM59.2315 48.5822C59.3437 48.5822 59.4374 48.5504 59.5126 48.4869C59.5877 48.4223 59.6444 48.3344 59.6825 48.2232C59.7217 48.1121 59.7412 47.9856 59.7412 47.8437C59.7412 47.7018 59.7217 47.5753 59.6825 47.4641C59.6444 47.353 59.5877 47.2651 59.5126 47.2005C59.4374 47.1359 59.3437 47.1036 59.2315 47.1036C59.1182 47.1036 59.0229 47.1359 58.9456 47.2005C58.8694 47.2651 58.8117 47.353 58.7725 47.4641C58.7344 47.5753 58.7153 47.7018 58.7153 47.8437C58.7153 47.9856 58.7344 48.1121 58.7725 48.2232C58.8117 48.3344 58.8694 48.4223 58.9456 48.4869C59.0229 48.5504 59.1182 48.5822 59.2315 48.5822ZM61.5901 47.6483V49.0586H60.9135V46.6193H61.5583V47.0496H61.5869C61.6409 46.9078 61.7314 46.7955 61.8584 46.7129C61.9855 46.6293 62.1395 46.5875 62.3206 46.5875C62.49 46.5875 62.6377 46.6245 62.7637 46.6987C62.8897 46.7728 62.9876 46.8786 63.0575 47.0163C63.1273 47.1529 63.1623 47.3159 63.1623 47.5054V49.0586H62.4858V47.6261C62.4868 47.4768 62.4487 47.3604 62.3714 47.2767C62.2941 47.192 62.1877 47.1497 62.0522 47.1497C61.9611 47.1497 61.8807 47.1693 61.8108 47.2084C61.742 47.2476 61.688 47.3048 61.6488 47.38C61.6107 47.4541 61.5911 47.5435 61.5901 47.6483Z" fill="white"/>
</g>
<defs>
<filter id="filter0_d_1684_2478" x="0" y="0" width="77" height="72.6875" filterUnits="userSpaceOnUse" color-interpolation-filters="sRGB">
<feFlood flood-opacity="0" result="BackgroundImageFix"/>
<feColorMatrix in="SourceAlpha" type="matrix" values="0 0 0 0 0 0 0 0 0 0 0 0 0 0 0 0 0 0 127 0" result="hardAlpha"/>
<feOffset dy="4"/>
<feGaussianBlur stdDeviation="2"/>
<feComposite in2="hardAlpha" operator="out"/>
<feColorMatrix type="matrix" values="0 0 0 0 0.150916 0 0 0 0 0.150916 0 0 0 0 0.150916 0 0 0 0.25 0"/>
<feBlend mode="normal" in2="BackgroundImageFix" result="effect1_dropShadow_1684_2478"/>
<feBlend mode="normal" in="SourceGraphic" in2="effect1_dropShadow_1684_2478" result="shape"/>
</filter>
<filter id="filter1_d_1684_2478" x="38.1104" y="7.61914" width="33.8593" height="39.788" filterUnits="userSpaceOnUse" color-interpolation-filters="sRGB">
<feFlood flood-opacity="0" result="BackgroundImageFix"/>
<feColorMatrix in="SourceAlpha" type="matrix" values="0 0 0 0 0 0 0 0 0 0 0 0 0 0 0 0 0 0 127 0" result="hardAlpha"/>
<feOffset dy="3.9614"/>
<feGaussianBlur stdDeviation="1.9807"/>
<feComposite in2="hardAlpha" operator="out"/>
<feColorMatrix type="matrix" values="0 0 0 0 0.623967 0 0 0 0 0.584278 0 0 0 0 0.584278 0 0 0 0.25 0"/>
<feBlend mode="normal" in2="BackgroundImageFix" result="effect1_dropShadow_1684_2478"/>
<feBlend mode="normal" in="SourceGraphic" in2="effect1_dropShadow_1684_2478" result="shape"/>
</filter>
<filter id="filter2_d_1684_2478" x="27.7564" y="14.9043" width="35.0048" height="37.8017" filterUnits="userSpaceOnUse" color-interpolation-filters="sRGB">
<feFlood flood-opacity="0" result="BackgroundImageFix"/>
<feColorMatrix in="SourceAlpha" type="matrix" values="0 0 0 0 0 0 0 0 0 0 0 0 0 0 0 0 0 0 127 0" result="hardAlpha"/>
<feOffset dy="3.9614"/>
<feGaussianBlur stdDeviation="1.9807"/>
<feComposite in2="hardAlpha" operator="out"/>
<feColorMatrix type="matrix" values="0 0 0 0 0.623967 0 0 0 0 0.584278 0 0 0 0 0.584278 0 0 0 0.25 0"/>
<feBlend mode="normal" in2="BackgroundImageFix" result="effect1_dropShadow_1684_2478"/>
<feBlend mode="normal" in="SourceGraphic" in2="effect1_dropShadow_1684_2478" result="shape"/>
</filter>
<filter id="filter3_d_1684_2478" x="4.272" y="9.59961" width="38.0634" height="40.4892" filterUnits="userSpaceOnUse" color-interpolation-filters="sRGB">
<feFlood flood-opacity="0" result="BackgroundImageFix"/>
<feColorMatrix in="SourceAlpha" type="matrix" values="0 0 0 0 0 0 0 0 0 0 0 0 0 0 0 0 0 0 127 0" result="hardAlpha"/>
<feOffset dy="3.9614"/>
<feGaussianBlur stdDeviation="1.9807"/>
<feComposite in2="hardAlpha" operator="out"/>
<feColorMatrix type="matrix" values="0 0 0 0 0.623967 0 0 0 0 0.584278 0 0 0 0 0.584278 0 0 0 0.25 0"/>
<feBlend mode="normal" in2="BackgroundImageFix" result="effect1_dropShadow_1684_2478"/>
<feBlend mode="normal" in="SourceGraphic" in2="effect1_dropShadow_1684_2478" result="shape"/>
</filter>
<linearGradient id="paint0_linear_1684_2478" x1="38.4127" y1="2.11719" x2="38.4127" y2="57.1479" gradientUnits="userSpaceOnUse">
<stop stop-color="#BFCA42"/>
<stop offset="0.47608" stop-color="#519340"/>
<stop offset="1" stop-color="#3E3E3E"/>
</linearGradient>
</defs>
</svg>
