<svg width="77" height="73" viewBox="0 0 77 73" fill="none" xmlns="http://www.w3.org/2000/svg">
<g filter="url(#filter0_d_1684_2441)">
<rect x="4" width="69" height="64.6875" rx="8.625" fill="#3E3E3E"/>
<rect x="6.1167" y="2.11719" width="64.7669" height="55.0307" rx="5.75" fill="url(#paint0_linear_1684_2441)"/>
<g filter="url(#filter1_d_1684_2441)">
<rect x="46.4751" y="7.625" width="21.7877" height="28.8814" rx="1.74113" transform="rotate(8.76938 46.4751 7.625)" fill="white" shape-rendering="crispEdges"/>
<rect x="48.5156" y="11.0156" width="16.7208" height="1.01338" rx="0.506691" transform="rotate(8.76938 48.5156 11.0156)" fill="#D9D9D9"/>
<rect x="47.9751" y="14.5215" width="8.10706" height="1.01338" rx="0.506691" transform="rotate(8.76938 47.9751 14.5215)" fill="#D9D9D9"/>
<rect x="47.4341" y="18.0273" width="16.7208" height="1.01338" rx="0.506691" transform="rotate(8.76938 47.4341 18.0273)" fill="#D9D9D9"/>
<rect x="46.8936" y="21.5312" width="11.1472" height="1.01338" rx="0.506691" transform="rotate(8.76938 46.8936 21.5312)" fill="#D9D9D9"/>
<rect x="46.3525" y="25.0371" width="16.7208" height="1.01338" rx="0.506691" transform="rotate(8.76938 46.3525 25.0371)" fill="#D9D9D9"/>
<rect x="45.812" y="28.543" width="6.08029" height="1.01338" rx="0.506691" transform="rotate(8.76938 45.812 28.543)" fill="#D9D9D9"/>
<rect x="45.2715" y="32.0488" width="16.7208" height="1.01338" rx="0.506691" transform="rotate(8.76938 45.2715 32.0488)" fill="#D9D9D9"/>
</g>
<g filter="url(#filter2_d_1684_2441)">
<rect x="32.8525" y="14.9082" width="25.9673" height="28.8814" rx="1.74113" transform="rotate(2.25177 32.8525 14.9082)" fill="white" shape-rendering="crispEdges"/>
<rect x="35.2646" y="18.0449" width="19.6882" height="1.01338" rx="0.506691" transform="rotate(2.25177 35.2646 18.0449)" fill="#D9D9D9"/>
<rect x="35.125" y="21.5879" width="8.10706" height="1.01338" rx="0.506691" transform="rotate(2.25177 35.125 21.5879)" fill="#D9D9D9"/>
<rect x="34.9858" y="25.1328" width="19.6882" height="1.01338" rx="0.506691" transform="rotate(2.25177 34.9858 25.1328)" fill="#D9D9D9"/>
<rect x="34.8467" y="28.6777" width="11.1472" height="1.01338" rx="0.506691" transform="rotate(2.25177 34.8467 28.6777)" fill="#D9D9D9"/>
<rect x="34.707" y="32.2207" width="19.6882" height="1.01338" rx="0.506691" transform="rotate(2.25177 34.707 32.2207)" fill="#D9D9D9"/>
<rect x="34.5679" y="35.7656" width="6.08029" height="1.01338" rx="0.506691" transform="rotate(2.25177 34.5679 35.7656)" fill="#D9D9D9"/>
<rect x="34.4287" y="39.3086" width="19.6882" height="1.01338" rx="0.506691" transform="rotate(2.25177 34.4287 39.3086)" fill="#D9D9D9"/>
</g>
<g filter="url(#filter3_d_1684_2441)">
<rect x="8.23291" y="13.6367" width="25.9673" height="28.8814" rx="1.74113" transform="rotate(-8.94151 8.23291 13.6367)" fill="white" shape-rendering="crispEdges"/>
<rect x="11.208" y="16.2461" width="19.6882" height="1.01338" rx="0.506691" transform="rotate(-8.94151 11.208 16.2461)" fill="#D9D9D9"/>
<rect x="11.7593" y="19.75" width="8.10706" height="1.01338" rx="0.506691" transform="rotate(-8.94151 11.7593 19.75)" fill="#D9D9D9"/>
<rect x="12.3105" y="23.2539" width="19.6882" height="1.01338" rx="0.506691" transform="rotate(-8.94151 12.3105 23.2539)" fill="#D9D9D9"/>
<rect x="12.8618" y="26.7578" width="11.1472" height="1.01338" rx="0.506691" transform="rotate(-8.94151 12.8618 26.7578)" fill="#D9D9D9"/>
<rect x="13.4131" y="30.2617" width="19.6882" height="1.01338" rx="0.506691" transform="rotate(-8.94151 13.4131 30.2617)" fill="#D9D9D9"/>
<rect x="13.9644" y="33.7656" width="6.08029" height="1.01338" rx="0.506691" transform="rotate(-8.94151 13.9644 33.7656)" fill="#D9D9D9"/>
<rect x="14.5156" y="37.2676" width="19.6882" height="1.01338" rx="0.506691" transform="rotate(-8.94151 14.5156 37.2676)" fill="#D9D9D9"/>
</g>
<path d="M64.2636 31.9214L29.7261 31.899L26.8961 26.2403L25.6994 23.8457H9.16865C7.4334 23.8457 6.0293 24.9754 6.0293 26.3709V60.8944C6.0293 62.2881 7.4334 63.4192 9.16865 63.4192H67.8292C69.5642 63.4192 70.9705 62.2881 70.9705 60.8944V37.14C70.9705 34.7417 68.95 32.7238 66.21 32.1043C65.5148 31.9782 64.2636 31.9214 64.2636 31.9214ZM70.2734 57.7786V59.6628H6.73115V57.7786H70.2734Z" fill="#3E3E3E"/>
<path opacity="0.8" d="M11.28 47L13.37 40H14.63L16.72 47H15.57L15.1 45.32H12.9L12.43 47H11.28ZM13.97 41.5L13.14 44.47H14.86L14.03 41.5H13.97ZM20.0161 47.12C19.4294 47.12 18.9294 46.97 18.5161 46.67C18.1094 46.37 17.7961 45.95 17.5761 45.41C17.3628 44.8633 17.2561 44.23 17.2561 43.51C17.2561 42.7833 17.3628 42.15 17.5761 41.61C17.7961 41.0633 18.1128 40.64 18.5261 40.34C18.9394 40.0333 19.4361 39.88 20.0161 39.88C20.7694 39.88 21.3694 40.0867 21.8161 40.5C22.2628 40.9067 22.5228 41.46 22.5961 42.16H21.4261C21.3661 41.7933 21.2161 41.49 20.9761 41.25C20.7428 41.0033 20.4194 40.88 20.0061 40.88C19.4794 40.88 19.0694 41.1133 18.7761 41.58C18.4828 42.0467 18.3361 42.69 18.3361 43.51C18.3361 44.3233 18.4828 44.9633 18.7761 45.43C19.0694 45.89 19.4794 46.12 20.0061 46.12C20.4328 46.12 20.7594 46.01 20.9861 45.79C21.2128 45.5633 21.3594 45.2667 21.4261 44.9H22.5961C22.4894 45.5867 22.2194 46.13 21.7861 46.53C21.3528 46.9233 20.7628 47.12 20.0161 47.12ZM25.9922 47.12C25.4255 47.12 24.9355 46.9733 24.5222 46.68C24.1089 46.3867 23.7922 45.97 23.5722 45.43C23.3522 44.89 23.2422 44.2467 23.2422 43.5C23.2422 42.7533 23.3522 42.11 23.5722 41.57C23.7922 41.03 24.1089 40.6133 24.5222 40.32C24.9355 40.0267 25.4255 39.88 25.9922 39.88C26.5655 39.88 27.0555 40.0267 27.4622 40.32C27.8755 40.6133 28.1922 41.03 28.4122 41.57C28.6322 42.11 28.7422 42.7533 28.7422 43.5C28.7422 44.2467 28.6322 44.89 28.4122 45.43C28.1922 45.97 27.8755 46.3867 27.4622 46.68C27.0555 46.9733 26.5655 47.12 25.9922 47.12ZM25.9922 46.12C26.4922 46.12 26.8955 45.8967 27.2022 45.45C27.5089 44.9967 27.6622 44.3467 27.6622 43.5C27.6622 42.6533 27.5089 42.0067 27.2022 41.56C26.8955 41.1067 26.4922 40.88 25.9922 40.88C25.4855 40.88 25.0789 41.1067 24.7722 41.56C24.4722 42.0067 24.3222 42.6533 24.3222 43.5C24.3222 44.3467 24.4722 44.9967 24.7722 45.45C25.0789 45.8967 25.4855 46.12 25.9922 46.12ZM29.7383 47V40H32.0283C32.5749 40 33.0249 40.0933 33.3783 40.28C33.7383 40.4667 34.0049 40.72 34.1783 41.04C34.3583 41.3533 34.4483 41.71 34.4483 42.11C34.4483 42.5633 34.3316 42.9667 34.0983 43.32C33.8716 43.6667 33.5216 43.92 33.0483 44.08L34.5183 47H33.2883L31.9483 44.23H30.7983V47H29.7383ZM30.7983 43.27H31.9683C32.4483 43.27 32.7983 43.1633 33.0183 42.95C33.2449 42.7367 33.3583 42.4567 33.3583 42.11C33.3583 41.7567 33.2483 41.4767 33.0283 41.27C32.8083 41.0567 32.4516 40.95 31.9583 40.95H30.7983V43.27ZM35.5544 47V40H37.2344C38.361 40 39.1977 40.3133 39.7444 40.94C40.291 41.56 40.5644 42.4133 40.5644 43.5C40.5644 44.5867 40.291 45.4433 39.7444 46.07C39.1977 46.69 38.361 47 37.2344 47H35.5544ZM36.6144 46.02H37.1944C38.0077 46.02 38.5944 45.7933 38.9544 45.34C39.3144 44.88 39.4944 44.2667 39.4944 43.5C39.4944 42.7333 39.3144 42.1233 38.9544 41.67C38.5944 41.21 38.0077 40.98 37.1944 40.98H36.6144V46.02ZM47.6366 47V46.05H49.3666V41.25L47.7166 41.55V40.69L49.7766 40H50.4266V46.05H52.2866V47H47.6366ZM53.6727 47V46.16C54.3593 45.6133 54.9593 45.11 55.4727 44.65C55.9927 44.19 56.3993 43.7467 56.6927 43.32C56.986 42.8933 57.1327 42.46 57.1327 42.02C57.1327 41.6533 57.0293 41.3667 56.8227 41.16C56.616 40.9467 56.336 40.84 55.9827 40.84C55.576 40.84 55.2627 40.97 55.0427 41.23C54.8227 41.4833 54.7127 41.7867 54.7127 42.14H53.6827C53.6893 41.6467 53.7927 41.2333 53.9927 40.9C54.1927 40.5667 54.4627 40.3133 54.8027 40.14C55.1493 39.9667 55.5427 39.88 55.9827 39.88C56.696 39.88 57.246 40.0733 57.6327 40.46C58.0193 40.84 58.2127 41.35 58.2127 41.99C58.2127 42.3967 58.1227 42.79 57.9427 43.17C57.7693 43.5433 57.5393 43.9 57.2527 44.24C56.966 44.58 56.646 44.9033 56.2927 45.21C55.946 45.5167 55.596 45.81 55.2427 46.09H58.4027V47H53.6727ZM62.1088 47.12C61.6154 47.12 61.1988 47.03 60.8588 46.85C60.5188 46.6633 60.2421 46.4133 60.0288 46.1C59.8221 45.7867 59.6688 45.43 59.5688 45.03C59.4754 44.6233 59.4288 44.1967 59.4288 43.75C59.4288 42.9767 59.5354 42.3 59.7488 41.72C59.9688 41.14 60.2821 40.69 60.6888 40.37C61.0954 40.0433 61.5854 39.88 62.1588 39.88C62.6321 39.88 63.0288 39.9667 63.3488 40.14C63.6754 40.3067 63.9288 40.54 64.1087 40.84C64.2954 41.1333 64.4088 41.47 64.4488 41.85H63.4588C63.3921 41.5367 63.2421 41.29 63.0088 41.11C62.7754 40.93 62.4888 40.84 62.1488 40.84C61.7021 40.84 61.3154 41.0533 60.9888 41.48C60.6621 41.9 60.4788 42.56 60.4387 43.46H60.4988C60.6388 43.2067 60.8588 42.9833 61.1588 42.79C61.4654 42.5967 61.8288 42.5 62.2488 42.5C62.6554 42.5 63.0254 42.5967 63.3588 42.79C63.6921 42.9767 63.9554 43.24 64.1488 43.58C64.3488 43.92 64.4488 44.3133 64.4488 44.76C64.4488 45.18 64.3521 45.57 64.1588 45.93C63.9721 46.29 63.7021 46.58 63.3488 46.8C63.0021 47.0133 62.5888 47.12 62.1088 47.12ZM62.0388 46.16C62.4454 46.16 62.7721 46.0333 63.0188 45.78C63.2721 45.5267 63.3988 45.2033 63.3988 44.81C63.3988 44.4167 63.2721 44.0933 63.0188 43.84C62.7721 43.58 62.4454 43.45 62.0388 43.45C61.6321 43.45 61.2988 43.5767 61.0388 43.83C60.7854 44.0833 60.6588 44.4067 60.6588 44.8C60.6588 45.1867 60.7854 45.51 61.0388 45.77C61.2988 46.03 61.6321 46.16 62.0388 46.16Z" fill="white"/>
<path d="M13.4393 52.1114C13.4171 52.0341 13.3859 51.9658 13.3456 51.9065C13.3054 51.8462 13.2562 51.7953 13.1979 51.754C13.1408 51.7117 13.0751 51.6794 13.001 51.6572C12.928 51.6349 12.847 51.6238 12.758 51.6238C12.5918 51.6238 12.4457 51.6651 12.3197 51.7477C12.1948 51.8303 12.0974 51.9504 12.0275 52.1082C11.9576 52.2649 11.9227 52.4565 11.9227 52.6831C11.9227 52.9097 11.9571 53.1024 12.0259 53.2612C12.0947 53.42 12.1921 53.5412 12.3181 53.6248C12.4441 53.7074 12.5929 53.7487 12.7644 53.7487C12.92 53.7487 13.0529 53.7212 13.163 53.6661C13.2742 53.61 13.3589 53.5311 13.4171 53.4295C13.4764 53.3279 13.506 53.2077 13.506 53.069L13.6458 53.0897H12.8073V52.5719H14.1683V52.9817C14.1683 53.2675 14.1079 53.5131 13.9872 53.7185C13.8665 53.9229 13.7003 54.0806 13.4886 54.1918C13.2768 54.3019 13.0344 54.357 12.7612 54.357C12.4563 54.357 12.1884 54.2897 11.9576 54.1553C11.7268 54.0198 11.5468 53.8276 11.4177 53.5788C11.2896 53.3289 11.2255 53.0325 11.2255 52.6894C11.2255 52.4258 11.2636 52.1908 11.3399 51.9843C11.4171 51.7768 11.5251 51.6011 11.6638 51.4571C11.8025 51.3131 11.964 51.2035 12.1482 51.1283C12.3324 51.0532 12.532 51.0156 12.7469 51.0156C12.9311 51.0156 13.1027 51.0426 13.2615 51.0966C13.4203 51.1495 13.5611 51.2247 13.6839 51.3221C13.8078 51.4195 13.9089 51.5354 13.9872 51.6699C14.0656 51.8033 14.1159 51.9504 14.1381 52.1114H13.4393ZM15.8285 54.3601C15.5776 54.3601 15.3616 54.3093 15.1806 54.2077C15.0006 54.105 14.8619 53.9599 14.7645 53.7725C14.6671 53.5841 14.6184 53.3612 14.6184 53.1039C14.6184 52.853 14.6671 52.6328 14.7645 52.4433C14.8619 52.2538 14.999 52.1061 15.1758 52.0002C15.3537 51.8943 15.5622 51.8414 15.8015 51.8414C15.9624 51.8414 16.1123 51.8673 16.251 51.9192C16.3907 51.97 16.5125 52.0468 16.6162 52.1495C16.721 52.2522 16.8026 52.3814 16.8608 52.537C16.919 52.6916 16.9481 52.8726 16.9481 53.0801V53.2659H14.8884V52.8467H16.3113C16.3113 52.7493 16.2901 52.663 16.2478 52.5878C16.2054 52.5126 16.1467 52.4539 16.0715 52.4115C15.9974 52.3681 15.9111 52.3464 15.8126 52.3464C15.7099 52.3464 15.6189 52.3702 15.5395 52.4179C15.4611 52.4645 15.3997 52.5275 15.3553 52.6069C15.3108 52.6852 15.288 52.7726 15.287 52.8689V53.2675C15.287 53.3882 15.3092 53.4925 15.3537 53.5804C15.3992 53.6683 15.4633 53.736 15.5458 53.7837C15.6284 53.8313 15.7263 53.8551 15.8396 53.8551C15.9148 53.8551 15.9836 53.8445 16.0461 53.8234C16.1086 53.8022 16.162 53.7704 16.2065 53.7281C16.251 53.6857 16.2848 53.6338 16.3081 53.5724L16.9338 53.6137C16.9021 53.7641 16.837 53.8954 16.7385 54.0076C16.6411 54.1188 16.5151 54.2056 16.3605 54.268C16.207 54.3294 16.0297 54.3601 15.8285 54.3601ZM18.1109 52.9023V54.3125H17.4344V51.8732H18.0791V52.3035H18.1077C18.1617 52.1617 18.2522 52.0494 18.3793 51.9669C18.5063 51.8832 18.6604 51.8414 18.8414 51.8414C19.0108 51.8414 19.1585 51.8785 19.2845 51.9526C19.4105 52.0267 19.5084 52.1325 19.5783 52.2702C19.6482 52.4068 19.6831 52.5698 19.6831 52.7593V54.3125H19.0066V52.88C19.0076 52.7307 18.9695 52.6143 18.8922 52.5306C18.815 52.4459 18.7086 52.4036 18.573 52.4036C18.482 52.4036 18.4015 52.4232 18.3316 52.4623C18.2628 52.5015 18.2088 52.5587 18.1697 52.6339C18.1315 52.708 18.1119 52.7974 18.1109 52.9023ZM21.3727 54.3601C21.1218 54.3601 20.9058 54.3093 20.7248 54.2077C20.5448 54.105 20.4061 53.9599 20.3087 53.7725C20.2113 53.5841 20.1626 53.3612 20.1626 53.1039C20.1626 52.853 20.2113 52.6328 20.3087 52.4433C20.4061 52.2538 20.5432 52.1061 20.72 52.0002C20.8979 51.8943 21.1065 51.8414 21.3457 51.8414C21.5067 51.8414 21.6565 51.8673 21.7952 51.9192C21.9349 51.97 22.0567 52.0468 22.1604 52.1495C22.2653 52.2522 22.3468 52.3814 22.405 52.537C22.4632 52.6916 22.4924 52.8726 22.4924 53.0801V53.2659H20.4326V52.8467H21.8555C21.8555 52.7493 21.8343 52.663 21.792 52.5878C21.7496 52.5126 21.6909 52.4539 21.6157 52.4115C21.5416 52.3681 21.4553 52.3464 21.3569 52.3464C21.2542 52.3464 21.1631 52.3702 21.0837 52.4179C21.0054 52.4645 20.9439 52.5275 20.8995 52.6069C20.855 52.6852 20.8322 52.7726 20.8312 52.8689V53.2675C20.8312 53.3882 20.8534 53.4925 20.8979 53.5804C20.9434 53.6683 21.0075 53.736 21.0901 53.7837C21.1726 53.8313 21.2706 53.8551 21.3839 53.8551C21.459 53.8551 21.5278 53.8445 21.5903 53.8234C21.6528 53.8022 21.7062 53.7704 21.7507 53.7281C21.7952 53.6857 21.8291 53.6338 21.8523 53.5724L22.4781 53.6137C22.4463 53.7641 22.3812 53.8954 22.2827 54.0076C22.1853 54.1188 22.0593 54.2056 21.9048 54.268C21.7512 54.3294 21.5739 54.3601 21.3727 54.3601ZM22.9786 54.3125V51.8732H23.6345V52.2988H23.6599C23.7043 52.1474 23.779 52.033 23.8838 51.9557C23.9886 51.8774 24.1093 51.8382 24.2459 51.8382C24.2798 51.8382 24.3163 51.8403 24.3555 51.8446C24.3946 51.8488 24.429 51.8546 24.4587 51.862V52.4623C24.4269 52.4528 24.383 52.4443 24.3269 52.4369C24.2708 52.4295 24.2194 52.4258 24.1728 52.4258C24.0733 52.4258 23.9844 52.4475 23.906 52.4909C23.8287 52.5333 23.7673 52.5926 23.7218 52.6688C23.6773 52.745 23.6551 52.8329 23.6551 52.9324V54.3125H22.9786ZM25.4789 54.3586C25.3233 54.3586 25.1846 54.3316 25.0628 54.2776C24.9411 54.2225 24.8447 54.1415 24.7738 54.0346C24.7039 53.9266 24.669 53.7921 24.669 53.6312C24.669 53.4957 24.6939 53.3819 24.7436 53.2898C24.7934 53.1976 24.8611 53.1235 24.9469 53.0674C25.0327 53.0113 25.1301 52.969 25.2391 52.9404C25.3492 52.9118 25.4646 52.8917 25.5853 52.88C25.7272 52.8652 25.8415 52.8514 25.9284 52.8387C26.0152 52.825 26.0782 52.8049 26.1173 52.7784C26.1565 52.7519 26.1761 52.7127 26.1761 52.6609V52.6513C26.1761 52.5508 26.1443 52.4729 26.0808 52.4179C26.0183 52.3628 25.9294 52.3353 25.814 52.3353C25.6923 52.3353 25.5954 52.3623 25.5234 52.4163C25.4514 52.4692 25.4037 52.5359 25.3805 52.6164L24.7547 52.5656C24.7865 52.4174 24.849 52.2892 24.9421 52.1813C25.0353 52.0722 25.1555 51.9886 25.3026 51.9303C25.4509 51.871 25.6224 51.8414 25.8172 51.8414C25.9527 51.8414 26.0824 51.8573 26.2063 51.889C26.3312 51.9208 26.4418 51.97 26.5382 52.0367C26.6356 52.1034 26.7123 52.1892 26.7685 52.294C26.8246 52.3978 26.8526 52.5222 26.8526 52.6672V54.3125H26.211V53.9742H26.192C26.1528 54.0505 26.1004 54.1177 26.0348 54.1759C25.9691 54.2331 25.8902 54.2781 25.7981 54.3109C25.706 54.3427 25.5996 54.3586 25.4789 54.3586ZM25.6727 53.8916C25.7722 53.8916 25.8601 53.8721 25.9363 53.8329C26.0125 53.7927 26.0723 53.7387 26.1157 53.6709C26.1592 53.6031 26.1809 53.5264 26.1809 53.4406V53.1818C26.1597 53.1955 26.1306 53.2082 26.0935 53.2199C26.0575 53.2305 26.0168 53.2405 25.9712 53.2501C25.9257 53.2585 25.8802 53.2665 25.8347 53.2739C25.7891 53.2802 25.7478 53.286 25.7108 53.2913C25.6314 53.303 25.562 53.3215 25.5027 53.3469C25.4434 53.3723 25.3974 53.4067 25.3646 53.4502C25.3317 53.4925 25.3153 53.5454 25.3153 53.609C25.3153 53.7011 25.3487 53.7715 25.4154 53.8202C25.4831 53.8678 25.5689 53.8916 25.6727 53.8916ZM28.0988 51.06V54.3125H27.4222V51.06H28.0988ZM29.7779 54.3125V51.06H30.4656V53.7455H31.8599V54.3125H29.7779ZM32.3473 54.3125V51.8732H33.0239V54.3125H32.3473ZM32.6872 51.5587C32.5866 51.5587 32.5003 51.5254 32.4283 51.4587C32.3574 51.3909 32.3219 51.3099 32.3219 51.2157C32.3219 51.1225 32.3574 51.0426 32.4283 50.9759C32.5003 50.9081 32.5866 50.8742 32.6872 50.8742C32.7878 50.8742 32.8735 50.9081 32.9445 50.9759C33.0165 51.0426 33.0525 51.1225 33.0525 51.2157C33.0525 51.3099 33.0165 51.3909 32.9445 51.4587C32.8735 51.5254 32.7878 51.5587 32.6872 51.5587ZM34.3061 54.3586C34.1505 54.3586 34.0118 54.3316 33.89 54.2776C33.7683 54.2225 33.6719 54.1415 33.601 54.0346C33.5311 53.9266 33.4962 53.7921 33.4962 53.6312C33.4962 53.4957 33.5211 53.3819 33.5708 53.2898C33.6206 53.1976 33.6884 53.1235 33.7741 53.0674C33.8599 53.0113 33.9573 52.969 34.0663 52.9404C34.1764 52.9118 34.2918 52.8917 34.4125 52.88C34.5544 52.8652 34.6687 52.8514 34.7556 52.8387C34.8424 52.825 34.9054 52.8049 34.9446 52.7784C34.9837 52.7519 35.0033 52.7127 35.0033 52.6609V52.6513C35.0033 52.5508 34.9715 52.4729 34.908 52.4179C34.8456 52.3628 34.7566 52.3353 34.6412 52.3353C34.5195 52.3353 34.4226 52.3623 34.3506 52.4163C34.2786 52.4692 34.231 52.5359 34.2077 52.6164L33.5819 52.5656C33.6137 52.4174 33.6762 52.2892 33.7693 52.1813C33.8625 52.0722 33.9827 51.9886 34.1298 51.9303C34.2781 51.871 34.4496 51.8414 34.6444 51.8414C34.7799 51.8414 34.9096 51.8573 35.0335 51.889C35.1584 51.9208 35.2691 51.97 35.3654 52.0367C35.4628 52.1034 35.5396 52.1892 35.5957 52.294C35.6518 52.3978 35.6798 52.5222 35.6798 52.6672V54.3125H35.0382V53.9742H35.0192C34.98 54.0505 34.9276 54.1177 34.862 54.1759C34.7963 54.2331 34.7174 54.2781 34.6253 54.3109C34.5332 54.3427 34.4268 54.3586 34.3061 54.3586ZM34.4999 53.8916C34.5994 53.8916 34.6873 53.8721 34.7635 53.8329C34.8397 53.7927 34.8996 53.7387 34.943 53.6709C34.9864 53.6031 35.0081 53.5264 35.0081 53.4406V53.1818C34.9869 53.1955 34.9578 53.2082 34.9207 53.2199C34.8847 53.2305 34.844 53.2405 34.7984 53.2501C34.7529 53.2585 34.7074 53.2665 34.6619 53.2739C34.6163 53.2802 34.575 53.286 34.538 53.2913C34.4586 53.303 34.3892 53.3215 34.33 53.3469C34.2707 53.3723 34.2246 53.4067 34.1918 53.4502C34.159 53.4925 34.1426 53.5454 34.1426 53.609C34.1426 53.7011 34.1759 53.7715 34.2426 53.8202C34.3104 53.8678 34.3961 53.8916 34.4999 53.8916ZM36.2621 54.3125V51.06H36.9387V52.2829H36.9593C36.989 52.2172 37.0318 52.1505 37.088 52.0828C37.1451 52.014 37.2192 51.9568 37.3103 51.9113C37.4024 51.8647 37.5168 51.8414 37.6533 51.8414C37.8312 51.8414 37.9953 51.888 38.1456 51.9811C38.296 52.0733 38.4162 52.2125 38.5061 52.3988C38.5961 52.5841 38.6411 52.8165 38.6411 53.096C38.6411 53.3681 38.5972 53.5978 38.5093 53.7852C38.4225 53.9716 38.3039 54.1129 38.1536 54.2093C38.0043 54.3046 37.837 54.3522 37.6517 54.3522C37.5205 54.3522 37.4088 54.3305 37.3167 54.2871C37.2256 54.2437 37.151 54.1892 37.0927 54.1235C37.0345 54.0568 36.99 53.9896 36.9593 53.9218H36.9292V54.3125H36.2621ZM36.9244 53.0928C36.9244 53.2379 36.9445 53.3644 36.9847 53.4724C37.025 53.5804 37.0832 53.6645 37.1594 53.7249C37.2357 53.7842 37.3283 53.8138 37.4373 53.8138C37.5475 53.8138 37.6406 53.7837 37.7169 53.7233C37.7931 53.6619 37.8508 53.5772 37.89 53.4692C37.9302 53.3602 37.9503 53.2347 37.9503 53.0928C37.9503 52.952 37.9307 52.8281 37.8915 52.7212C37.8524 52.6143 37.7947 52.5306 37.7184 52.4703C37.6422 52.4099 37.5485 52.3798 37.4373 52.3798C37.3272 52.3798 37.2341 52.4089 37.1578 52.4671C37.0827 52.5253 37.025 52.6079 36.9847 52.7149C36.9445 52.8218 36.9244 52.9478 36.9244 53.0928ZM39.1373 54.3125V51.8732H39.8138V54.3125H39.1373ZM39.4771 51.5587C39.3766 51.5587 39.2903 51.5254 39.2183 51.4587C39.1473 51.3909 39.1119 51.3099 39.1119 51.2157C39.1119 51.1225 39.1473 51.0426 39.2183 50.9759C39.2903 50.9081 39.3766 50.8742 39.4771 50.8742C39.5777 50.8742 39.6635 50.9081 39.7344 50.9759C39.8064 51.0426 39.8424 51.1225 39.8424 51.2157C39.8424 51.3099 39.8064 51.3909 39.7344 51.4587C39.6635 51.5254 39.5777 51.5587 39.4771 51.5587ZM41.077 51.06V54.3125H40.4005V51.06H41.077ZM41.6637 54.3125V51.8732H42.3402V54.3125H41.6637ZM42.0035 51.5587C41.903 51.5587 41.8167 51.5254 41.7447 51.4587C41.6737 51.3909 41.6383 51.3099 41.6383 51.2157C41.6383 51.1225 41.6737 51.0426 41.7447 50.9759C41.8167 50.9081 41.903 50.8742 42.0035 50.8742C42.1041 50.8742 42.1899 50.9081 42.2608 50.9759C42.3328 51.0426 42.3688 51.1225 42.3688 51.2157C42.3688 51.3099 42.3328 51.3909 42.2608 51.4587C42.1899 51.5254 42.1041 51.5587 42.0035 51.5587ZM44.2244 51.8732V52.3814H42.7554V51.8732H44.2244ZM43.0889 51.2887H43.7654V53.5629C43.7654 53.6254 43.7749 53.6741 43.794 53.709C43.8131 53.7429 43.8395 53.7667 43.8734 53.7805C43.9083 53.7942 43.9486 53.8011 43.9941 53.8011C44.0259 53.8011 44.0576 53.7985 44.0894 53.7932C44.1211 53.7868 44.1455 53.7821 44.1624 53.7789L44.2688 54.2823C44.235 54.2929 44.1873 54.3051 44.1259 54.3189C44.0645 54.3337 43.9899 54.3427 43.902 54.3459C43.7389 54.3522 43.596 54.3305 43.4732 54.2807C43.3514 54.231 43.2567 54.1537 43.1889 54.0489C43.1212 53.9441 43.0878 53.8117 43.0889 53.6518V51.2887ZM45.1275 55.2273C45.0417 55.2273 44.9613 55.2204 44.8861 55.2066C44.812 55.1939 44.7506 55.1775 44.7019 55.1574L44.8543 54.6524C44.9337 54.6767 45.0052 54.6899 45.0687 54.6921C45.1333 54.6942 45.1889 54.6794 45.2355 54.6476C45.2831 54.6158 45.3218 54.5618 45.3514 54.4856L45.3911 54.3824L44.516 51.8732H45.2275L45.7325 53.6645H45.758L46.2677 51.8732H46.984L46.0359 54.5761C45.9903 54.7074 45.9284 54.8218 45.8501 54.9192C45.7728 55.0176 45.6748 55.0933 45.5563 55.1463C45.4377 55.2003 45.2948 55.2273 45.1275 55.2273Z" fill="white"/>
</g>
<defs>
<filter id="filter0_d_1684_2441" x="0" y="0" width="77" height="72.9414" filterUnits="userSpaceOnUse" color-interpolation-filters="sRGB">
<feFlood flood-opacity="0" result="BackgroundImageFix"/>
<feColorMatrix in="SourceAlpha" type="matrix" values="0 0 0 0 0 0 0 0 0 0 0 0 0 0 0 0 0 0 127 0" result="hardAlpha"/>
<feOffset dy="4"/>
<feGaussianBlur stdDeviation="2"/>
<feComposite in2="hardAlpha" operator="out"/>
<feColorMatrix type="matrix" values="0 0 0 0 0.150916 0 0 0 0 0.150916 0 0 0 0 0.150916 0 0 0 0.25 0"/>
<feBlend mode="normal" in2="BackgroundImageFix" result="effect1_dropShadow_1684_2441"/>
<feBlend mode="normal" in="SourceGraphic" in2="effect1_dropShadow_1684_2441" result="shape"/>
</filter>
<filter id="filter1_d_1684_2441" x="38.1104" y="7.625" width="33.8593" height="39.788" filterUnits="userSpaceOnUse" color-interpolation-filters="sRGB">
<feFlood flood-opacity="0" result="BackgroundImageFix"/>
<feColorMatrix in="SourceAlpha" type="matrix" values="0 0 0 0 0 0 0 0 0 0 0 0 0 0 0 0 0 0 127 0" result="hardAlpha"/>
<feOffset dy="3.9614"/>
<feGaussianBlur stdDeviation="1.9807"/>
<feComposite in2="hardAlpha" operator="out"/>
<feColorMatrix type="matrix" values="0 0 0 0 0.623967 0 0 0 0 0.584278 0 0 0 0 0.584278 0 0 0 0.25 0"/>
<feBlend mode="normal" in2="BackgroundImageFix" result="effect1_dropShadow_1684_2441"/>
<feBlend mode="normal" in="SourceGraphic" in2="effect1_dropShadow_1684_2441" result="shape"/>
</filter>
<filter id="filter2_d_1684_2441" x="27.7564" y="14.9082" width="35.0048" height="37.8017" filterUnits="userSpaceOnUse" color-interpolation-filters="sRGB">
<feFlood flood-opacity="0" result="BackgroundImageFix"/>
<feColorMatrix in="SourceAlpha" type="matrix" values="0 0 0 0 0 0 0 0 0 0 0 0 0 0 0 0 0 0 127 0" result="hardAlpha"/>
<feOffset dy="3.9614"/>
<feGaussianBlur stdDeviation="1.9807"/>
<feComposite in2="hardAlpha" operator="out"/>
<feColorMatrix type="matrix" values="0 0 0 0 0.623967 0 0 0 0 0.584278 0 0 0 0 0.584278 0 0 0 0.25 0"/>
<feBlend mode="normal" in2="BackgroundImageFix" result="effect1_dropShadow_1684_2441"/>
<feBlend mode="normal" in="SourceGraphic" in2="effect1_dropShadow_1684_2441" result="shape"/>
</filter>
<filter id="filter3_d_1684_2441" x="4.27151" y="9.60156" width="38.0634" height="40.4892" filterUnits="userSpaceOnUse" color-interpolation-filters="sRGB">
<feFlood flood-opacity="0" result="BackgroundImageFix"/>
<feColorMatrix in="SourceAlpha" type="matrix" values="0 0 0 0 0 0 0 0 0 0 0 0 0 0 0 0 0 0 127 0" result="hardAlpha"/>
<feOffset dy="3.9614"/>
<feGaussianBlur stdDeviation="1.9807"/>
<feComposite in2="hardAlpha" operator="out"/>
<feColorMatrix type="matrix" values="0 0 0 0 0.623967 0 0 0 0 0.584278 0 0 0 0 0.584278 0 0 0 0.25 0"/>
<feBlend mode="normal" in2="BackgroundImageFix" result="effect1_dropShadow_1684_2441"/>
<feBlend mode="normal" in="SourceGraphic" in2="effect1_dropShadow_1684_2441" result="shape"/>
</filter>
<linearGradient id="paint0_linear_1684_2441" x1="38.5001" y1="2.11719" x2="38.5001" y2="57.1479" gradientUnits="userSpaceOnUse">
<stop stop-color="#0130BE"/>
<stop offset="1" stop-color="#7ADCFF"/>
</linearGradient>
</defs>
</svg>
