<svg width="69" height="65" viewBox="0 0 69 65" fill="none" xmlns="http://www.w3.org/2000/svg">
<rect width="69" height="64.6875" rx="8.625" fill="#3E3E3E"/>
<rect x="2.1167" y="2.11719" width="64.7669" height="55.0307" rx="5.75" fill="url(#paint0_linear_1684_2515)"/>
<g filter="url(#filter0_d_1684_2515)">
<rect x="42.4751" y="7.61914" width="21.7877" height="28.8814" rx="1.74113" transform="rotate(8.76938 42.4751 7.61914)" fill="white" shape-rendering="crispEdges"/>
<rect x="44.5156" y="11.0098" width="16.7208" height="1.01338" rx="0.506691" transform="rotate(8.76938 44.5156 11.0098)" fill="#D9D9D9"/>
<rect x="43.9751" y="14.5156" width="8.10706" height="1.01338" rx="0.506691" transform="rotate(8.76938 43.9751 14.5156)" fill="#D9D9D9"/>
<rect x="43.4341" y="18.0215" width="16.7208" height="1.01338" rx="0.506691" transform="rotate(8.76938 43.4341 18.0215)" fill="#D9D9D9"/>
<rect x="42.8936" y="21.5254" width="11.1472" height="1.01338" rx="0.506691" transform="rotate(8.76938 42.8936 21.5254)" fill="#D9D9D9"/>
<rect x="42.3525" y="25.0312" width="16.7208" height="1.01338" rx="0.506691" transform="rotate(8.76938 42.3525 25.0312)" fill="#D9D9D9"/>
<rect x="41.812" y="28.5371" width="6.08029" height="1.01338" rx="0.506691" transform="rotate(8.76938 41.812 28.5371)" fill="#D9D9D9"/>
<rect x="41.271" y="32.043" width="16.7208" height="1.01338" rx="0.506691" transform="rotate(8.76938 41.271 32.043)" fill="#D9D9D9"/>
</g>
<g filter="url(#filter1_d_1684_2515)">
<rect x="28.8525" y="14.9043" width="25.9673" height="28.8814" rx="1.74113" transform="rotate(2.25177 28.8525 14.9043)" fill="white" shape-rendering="crispEdges"/>
<rect x="31.2646" y="18.041" width="19.6882" height="1.01338" rx="0.506691" transform="rotate(2.25177 31.2646 18.041)" fill="#D9D9D9"/>
<rect x="31.1255" y="21.5859" width="8.10706" height="1.01338" rx="0.506691" transform="rotate(2.25177 31.1255 21.5859)" fill="#D9D9D9"/>
<rect x="30.9858" y="25.1289" width="19.6882" height="1.01338" rx="0.506691" transform="rotate(2.25177 30.9858 25.1289)" fill="#D9D9D9"/>
<rect x="30.8467" y="28.6738" width="11.1472" height="1.01338" rx="0.506691" transform="rotate(2.25177 30.8467 28.6738)" fill="#D9D9D9"/>
<rect x="30.707" y="32.2168" width="19.6882" height="1.01338" rx="0.506691" transform="rotate(2.25177 30.707 32.2168)" fill="#D9D9D9"/>
<rect x="30.5679" y="35.7617" width="6.08029" height="1.01338" rx="0.506691" transform="rotate(2.25177 30.5679 35.7617)" fill="#D9D9D9"/>
<rect x="30.4287" y="39.3047" width="19.6882" height="1.01338" rx="0.506691" transform="rotate(2.25177 30.4287 39.3047)" fill="#D9D9D9"/>
</g>
<g filter="url(#filter2_d_1684_2515)">
<rect x="4.2334" y="13.6348" width="25.9673" height="28.8814" rx="1.74113" transform="rotate(-8.94151 4.2334 13.6348)" fill="white" shape-rendering="crispEdges"/>
<rect x="7.2085" y="16.2441" width="19.6882" height="1.01338" rx="0.506691" transform="rotate(-8.94151 7.2085 16.2441)" fill="#D9D9D9"/>
<rect x="7.75977" y="19.748" width="8.10706" height="1.01338" rx="0.506691" transform="rotate(-8.94151 7.75977 19.748)" fill="#D9D9D9"/>
<rect x="8.31104" y="23.252" width="19.6882" height="1.01338" rx="0.506691" transform="rotate(-8.94151 8.31104 23.252)" fill="#D9D9D9"/>
<rect x="8.8623" y="26.7559" width="11.1472" height="1.01338" rx="0.506691" transform="rotate(-8.94151 8.8623 26.7559)" fill="#D9D9D9"/>
<rect x="9.41357" y="30.2598" width="19.6882" height="1.01338" rx="0.506691" transform="rotate(-8.94151 9.41357 30.2598)" fill="#D9D9D9"/>
<rect x="9.96484" y="33.7637" width="6.08029" height="1.01338" rx="0.506691" transform="rotate(-8.94151 9.96484 33.7637)" fill="#D9D9D9"/>
<rect x="10.5161" y="37.2676" width="19.6882" height="1.01338" rx="0.506691" transform="rotate(-8.94151 10.5161 37.2676)" fill="#D9D9D9"/>
</g>
<path d="M60.2636 31.8179L25.7261 31.7958L22.8961 26.2096L21.6994 23.8457H5.16865C3.4334 23.8457 2.0293 24.9609 2.0293 26.3385V60.4194C2.0293 61.7953 3.4334 62.9119 5.16865 62.9119H63.8292C65.5642 62.9119 66.9705 61.7953 66.9705 60.4194V36.9696C66.9705 34.602 64.95 32.61 62.21 31.9984C61.5148 31.874 60.2636 31.8179 60.2636 31.8179ZM66.2734 57.3435V59.2036H2.73115V57.3435H66.2734Z" fill="#3E3E3E"/>
<path opacity="0.8" d="M7.28 47L9.37 40H10.63L12.72 47H11.57L11.1 45.32H8.9L8.43 47H7.28ZM9.97 41.5L9.14 44.47H10.86L10.03 41.5H9.97ZM16.0161 47.12C15.4294 47.12 14.9294 46.97 14.5161 46.67C14.1094 46.37 13.7961 45.95 13.5761 45.41C13.3628 44.8633 13.2561 44.23 13.2561 43.51C13.2561 42.7833 13.3628 42.15 13.5761 41.61C13.7961 41.0633 14.1128 40.64 14.5261 40.34C14.9394 40.0333 15.4361 39.88 16.0161 39.88C16.7694 39.88 17.3694 40.0867 17.8161 40.5C18.2628 40.9067 18.5228 41.46 18.5961 42.16H17.4261C17.3661 41.7933 17.2161 41.49 16.9761 41.25C16.7428 41.0033 16.4194 40.88 16.0061 40.88C15.4794 40.88 15.0694 41.1133 14.7761 41.58C14.4828 42.0467 14.3361 42.69 14.3361 43.51C14.3361 44.3233 14.4828 44.9633 14.7761 45.43C15.0694 45.89 15.4794 46.12 16.0061 46.12C16.4328 46.12 16.7594 46.01 16.9861 45.79C17.2128 45.5633 17.3594 45.2667 17.4261 44.9H18.5961C18.4894 45.5867 18.2194 46.13 17.7861 46.53C17.3528 46.9233 16.7628 47.12 16.0161 47.12ZM21.9922 47.12C21.4255 47.12 20.9355 46.9733 20.5222 46.68C20.1089 46.3867 19.7922 45.97 19.5722 45.43C19.3522 44.89 19.2422 44.2467 19.2422 43.5C19.2422 42.7533 19.3522 42.11 19.5722 41.57C19.7922 41.03 20.1089 40.6133 20.5222 40.32C20.9355 40.0267 21.4255 39.88 21.9922 39.88C22.5655 39.88 23.0555 40.0267 23.4622 40.32C23.8755 40.6133 24.1922 41.03 24.4122 41.57C24.6322 42.11 24.7422 42.7533 24.7422 43.5C24.7422 44.2467 24.6322 44.89 24.4122 45.43C24.1922 45.97 23.8755 46.3867 23.4622 46.68C23.0555 46.9733 22.5655 47.12 21.9922 47.12ZM21.9922 46.12C22.4922 46.12 22.8955 45.8967 23.2022 45.45C23.5089 44.9967 23.6622 44.3467 23.6622 43.5C23.6622 42.6533 23.5089 42.0067 23.2022 41.56C22.8955 41.1067 22.4922 40.88 21.9922 40.88C21.4855 40.88 21.0789 41.1067 20.7722 41.56C20.4722 42.0067 20.3222 42.6533 20.3222 43.5C20.3222 44.3467 20.4722 44.9967 20.7722 45.45C21.0789 45.8967 21.4855 46.12 21.9922 46.12ZM25.7383 47V40H28.0283C28.5749 40 29.0249 40.0933 29.3783 40.28C29.7383 40.4667 30.0049 40.72 30.1783 41.04C30.3583 41.3533 30.4483 41.71 30.4483 42.11C30.4483 42.5633 30.3316 42.9667 30.0983 43.32C29.8716 43.6667 29.5216 43.92 29.0483 44.08L30.5183 47H29.2883L27.9483 44.23H26.7983V47H25.7383ZM26.7983 43.27H27.9683C28.4483 43.27 28.7983 43.1633 29.0183 42.95C29.2449 42.7367 29.3583 42.4567 29.3583 42.11C29.3583 41.7567 29.2483 41.4767 29.0283 41.27C28.8083 41.0567 28.4516 40.95 27.9583 40.95H26.7983V43.27ZM31.5544 47V40H33.2344C34.361 40 35.1977 40.3133 35.7444 40.94C36.291 41.56 36.5644 42.4133 36.5644 43.5C36.5644 44.5867 36.291 45.4433 35.7444 46.07C35.1977 46.69 34.361 47 33.2344 47H31.5544ZM32.6144 46.02H33.1944C34.0077 46.02 34.5944 45.7933 34.9544 45.34C35.3144 44.88 35.4944 44.2667 35.4944 43.5C35.4944 42.7333 35.3144 42.1233 34.9544 41.67C34.5944 41.21 34.0077 40.98 33.1944 40.98H32.6144V46.02ZM43.6366 47V46.05H45.3666V41.25L43.7166 41.55V40.69L45.7766 40H46.4266V46.05H48.2866V47H43.6366ZM49.6727 47V46.16C50.3593 45.6133 50.9593 45.11 51.4727 44.65C51.9927 44.19 52.3993 43.7467 52.6927 43.32C52.986 42.8933 53.1327 42.46 53.1327 42.02C53.1327 41.6533 53.0293 41.3667 52.8227 41.16C52.616 40.9467 52.336 40.84 51.9827 40.84C51.576 40.84 51.2627 40.97 51.0427 41.23C50.8227 41.4833 50.7127 41.7867 50.7127 42.14H49.6827C49.6893 41.6467 49.7927 41.2333 49.9927 40.9C50.1927 40.5667 50.4627 40.3133 50.8027 40.14C51.1493 39.9667 51.5427 39.88 51.9827 39.88C52.696 39.88 53.246 40.0733 53.6327 40.46C54.0193 40.84 54.2127 41.35 54.2127 41.99C54.2127 42.3967 54.1227 42.79 53.9427 43.17C53.7693 43.5433 53.5393 43.9 53.2527 44.24C52.966 44.58 52.646 44.9033 52.2927 45.21C51.946 45.5167 51.596 45.81 51.2427 46.09H54.4027V47H49.6727ZM58.1088 47.12C57.6154 47.12 57.1988 47.03 56.8588 46.85C56.5188 46.6633 56.2421 46.4133 56.0288 46.1C55.8221 45.7867 55.6688 45.43 55.5688 45.03C55.4754 44.6233 55.4288 44.1967 55.4288 43.75C55.4288 42.9767 55.5354 42.3 55.7488 41.72C55.9688 41.14 56.2821 40.69 56.6888 40.37C57.0954 40.0433 57.5854 39.88 58.1588 39.88C58.6321 39.88 59.0288 39.9667 59.3488 40.14C59.6754 40.3067 59.9288 40.54 60.1087 40.84C60.2954 41.1333 60.4088 41.47 60.4488 41.85H59.4588C59.3921 41.5367 59.2421 41.29 59.0088 41.11C58.7754 40.93 58.4888 40.84 58.1488 40.84C57.7021 40.84 57.3154 41.0533 56.9888 41.48C56.6621 41.9 56.4788 42.56 56.4387 43.46H56.4988C56.6388 43.2067 56.8588 42.9833 57.1588 42.79C57.4654 42.5967 57.8288 42.5 58.2488 42.5C58.6554 42.5 59.0254 42.5967 59.3588 42.79C59.6921 42.9767 59.9554 43.24 60.1488 43.58C60.3488 43.92 60.4488 44.3133 60.4488 44.76C60.4488 45.18 60.3521 45.57 60.1588 45.93C59.9721 46.29 59.7021 46.58 59.3488 46.8C59.0021 47.0133 58.5888 47.12 58.1088 47.12ZM58.0388 46.16C58.4454 46.16 58.7721 46.0333 59.0188 45.78C59.2721 45.5267 59.3988 45.2033 59.3988 44.81C59.3988 44.4167 59.2721 44.0933 59.0188 43.84C58.7721 43.58 58.4454 43.45 58.0388 43.45C57.6321 43.45 57.2988 43.5767 57.0388 43.83C56.7854 44.0833 56.6588 44.4067 56.6588 44.8C56.6588 45.1867 56.7854 45.51 57.0388 45.77C57.2988 46.03 57.6321 46.16 58.0388 46.16Z" fill="white"/>
<path d="M9.43934 52.1114C9.41711 52.0341 9.38588 51.9658 9.34564 51.9065C9.30541 51.8462 9.25618 51.7953 9.19795 51.754C9.14078 51.7117 9.07514 51.6794 9.00102 51.6572C8.92797 51.6349 8.84698 51.6238 8.75804 51.6238C8.59182 51.6238 8.44571 51.6651 8.31972 51.7477C8.19479 51.8303 8.09739 51.9504 8.02751 52.1082C7.95763 52.2649 7.92269 52.4565 7.92269 52.6831C7.92269 52.9097 7.9571 53.1024 8.02592 53.2612C8.09474 53.42 8.19214 53.5412 8.31813 53.6248C8.44412 53.7074 8.59288 53.7487 8.76439 53.7487C8.92003 53.7487 9.0529 53.7212 9.16301 53.6661C9.27418 53.61 9.35888 53.5311 9.41711 53.4295C9.4764 53.3279 9.50604 53.2077 9.50604 53.069L9.6458 53.0897H8.80727V52.5719H10.1683V52.9817C10.1683 53.2675 10.1079 53.5131 9.98724 53.7185C9.86655 53.9229 9.70032 54.0806 9.48857 54.1918C9.27683 54.3019 9.03437 54.357 8.76122 54.357C8.4563 54.357 8.18844 54.2897 7.95763 54.1553C7.72683 54.0198 7.54684 53.8276 7.41767 53.5788C7.28957 53.3289 7.22551 53.0325 7.22551 52.6894C7.22551 52.4258 7.26363 52.1908 7.33986 51.9843C7.41714 51.7768 7.52514 51.6011 7.66383 51.4571C7.80253 51.3131 7.96399 51.2035 8.14821 51.1283C8.33243 51.0532 8.532 51.0156 8.74693 51.0156C8.93115 51.0156 9.10266 51.0426 9.26147 51.0966C9.42029 51.1495 9.5611 51.2247 9.68391 51.3221C9.80779 51.4195 9.9089 51.5354 9.98724 51.6699C10.0656 51.8033 10.1159 51.9504 10.1381 52.1114H9.43934ZM11.8285 54.3601C11.5776 54.3601 11.3616 54.3093 11.1806 54.2077C11.0006 54.105 10.8619 53.9599 10.7645 53.7725C10.6671 53.5841 10.6184 53.3612 10.6184 53.1039C10.6184 52.853 10.6671 52.6328 10.7645 52.4433C10.8619 52.2538 10.999 52.1061 11.1758 52.0002C11.3537 51.8943 11.5622 51.8414 11.8015 51.8414C11.9624 51.8414 12.1123 51.8673 12.251 51.9192C12.3907 51.97 12.5125 52.0468 12.6162 52.1495C12.721 52.2522 12.8026 52.3814 12.8608 52.537C12.919 52.6916 12.9481 52.8726 12.9481 53.0801V53.2659H10.8884V52.8467H12.3113C12.3113 52.7493 12.2901 52.663 12.2478 52.5878C12.2054 52.5126 12.1467 52.4539 12.0715 52.4115C11.9974 52.3681 11.9111 52.3464 11.8126 52.3464C11.7099 52.3464 11.6189 52.3702 11.5395 52.4179C11.4611 52.4645 11.3997 52.5275 11.3553 52.6069C11.3108 52.6852 11.288 52.7726 11.287 52.8689V53.2675C11.287 53.3882 11.3092 53.4925 11.3537 53.5804C11.3992 53.6683 11.4633 53.736 11.5458 53.7837C11.6284 53.8313 11.7263 53.8551 11.8396 53.8551C11.9148 53.8551 11.9836 53.8445 12.0461 53.8234C12.1086 53.8022 12.162 53.7704 12.2065 53.7281C12.251 53.6857 12.2848 53.6338 12.3081 53.5724L12.9338 53.6137C12.9021 53.7641 12.837 53.8954 12.7385 54.0076C12.6411 54.1188 12.5151 54.2056 12.3605 54.268C12.207 54.3294 12.0297 54.3601 11.8285 54.3601ZM14.1109 52.9023V54.3125H13.4344V51.8732H14.0791V52.3035H14.1077C14.1617 52.1617 14.2522 52.0494 14.3793 51.9669C14.5063 51.8832 14.6604 51.8414 14.8414 51.8414C15.0108 51.8414 15.1585 51.8785 15.2845 51.9526C15.4105 52.0267 15.5084 52.1325 15.5783 52.2702C15.6482 52.4068 15.6831 52.5698 15.6831 52.7593V54.3125H15.0066V52.88C15.0076 52.7307 14.9695 52.6143 14.8922 52.5306C14.815 52.4459 14.7086 52.4036 14.573 52.4036C14.482 52.4036 14.4015 52.4232 14.3316 52.4623C14.2628 52.5015 14.2088 52.5587 14.1697 52.6339C14.1315 52.708 14.1119 52.7974 14.1109 52.9023ZM17.3727 54.3601C17.1218 54.3601 16.9058 54.3093 16.7248 54.2077C16.5448 54.105 16.4061 53.9599 16.3087 53.7725C16.2113 53.5841 16.1626 53.3612 16.1626 53.1039C16.1626 52.853 16.2113 52.6328 16.3087 52.4433C16.4061 52.2538 16.5432 52.1061 16.72 52.0002C16.8979 51.8943 17.1065 51.8414 17.3457 51.8414C17.5067 51.8414 17.6565 51.8673 17.7952 51.9192C17.9349 51.97 18.0567 52.0468 18.1604 52.1495C18.2653 52.2522 18.3468 52.3814 18.405 52.537C18.4632 52.6916 18.4924 52.8726 18.4924 53.0801V53.2659H16.4326V52.8467H17.8555C17.8555 52.7493 17.8343 52.663 17.792 52.5878C17.7496 52.5126 17.6909 52.4539 17.6157 52.4115C17.5416 52.3681 17.4553 52.3464 17.3569 52.3464C17.2542 52.3464 17.1631 52.3702 17.0837 52.4179C17.0054 52.4645 16.9439 52.5275 16.8995 52.6069C16.855 52.6852 16.8322 52.7726 16.8312 52.8689V53.2675C16.8312 53.3882 16.8534 53.4925 16.8979 53.5804C16.9434 53.6683 17.0075 53.736 17.0901 53.7837C17.1726 53.8313 17.2706 53.8551 17.3839 53.8551C17.459 53.8551 17.5278 53.8445 17.5903 53.8234C17.6528 53.8022 17.7062 53.7704 17.7507 53.7281C17.7952 53.6857 17.8291 53.6338 17.8523 53.5724L18.4781 53.6137C18.4463 53.7641 18.3812 53.8954 18.2827 54.0076C18.1853 54.1188 18.0593 54.2056 17.9048 54.268C17.7512 54.3294 17.5739 54.3601 17.3727 54.3601ZM18.9786 54.3125V51.8732H19.6345V52.2988H19.6599C19.7043 52.1474 19.779 52.033 19.8838 51.9557C19.9886 51.8774 20.1093 51.8382 20.2459 51.8382C20.2798 51.8382 20.3163 51.8403 20.3555 51.8446C20.3946 51.8488 20.429 51.8546 20.4587 51.862V52.4623C20.4269 52.4528 20.383 52.4443 20.3269 52.4369C20.2708 52.4295 20.2194 52.4258 20.1728 52.4258C20.0733 52.4258 19.9844 52.4475 19.906 52.4909C19.8287 52.5333 19.7673 52.5926 19.7218 52.6688C19.6773 52.745 19.6551 52.8329 19.6551 52.9324V54.3125H18.9786ZM21.4789 54.3586C21.3233 54.3586 21.1846 54.3316 21.0628 54.2776C20.9411 54.2225 20.8447 54.1415 20.7738 54.0346C20.7039 53.9266 20.669 53.7921 20.669 53.6312C20.669 53.4957 20.6939 53.3819 20.7436 53.2898C20.7934 53.1976 20.8611 53.1235 20.9469 53.0674C21.0327 53.0113 21.1301 52.969 21.2391 52.9404C21.3492 52.9118 21.4646 52.8917 21.5853 52.88C21.7272 52.8652 21.8415 52.8514 21.9284 52.8387C22.0152 52.825 22.0782 52.8049 22.1173 52.7784C22.1565 52.7519 22.1761 52.7127 22.1761 52.6609V52.6513C22.1761 52.5508 22.1443 52.4729 22.0808 52.4179C22.0183 52.3628 21.9294 52.3353 21.814 52.3353C21.6923 52.3353 21.5954 52.3623 21.5234 52.4163C21.4514 52.4692 21.4037 52.5359 21.3805 52.6164L20.7547 52.5656C20.7865 52.4174 20.849 52.2892 20.9421 52.1813C21.0353 52.0722 21.1555 51.9886 21.3026 51.9303C21.4509 51.871 21.6224 51.8414 21.8172 51.8414C21.9527 51.8414 22.0824 51.8573 22.2063 51.889C22.3312 51.9208 22.4418 51.97 22.5382 52.0367C22.6356 52.1034 22.7123 52.1892 22.7685 52.294C22.8246 52.3978 22.8526 52.5222 22.8526 52.6672V54.3125H22.211V53.9742H22.192C22.1528 54.0505 22.1004 54.1177 22.0348 54.1759C21.9691 54.2331 21.8902 54.2781 21.7981 54.3109C21.706 54.3427 21.5996 54.3586 21.4789 54.3586ZM21.6727 53.8916C21.7722 53.8916 21.8601 53.8721 21.9363 53.8329C22.0125 53.7927 22.0723 53.7387 22.1157 53.6709C22.1592 53.6031 22.1809 53.5264 22.1809 53.4406V53.1818C22.1597 53.1955 22.1306 53.2082 22.0935 53.2199C22.0575 53.2305 22.0168 53.2405 21.9712 53.2501C21.9257 53.2585 21.8802 53.2665 21.8347 53.2739C21.7891 53.2802 21.7478 53.286 21.7108 53.2913C21.6314 53.303 21.562 53.3215 21.5027 53.3469C21.4434 53.3723 21.3974 53.4067 21.3646 53.4502C21.3317 53.4925 21.3153 53.5454 21.3153 53.609C21.3153 53.7011 21.3487 53.7715 21.4154 53.8202C21.4831 53.8678 21.5689 53.8916 21.6727 53.8916ZM24.0988 51.06V54.3125H23.4222V51.06H24.0988ZM25.7779 54.3125V51.06H26.4656V53.7455H27.8599V54.3125H25.7779ZM28.3473 54.3125V51.8732H29.0239V54.3125H28.3473ZM28.6872 51.5587C28.5866 51.5587 28.5003 51.5254 28.4283 51.4587C28.3574 51.3909 28.3219 51.3099 28.3219 51.2157C28.3219 51.1225 28.3574 51.0426 28.4283 50.9759C28.5003 50.9081 28.5866 50.8742 28.6872 50.8742C28.7878 50.8742 28.8735 50.9081 28.9445 50.9759C29.0165 51.0426 29.0525 51.1225 29.0525 51.2157C29.0525 51.3099 29.0165 51.3909 28.9445 51.4587C28.8735 51.5254 28.7878 51.5587 28.6872 51.5587ZM30.3061 54.3586C30.1505 54.3586 30.0118 54.3316 29.89 54.2776C29.7683 54.2225 29.6719 54.1415 29.601 54.0346C29.5311 53.9266 29.4962 53.7921 29.4962 53.6312C29.4962 53.4957 29.5211 53.3819 29.5708 53.2898C29.6206 53.1976 29.6884 53.1235 29.7741 53.0674C29.8599 53.0113 29.9573 52.969 30.0663 52.9404C30.1764 52.9118 30.2918 52.8917 30.4125 52.88C30.5544 52.8652 30.6687 52.8514 30.7556 52.8387C30.8424 52.825 30.9054 52.8049 30.9446 52.7784C30.9837 52.7519 31.0033 52.7127 31.0033 52.6609V52.6513C31.0033 52.5508 30.9715 52.4729 30.908 52.4179C30.8456 52.3628 30.7566 52.3353 30.6412 52.3353C30.5195 52.3353 30.4226 52.3623 30.3506 52.4163C30.2786 52.4692 30.231 52.5359 30.2077 52.6164L29.5819 52.5656C29.6137 52.4174 29.6762 52.2892 29.7693 52.1813C29.8625 52.0722 29.9827 51.9886 30.1298 51.9303C30.2781 51.871 30.4496 51.8414 30.6444 51.8414C30.7799 51.8414 30.9096 51.8573 31.0335 51.889C31.1584 51.9208 31.2691 51.97 31.3654 52.0367C31.4628 52.1034 31.5396 52.1892 31.5957 52.294C31.6518 52.3978 31.6798 52.5222 31.6798 52.6672V54.3125H31.0382V53.9742H31.0192C30.98 54.0505 30.9276 54.1177 30.862 54.1759C30.7963 54.2331 30.7174 54.2781 30.6253 54.3109C30.5332 54.3427 30.4268 54.3586 30.3061 54.3586ZM30.4999 53.8916C30.5994 53.8916 30.6873 53.8721 30.7635 53.8329C30.8397 53.7927 30.8996 53.7387 30.943 53.6709C30.9864 53.6031 31.0081 53.5264 31.0081 53.4406V53.1818C30.9869 53.1955 30.9578 53.2082 30.9207 53.2199C30.8847 53.2305 30.844 53.2405 30.7984 53.2501C30.7529 53.2585 30.7074 53.2665 30.6619 53.2739C30.6163 53.2802 30.575 53.286 30.538 53.2913C30.4586 53.303 30.3892 53.3215 30.33 53.3469C30.2707 53.3723 30.2246 53.4067 30.1918 53.4502C30.159 53.4925 30.1426 53.5454 30.1426 53.609C30.1426 53.7011 30.1759 53.7715 30.2426 53.8202C30.3104 53.8678 30.3961 53.8916 30.4999 53.8916ZM32.2621 54.3125V51.06H32.9387V52.2829H32.9593C32.989 52.2172 33.0318 52.1505 33.088 52.0828C33.1451 52.014 33.2192 51.9568 33.3103 51.9113C33.4024 51.8647 33.5168 51.8414 33.6533 51.8414C33.8312 51.8414 33.9953 51.888 34.1456 51.9811C34.296 52.0733 34.4162 52.2125 34.5061 52.3988C34.5961 52.5841 34.6411 52.8165 34.6411 53.096C34.6411 53.3681 34.5972 53.5978 34.5093 53.7852C34.4225 53.9716 34.3039 54.1129 34.1536 54.2093C34.0043 54.3046 33.837 54.3522 33.6517 54.3522C33.5205 54.3522 33.4088 54.3305 33.3167 54.2871C33.2256 54.2437 33.151 54.1892 33.0927 54.1235C33.0345 54.0568 32.99 53.9896 32.9593 53.9218H32.9292V54.3125H32.2621ZM32.9244 53.0928C32.9244 53.2379 32.9445 53.3644 32.9847 53.4724C33.025 53.5804 33.0832 53.6645 33.1594 53.7249C33.2357 53.7842 33.3283 53.8138 33.4373 53.8138C33.5475 53.8138 33.6406 53.7837 33.7169 53.7233C33.7931 53.6619 33.8508 53.5772 33.89 53.4692C33.9302 53.3602 33.9503 53.2347 33.9503 53.0928C33.9503 52.952 33.9307 52.8281 33.8915 52.7212C33.8524 52.6143 33.7947 52.5306 33.7184 52.4703C33.6422 52.4099 33.5485 52.3798 33.4373 52.3798C33.3272 52.3798 33.2341 52.4089 33.1578 52.4671C33.0827 52.5253 33.025 52.6079 32.9847 52.7149C32.9445 52.8218 32.9244 52.9478 32.9244 53.0928ZM35.1373 54.3125V51.8732H35.8138V54.3125H35.1373ZM35.4771 51.5587C35.3766 51.5587 35.2903 51.5254 35.2183 51.4587C35.1473 51.3909 35.1119 51.3099 35.1119 51.2157C35.1119 51.1225 35.1473 51.0426 35.2183 50.9759C35.2903 50.9081 35.3766 50.8742 35.4771 50.8742C35.5777 50.8742 35.6635 50.9081 35.7344 50.9759C35.8064 51.0426 35.8424 51.1225 35.8424 51.2157C35.8424 51.3099 35.8064 51.3909 35.7344 51.4587C35.6635 51.5254 35.5777 51.5587 35.4771 51.5587ZM37.077 51.06V54.3125H36.4005V51.06H37.077ZM37.6637 54.3125V51.8732H38.3402V54.3125H37.6637ZM38.0035 51.5587C37.903 51.5587 37.8167 51.5254 37.7447 51.4587C37.6737 51.3909 37.6383 51.3099 37.6383 51.2157C37.6383 51.1225 37.6737 51.0426 37.7447 50.9759C37.8167 50.9081 37.903 50.8742 38.0035 50.8742C38.1041 50.8742 38.1899 50.9081 38.2608 50.9759C38.3328 51.0426 38.3688 51.1225 38.3688 51.2157C38.3688 51.3099 38.3328 51.3909 38.2608 51.4587C38.1899 51.5254 38.1041 51.5587 38.0035 51.5587ZM40.2244 51.8732V52.3814H38.7554V51.8732H40.2244ZM39.0889 51.2887H39.7654V53.5629C39.7654 53.6254 39.7749 53.6741 39.794 53.709C39.8131 53.7429 39.8395 53.7667 39.8734 53.7805C39.9083 53.7942 39.9486 53.8011 39.9941 53.8011C40.0259 53.8011 40.0576 53.7985 40.0894 53.7932C40.1211 53.7868 40.1455 53.7821 40.1624 53.7789L40.2688 54.2823C40.235 54.2929 40.1873 54.3051 40.1259 54.3189C40.0645 54.3337 39.9899 54.3427 39.902 54.3459C39.7389 54.3522 39.596 54.3305 39.4732 54.2807C39.3514 54.231 39.2567 54.1537 39.1889 54.0489C39.1212 53.9441 39.0878 53.8117 39.0889 53.6518V51.2887ZM41.1275 55.2273C41.0417 55.2273 40.9613 55.2204 40.8861 55.2066C40.812 55.1939 40.7506 55.1775 40.7019 55.1574L40.8543 54.6524C40.9337 54.6767 41.0052 54.6899 41.0687 54.6921C41.1333 54.6942 41.1889 54.6794 41.2355 54.6476C41.2831 54.6158 41.3218 54.5618 41.3514 54.4856L41.3911 54.3824L40.516 51.8732H41.2275L41.7325 53.6645H41.758L42.2677 51.8732H42.984L42.0359 54.5761C41.9903 54.7074 41.9284 54.8218 41.8501 54.9192C41.7728 55.0176 41.6748 55.0933 41.5563 55.1463C41.4377 55.2003 41.2948 55.2273 41.1275 55.2273Z" fill="white"/>
<defs>
<filter id="filter0_d_1684_2515" x="34.1104" y="7.61914" width="33.8593" height="39.788" filterUnits="userSpaceOnUse" color-interpolation-filters="sRGB">
<feFlood flood-opacity="0" result="BackgroundImageFix"/>
<feColorMatrix in="SourceAlpha" type="matrix" values="0 0 0 0 0 0 0 0 0 0 0 0 0 0 0 0 0 0 127 0" result="hardAlpha"/>
<feOffset dy="3.9614"/>
<feGaussianBlur stdDeviation="1.9807"/>
<feComposite in2="hardAlpha" operator="out"/>
<feColorMatrix type="matrix" values="0 0 0 0 0.623967 0 0 0 0 0.584278 0 0 0 0 0.584278 0 0 0 0.25 0"/>
<feBlend mode="normal" in2="BackgroundImageFix" result="effect1_dropShadow_1684_2515"/>
<feBlend mode="normal" in="SourceGraphic" in2="effect1_dropShadow_1684_2515" result="shape"/>
</filter>
<filter id="filter1_d_1684_2515" x="23.7564" y="14.9043" width="35.0048" height="37.8017" filterUnits="userSpaceOnUse" color-interpolation-filters="sRGB">
<feFlood flood-opacity="0" result="BackgroundImageFix"/>
<feColorMatrix in="SourceAlpha" type="matrix" values="0 0 0 0 0 0 0 0 0 0 0 0 0 0 0 0 0 0 127 0" result="hardAlpha"/>
<feOffset dy="3.9614"/>
<feGaussianBlur stdDeviation="1.9807"/>
<feComposite in2="hardAlpha" operator="out"/>
<feColorMatrix type="matrix" values="0 0 0 0 0.623967 0 0 0 0 0.584278 0 0 0 0 0.584278 0 0 0 0.25 0"/>
<feBlend mode="normal" in2="BackgroundImageFix" result="effect1_dropShadow_1684_2515"/>
<feBlend mode="normal" in="SourceGraphic" in2="effect1_dropShadow_1684_2515" result="shape"/>
</filter>
<filter id="filter2_d_1684_2515" x="0.271997" y="9.59961" width="38.0634" height="40.4892" filterUnits="userSpaceOnUse" color-interpolation-filters="sRGB">
<feFlood flood-opacity="0" result="BackgroundImageFix"/>
<feColorMatrix in="SourceAlpha" type="matrix" values="0 0 0 0 0 0 0 0 0 0 0 0 0 0 0 0 0 0 127 0" result="hardAlpha"/>
<feOffset dy="3.9614"/>
<feGaussianBlur stdDeviation="1.9807"/>
<feComposite in2="hardAlpha" operator="out"/>
<feColorMatrix type="matrix" values="0 0 0 0 0.623967 0 0 0 0 0.584278 0 0 0 0 0.584278 0 0 0 0.25 0"/>
<feBlend mode="normal" in2="BackgroundImageFix" result="effect1_dropShadow_1684_2515"/>
<feBlend mode="normal" in="SourceGraphic" in2="effect1_dropShadow_1684_2515" result="shape"/>
</filter>
<linearGradient id="paint0_linear_1684_2515" x1="34.5001" y1="2.11719" x2="34.5001" y2="57.1479" gradientUnits="userSpaceOnUse">
<stop stop-color="#0130BE"/>
<stop offset="1" stop-color="#7ADCFF"/>
</linearGradient>
</defs>
</svg>
