<svg width="80" height="24" viewBox="0 0 80 24" fill="none" xmlns="http://www.w3.org/2000/svg">
<g clip-path="url(#clip0_680_3572)">
<path d="M64.6289 8.11383C67.0845 8.11064 67.0845 8.11064 68.1112 8.10997C68.3462 8.10981 68.5812 8.10965 68.8162 8.10948C68.8456 8.10946 68.875 8.10944 68.9054 8.10942C69.3802 8.10908 69.855 8.10845 70.3298 8.10772C70.8174 8.10698 71.3051 8.10655 71.7927 8.10638C72.0934 8.10628 72.394 8.10594 72.6947 8.10529C72.9012 8.10487 73.1076 8.10475 73.3141 8.10485C73.433 8.1049 73.5519 8.10483 73.6709 8.1044C74.7977 8.10056 74.7977 8.10056 75.2815 8.2984C75.3074 8.30887 75.3333 8.31934 75.36 8.33013C75.6801 8.47405 75.9456 8.71845 76.0989 9.0367C76.2329 9.39142 76.238 9.72424 76.24 10.0984C76.2404 10.1595 76.2411 10.2205 76.2421 10.2816C76.2436 10.3702 76.2442 10.4588 76.2446 10.5475C76.2452 10.5745 76.2457 10.6015 76.2464 10.6293C76.2457 10.8613 76.1764 11.0436 76.0165 11.2137C75.915 11.3077 75.8065 11.3937 75.6988 11.4805C75.6056 11.557 75.517 11.6378 75.4281 11.7191C75.3325 11.8039 75.2327 11.8832 75.1325 11.9624C75.0756 12.0119 75.0338 12.0596 74.9915 12.1217C75.1248 12.2441 75.2594 12.3639 75.4002 12.4777C75.5193 12.5741 75.6338 12.6743 75.747 12.7776C75.8041 12.8293 75.8623 12.8794 75.9209 12.9293C76.0835 13.0718 76.2179 13.2006 76.2361 13.4274C76.2386 13.5093 76.2394 13.5911 76.2396 13.6731C76.2398 13.7035 76.24 13.7339 76.2401 13.7652C76.2404 13.8295 76.2405 13.8938 76.2405 13.9581C76.2406 14.0552 76.2416 14.1523 76.2426 14.2494C76.2452 14.7878 76.2044 15.2671 75.8171 15.6748C75.3551 16.1243 74.7188 16.2177 74.1002 16.2151C74.0592 16.2151 74.0181 16.2152 73.977 16.2152C73.865 16.2153 73.7531 16.2151 73.6411 16.2149C73.52 16.2146 73.3989 16.2147 73.2778 16.2148C73.0684 16.2148 72.8589 16.2146 72.6494 16.2143C72.3465 16.2139 72.0436 16.2138 71.7408 16.2137C71.2493 16.2136 70.7579 16.2132 70.2664 16.2127C69.7892 16.2122 69.3119 16.2119 68.8347 16.2116C68.8049 16.2116 68.7752 16.2116 68.7445 16.2116C68.5119 16.2115 68.2792 16.2114 68.0466 16.2113C66.9074 16.2108 65.7681 16.2097 64.6289 16.2088C64.6289 13.5374 64.6289 10.8661 64.6289 8.11383ZM66.1846 9.51132C66.1846 10.1465 66.1846 10.7817 66.1846 11.4362C68.9778 11.4362 71.7709 11.4362 74.6487 11.4362C74.6487 10.801 74.6487 10.1658 74.6487 9.51132C71.8555 9.51132 69.0624 9.51132 66.1846 9.51132ZM66.1846 12.8337C66.1846 13.4863 66.1846 14.1389 66.1846 14.8113C68.9778 14.8113 71.7709 14.8113 74.6487 14.8113C74.6487 14.1587 74.6487 13.506 74.6487 12.8337C71.8555 12.8337 69.0624 12.8337 66.1846 12.8337Z" fill="white"/>
<path d="M48.2246 8.11383C50.6802 8.11064 50.6802 8.11064 51.7069 8.10997C51.9419 8.10981 52.1769 8.10965 52.4119 8.10948C52.4413 8.10946 52.4708 8.10944 52.5011 8.10942C52.9759 8.10908 53.4507 8.10845 53.9255 8.10772C54.4131 8.10698 54.9008 8.10655 55.3884 8.10638C55.6891 8.10628 55.9897 8.10594 56.2904 8.10529C56.4969 8.10487 56.7033 8.10475 56.9098 8.10485C57.0287 8.1049 57.1476 8.10483 57.2666 8.1044C58.3934 8.10056 58.3934 8.10056 58.8772 8.2984C58.9031 8.30887 58.929 8.31934 58.9557 8.33013C59.2758 8.47405 59.5413 8.71845 59.6946 9.0367C59.7945 9.30106 59.8307 9.54588 59.8327 9.8265C59.833 9.85433 59.8332 9.88216 59.8334 9.91083C59.8337 9.9696 59.834 10.0284 59.8342 10.0872C59.8345 10.1469 59.8351 10.2067 59.8359 10.2665C59.837 10.3533 59.8374 10.4401 59.8377 10.5269C59.8381 10.5533 59.8386 10.5797 59.8391 10.6069C59.8385 10.8113 59.7966 10.9895 59.6747 11.1569C59.659 11.1713 59.6433 11.1857 59.627 11.2005C59.6087 11.2174 59.5904 11.2344 59.5715 11.2518C59.4801 11.3299 59.3873 11.4061 59.2935 11.4814C59.2006 11.5575 59.1124 11.6381 59.0238 11.7191C58.9282 11.8039 58.8284 11.8832 58.7282 11.9624C58.6713 12.0119 58.6295 12.0596 58.5872 12.1217C58.7205 12.2441 58.8551 12.3639 58.9959 12.4777C59.115 12.5741 59.2295 12.6743 59.3427 12.7776C59.3998 12.8293 59.458 12.8794 59.5166 12.9293C59.6792 13.0718 59.8136 13.2006 59.8318 13.4274C59.8343 13.5093 59.8351 13.5911 59.8353 13.6731C59.8355 13.7035 59.8357 13.7339 59.8358 13.7652C59.8361 13.8295 59.8362 13.8938 59.8362 13.9581C59.8363 14.0552 59.8373 14.1523 59.8383 14.2494C59.8409 14.7878 59.8001 15.2671 59.4128 15.6748C58.9508 16.1243 58.3145 16.2177 57.6959 16.2151C57.6549 16.2151 57.6138 16.2152 57.5727 16.2152C57.4607 16.2153 57.3488 16.2151 57.2368 16.2149C57.1157 16.2146 56.9946 16.2147 56.8735 16.2148C56.6641 16.2148 56.4546 16.2146 56.2451 16.2143C55.9422 16.2139 55.6394 16.2138 55.3365 16.2137C54.845 16.2136 54.3536 16.2132 53.8621 16.2127C53.3849 16.2122 52.9076 16.2119 52.4304 16.2116C52.4006 16.2116 52.3709 16.2116 52.3402 16.2116C52.1076 16.2115 51.8749 16.2114 51.6423 16.2113C50.5031 16.2108 49.3638 16.2097 48.2246 16.2088C48.2246 13.5374 48.2246 10.8661 48.2246 8.11383ZM49.7803 9.51132C49.7803 10.1465 49.7803 10.7817 49.7803 11.4362C52.5735 11.4362 55.3666 11.4362 58.2444 11.4362C58.2444 10.801 58.2444 10.1658 58.2444 9.51132C55.4512 9.51132 52.6581 9.51132 49.7803 9.51132ZM49.7803 12.8337C49.7803 13.4863 49.7803 14.1389 49.7803 14.8113C52.5735 14.8113 55.3666 14.8113 58.2444 14.8113C58.2444 14.1587 58.2444 13.506 58.2444 12.8337C55.4512 12.8337 52.6581 12.8337 49.7803 12.8337Z" fill="white"/>
<path d="M1.83334 8.11344C1.86631 8.11339 1.89929 8.11334 1.93326 8.11328C1.9695 8.11336 2.00575 8.11343 2.042 8.11351C2.08077 8.1135 2.11954 8.11348 2.15831 8.11345C2.26462 8.11339 2.37092 8.11349 2.47723 8.11362C2.59196 8.11374 2.70668 8.1137 2.82141 8.11368C3.0201 8.11367 3.2188 8.11375 3.41749 8.1139C3.70477 8.11411 3.99205 8.11418 4.27933 8.11421C4.74543 8.11427 5.21153 8.11445 5.67763 8.1147C6.13038 8.11494 6.58313 8.11512 7.03589 8.11524C7.07775 8.11525 7.07775 8.11525 7.12047 8.11526C7.26049 8.11529 7.40052 8.11533 7.54054 8.11536C8.70203 8.11563 9.86353 8.1161 11.025 8.11668C11.025 8.59526 11.025 9.07384 11.025 9.56692C7.90992 9.56692 4.79483 9.56692 1.58533 9.56692C1.58533 11.2811 1.58533 12.9953 1.58533 14.7614C4.70043 14.7614 7.81553 14.7614 11.025 14.7614C11.025 15.24 11.025 15.7185 11.025 16.2116C9.83726 16.214 8.64949 16.2159 7.46173 16.217C7.32134 16.2171 7.18094 16.2173 7.04055 16.2174C7.0126 16.2174 6.98466 16.2175 6.95586 16.2175C6.50399 16.2179 6.05213 16.2188 5.60026 16.2197C5.13621 16.2207 4.67217 16.2213 4.20812 16.2215C3.92204 16.2217 3.63596 16.2221 3.34988 16.223C3.15341 16.2236 2.95693 16.2237 2.76046 16.2236C2.64729 16.2235 2.53413 16.2236 2.42097 16.2242C1.70749 16.2276 1.00649 16.2066 0.446574 15.6958C0.150173 15.3811 -0.00072377 14.9506 -0.000615997 14.5236C-0.000712943 14.5028 -0.000809822 14.482 -0.000909707 14.4605C-0.00119932 14.3909 -0.00130191 14.3213 -0.00140257 14.2518C-0.00156787 14.2018 -0.00174314 14.1518 -0.00192763 14.1018C-0.00248134 13.9377 -0.00275562 13.7737 -0.00301838 13.6096C-0.00312516 13.553 -0.00323376 13.4964 -0.00334407 13.4398C-0.00384627 13.1736 -0.00422145 12.9074 -0.00444126 12.6413C-0.00469855 12.3348 -0.00539159 12.0283 -0.00645839 11.7219C-0.00725605 11.4845 -0.0076443 11.2472 -0.0077314 11.0098C-0.00779313 10.8683 -0.00802609 10.7268 -0.00869279 10.5853C-0.00931092 10.4519 -0.00941668 10.3186 -0.00914744 10.1852C-0.00913448 10.1366 -0.00929814 10.0879 -0.00966304 10.0393C-0.0135497 9.49002 0.0919505 9.01314 0.486743 8.60284C0.843462 8.27646 1.35439 8.11327 1.83334 8.11344Z" fill="white"/>
<path d="M15.4531 8.11328C15.9665 8.11328 16.4799 8.11328 17.0088 8.11328C17.0088 9.20095 17.0088 10.2886 17.0088 11.4093C19.6889 11.4093 22.3689 11.4093 25.1301 11.4093C25.1301 10.3216 25.1301 9.23391 25.1301 8.11328C25.6435 8.11328 26.1569 8.11328 26.6858 8.11328C26.6858 10.7846 26.6858 13.4559 26.6858 16.2082C26.1724 16.2082 25.6591 16.2082 25.1301 16.2082C25.1301 15.1031 25.1301 13.9981 25.1301 12.8595C22.4501 12.8595 19.7701 12.8595 17.0088 12.8595C17.0088 13.9646 17.0088 15.0696 17.0088 16.2082C16.4954 16.2082 15.9821 16.2082 15.4531 16.2082C15.4531 13.5369 15.4531 10.8656 15.4531 8.11328Z" fill="white"/>
<path d="M31.9088 8.11328C32.4222 8.11328 32.9356 8.11328 33.4645 8.11328C33.4645 10.306 33.4645 12.4988 33.4645 14.758C36.1011 14.758 38.7376 14.758 41.454 14.758C41.454 12.5652 41.454 10.3725 41.454 8.11328C41.9674 8.11328 42.4808 8.11328 43.0097 8.11328C43.0114 8.93244 43.0129 9.7516 43.0137 10.5708C43.0138 10.6676 43.0139 10.7645 43.014 10.8614C43.0141 10.8807 43.0141 10.9 43.0141 10.9199C43.0144 11.2315 43.0151 11.543 43.0158 11.8546C43.0165 12.1747 43.017 12.4949 43.0171 12.815C43.0172 12.9946 43.0175 13.1743 43.0181 13.3539C43.0186 13.5232 43.0188 13.6925 43.0186 13.8619C43.0187 13.9238 43.0188 13.9857 43.0191 14.0476C43.0221 14.6865 42.959 15.238 42.5038 15.7253C42.1042 16.1074 41.553 16.2169 41.018 16.2151C40.9704 16.2152 40.9704 16.2152 40.9218 16.2154C40.8347 16.2156 40.7475 16.2156 40.6604 16.2155C40.566 16.2154 40.4716 16.2157 40.3773 16.2159C40.1927 16.2162 40.0082 16.2162 39.8237 16.2162C39.6736 16.2161 39.5234 16.2162 39.3733 16.2163C39.3412 16.2163 39.3412 16.2163 39.3084 16.2163C39.2649 16.2164 39.2213 16.2164 39.1778 16.2164C38.7702 16.2167 38.3625 16.2167 37.9549 16.2165C37.5827 16.2164 37.2105 16.2167 36.8384 16.2172C36.4554 16.2177 36.0725 16.2179 35.6895 16.2178C35.4748 16.2177 35.2602 16.2178 35.0455 16.2182C34.8627 16.2185 34.6799 16.2185 34.4972 16.2182C34.4041 16.2181 34.311 16.218 34.2179 16.2183C33.5292 16.2202 32.8813 16.1725 32.3531 15.6807C32.0223 15.3225 31.8995 14.8727 31.9025 14.3947C31.9025 14.3677 31.9024 14.3406 31.9024 14.3127C31.9023 14.2229 31.9026 14.1331 31.9029 14.0432C31.9029 13.9785 31.9029 13.9138 31.9028 13.8491C31.9028 13.7101 31.903 13.5712 31.9033 13.4323C31.9037 13.2314 31.9038 13.0306 31.9039 12.8297C31.904 12.5038 31.9044 12.1778 31.9049 11.8519C31.9053 11.5354 31.9057 11.2189 31.9059 10.9025C31.906 10.8829 31.906 10.8634 31.906 10.8433C31.9061 10.7453 31.9061 10.6473 31.9062 10.5492C31.9067 9.73725 31.9077 8.92527 31.9088 8.11328Z" fill="white"/>
<path d="M79.5369 8.27225C79.5598 8.28965 79.5826 8.30705 79.6061 8.32498C79.6279 8.33967 79.6497 8.35435 79.6721 8.36948C79.8652 8.54815 80.0002 8.80936 80.0166 9.07296C80.0173 9.12137 80.0173 9.16979 80.0165 9.21819C80.0162 9.24362 80.0159 9.26906 80.0156 9.29526C80.0061 9.60178 79.9112 9.81308 79.6972 10.0338C79.4339 10.2691 79.153 10.3447 78.8049 10.3364C78.5144 10.3137 78.2424 10.1795 78.0417 9.96648C77.8315 9.6824 77.7595 9.38633 77.7868 9.03691C77.8463 8.72636 77.9881 8.47042 78.2488 8.28646C78.6489 8.03785 79.1304 8.03135 79.5369 8.27225ZM78.2807 8.51079C78.05 8.75859 77.9821 8.98906 77.9885 9.32181C78.0006 9.54461 78.1008 9.75381 78.2614 9.90705C78.5144 10.1072 78.7564 10.1775 79.0788 10.1444C79.3318 10.0937 79.5287 9.94973 79.6764 9.73896C79.8196 9.49106 79.8605 9.23911 79.7999 8.95678C79.7136 8.69375 79.5679 8.51761 79.3274 8.38276C78.9814 8.21311 78.5741 8.2458 78.2807 8.51079Z" fill="white"/>
<path d="M78.4961 8.56641C79.1289 8.56641 79.1289 8.56641 79.3135 8.64551C79.4011 8.73762 79.4264 8.81148 79.4322 8.93556C79.4266 9.05938 79.3995 9.13276 79.3135 9.2256C79.2278 9.27504 79.2278 9.27504 79.1553 9.30471C79.238 9.46246 79.3306 9.60759 79.436 9.75121C79.4717 9.80569 79.4717 9.80569 79.4717 9.85843C79.3869 9.8733 79.3418 9.88121 79.2608 9.85843C79.1636 9.76151 79.0997 9.64099 79.0379 9.51946C79.0255 9.4959 79.0131 9.47235 79.0004 9.44808C78.9901 9.42629 78.9798 9.40451 78.9693 9.38206C78.9017 9.30435 78.9017 9.30435 78.6807 9.30471C78.6807 9.48743 78.6807 9.67016 78.6807 9.85843C78.6198 9.85843 78.5588 9.85843 78.4961 9.85843C78.4961 9.43206 78.4961 9.00569 78.4961 8.56641ZM78.6807 8.72461C78.6807 8.86384 78.6807 9.00306 78.6807 9.1465C78.9571 9.16356 78.9571 9.16356 79.208 9.0674C79.2455 8.99249 79.2427 8.93939 79.2344 8.85645C79.1755 8.78136 79.1408 8.75494 79.0498 8.72461C78.9267 8.72103 78.8039 8.72348 78.6807 8.72461Z" fill="white"/>
</g>
<defs>
<clipPath id="clip0_680_3572">
<rect width="80" height="8.09492" fill="white" transform="translate(0 8.11523)"/>
</clipPath>
</defs>
</svg>
