<svg width="80" height="24" viewBox="0 0 80 24" fill="none" xmlns="http://www.w3.org/2000/svg">
<g clip-path="url(#clip0_680_3549)">
<path d="M9.89117 1.1538C9.91545 1.15347 9.93972 1.15314 9.96473 1.1528C11.326 1.13821 12.5175 1.46966 13.5951 2.32841C13.6142 2.34804 13.6333 2.36768 13.653 2.3879C13.8388 2.57326 13.9905 2.59853 14.2472 2.61382C15.3465 2.71469 16.3562 3.14529 17.1951 3.86174C17.2129 3.87691 17.2307 3.89209 17.2491 3.90772C17.4914 4.11614 17.7003 4.3411 17.8951 4.59507C17.932 4.64122 17.932 4.64122 17.9697 4.6883C18.6504 5.55827 19.0241 6.65479 19.0451 7.75549C19.0466 7.80175 19.0466 7.80175 19.0482 7.84894C19.0482 7.87813 19.0482 7.90732 19.0482 7.93739C19.0486 7.97586 19.0486 7.97586 19.0489 8.0151C19.0183 8.1346 18.9518 8.21438 18.8617 8.29507C18.7779 8.34131 18.7022 8.37784 18.6141 8.41252C18.5776 8.42766 18.5776 8.42766 18.5404 8.44311C18.4602 8.47624 18.3797 8.50857 18.2992 8.54091C18.2423 8.56427 18.1853 8.58769 18.1284 8.61116C18.0098 8.65993 17.8911 8.70836 17.7723 8.75652C17.6047 8.82442 17.4374 8.89303 17.2702 8.96187C17.083 9.03889 16.8958 9.11576 16.7084 9.19238C16.366 9.33244 16.024 9.47351 15.6822 9.61522C15.5959 9.65099 15.5095 9.68667 15.4231 9.72233C15.1562 9.83268 14.8901 9.94449 14.6255 10.0604C14.5555 10.0909 14.4854 10.1213 14.4152 10.1516C14.3517 10.1794 14.2884 10.2079 14.2252 10.2365C13.9919 10.3375 13.7841 10.4096 13.5284 10.3617C13.3663 10.2774 13.309 10.1413 13.2367 9.98049C12.8466 9.16503 12.2058 8.58606 11.3617 8.26174C11.1976 8.20682 11.0309 8.16527 10.8617 8.12841C10.8234 8.11969 10.8234 8.11969 10.7843 8.1108C9.926 7.9596 9.09336 8.18319 8.36174 8.62841C8.24594 8.71227 8.13677 8.80188 8.02841 8.89507C7.97975 8.93368 7.97975 8.93368 7.9301 8.97307C7.82183 9.06341 7.73542 9.16512 7.64924 9.27632C7.63349 9.2966 7.61774 9.31688 7.6015 9.33777C7.05283 10.0598 6.80266 10.9366 6.91083 11.8386C7.00912 12.5306 7.29322 13.1421 7.76174 13.6617C7.78666 13.6898 7.81159 13.7179 7.83726 13.7468C8.38057 14.3251 9.20652 14.7084 10.0018 14.7363C10.946 14.7537 11.8213 14.5057 12.5163 13.8408C12.5653 13.7927 12.6135 13.7439 12.6617 13.6951C12.6846 13.6721 12.7075 13.6492 12.7311 13.6255C12.9932 13.3451 13.169 12.9914 13.3404 12.6511C13.3989 12.5556 13.4288 12.5122 13.5284 12.4617C13.7494 12.4104 13.9046 12.4377 14.1086 12.5292C14.1348 12.5403 14.161 12.5513 14.1879 12.5627C14.2739 12.5993 14.3595 12.6368 14.4451 12.6742C14.506 12.7003 14.5669 12.7263 14.6278 12.7522C14.7544 12.806 14.8808 12.8602 15.0071 12.9146C15.2684 13.0268 15.5313 13.1352 15.7942 13.2436C15.9357 13.3021 16.0771 13.3608 16.2185 13.4194C16.2754 13.443 16.3323 13.4666 16.3892 13.4902C16.5355 13.5509 16.6819 13.6116 16.8282 13.6723C16.8876 13.6969 16.947 13.7215 17.0064 13.7461C17.1514 13.8062 17.2964 13.8664 17.4413 13.9267C17.6781 14.0252 17.9149 14.1235 18.1531 14.2186C18.244 14.2549 18.3349 14.2915 18.4258 14.3282C18.4868 14.3526 18.548 14.3765 18.6092 14.4004C18.6453 14.415 18.6814 14.4295 18.7186 14.4446C18.7653 14.463 18.7653 14.463 18.8129 14.4818C18.9315 14.5491 19.0012 14.6407 19.0617 14.7617C19.1475 16.1172 18.5976 17.4558 17.7119 18.4628C17.4903 18.7084 17.2609 18.9306 16.9951 19.1284C16.9686 19.1484 16.9421 19.1684 16.9147 19.189C16.1188 19.7675 15.1044 20.2016 14.1097 20.1972C13.8684 20.2092 13.7399 20.3365 13.5728 20.4936C12.6082 21.3993 11.1787 21.7042 9.90162 21.6667C8.88339 21.6195 7.83874 21.2503 7.03049 20.6242C7.01248 20.6103 6.99446 20.5964 6.9759 20.582C6.89937 20.5216 6.82705 20.4604 6.75836 20.3912C6.56869 20.2091 6.38396 20.2022 6.13284 20.1849C4.95819 20.1014 3.86859 19.5336 3.02841 18.7284C2.99949 18.7016 2.97057 18.6748 2.94078 18.6472C2.09042 17.8343 1.45345 16.5648 1.42554 15.3727C1.42511 15.3361 1.42468 15.2995 1.42424 15.2617C1.41052 15.0534 1.33159 14.968 1.18609 14.825C0.469184 14.064 -0.00379602 12.8588 -0.0128676 11.8188C-0.0131367 11.7888 -0.0134062 11.7589 -0.0136834 11.728C-0.0141434 11.6645 -0.0145009 11.601 -0.0147638 11.5376C-0.015144 11.474 -0.0158195 11.4104 -0.0168145 11.3468C-0.0258629 10.7669 0.0447224 10.2198 0.236742 9.67007C0.251538 9.62686 0.251538 9.62686 0.266633 9.58277C0.491046 8.94778 0.848728 8.31892 1.31968 7.83453C1.41804 7.69608 1.42142 7.59418 1.42841 7.42841C1.50777 6.33321 1.94875 5.29518 2.66174 4.46174C2.68421 4.43519 2.70669 4.40863 2.72984 4.38127C3.63491 3.34267 4.87152 2.7553 6.22841 2.59507C6.26051 2.5942 6.2926 2.59332 6.32567 2.59242C6.49492 2.5872 6.59765 2.57972 6.71877 2.45497C6.7369 2.43389 6.75502 2.41282 6.77369 2.3911C7.46373 1.6005 8.87691 1.16517 9.89117 1.1538ZM7.82841 2.69507C7.86177 2.70431 7.86177 2.70431 7.8958 2.71373C8.75767 2.9561 9.50434 3.28714 10.1951 3.86174C10.3302 3.81507 10.4254 3.75078 10.5367 3.66174C11.1761 3.16869 11.8934 2.91332 12.6617 2.69507C12.1933 2.28343 11.437 2.07054 10.8284 1.99507C10.7848 1.9896 10.7848 1.9896 10.7403 1.98401C9.88015 1.89172 8.46742 2.01939 7.82841 2.69507ZM6.10133 4.63882C5.89559 5.10025 5.77318 5.59253 5.72841 6.09507C5.74915 6.09807 5.7699 6.10106 5.79127 6.10414C6.76929 6.24824 7.64115 6.53581 8.46174 7.09507C8.46866 7.05709 8.47558 7.0191 8.48271 6.97997C8.65503 6.07655 9.01562 5.27502 9.58778 4.55354C9.63475 4.49781 9.63475 4.49781 9.62841 4.42841C8.93615 3.88336 8.13589 3.53907 7.26174 3.42841C7.2296 3.42226 7.19746 3.41612 7.16435 3.40979C6.6647 3.34694 6.28813 4.26398 6.10133 4.63882ZM10.8951 4.39507C10.8731 4.42807 10.8511 4.46107 10.8284 4.49507C10.8466 4.51574 10.8648 4.53641 10.8835 4.5577C11.4026 5.16734 11.7257 5.89204 11.9284 6.66174C11.9343 6.6842 11.9403 6.70665 11.9464 6.72979C11.9752 6.84011 12.0027 6.95067 12.0284 7.06174C12.0798 7.03403 12.1312 7.00623 12.1826 6.97841C12.2164 6.9601 12.2503 6.9418 12.2852 6.92294C12.3572 6.88285 12.4284 6.84139 12.4987 6.79846C13.1744 6.3895 13.9477 6.18298 14.7284 6.09507C14.7102 5.26407 14.3448 4.39442 13.8309 3.74872C13.7617 3.66174 13.7617 3.66174 13.7124 3.58518C13.6463 3.48831 13.5999 3.43756 13.484 3.40979C12.5722 3.3677 11.59 3.83538 10.8951 4.39507ZM3.51174 4.76591C3.00304 5.28622 2.36174 6.18128 2.36174 6.92841C2.49553 6.88015 2.61665 6.81546 2.74109 6.74751C3.43065 6.37241 4.14637 6.16919 4.92841 6.09507C4.93331 6.05266 4.93821 6.01025 4.94325 5.96656C5.03901 5.1947 5.25938 4.48348 5.63726 3.80315C5.68568 3.71264 5.7262 3.62452 5.76174 3.52841C4.97275 3.52841 4.04455 4.25646 3.51174 4.76591ZM14.6951 3.52841C14.706 3.54753 14.717 3.56665 14.7283 3.58635C15.1798 4.39276 15.4291 5.1812 15.5617 6.09507C15.5835 6.09807 15.6052 6.10106 15.6277 6.10414C16.5419 6.23271 17.337 6.48334 18.1284 6.96174C17.9727 6.20989 17.6342 5.5393 17.1284 4.96174C17.1069 4.93579 17.0854 4.90983 17.0632 4.88309C16.8937 4.68287 16.7024 4.52173 16.4951 4.36174C16.4678 4.33983 16.4405 4.31791 16.4124 4.29533C15.9711 3.95459 15.2694 3.52841 14.6951 3.52841ZM10.1951 5.09507C9.66077 5.70032 9.33751 6.50046 9.22841 7.29507C9.23941 7.31707 9.25041 7.33907 9.26174 7.36174C9.29655 7.35452 9.33135 7.3473 9.36721 7.33987C9.99773 7.21727 10.5998 7.23979 11.2284 7.36174C11.1092 6.5355 10.8179 5.73287 10.2617 5.09507C10.2397 5.09507 10.2177 5.09507 10.1951 5.09507ZM4.32841 6.99924C4.2823 7.01057 4.2823 7.01057 4.23527 7.02213C3.53684 7.19942 2.73826 7.5299 2.26174 8.09507C2.09894 8.73671 2.54549 9.6845 2.86174 10.2284C2.98473 10.4246 3.12231 10.6103 3.26174 10.7951C3.39965 10.7764 3.47744 10.7009 3.58258 10.6138C4.25944 10.0763 5.06287 9.81545 5.89508 9.62841C5.84859 9.50809 5.79663 9.40822 5.72424 9.30132C5.25743 8.57399 5.04517 7.77781 4.92841 6.92841C4.71713 6.92009 4.53322 6.94861 4.32841 6.99924ZM5.72841 6.92841C5.81453 7.7279 6.09487 8.60772 6.62841 9.22841C6.65041 9.22841 6.67241 9.22841 6.69508 9.22841C6.73534 9.17149 6.77306 9.11275 6.80966 9.05341C7.1068 8.59751 7.51216 8.20274 7.96838 7.90757C7.98819 7.89245 8.008 7.87732 8.02841 7.86174C8.02841 7.83974 8.02841 7.81774 8.02841 7.79507C7.95804 7.73996 7.88826 7.69004 7.81383 7.64091C7.79144 7.62612 7.76905 7.61133 7.74599 7.59609C7.16437 7.22178 6.42906 6.91143 5.72841 6.92841ZM12.4284 7.79507C12.4284 7.81707 12.4284 7.83907 12.4284 7.86174C12.4902 7.90682 12.5538 7.94941 12.618 7.99091C13.1063 8.31886 13.4743 8.73798 13.7951 9.22841C13.9358 9.09949 14.031 8.96398 14.1263 8.79924C14.1408 8.77425 14.1553 8.74927 14.1703 8.72352C14.3033 8.48918 14.4086 8.25062 14.4951 7.99507C14.5028 7.97239 14.5104 7.9497 14.5184 7.92632C14.6276 7.59629 14.6947 7.27454 14.7284 6.92841C13.9329 6.90238 13.0447 7.31595 12.4284 7.79507ZM15.5617 6.92841C15.5173 7.01731 15.5125 7.10646 15.5001 7.20409C15.429 7.7511 15.2749 8.25601 15.0423 8.75549C15.0056 8.83814 14.9816 8.90806 14.9617 8.99507C15.1673 8.92967 15.3663 8.85473 15.5647 8.77046C15.6073 8.75257 15.6073 8.75257 15.6507 8.73432C15.7113 8.70882 15.7718 8.68327 15.8324 8.65768C15.9919 8.59027 16.1516 8.52322 16.3112 8.45614C16.3434 8.44262 16.3755 8.4291 16.4087 8.41517C16.7223 8.28339 17.0367 8.1535 17.3513 8.02424C17.3882 8.00908 17.3882 8.00908 17.4259 7.99361C17.56 7.93848 17.6942 7.88341 17.8284 7.82841C17.753 7.60213 17.3438 7.44868 17.1388 7.34091C16.6682 7.11161 16.0908 6.89666 15.5617 6.92841ZM1.49508 8.99507C0.857512 10.0453 0.623313 11.2669 0.913483 12.4715C1.04327 12.9539 1.25526 13.3928 1.49508 13.8284C1.55513 13.7383 1.5769 13.6881 1.60263 13.5866C1.61377 13.5443 1.61377 13.5443 1.62514 13.5012C1.63309 13.471 1.64105 13.4408 1.64924 13.4097C1.83785 12.7249 2.15738 12.1194 2.59508 11.5617C2.62853 11.5174 2.66191 11.473 2.69508 11.4284C2.6487 11.324 2.58728 11.236 2.51927 11.1446C2.03093 10.487 1.7524 9.77785 1.52841 8.99507C1.51741 8.99507 1.50641 8.99507 1.49508 8.99507ZM5.66383 10.4992C5.63591 10.5067 5.60799 10.5143 5.57922 10.522C4.99965 10.6827 4.37301 10.942 3.92841 11.3617C3.92841 11.3947 3.92841 11.4277 3.92841 11.4617C4.48074 11.9466 5.41462 12.3951 6.16174 12.3951C6.15452 12.3434 6.15452 12.3434 6.14716 12.2908C6.06568 11.6668 6.07467 11.0511 6.16174 10.4284C5.98453 10.4188 5.83325 10.4535 5.66383 10.4992ZM3.29508 11.9951C2.72096 12.6599 2.36595 13.4898 2.26174 14.3617C2.25697 14.3937 2.2522 14.4257 2.24729 14.4586C2.23535 14.5923 2.23236 14.6866 2.31122 14.7988C2.39023 14.873 2.47265 14.9334 2.56174 14.9951C2.59693 15.0211 2.63212 15.0471 2.66838 15.0738C3.30704 15.5331 4.12969 15.9058 4.92841 15.8951C4.9329 15.864 4.9329 15.864 4.93747 15.8322C5.06816 14.9453 5.29965 14.1537 5.79495 13.4004C5.86458 13.3 5.86458 13.3 5.89508 13.1951C5.8543 13.1857 5.81352 13.1764 5.77151 13.1668C4.92255 12.9673 4.14798 12.6523 3.46031 12.1063C3.37072 12.0301 3.37072 12.0301 3.29508 11.9951ZM6.66174 13.5951C6.49122 13.7877 6.36063 13.9986 6.24299 14.2263C6.22727 14.2567 6.21154 14.287 6.19534 14.3183C5.95597 14.7923 5.74706 15.3567 5.76174 15.8951C6.55176 15.8238 7.50246 15.5616 8.06174 14.9617C8.0351 14.9443 8.00846 14.9269 7.98101 14.909C7.47375 14.5716 7.05534 14.1659 6.73036 13.6466C6.71872 13.6296 6.70707 13.6126 6.69508 13.5951C6.68408 13.5951 6.67308 13.5951 6.66174 13.5951ZM13.7951 13.5951C13.7566 13.6464 13.7193 13.6987 13.6826 13.7513C13.331 14.2379 12.9448 14.6455 12.4284 14.9617C12.9356 15.4986 13.8375 15.8202 14.5617 15.8951C14.6173 15.8959 14.6729 15.8961 14.7284 15.8951C14.7085 15.0905 14.3411 14.2103 13.8284 13.5951C13.8174 13.5951 13.8064 13.5951 13.7951 13.5951ZM14.9617 13.8284C14.9787 13.8664 14.9956 13.9044 15.013 13.9435C15.2922 14.5806 15.4575 15.2077 15.5617 15.8951C16.3656 15.8672 17.2381 15.5375 17.8617 15.0284C17.7546 14.957 17.6446 14.909 17.5265 14.8597C17.5024 14.8495 17.4784 14.8394 17.4537 14.829C17.3738 14.7953 17.2938 14.7619 17.2138 14.7284C17.1864 14.7169 17.159 14.7054 17.1308 14.6936C16.6831 14.5058 16.2345 14.32 15.7854 14.1356C15.7196 14.1086 15.6538 14.0815 15.5881 14.0544C15.4958 14.0165 15.4035 13.9787 15.3112 13.9409C15.2835 13.9295 15.2558 13.918 15.2272 13.9063C15.0987 13.8492 15.0987 13.8492 14.9617 13.8284ZM9.26174 15.4617C9.28979 16.2018 9.61106 16.896 10.0284 17.4951C10.0469 17.5217 10.0654 17.5483 10.0844 17.5757C10.1207 17.627 10.1577 17.6778 10.1951 17.7284C10.5212 17.6072 10.7537 17.0312 10.8951 16.7284C11.0193 16.4504 11.1083 16.1667 11.1763 15.8701C11.1822 15.8446 11.1881 15.8192 11.1941 15.793C11.2202 15.6703 11.2314 15.5815 11.1951 15.4617C11.1729 15.4662 11.1506 15.4706 11.1278 15.4752C10.49 15.5973 9.89834 15.5655 9.26174 15.4617ZM8.29518 15.8181C7.63771 16.2617 6.90637 16.5269 6.12841 16.6617C6.05688 16.6749 5.98535 16.6881 5.91383 16.7013C5.86314 16.7104 5.81245 16.7194 5.76174 16.7284C5.75642 16.9182 5.77156 17.0873 5.81383 17.2722C5.8197 17.2979 5.82558 17.3236 5.83164 17.3501C5.98057 17.9692 6.24103 18.5438 6.63271 19.0477C6.69508 19.1284 6.69508 19.1284 6.74599 19.2112C6.80182 19.2936 6.84324 19.3431 6.92841 19.3951C7.10026 19.4173 7.25963 19.3923 7.42841 19.3617C7.45195 19.3578 7.47549 19.3538 7.49975 19.3497C8.30066 19.2094 9.03102 18.8737 9.66174 18.3617C9.63562 18.3281 9.60949 18.2944 9.58258 18.2597C9.29987 17.8803 9.05854 17.4923 8.86174 17.0617C8.84395 17.0236 8.82616 16.9855 8.80784 16.9462C8.63838 16.556 8.55344 16.1424 8.46174 15.7284C8.39609 15.7284 8.34764 15.7823 8.29518 15.8181ZM12.0284 15.7617C12.0175 15.809 12.0175 15.809 12.0063 15.8573C11.7905 16.7667 11.4437 17.6135 10.8284 18.3284C11.3802 18.9123 12.2544 19.232 13.0284 19.3617C13.0615 19.3685 13.0615 19.3685 13.0953 19.3755C13.2574 19.4077 13.3977 19.4222 13.5617 19.3951C13.7142 19.2888 13.7997 19.1504 13.8951 18.9951C13.9262 18.9478 13.9573 18.9007 13.9886 18.8535C14.3893 18.2358 14.7336 17.4789 14.7284 16.7284C14.7048 16.7246 14.6812 16.7208 14.6569 16.7168C13.7684 16.5699 12.908 16.3428 12.1668 15.8095C12.1002 15.7556 12.1002 15.7556 12.0284 15.7617ZM2.36174 15.8617C2.47917 16.8356 3.15879 17.8067 3.915 18.4087C4.46185 18.83 5.05635 19.1279 5.72841 19.2951C5.75041 19.2841 5.77241 19.2731 5.79508 19.2617C5.77892 19.2374 5.76276 19.2131 5.74612 19.188C5.26424 18.4374 5.02072 17.6107 4.92841 16.7284C4.8975 16.7234 4.8975 16.7234 4.86597 16.7183C4.03158 16.5817 3.3019 16.3715 2.55989 15.9634C2.49449 15.9281 2.42838 15.8946 2.36174 15.8617ZM17.9076 15.9684C17.1592 16.3973 16.4114 16.6019 15.5617 16.7284C15.5576 16.7527 15.5534 16.777 15.5491 16.802C15.4034 17.6409 15.2307 18.4534 14.7356 19.1651C14.6891 19.2252 14.6891 19.2252 14.6951 19.2951C15.5575 19.1089 16.2558 18.6973 16.8951 18.0951C16.9172 18.0751 16.9393 18.0551 16.9621 18.0345C17.5623 17.4709 17.9683 16.6625 18.1284 15.8617C18.0484 15.8617 17.9759 15.9291 17.9076 15.9684ZM10.2284 18.9284C10.2029 18.949 10.1774 18.9696 10.1512 18.9908C9.46013 19.5407 8.68886 19.898 7.82841 20.0951C7.93751 20.2197 8.06264 20.2886 8.20966 20.3597C8.23343 20.3712 8.25719 20.3828 8.28168 20.3948C9.33638 20.902 10.5597 20.993 11.6734 20.6174C12.2346 20.4387 12.2346 20.4387 12.6617 20.0951C12.6238 20.0861 12.5858 20.0772 12.5466 20.068C11.7778 19.8804 11.0916 19.5764 10.4617 19.0951C10.4154 19.0615 10.3688 19.0282 10.3222 18.9951C10.2912 18.9731 10.2603 18.9511 10.2284 18.9284Z" fill="white"/>
<path d="M28.6306 6.39278C28.6562 6.39797 28.6817 6.40315 28.7081 6.4085C29.275 6.53035 29.8551 6.78097 30.2973 7.15944C30.3299 7.18716 30.3626 7.21487 30.3962 7.24343C31.0286 7.79437 31.4472 8.5054 31.6306 9.32611C31.6306 9.38111 31.6306 9.43611 31.6306 9.49278C31.1796 9.49278 30.7286 9.49278 30.2639 9.49278C30.2309 9.40478 30.1979 9.31678 30.1639 9.22611C30.0499 8.9333 29.928 8.67182 29.7306 8.42611C29.7083 8.3984 29.6861 8.37068 29.6631 8.34213C29.1732 7.76643 28.5123 7.49504 27.7677 7.43094C26.7453 7.36083 25.8036 7.6043 25.0156 8.28015C24.2187 8.98856 23.9069 10.1296 23.8306 11.1594C23.7758 12.3676 23.9727 13.7155 24.816 14.6407C24.8755 14.7036 24.936 14.7649 24.9973 14.8261C25.0195 14.8483 25.0417 14.8705 25.0646 14.8934C25.6864 15.4734 26.5317 15.7004 27.3598 15.7011C27.3946 15.7011 27.3946 15.7011 27.4302 15.7012C27.9444 15.7004 28.3892 15.6407 28.8639 15.4261C28.895 15.4121 28.9261 15.3982 28.9582 15.3838C29.5295 15.1006 29.9544 14.5479 30.1685 13.9544C30.185 13.8981 30.2007 13.8416 30.2148 13.7847C30.2306 13.7261 30.2306 13.7261 30.2639 13.6928C30.3649 13.6898 30.4651 13.6889 30.5661 13.6895C30.5964 13.6896 30.6267 13.6896 30.6579 13.6897C30.7551 13.6899 30.8522 13.6903 30.9493 13.6907C31.015 13.6909 31.0807 13.691 31.1464 13.6911C31.3078 13.6915 31.4692 13.6921 31.6306 13.6928C31.6259 13.7398 31.6211 13.7869 31.6162 13.8339C31.6122 13.8732 31.6122 13.8732 31.6081 13.9133C31.5006 14.7003 30.9364 15.4999 30.3234 15.9781C29.5609 16.5518 28.6506 16.8351 27.6973 16.8594C27.6708 16.8601 27.6444 16.8608 27.6171 16.8615C26.4027 16.8883 25.2096 16.6271 24.2639 15.8261C24.2383 15.8045 24.2383 15.8045 24.2122 15.7825C23.8118 15.4401 23.4873 15.0543 23.2306 14.5928C23.2197 14.5736 23.2089 14.5544 23.1977 14.5347C22.7722 13.7746 22.5303 12.8711 22.5226 12.0001C22.5223 11.9693 22.522 11.9385 22.5217 11.9068C22.5108 10.6204 22.5108 10.6204 22.6639 10.0261C22.6712 9.99703 22.6786 9.96794 22.6861 9.93798C22.7862 9.55144 22.9227 9.18491 23.0973 8.82611C23.1075 8.80485 23.1177 8.78359 23.1282 8.76169C23.2835 8.44288 23.4682 8.16321 23.6973 7.89278C23.7117 7.87572 23.726 7.85867 23.7409 7.8411C24.3815 7.09185 25.2113 6.62746 26.1639 6.39278C26.1882 6.3868 26.2124 6.38082 26.2374 6.37466C26.9916 6.20029 27.8774 6.23905 28.6306 6.39278Z" fill="white"/>
<path d="M46.3438 9.84462C46.9577 10.3676 47.2516 11.0723 47.3274 11.8616C47.3406 12.0517 47.3386 12.2419 47.3381 12.4323C47.338 12.479 47.3381 12.5257 47.3381 12.5724C47.3381 12.6981 47.3379 12.8238 47.3377 12.9496C47.3374 13.0813 47.3374 13.2131 47.3374 13.3449C47.3373 13.594 47.337 13.8431 47.3367 14.0921C47.3363 14.3759 47.3361 14.6596 47.3359 14.9434C47.3356 15.5267 47.335 16.11 47.3343 16.6933C46.9603 16.6933 46.5863 16.6933 46.2009 16.6933C46.1697 16.2412 46.1697 16.2412 46.1601 16.1C46.1574 16.0627 46.1548 16.0254 46.1521 15.9869C46.1482 15.9301 46.1482 15.9301 46.1442 15.8721C46.1339 15.7562 46.1184 15.6417 46.1009 15.5266C46.0748 15.5672 46.0748 15.5672 46.0482 15.6085C45.6318 16.2409 45.0944 16.6495 44.3439 16.808C44.1633 16.8387 43.9839 16.8528 43.8009 16.86C43.7688 16.8614 43.7367 16.8627 43.7035 16.8641C42.967 16.8801 42.1556 16.697 41.6077 16.1776C41.2261 15.792 40.9828 15.2737 40.9676 14.7266C40.9659 14.6996 40.9643 14.6726 40.9625 14.6447C40.9426 14.099 41.1106 13.5847 41.478 13.1787C42.0746 12.5535 42.9302 12.3417 43.7676 12.2933C43.9484 12.2891 44.129 12.2894 44.3098 12.2901C44.3608 12.2901 44.4118 12.2902 44.4628 12.2902C44.5956 12.2903 44.7284 12.2907 44.8613 12.291C44.9974 12.2914 45.1335 12.2915 45.2696 12.2917C45.5356 12.292 45.8016 12.2926 46.0676 12.2933C46.0579 12.1981 46.0479 12.1029 46.0378 12.0078C46.0351 11.9811 46.0324 11.9544 46.0296 11.9269C45.9796 11.4613 45.8238 11.0173 45.4486 10.7143C44.9576 10.3851 44.412 10.2717 43.8295 10.3829C43.3599 10.499 42.9256 10.7006 42.6572 11.1183C42.5686 11.2766 42.512 11.441 42.4597 11.6143C42.4343 11.6933 42.4343 11.6933 42.4009 11.7266C42.3072 11.7296 42.2143 11.7305 42.1206 11.7299C42.0925 11.7299 42.0645 11.7298 42.0355 11.7298C41.9455 11.7296 41.8555 11.7292 41.7655 11.7287C41.7046 11.7286 41.6438 11.7284 41.5829 11.7283C41.4334 11.7279 41.2838 11.7273 41.1343 11.7266C41.1853 11.0303 41.4614 10.4812 41.9905 10.0204C43.1371 9.10571 45.1491 8.88697 46.3438 9.84462ZM42.5545 13.7923C42.3133 14.0974 42.2718 14.4146 42.3009 14.7933C42.3702 15.0832 42.5327 15.33 42.7759 15.5016C43.2492 15.7919 43.791 15.851 44.3315 15.7518C44.6284 15.6792 44.8924 15.5451 45.1343 15.36C45.1589 15.3412 45.1835 15.3225 45.2089 15.3032C45.6491 14.9413 45.8874 14.4301 46.0134 13.885C46.0218 13.849 46.0218 13.849 46.0304 13.8122C46.0585 13.6791 46.0702 13.5537 46.069 13.4174C46.0688 13.3878 46.0686 13.3582 46.0684 13.3277C46.0681 13.3054 46.0679 13.283 46.0676 13.26C45.7937 13.2584 45.5199 13.2572 45.246 13.2565C45.1188 13.2562 44.9916 13.2557 44.8644 13.255C44.7412 13.2542 44.618 13.2538 44.4948 13.2537C44.4482 13.2535 44.4016 13.2533 44.3551 13.2529C43.708 13.2481 43.0272 13.299 42.5545 13.7923Z" fill="white"/>
<path d="M69.2037 10.1098C69.9434 10.7503 70.3256 11.6945 70.4026 12.6587C70.4349 13.3401 70.3746 13.9844 70.136 14.6254C70.1277 14.6476 70.1195 14.6698 70.111 14.6927C69.7967 15.5168 69.1743 16.17 68.3724 16.5365C67.9254 16.7303 67.4571 16.8429 66.9693 16.8587C66.9385 16.8601 66.9077 16.8614 66.8759 16.8628C65.9034 16.8852 64.9701 16.567 64.2566 15.8967C63.5664 15.2228 63.1834 14.2893 63.1625 13.3266C63.1507 12.135 63.393 11.1092 64.2485 10.2358C65.5732 8.92144 67.801 8.93851 69.2037 10.1098ZM65.0693 11.0921C64.5443 11.722 64.3921 12.5568 64.436 13.3587C64.4995 14.027 64.7244 14.6448 65.2026 15.1254C65.2248 15.1487 65.247 15.1721 65.2698 15.1961C65.6949 15.6122 66.2692 15.777 66.8504 15.7727C67.4402 15.7549 67.9941 15.5154 68.4098 15.0953C68.9353 14.5288 69.1162 13.8319 69.1151 13.0733C69.1151 13.0404 69.1151 13.0404 69.115 13.0067C69.1117 12.2486 68.9224 11.56 68.4026 10.9921C67.9711 10.5664 67.4059 10.3375 66.8026 10.3171C66.1256 10.3254 65.5329 10.6081 65.0693 11.0921Z" fill="white"/>
<path d="M36.1682 9.25156C37.1084 9.22615 38.0713 9.51005 38.7686 10.1569C38.797 10.1826 38.8253 10.2082 38.8544 10.2346C39.5624 10.9057 39.9148 11.8778 39.9413 12.8405C39.9601 13.9511 39.6772 15.0061 38.902 15.8236C38.2034 16.5401 37.2355 16.84 36.2538 16.8571C35.215 16.8543 34.3333 16.4412 33.5991 15.7221C32.9344 15.022 32.687 14.0103 32.6895 13.0715C32.6895 13.0465 32.6895 13.0215 32.6895 12.9958C32.6906 12.6024 32.7206 12.2347 32.8353 11.8569C32.8414 11.8353 32.8474 11.8137 32.8537 11.7914C32.9894 11.309 33.2005 10.8647 33.5353 10.4902C33.5578 10.463 33.5803 10.4357 33.6035 10.4077C34.1755 9.73347 35.0355 9.37067 35.902 9.26732C35.9907 9.26058 36.0794 9.25632 36.1682 9.25156ZM34.6115 11.0681C34.0465 11.7267 33.9296 12.5865 33.9686 13.4236C34.0274 14.1082 34.3062 14.7465 34.802 15.2236C35.2972 15.6402 35.8876 15.7993 36.5229 15.7638C37.1121 15.7124 37.654 15.4204 38.0395 14.9736C38.5728 14.2707 38.7153 13.3795 38.6124 12.5194C38.5236 11.9827 38.3306 11.4692 37.9686 11.0569C37.9492 11.0343 37.9298 11.0118 37.9098 10.9885C37.5211 10.568 36.9792 10.3614 36.4166 10.3168C35.7286 10.3036 35.085 10.5713 34.6115 11.0681Z" fill="white"/>
<path d="M76.7365 9.53065C76.7831 9.5516 76.7831 9.5516 76.8307 9.57297C77.4184 9.86427 77.8167 10.4173 78.025 11.0282C78.2345 11.7022 78.2126 12.4127 78.2099 13.1103C78.2095 13.2356 78.2094 13.361 78.2094 13.4864C78.2091 13.7227 78.2086 13.959 78.2079 14.1953C78.2072 14.4648 78.2068 14.7343 78.2065 15.0038C78.2058 15.5572 78.2046 16.1106 78.2031 16.664C77.7851 16.664 77.3671 16.664 76.9365 16.664C76.9357 16.464 76.9357 16.464 76.935 16.2599C76.9333 15.8176 76.9311 15.3754 76.9286 14.9332C76.9271 14.6652 76.9258 14.3973 76.9249 14.1293C76.9241 13.8955 76.923 13.6617 76.9215 13.4279C76.9207 13.3044 76.9201 13.1808 76.9199 13.0573C76.9287 11.8432 76.9287 11.8432 76.3698 10.7973C75.9919 10.4652 75.5174 10.3442 75.0204 10.3579C74.4883 10.3966 73.9608 10.6003 73.5904 10.9973C73.0277 11.6932 72.9826 12.461 72.9829 13.3197C72.9828 13.4377 72.9819 13.5557 72.9811 13.6737C72.9798 13.896 72.9791 14.1184 72.9787 14.3408C72.9781 14.5944 72.9769 14.8481 72.9755 15.1017C72.9728 15.6224 72.9711 16.1432 72.9698 16.664C72.5518 16.664 72.1338 16.664 71.7031 16.664C71.7031 14.277 71.7031 11.89 71.7031 9.43065C72.0771 9.43065 72.4511 9.43065 72.8365 9.43065C72.8609 9.57715 72.8778 9.71426 72.8876 9.86164C72.892 9.92609 72.892 9.92609 72.8964 9.99185C72.8994 10.0367 72.9023 10.0816 72.9052 10.1265C72.9083 10.1721 72.9113 10.2178 72.9144 10.2635C72.9218 10.3747 72.9292 10.486 72.9365 10.5973C72.9517 10.5752 72.967 10.5531 72.9827 10.5303C73.4524 9.85357 74.0551 9.42765 74.8776 9.27766C75.52 9.20769 76.1442 9.26292 76.7365 9.53065Z" fill="white"/>
<path d="M56.1962 7.69141C56.5592 7.69141 56.9222 7.69141 57.2962 7.69141C57.2962 8.26341 57.2962 8.83541 57.2962 9.42474C57.8572 9.42474 58.4182 9.42474 58.9962 9.42474C58.9962 9.77674 58.9962 10.1287 58.9962 10.4914C58.4352 10.4914 57.8742 10.4914 57.2962 10.4914C57.2983 11.0365 57.3008 11.5815 57.3041 12.1266C57.3056 12.3797 57.3069 12.6328 57.3078 12.8859C57.3085 13.1067 57.3097 13.3274 57.3112 13.5482C57.312 13.6649 57.3126 13.7817 57.3128 13.8985C57.3131 14.0292 57.3141 14.16 57.3151 14.2907C57.3151 14.3289 57.315 14.367 57.315 14.4063C57.3187 14.7232 57.3459 15.0767 57.5629 15.3247C57.8995 15.6268 58.4773 15.5779 58.8962 15.5914C58.8962 15.9434 58.8962 16.2954 58.8962 16.6581C58.7351 16.6612 58.574 16.6638 58.4128 16.6654C58.3583 16.6661 58.3037 16.667 58.2492 16.6681C57.6413 16.6808 57.0644 16.5887 56.5837 16.1831C56.1448 15.7611 56.0464 15.1752 56.026 14.5887C56.0207 14.3211 56.0217 14.0535 56.0228 13.7858C56.0232 13.6696 56.0233 13.5535 56.0233 13.4373C56.0235 13.2182 56.0241 12.9991 56.0248 12.78C56.0255 12.5302 56.0259 12.2803 56.0262 12.0305C56.0269 11.5175 56.0281 11.0044 56.0296 10.4914C55.6776 10.4914 55.3256 10.4914 54.9629 10.4914C54.9629 10.1394 54.9629 9.78741 54.9629 9.42474C55.3149 9.42474 55.6669 9.42474 56.0296 9.42474C56.0388 9.31917 56.048 9.21359 56.0576 9.10482C56.0666 9.00211 56.0756 8.8994 56.0847 8.79669C56.091 8.72553 56.0972 8.65437 56.1034 8.58321C56.1124 8.48069 56.1214 8.37817 56.1305 8.27565C56.1346 8.22824 56.1346 8.22824 56.1388 8.17987C56.1428 8.13485 56.1428 8.13485 56.1469 8.08892C56.1492 8.06279 56.1515 8.03667 56.1538 8.00974C56.1652 7.9033 56.1811 7.79738 56.1962 7.69141Z" fill="white"/>
<path d="M49.0312 6.19727C49.4493 6.19727 49.8673 6.19727 50.2979 6.19727C50.2979 9.65127 50.2979 13.1053 50.2979 16.6639C49.8799 16.6639 49.4619 16.6639 49.0312 16.6639C49.0312 13.2099 49.0312 9.75593 49.0312 6.19727Z" fill="white"/>
<path d="M60.5352 9.43164C60.9532 9.43164 61.3712 9.43164 61.8018 9.43164C61.8018 11.8186 61.8018 14.2056 61.8018 16.665C61.3838 16.665 60.9658 16.665 60.5352 16.665C60.5352 14.278 60.5352 11.891 60.5352 9.43164Z" fill="white"/>
<path d="M52.3008 9.43164C52.7188 9.43164 53.1368 9.43164 53.5674 9.43164C53.5674 11.8186 53.5674 14.2056 53.5674 16.665C53.1494 16.665 52.7314 16.665 52.3008 16.665C52.3008 14.278 52.3008 11.891 52.3008 9.43164Z" fill="white"/>
<path d="M61.544 6.24653C61.7419 6.36756 61.9112 6.52566 61.9816 6.75108C62.0283 6.99888 62.0331 7.27479 61.8961 7.49444C61.764 7.65899 61.6107 7.82142 61.3961 7.86111C61.1229 7.88689 60.8923 7.88786 60.6628 7.72778C60.6332 7.7099 60.6036 7.69203 60.5732 7.67361C60.391 7.48646 60.3185 7.28772 60.3086 7.02778C60.319 6.77669 60.3771 6.57631 60.5607 6.39861C60.8366 6.18124 61.2109 6.09433 61.544 6.24653Z" fill="white"/>
<path d="M53.3507 6.25611C53.5603 6.37745 53.6931 6.56046 53.7674 6.78945C53.7946 7.05484 53.7989 7.30298 53.634 7.52278C53.4627 7.71551 53.3054 7.83973 53.0427 7.86484C52.77 7.87489 52.5642 7.8413 52.3586 7.65416C52.1393 7.42061 52.0863 7.23948 52.0922 6.92187C52.1101 6.71277 52.1842 6.5393 52.334 6.38945C52.6386 6.17178 52.9948 6.09469 53.3507 6.25611Z" fill="white"/>
<path d="M79.7031 6.32683C79.8937 6.49273 79.9886 6.65682 80.0154 6.91068C80.0203 7.18539 80.0084 7.40404 79.8364 7.62683C79.6473 7.81995 79.4562 7.87932 79.1906 7.90391C78.9308 7.88152 78.7172 7.815 78.5262 7.63178C78.3777 7.44358 78.3124 7.20446 78.326 6.96628C78.3637 6.70231 78.4626 6.49963 78.6697 6.32683C78.9931 6.13125 79.3798 6.13003 79.7031 6.32683ZM78.6697 6.62683C78.5621 6.79593 78.5134 6.97241 78.551 7.17019C78.6165 7.3916 78.7079 7.53965 78.9135 7.656C79.1033 7.7139 79.2369 7.7148 79.426 7.65391C79.6116 7.55233 79.7324 7.42754 79.8031 7.22683C79.8256 7.01966 79.8287 6.83445 79.7031 6.66016C79.5462 6.49575 79.4015 6.40751 79.1718 6.38308C78.974 6.40326 78.8113 6.48917 78.6697 6.62683Z" fill="white"/>
<path d="M78.832 6.59522C78.9682 6.59212 78.9682 6.59212 79.107 6.58897C79.1354 6.58806 79.1638 6.58715 79.193 6.58621C79.3051 6.58497 79.3803 6.58584 79.4815 6.63753C79.5551 6.72157 79.5621 6.78628 79.5715 6.89496C79.5618 7.00092 79.5061 7.05669 79.432 7.12855C79.4765 7.24835 79.5307 7.35371 79.5987 7.46188C79.4945 7.47823 79.4021 7.48531 79.2987 7.46188C79.2384 7.39768 79.2033 7.33566 79.1645 7.2568C79.1366 7.18941 79.1366 7.18941 79.0654 7.16188C79.0654 7.26088 79.0654 7.35988 79.0654 7.46188C78.9884 7.46188 78.9114 7.46188 78.832 7.46188C78.832 7.17588 78.832 6.88988 78.832 6.59522ZM79.0654 6.79522C79.0654 6.85022 79.0654 6.90522 79.0654 6.96188C79.1314 6.96188 79.1974 6.96188 79.2654 6.96188C79.2764 6.91788 79.2874 6.87388 79.2987 6.82855C79.2217 6.81755 79.1447 6.80655 79.0654 6.79522Z" fill="white"/>
</g>
<defs>
<clipPath id="clip0_680_3549">
<rect width="80" height="20.5" fill="white" transform="translate(0 1.1582)"/>
</clipPath>
</defs>
</svg>
