<svg width="85" height="32" viewBox="0 0 85 32" fill="none" xmlns="http://www.w3.org/2000/svg">
<rect width="85" height="32" rx="4" fill="#B87AFF" fill-opacity="0.03"/>
<path d="M14.656 9.8H19.456V11.4H16.416V14.36H18.832V15.96H16.416V19.4H19.456V21H14.656V9.8ZM20.4685 9.8H22.9805L24.1005 17.816H24.1325L25.2525 9.8H27.7645V21H26.1005V12.52H26.0685L24.7885 21H23.3165L22.0365 12.52H22.0045V21H20.4685V9.8ZM29.0779 9.8H31.6699C32.5445 9.8 33.2005 10.0347 33.6379 10.504C34.0752 10.9733 34.2939 11.6613 34.2939 12.568V13.672C34.2939 14.5787 34.0752 15.2667 33.6379 15.736C33.2005 16.2053 32.5445 16.44 31.6699 16.44H30.8379V21H29.0779V9.8ZM31.6699 14.84C31.9579 14.84 32.1712 14.76 32.3099 14.6C32.4592 14.44 32.5339 14.168 32.5339 13.784V12.456C32.5339 12.072 32.4592 11.8 32.3099 11.64C32.1712 11.48 31.9579 11.4 31.6699 11.4H30.8379V14.84H31.6699ZM35.2498 9.8H37.0098V19.4H39.9058V21H35.2498V9.8ZM43.2313 21.16C42.3673 21.16 41.7059 20.9147 41.2473 20.424C40.7886 19.9333 40.5592 19.24 40.5592 18.344V12.456C40.5592 11.56 40.7886 10.8667 41.2473 10.376C41.7059 9.88533 42.3673 9.64 43.2313 9.64C44.0953 9.64 44.7566 9.88533 45.2153 10.376C45.6739 10.8667 45.9033 11.56 45.9033 12.456V18.344C45.9033 19.24 45.6739 19.9333 45.2153 20.424C44.7566 20.9147 44.0953 21.16 43.2313 21.16ZM43.2313 19.56C43.8393 19.56 44.1432 19.192 44.1432 18.456V12.344C44.1432 11.608 43.8393 11.24 43.2313 11.24C42.6233 11.24 42.3193 11.608 42.3193 12.344V18.456C42.3193 19.192 42.6233 19.56 43.2313 19.56ZM48.4283 16.232L46.3003 9.8H48.1723L49.3723 13.912H49.4043L50.6043 9.8H52.3163L50.1883 16.232V21H48.4283V16.232ZM53.1091 9.8H57.9091V11.4H54.8691V14.36H57.2851V15.96H54.8691V19.4H57.9091V21H53.1091V9.8ZM58.9216 9.8H61.5296C62.4363 9.8 63.0976 10.0133 63.5136 10.44C63.9296 10.856 64.1376 11.5013 64.1376 12.376V13.064C64.1376 14.2267 63.7536 14.9627 62.9856 15.272V15.304C63.4123 15.432 63.711 15.6933 63.8816 16.088C64.063 16.4827 64.1536 17.0107 64.1536 17.672V19.64C64.1536 19.96 64.1643 20.2213 64.1856 20.424C64.207 20.616 64.2603 20.808 64.3456 21H62.5536C62.4896 20.8187 62.447 20.648 62.4256 20.488C62.4043 20.328 62.3936 20.04 62.3936 19.624V17.576C62.3936 17.064 62.3083 16.7067 62.1376 16.504C61.9776 16.3013 61.695 16.2 61.2896 16.2H60.6816V21H58.9216V9.8ZM61.3216 14.6C61.6736 14.6 61.935 14.5093 62.1056 14.328C62.287 14.1467 62.3776 13.8427 62.3776 13.416V12.552C62.3776 12.1467 62.303 11.8533 62.1536 11.672C62.015 11.4907 61.791 11.4 61.4816 11.4H60.6816V14.6H61.3216ZM67.6628 21.16C66.8094 21.16 66.1641 20.92 65.7268 20.44C65.2894 19.9493 65.0708 19.2507 65.0708 18.344V17.704H66.7348V18.472C66.7348 19.1973 67.0388 19.56 67.6468 19.56C67.9454 19.56 68.1694 19.4747 68.3188 19.304C68.4788 19.1227 68.5588 18.8347 68.5588 18.44C68.5588 17.9707 68.4521 17.56 68.2388 17.208C68.0254 16.8453 67.6308 16.4133 67.0548 15.912C66.3294 15.272 65.8228 14.696 65.5348 14.184C65.2468 13.6613 65.1028 13.0747 65.1028 12.424C65.1028 11.5387 65.3268 10.856 65.7747 10.376C66.2228 9.88533 66.8734 9.64 67.7268 9.64C68.5694 9.64 69.2041 9.88533 69.6308 10.376C70.0681 10.856 70.2868 11.5493 70.2868 12.456V12.92H68.6228V12.344C68.6228 11.96 68.5481 11.6827 68.3988 11.512C68.2494 11.3307 68.0308 11.24 67.7428 11.24C67.1561 11.24 66.8628 11.5973 66.8628 12.312C66.8628 12.7173 66.9694 13.096 67.1828 13.448C67.4068 13.8 67.8068 14.2267 68.3828 14.728C69.1188 15.368 69.6254 15.9493 69.9028 16.472C70.1801 16.9947 70.3188 17.608 70.3188 18.312C70.3188 19.2293 70.0894 19.9333 69.6308 20.424C69.1828 20.9147 68.5268 21.16 67.6628 21.16Z" fill="white"/>
</svg>
