<svg width="69" height="22" viewBox="0 0 69 22" fill="none" xmlns="http://www.w3.org/2000/svg">
<path d="M30.3324 11.832C30.8587 11.832 31.385 11.832 31.9272 11.832C32.0205 12.0869 32.0205 12.0869 32.1156 12.347C32.1763 12.5126 32.237 12.6783 32.2977 12.844C32.3397 12.9586 32.3816 13.0732 32.4236 13.1878C32.484 13.3531 32.5446 13.5184 32.6052 13.6837C32.633 13.7598 32.633 13.7598 32.6613 13.8375C32.6792 13.886 32.697 13.9346 32.7154 13.9846C32.7385 14.0478 32.7385 14.0478 32.7621 14.1122C32.8398 14.3145 32.9236 14.5141 33.0061 14.7142C33.3621 13.7631 33.7182 12.812 34.085 11.832C34.5803 11.832 35.0756 11.832 35.586 11.832C35.586 11.8988 35.586 11.9655 35.586 12.0343C35.56 12.0448 35.534 12.0553 35.5072 12.0661C35.4562 12.0895 35.4562 12.0895 35.4042 12.1133C35.3705 12.128 35.3367 12.1426 35.302 12.1577C35.1644 12.2766 35.1366 12.4083 35.1169 12.5905C35.1286 12.8293 35.1618 13.0638 35.1952 13.3002C35.2045 13.3692 35.2137 13.4383 35.2229 13.5073C35.2424 13.6516 35.2622 13.7958 35.2825 13.9399C35.3083 14.124 35.3331 14.3083 35.3575 14.4926C35.3765 14.6351 35.396 14.7775 35.4156 14.9199C35.4294 15.0206 35.4429 15.1214 35.4564 15.2222C35.4651 15.2838 35.4739 15.3454 35.4829 15.4088C35.4903 15.4628 35.4978 15.5167 35.5055 15.5723C35.5601 15.8212 35.6301 15.9866 35.8176 16.1457C35.9337 16.2147 36.0195 16.2602 36.1489 16.2816C36.1489 16.3484 36.1489 16.4151 36.1489 16.4839C35.4368 16.4839 34.7248 16.4839 33.9912 16.4839C33.9912 16.4171 33.9912 16.3504 33.9912 16.2816C34.0434 16.2597 34.0956 16.2378 34.1495 16.2153C34.3277 16.1452 34.3277 16.1452 34.4133 15.9783C34.4847 15.6579 34.4389 15.3647 34.3946 15.042C34.3874 14.9868 34.3801 14.9315 34.3727 14.8746C34.3573 14.7583 34.3418 14.642 34.3261 14.5258C34.3019 14.3475 34.2784 14.1692 34.255 13.9909C34.24 13.8777 34.225 13.7646 34.2099 13.6515C34.2028 13.5981 34.1958 13.5447 34.1885 13.4897C34.1817 13.4402 34.175 13.3908 34.1681 13.3398C34.1622 13.2963 34.1563 13.2528 34.1503 13.208C34.1331 13.0878 34.1331 13.0878 34.085 12.9444C34.0734 12.9761 34.0617 13.0078 34.0498 13.0404C33.9273 13.3743 33.8047 13.7083 33.6821 14.0422C33.6366 14.1663 33.5911 14.2904 33.5456 14.4145C33.2919 15.1062 33.0372 15.7973 32.7716 16.4839C32.6942 16.4839 32.6168 16.4839 32.537 16.4839C32.4094 16.1333 32.2818 15.7827 32.1543 15.4321C32.111 15.3133 32.0678 15.1944 32.0245 15.0756C31.9209 14.7909 31.8173 14.5063 31.7139 14.2216C31.6412 14.0214 31.5683 13.8214 31.495 13.6215C31.4647 13.5384 31.4344 13.4553 31.4041 13.3722C31.3904 13.3349 31.3766 13.2975 31.3624 13.259C31.2706 13.0064 31.2706 13.0064 31.2706 12.8939C31.2396 12.8939 31.2086 12.8939 31.1767 12.8939C31.1738 12.9559 31.1738 12.9559 31.1707 13.0193C31.1417 13.5352 31.072 14.0375 30.9929 14.5468C30.8415 15.3197 30.8415 15.3197 30.9558 16.0682C31.069 16.2267 31.1873 16.242 31.3644 16.2816C31.3644 16.3484 31.3644 16.4151 31.3644 16.4839C30.8381 16.4839 30.3118 16.4839 29.7695 16.4839C29.7695 16.4171 29.7695 16.3504 29.7695 16.2816C29.7978 16.2742 29.8261 16.2668 29.8553 16.2591C30.0406 16.203 30.1652 16.1585 30.3031 16.0099C30.4946 15.5493 30.5482 15.022 30.6175 14.5259C30.6258 14.4679 30.634 14.4098 30.6425 14.35C30.6596 14.2286 30.6767 14.1072 30.6936 13.9858C30.7196 13.7997 30.7462 13.6137 30.7729 13.4277C30.7896 13.3092 30.8062 13.1907 30.8227 13.0722C30.8307 13.0167 30.8388 12.9612 30.847 12.904C30.8541 12.8525 30.8611 12.801 30.8684 12.7479C30.8779 12.6801 30.8779 12.6801 30.8876 12.611C30.8954 12.4878 30.8877 12.4027 30.8484 12.2871C30.767 12.2209 30.767 12.2209 30.6666 12.1765C30.6175 12.152 30.6175 12.152 30.5673 12.1269C30.4903 12.0925 30.4115 12.0627 30.3324 12.0343C30.3324 11.9675 30.3324 11.9008 30.3324 11.832Z" fill="#FEFEFE"/>
<path d="M46.2801 6.16895C46.3575 6.16895 46.4349 6.16895 46.5146 6.16895C46.5146 6.55272 46.5146 6.9365 46.5146 7.33191C47.304 7.33191 48.0935 7.33191 48.9069 7.33191C48.9069 7.39865 48.9069 7.4654 48.9069 7.53416C48.8449 7.56754 48.783 7.60091 48.7192 7.63529C48.7457 7.86249 48.8006 8.03952 48.8938 8.24482C48.9191 8.30087 48.9443 8.35693 48.9703 8.41468C48.9968 8.47243 49.0232 8.53018 49.0505 8.58968C49.0771 8.6486 49.1038 8.70753 49.1312 8.76823C49.1968 8.91325 49.2628 9.05808 49.329 9.20276C49.7218 8.44998 49.7218 8.44998 49.7512 7.63529C49.6349 7.54572 49.6349 7.54572 49.5166 7.4836C49.5166 7.43354 49.5166 7.38348 49.5166 7.33191C49.9036 7.33191 50.2906 7.33191 50.6893 7.33191C50.6893 7.39865 50.6893 7.4654 50.6893 7.53416C50.6642 7.54502 50.6392 7.55589 50.6133 7.56707C50.3647 7.68563 50.2572 7.78426 50.1411 8.05876C50.1262 8.09318 50.1113 8.12761 50.096 8.16307C50.042 8.28983 49.9903 8.4175 49.9388 8.54544C49.9175 8.59778 49.8961 8.65012 49.8742 8.70404C49.7473 9.01575 49.6219 9.3281 49.4972 9.64085C49.3334 10.0518 49.1688 10.4624 49.0024 10.8722C48.9723 10.9465 48.9424 11.0209 48.9125 11.0953C48.4074 12.3541 48.4074 12.3541 47.9394 12.6063C47.6996 12.659 47.462 12.6487 47.2182 12.6411C47.2424 12.3125 47.287 12.0008 47.3589 11.6804C47.4031 11.6827 47.4472 11.6851 47.4927 11.6875C47.8451 11.703 47.8451 11.703 48.1798 11.6045C48.4643 11.2979 48.6999 10.9386 48.813 10.5174C48.7924 10.268 48.7114 10.0656 48.6089 9.84429C48.5931 9.80936 48.5773 9.77443 48.561 9.73845C48.5105 9.62712 48.4595 9.51607 48.4085 9.40502C48.3753 9.33202 48.3421 9.25901 48.309 9.18598C48.2436 9.04203 48.1778 8.89833 48.1116 8.7548C48.048 8.61684 47.9857 8.47835 47.9244 8.33923C47.9099 8.30681 47.8954 8.27439 47.8805 8.24099C47.8413 8.15314 47.8024 8.06507 47.7636 7.97699C47.671 7.80787 47.5881 7.7141 47.4119 7.65785C47.313 7.63552 47.22 7.62505 47.1193 7.61929C47.0839 7.61717 47.0485 7.61506 47.0121 7.61287C46.9574 7.60989 46.9574 7.60989 46.9016 7.60685C46.8644 7.60467 46.8272 7.60248 46.7889 7.60023C46.6975 7.59489 46.606 7.58979 46.5146 7.58473C46.5178 7.87536 46.522 8.16596 46.5269 8.45657C46.5285 8.55539 46.5298 8.65421 46.5308 8.75304C46.5324 8.89526 46.5349 9.03745 46.5375 9.17966C46.5378 9.2237 46.5381 9.26774 46.5384 9.31312C46.5437 9.54964 46.5526 9.72347 46.7022 9.91066C46.885 9.96648 46.9981 9.99596 47.175 9.91856C47.2544 9.86981 47.3305 9.8148 47.4058 9.75896C47.4523 9.83405 47.4523 9.83405 47.4996 9.91066C47.4504 9.97647 47.4004 10.0417 47.3501 10.1066C47.3224 10.143 47.2946 10.1793 47.266 10.2168C47.0442 10.4472 46.7941 10.4362 46.4993 10.4348C46.2488 10.4276 46.052 10.3898 45.8579 10.214C45.6806 9.97884 45.6172 9.78853 45.618 9.49049C45.618 9.44799 45.618 9.40549 45.6181 9.3617C45.6183 9.31629 45.6185 9.27088 45.6188 9.2241C45.6189 9.17725 45.6189 9.13039 45.619 9.08212C45.6192 8.93272 45.6198 8.78332 45.6204 8.63392C45.6207 8.53253 45.6209 8.43114 45.6211 8.32975C45.6216 8.08141 45.6224 7.83307 45.6234 7.58473C45.4686 7.58473 45.3138 7.58473 45.1543 7.58473C45.1678 7.41703 45.1862 7.34749 45.3005 7.229C45.3432 7.19518 45.3859 7.16135 45.4299 7.12649C45.6409 6.9496 45.8251 6.76491 46.0045 6.55133C46.0267 6.52503 46.0489 6.49872 46.0717 6.47162C46.189 6.33027 46.189 6.33027 46.2801 6.16895Z" fill="#FEFEFE"/>
<path d="M36.665 5.36039C36.6804 6.09458 36.6959 6.82876 36.7119 7.58519C36.8202 7.50176 36.9286 7.41833 37.0402 7.33238C37.3602 7.1638 37.74 7.13787 38.0839 7.23125C38.3313 7.32471 38.5022 7.48492 38.682 7.68632C38.7178 7.72595 38.7535 7.76558 38.7904 7.80641C39.0386 8.22259 39.0526 8.66782 39.0103 9.15267C38.934 9.51701 38.7611 9.82385 38.4943 10.0628C38.0108 10.3801 37.6156 10.4262 37.0611 10.4261C36.9591 10.4262 36.8571 10.4272 36.7551 10.4281C36.6891 10.4283 36.6232 10.4284 36.5572 10.4284C36.498 10.4286 36.4389 10.4288 36.3779 10.429C36.2337 10.4193 36.1128 10.4002 35.9734 10.3654C35.9359 10.3562 35.8984 10.3469 35.8597 10.3373C35.8313 10.3302 35.8029 10.323 35.7737 10.3156C35.7736 10.261 35.7734 10.2063 35.7732 10.15C35.7715 9.63512 35.7688 9.12027 35.7651 8.60542C35.7632 8.34072 35.7617 8.07603 35.761 7.81132C35.7603 7.55592 35.7587 7.30054 35.7564 7.04514C35.7558 6.94765 35.7554 6.85016 35.7553 6.75266C35.7552 6.61621 35.754 6.47982 35.7524 6.34337C35.7528 6.28276 35.7528 6.28276 35.7531 6.22093C35.75 6.04046 35.7419 5.93766 35.638 5.79274C35.5453 5.71916 35.4573 5.66206 35.3516 5.61321C35.3516 5.56315 35.3516 5.5131 35.3516 5.46152C35.5353 5.41722 35.715 5.39668 35.9027 5.38251C35.9567 5.37828 36.0106 5.37404 36.0662 5.36968C36.2655 5.3592 36.4653 5.36039 36.665 5.36039ZM36.7501 7.86636C36.6239 8.04921 36.638 8.21129 36.64 8.43371C36.6399 8.47672 36.6397 8.51972 36.6395 8.56403C36.6394 8.65481 36.6397 8.7456 36.6405 8.83637C36.6415 8.97523 36.6405 9.11395 36.6393 9.25281C36.6394 9.3411 36.6397 9.42938 36.64 9.51767C36.6397 9.55913 36.6393 9.60059 36.6389 9.6433C36.6418 9.8356 36.6439 9.93116 36.7527 10.089C36.9405 10.2299 37.1497 10.1914 37.3686 10.1639C37.6229 10.076 37.7958 9.90328 37.9314 9.6583C38.1115 9.12899 38.1204 8.667 37.9314 8.14139C37.8149 7.89021 37.6902 7.78734 37.4624 7.66933C37.1963 7.57409 36.966 7.70012 36.7501 7.86636Z" fill="#FEFEFE"/>
<path d="M43.4657 13.3494C43.4659 13.3793 43.4661 13.4093 43.4663 13.4402C43.4682 13.7519 43.4715 14.0635 43.4755 14.3752C43.4768 14.4916 43.4778 14.6079 43.4784 14.7242C43.4795 14.8914 43.4816 15.0586 43.4841 15.2258C43.4841 15.2778 43.4842 15.3299 43.4842 15.3835C43.4857 15.6645 43.4857 15.6645 43.6 15.909C43.7342 16.0023 43.8214 16.0259 43.9817 16.0293C44.2365 15.9474 44.4077 15.8207 44.5446 15.5742C44.5795 15.3926 44.5795 15.3926 44.5741 15.1977C44.5742 15.1627 44.5743 15.1277 44.5744 15.0917C44.5744 15.0181 44.5738 14.9446 44.5726 14.8711C44.571 14.7588 44.5716 14.6466 44.5725 14.5343C44.5722 14.4626 44.5718 14.3909 44.5712 14.3192C44.5707 14.2544 44.5701 14.1896 44.5696 14.1228C44.5406 13.9295 44.4985 13.872 44.357 13.7539C44.2569 13.6914 44.2569 13.6914 44.1693 13.6528C44.1848 13.586 44.2003 13.5193 44.2162 13.4505C44.3657 13.4334 44.5153 13.4166 44.6648 13.4C44.7068 13.3951 44.7488 13.3903 44.792 13.3853C44.8333 13.3808 44.8746 13.3762 44.9171 13.3715C44.9547 13.3673 44.9923 13.363 45.031 13.3587C45.1818 13.3473 45.3316 13.348 45.4827 13.3494C45.483 13.3826 45.4833 13.4159 45.4836 13.4501C45.4866 13.7954 45.4905 14.1407 45.495 14.486C45.4966 14.615 45.4979 14.7439 45.499 14.8729C45.5006 15.058 45.503 15.2431 45.5056 15.4282C45.5059 15.4861 45.5062 15.5439 45.5065 15.6035C45.5075 15.6571 45.5084 15.7108 45.5094 15.766C45.5099 15.8133 45.5104 15.8606 45.5109 15.9093C45.5331 16.0517 45.5651 16.0946 45.6704 16.181C45.7923 16.2411 45.7923 16.2411 45.9049 16.2821C45.9049 16.3488 45.9049 16.4156 45.9049 16.4843C45.4646 16.5467 45.0367 16.599 44.5915 16.5855C44.576 16.4019 44.5605 16.2184 44.5446 16.0293C44.5156 16.0741 44.4866 16.119 44.4566 16.1652C44.2482 16.4286 43.9952 16.564 43.6777 16.6082C43.3574 16.6189 43.065 16.6097 42.809 16.3832C42.5762 16.0743 42.5678 15.8176 42.5646 15.4318C42.5633 15.3433 42.562 15.2547 42.5606 15.1662C42.5586 15.027 42.5569 14.8877 42.5557 14.7484C42.5544 14.6138 42.5522 14.4793 42.55 14.3447C42.5498 14.3029 42.5496 14.2612 42.5495 14.2182C42.5515 14.0045 42.5515 14.0045 42.4639 13.8213C42.3674 13.7369 42.269 13.6969 42.1523 13.6528C42.1678 13.586 42.1833 13.5193 42.1993 13.4505C42.3575 13.4334 42.5159 13.4167 42.6742 13.4C42.7188 13.3951 42.7634 13.3903 42.8094 13.3853C42.8747 13.3785 42.8747 13.3785 42.9413 13.3715C42.9811 13.3673 43.0209 13.363 43.0619 13.3587C43.1969 13.3484 43.3305 13.3479 43.4657 13.3494Z" fill="#FEFEFE"/>
<path d="M37.2743 13.3493C37.2747 13.391 37.2747 13.391 37.2751 13.4336C37.2781 13.724 37.2821 14.0144 37.2866 14.3048C37.2882 14.413 37.2895 14.5213 37.2905 14.6296C37.2921 14.7855 37.2946 14.9414 37.2972 15.0973C37.2975 15.1455 37.2978 15.1937 37.2981 15.2434C37.3035 15.5082 37.3234 15.6995 37.4619 15.928C37.5807 16.0085 37.6978 16.025 37.8372 16.0292C38.0938 15.9541 38.2631 15.8194 38.4001 15.5741C38.435 15.3925 38.435 15.3925 38.4296 15.1976C38.4297 15.1626 38.4298 15.1276 38.4299 15.0915C38.4299 15.018 38.4292 14.9445 38.4281 14.871C38.4265 14.7587 38.4271 14.6465 38.428 14.5342C38.4277 14.4625 38.4272 14.3908 38.4266 14.3191C38.4261 14.2543 38.4256 14.1895 38.4251 14.1227C38.3961 13.9294 38.354 13.8719 38.2124 13.7538C38.1124 13.6913 38.1124 13.6913 38.0248 13.6527C38.0248 13.5859 38.0248 13.5192 38.0248 13.4504C38.1831 13.4333 38.3414 13.4165 38.4997 13.3998C38.5667 13.3926 38.5667 13.3926 38.635 13.3852C38.7003 13.3784 38.7003 13.3784 38.7669 13.3714C38.8067 13.3672 38.8465 13.3629 38.8875 13.3586C39.0224 13.3483 39.1561 13.3478 39.2913 13.3493C39.2917 13.3804 39.2921 13.4115 39.2924 13.4436C39.2965 13.7676 39.3012 14.0916 39.3062 14.4155C39.308 14.5364 39.3096 14.6573 39.3111 14.7782C39.3132 14.9521 39.316 15.1259 39.3188 15.2997C39.3193 15.3537 39.3199 15.4077 39.3204 15.4634C39.3214 15.514 39.3223 15.5646 39.3232 15.6167C39.3239 15.661 39.3245 15.7054 39.3251 15.7511C39.3398 15.8932 39.3744 16.0018 39.432 16.1303C39.5108 16.1917 39.5108 16.1917 39.6021 16.2219C39.6543 16.2417 39.7065 16.2616 39.7604 16.282C39.7604 16.3487 39.7604 16.4155 39.7604 16.4842C38.8776 16.6003 38.8776 16.6003 38.447 16.5854C38.4315 16.4018 38.416 16.2183 38.4001 16.0292C38.3662 16.0667 38.3323 16.1042 38.2975 16.1429C37.9636 16.4948 37.729 16.6082 37.259 16.6073C37.0339 16.6001 36.8781 16.5584 36.6933 16.4224C36.4488 16.132 36.4032 15.8875 36.408 15.5087C36.4075 15.4428 36.4075 15.4428 36.407 15.3756C36.406 15.2364 36.4061 15.0971 36.4065 14.9578C36.4071 14.7738 36.4064 14.5898 36.4051 14.4058C36.4056 14.3637 36.4061 14.3216 36.4067 14.2782C36.4056 14.0365 36.4056 14.0365 36.2945 13.8308C36.2016 13.7586 36.113 13.7013 36.0078 13.6527C36.0233 13.5859 36.0388 13.5192 36.0547 13.4504C36.2052 13.4333 36.3557 13.4165 36.5062 13.3998C36.5486 13.395 36.591 13.3902 36.6346 13.3852C36.6761 13.3807 36.7175 13.3761 36.7602 13.3714C36.798 13.3672 36.8358 13.3629 36.8748 13.3586C37.0083 13.3481 37.1405 13.3478 37.2743 13.3493Z" fill="#FEFEFE"/>
<path d="M30.0977 5.66309C30.7633 5.66309 31.4289 5.66309 32.1147 5.66309C32.0677 5.9159 32.0677 5.9159 31.9827 5.98128C31.9489 5.99621 31.915 6.01113 31.8801 6.02651C31.7317 6.08546 31.7317 6.08546 31.6456 6.21929C31.641 6.32898 31.6396 6.43883 31.6395 6.54863C31.6394 6.58243 31.6394 6.61623 31.6393 6.65105C31.6391 6.76305 31.6392 6.87503 31.6394 6.98702C31.6393 7.06474 31.6393 7.14245 31.6392 7.22017C31.6392 7.38318 31.6393 7.54619 31.6395 7.7092C31.6397 7.91822 31.6396 8.12725 31.6393 8.33627C31.6391 8.49681 31.6392 8.65735 31.6393 8.81789C31.6393 8.89496 31.6393 8.97203 31.6392 9.0491C31.6391 9.15683 31.6393 9.26456 31.6395 9.37229C31.6396 9.43363 31.6396 9.49497 31.6396 9.55817C31.6393 9.71106 31.6393 9.71106 31.6925 9.85987C31.9789 10.0257 32.3372 10.0073 32.6484 9.93512C32.979 9.79216 33.1353 9.4292 33.2873 9.10141C33.3492 9.10141 33.4112 9.10141 33.475 9.10141C33.4888 9.52579 33.4352 9.87768 33.3811 10.3149C32.2976 10.3149 31.214 10.3149 30.0977 10.3149C30.0977 10.2482 30.0977 10.1815 30.0977 10.1127C30.1276 10.1041 30.1575 10.0955 30.1884 10.0866C30.2271 10.0744 30.2659 10.0621 30.3058 10.0495C30.3444 10.0378 30.3831 10.026 30.4229 10.0139C30.5257 9.97257 30.5257 9.97257 30.5489 9.87781C30.572 9.72356 30.5731 9.57502 30.5735 9.41872C30.5737 9.38499 30.5739 9.35125 30.574 9.3165C30.5745 9.2053 30.5746 9.09411 30.5746 8.98291C30.5748 8.90546 30.5749 8.82801 30.5751 8.75056C30.5754 8.58837 30.5754 8.42617 30.5754 8.26398C30.5754 8.0562 30.5761 7.84844 30.5769 7.64067C30.5774 7.48078 30.5775 7.32089 30.5775 7.161C30.5775 7.08439 30.5777 7.00779 30.5781 6.93118C30.5785 6.82407 30.5784 6.71698 30.5781 6.60987C30.5782 6.54895 30.5783 6.48803 30.5783 6.42526C30.5671 6.27526 30.5496 6.19161 30.4729 6.0676C30.3825 6.00066 30.3825 6.00066 30.2794 5.95383C30.2454 5.93688 30.2115 5.91993 30.1764 5.90247C30.1504 5.89022 30.1244 5.87797 30.0977 5.86534C30.0977 5.7986 30.0977 5.73185 30.0977 5.66309Z" fill="#FEFEFE"/>
<path d="M29.7695 17.748C36.7662 17.748 43.7628 17.748 50.9715 17.748C50.9715 17.8315 50.9715 17.9149 50.9715 18.0009C43.9748 18.0009 36.9782 18.0009 29.7695 18.0009C29.7695 17.9174 29.7695 17.834 29.7695 17.748Z" fill="#FEFEFE"/>
<path d="M48.2211 13.5963C48.475 13.8114 48.566 14.0205 48.6257 14.3611C48.6393 14.507 48.643 14.6521 48.6451 14.7987C48.646 14.8386 48.6469 14.8784 48.6479 14.9194C48.6506 15.0451 48.6528 15.1708 48.655 15.2965C48.6568 15.3823 48.6586 15.4682 48.6605 15.554C48.665 15.7631 48.6689 15.9722 48.6726 16.1813C48.7345 16.1813 48.7964 16.1813 48.8602 16.1813C48.8912 16.1146 48.9221 16.0479 48.954 15.9791C49.0005 15.9791 49.0469 15.9791 49.0948 15.9791C49.0775 16.3019 49.0775 16.3019 48.9335 16.4531C48.6712 16.6324 48.4152 16.6154 48.1097 16.5859C47.9806 16.5349 47.929 16.4892 47.8283 16.3836C47.8128 16.3335 47.7973 16.2835 47.7814 16.2319C47.7381 16.2639 47.7381 16.2639 47.694 16.2965C47.656 16.3242 47.6181 16.3519 47.5791 16.3804C47.5227 16.4218 47.5227 16.4218 47.4653 16.464C47.1833 16.6535 46.8348 16.6178 46.5149 16.5859C46.3139 16.5092 46.1899 16.3907 46.0458 16.2256C45.9577 15.9526 45.9323 15.6733 46.0511 15.4069C46.4268 14.8774 47.164 14.7963 47.7345 14.6644C47.7158 14.5831 47.696 14.502 47.6758 14.4211C47.6595 14.3533 47.6595 14.3533 47.6428 14.2842C47.5845 14.1352 47.5361 14.0859 47.4061 14.0071C47.1437 13.9311 46.8967 13.9362 46.647 14.0525C46.5017 14.1475 46.3973 14.2797 46.2803 14.4116C46.2339 14.4116 46.1875 14.4116 46.1396 14.4116C46.1594 14.1271 46.2538 13.9202 46.4211 13.7037C46.9052 13.261 47.7005 13.19 48.2211 13.5963ZM47.3914 15.0247C47.3104 15.0687 47.3104 15.0687 47.2278 15.1136C47.0399 15.2477 46.9183 15.3919 46.8669 15.6332C46.8732 15.856 46.8871 16.0164 47.0308 16.1813C47.1865 16.2451 47.1865 16.2451 47.3592 16.2319C47.507 16.1447 47.6158 16.0565 47.7345 15.9285C47.7475 15.8158 47.7475 15.8158 47.7436 15.6864C47.7433 15.6388 47.743 15.5912 47.7427 15.5422C47.7415 15.4675 47.7415 15.4675 47.7403 15.3913C47.7399 15.3411 47.7395 15.2909 47.739 15.2392C47.7379 15.115 47.7364 14.9909 47.7345 14.8667C47.6212 14.8667 47.4875 14.9715 47.3914 15.0247Z" fill="#FEFEFE"/>
<path d="M50.2573 11.5274C50.3034 11.5275 50.3495 11.5276 50.397 11.5277C50.4494 11.5278 50.4494 11.5278 50.5029 11.528C50.5033 11.6109 50.5033 11.6109 50.5037 11.6955C50.5064 12.2164 50.5098 12.7372 50.514 13.258C50.5161 13.5257 50.5179 13.7935 50.5192 14.0613C50.5204 14.3196 50.5223 14.5779 50.5246 14.8363C50.5254 14.9349 50.526 15.0335 50.5263 15.1322C50.5267 15.2702 50.528 15.4082 50.5295 15.5462C50.5294 15.6075 50.5294 15.6075 50.5293 15.67C50.5319 15.8341 50.539 15.956 50.6121 16.1017C50.7201 16.2093 50.8316 16.2406 50.972 16.281C50.972 16.3477 50.972 16.4145 50.972 16.4832C50.3528 16.4832 49.7336 16.4832 49.0957 16.4832C49.0957 16.4165 49.0957 16.3497 49.0957 16.281C49.1347 16.2663 49.1347 16.2663 49.1745 16.2513C49.2255 16.2316 49.2255 16.2316 49.2775 16.2114C49.3112 16.1985 49.3449 16.1856 49.3797 16.1723C49.4795 16.1324 49.4795 16.1324 49.5648 16.0281C49.5746 15.9029 49.5785 15.7832 49.5784 15.6578C49.5787 15.6197 49.579 15.5815 49.5794 15.5422C49.5802 15.4157 49.5804 15.2892 49.5805 15.1626C49.5808 15.0748 49.5811 14.987 49.5815 14.8993C49.582 14.715 49.5822 14.5308 49.5822 14.3466C49.5821 14.1105 49.5834 13.8744 49.585 13.6382C49.5861 13.4568 49.5863 13.2754 49.5862 13.094C49.5863 13.007 49.5868 12.9199 49.5875 12.8329C49.5884 12.7111 49.5881 12.5894 49.5876 12.4676C49.5881 12.4316 49.5886 12.3956 49.5892 12.3585C49.5872 12.1892 49.5755 12.0993 49.4791 11.963C49.3571 11.866 49.2412 11.8236 49.0957 11.7808C49.0957 11.7307 49.0957 11.6807 49.0957 11.6291C49.2674 11.5739 49.4363 11.5626 49.6146 11.5501C49.6722 11.5459 49.7299 11.5416 49.7892 11.5373C49.9454 11.5282 50.1009 11.527 50.2573 11.5274Z" fill="#FEFEFE"/>
<path d="M41.7768 7.48369C42.0358 7.73377 42.2031 7.98073 42.2928 8.34327C42.2928 8.4267 42.2928 8.51013 42.2928 8.59609C41.6117 8.59609 40.9306 8.59609 40.2289 8.59609C40.317 9.28211 40.317 9.28211 40.6745 9.77801C40.9043 9.93905 41.0785 9.99107 41.3546 9.96131C41.6632 9.86812 41.8408 9.71167 42.0298 9.43592C42.0547 9.40906 42.0796 9.38221 42.1052 9.35454C42.1671 9.35454 42.229 9.35454 42.2928 9.35454C42.2571 9.69151 42.0455 9.89001 41.8237 10.113C41.3868 10.4432 40.9358 10.4643 40.4165 10.4164C40.0774 10.3389 39.7961 10.1445 39.5722 9.86018C39.2996 9.37926 39.2257 8.9238 39.3107 8.36322C39.4193 7.95748 39.6592 7.63891 39.9855 7.411C40.5434 7.08497 41.2511 7.07655 41.7768 7.48369ZM40.3696 7.73651C40.2598 7.96498 40.2289 8.08165 40.2289 8.34327C40.6004 8.34327 40.9719 8.34327 41.3546 8.34327C41.3095 7.95372 41.2762 7.80946 41.0351 7.54057C40.7483 7.38156 40.5545 7.47634 40.3696 7.73651Z" fill="#FEFEFE"/>
<path d="M40.9793 12.3379C41.0567 12.3379 41.1341 12.3379 41.2138 12.3379C41.2138 12.7217 41.2138 13.1054 41.2138 13.5009C41.5079 13.5009 41.802 13.5009 42.105 13.5009C42.105 13.5843 42.105 13.6677 42.105 13.7537C41.8109 13.7537 41.5168 13.7537 41.2138 13.7537C41.2184 14.0452 41.2232 14.3368 41.2287 14.6283C41.2305 14.7275 41.2321 14.8266 41.2336 14.9258C41.2357 15.0684 41.2385 15.211 41.2413 15.3535C41.2418 15.3978 41.2424 15.4421 41.2429 15.4878C41.2439 15.5293 41.2448 15.5708 41.2458 15.6135C41.2464 15.6499 41.247 15.6863 41.2477 15.7238C41.268 15.8838 41.3149 15.9958 41.4337 16.0954C41.643 16.1625 41.8198 16.1087 42.0083 16.0006C42.0402 15.9766 42.0722 15.9526 42.105 15.9279C42.1515 16.003 42.1515 16.003 42.1989 16.0796C42.1496 16.1454 42.0996 16.2106 42.0493 16.2755C42.0216 16.3119 41.9938 16.3483 41.9652 16.3857C41.7434 16.6161 41.4933 16.6052 41.1986 16.6037C40.948 16.5965 40.7512 16.5588 40.5571 16.383C40.3798 16.1478 40.3164 15.9575 40.3173 15.6594C40.3173 15.6169 40.3173 15.5744 40.3173 15.5306C40.3175 15.4852 40.3178 15.4398 40.318 15.393C40.3181 15.3462 40.3181 15.2993 40.3182 15.2511C40.3185 15.1017 40.3191 14.9523 40.3197 14.8029C40.3199 14.7015 40.3201 14.6001 40.3203 14.4987C40.3208 14.2504 40.3216 14.002 40.3226 13.7537C40.1678 13.7537 40.013 13.7537 39.8535 13.7537C39.8636 13.565 39.8953 13.5062 40.0236 13.3723C40.0759 13.3272 40.1287 13.2826 40.1819 13.2386C40.6411 12.8448 40.6411 12.8448 40.9793 12.3379Z" fill="#FEFEFE"/>
<path d="M43.7001 7.17969C43.7156 7.42998 43.7311 7.68027 43.7471 7.93814C43.7877 7.86827 43.8283 7.7984 43.8702 7.72641C44.0139 7.49654 44.1439 7.28881 44.3995 7.19865C44.6427 7.15016 44.7984 7.20617 45.0135 7.33138C45.1074 7.43251 45.1074 7.43251 45.1096 7.52593C45.0752 7.80208 45.0278 8.0719 44.9666 8.34265C44.8077 8.34265 44.7883 8.32243 44.6705 8.2194C44.5189 8.09891 44.4097 8.03927 44.2161 8.03927C44.0198 8.1197 43.879 8.2171 43.7471 8.39322C43.7205 8.54692 43.7205 8.54692 43.7271 8.71734C43.7275 8.77988 43.7279 8.84242 43.7283 8.90685C43.7296 8.972 43.731 9.03715 43.7324 9.10427C43.7328 9.16961 43.7333 9.23495 43.7338 9.30227C43.7314 9.63682 43.7314 9.63682 43.794 9.96069C43.8815 10.0121 43.8815 10.0121 43.9845 10.046C44.0361 10.0651 44.0361 10.0651 44.0888 10.0845C44.1153 10.0937 44.1419 10.1029 44.1692 10.1124C44.1692 10.1791 44.1692 10.2459 44.1692 10.3146C43.581 10.3146 42.9928 10.3146 42.3868 10.3146C42.3868 10.2479 42.3868 10.1811 42.3868 10.1124C42.4692 10.0828 42.5517 10.0531 42.6341 10.0235C42.759 9.92664 42.7695 9.81533 42.8089 9.65731C42.8232 9.47738 42.8232 9.47738 42.8214 9.28618C42.8215 9.23421 42.8215 9.23421 42.8216 9.18119C42.8217 9.10831 42.8215 9.03544 42.8211 8.96256C42.8206 8.85194 42.8211 8.74135 42.8217 8.63073C42.8217 8.55952 42.8216 8.48832 42.8214 8.41711C42.8213 8.35311 42.8212 8.28911 42.8211 8.22317C42.8083 8.03017 42.7748 7.86759 42.7151 7.68532C42.6276 7.60199 42.6276 7.60199 42.5216 7.56208C42.4876 7.5465 42.4536 7.53092 42.4186 7.51487C42.3926 7.50438 42.3666 7.49388 42.3398 7.48307C42.3398 7.43301 42.3398 7.38295 42.3398 7.33138C42.4512 7.27138 42.5363 7.2657 42.6603 7.25376C42.7281 7.24716 42.7281 7.24716 42.7973 7.24042C42.8447 7.23602 42.892 7.23162 42.9408 7.22709C42.9877 7.2225 43.0345 7.2179 43.0828 7.21317C43.2903 7.19334 43.4913 7.17969 43.7001 7.17969Z" fill="#FEFEFE"/>
<path d="M34.55 7.22918C34.5981 7.22933 34.5981 7.22933 34.6473 7.22949C34.7254 7.22974 34.8036 7.23014 34.8818 7.23057C34.882 7.26306 34.8821 7.29555 34.8823 7.32902C34.8843 7.66697 34.8875 8.00489 34.8915 8.34282C34.8928 8.46896 34.8938 8.59511 34.8945 8.72126C34.8955 8.90252 34.8977 9.08372 34.9001 9.26496C34.9002 9.32143 34.9002 9.3779 34.9003 9.43608C34.9012 9.48871 34.9021 9.54133 34.9031 9.59555C34.9035 9.64181 34.9039 9.68807 34.9043 9.73574C34.9361 9.89785 34.9988 9.95871 35.1163 10.0621C35.2166 10.1019 35.2166 10.1019 35.3039 10.1127C35.3039 10.1794 35.3039 10.2462 35.3039 10.3149C34.7157 10.3149 34.1275 10.3149 33.5215 10.3149C33.5215 10.2482 33.5215 10.1815 33.5215 10.1127C33.548 10.1029 33.5746 10.0931 33.6019 10.0831C33.6535 10.0633 33.6535 10.0633 33.7062 10.0432C33.7405 10.0303 33.7747 10.0174 33.8101 10.0041C33.9055 9.96845 33.9055 9.96845 33.9436 9.85988C33.9494 9.70681 33.9525 9.55496 33.9532 9.40184C33.9534 9.35633 33.9537 9.31082 33.954 9.26393C33.9544 9.16757 33.9547 9.07121 33.9549 8.97485C33.9554 8.82725 33.9568 8.67968 33.9583 8.53209C33.9586 8.43856 33.9589 8.34504 33.959 8.25152C33.9596 8.20727 33.9602 8.16302 33.9608 8.11744C33.9607 8.07627 33.9605 8.0351 33.9604 7.99269C33.9605 7.9565 33.9607 7.92031 33.9609 7.88303C33.9383 7.75666 33.8958 7.71387 33.8029 7.63508C33.6575 7.57437 33.6575 7.57437 33.5215 7.53395C33.5215 7.4672 33.5215 7.40046 33.5215 7.33169C33.8112 7.17555 34.2346 7.22787 34.55 7.22918Z" fill="#FEFEFE"/>
<path d="M37.414 19.2149C37.6372 19.3031 37.8076 19.4474 37.9299 19.67C37.8371 19.7534 37.7442 19.8368 37.6485 19.9228C37.5393 19.8639 37.4323 19.8043 37.326 19.7395C37.112 19.638 36.9315 19.6471 36.7103 19.7205C36.7266 19.847 36.7266 19.847 36.8042 19.9733C36.9365 20.0391 37.0755 20.0695 37.2175 20.1029C37.6929 20.2186 37.6929 20.2186 37.883 20.4284C37.9675 20.7015 37.9702 20.945 37.8537 21.2058C37.6658 21.4297 37.4426 21.5213 37.1688 21.5529C36.8042 21.565 36.5035 21.4736 36.209 21.2374C36.1475 21.1363 36.1475 21.1363 36.1445 21.032C36.2164 20.8908 36.2924 20.844 36.4289 20.7824C36.5452 20.8215 36.6196 20.886 36.7162 20.9656C36.9104 21.0658 37.1082 21.0747 37.3201 21.0352C37.4045 20.9633 37.4045 20.9633 37.4609 20.8835C37.4454 20.8334 37.4299 20.7834 37.414 20.7318C37.3284 20.6859 37.3284 20.6859 37.2227 20.6577C37.1837 20.6454 37.1447 20.6331 37.1045 20.6205C37.0429 20.6021 37.0429 20.6021 36.9801 20.5833C36.4749 20.4318 36.4749 20.4318 36.2882 20.2262C36.2182 19.9999 36.2064 19.8055 36.297 19.5846C36.6017 19.1656 36.9547 19.1689 37.414 19.2149Z" fill="#FEFEFE"/>
<path d="M40.7461 19.2647C41.0146 19.2584 41.0146 19.2584 41.2885 19.252C41.3442 19.2502 41.4 19.2483 41.4575 19.2464C41.7622 19.243 41.9572 19.2614 42.2002 19.4669C42.349 19.684 42.3227 19.9682 42.294 20.2254C42.2007 20.4231 42.1362 20.5074 41.9657 20.6299C41.9928 20.6792 42.0199 20.7286 42.0478 20.7794C42.083 20.8444 42.1181 20.9094 42.1533 20.9743C42.1712 21.0068 42.1891 21.0393 42.2075 21.0728C42.3409 21.3206 42.3409 21.3206 42.3409 21.4895C42.1861 21.4895 42.0313 21.4895 41.8719 21.4895C41.8486 21.4353 41.8253 21.3811 41.8013 21.3253C41.7692 21.2546 41.737 21.184 41.7048 21.1134C41.6896 21.0776 41.6745 21.0419 41.6589 21.0051C41.643 20.971 41.6271 20.9369 41.6108 20.9019C41.5968 20.8703 41.5828 20.8388 41.5683 20.8064C41.4735 20.692 41.4735 20.692 41.1683 20.6804C41.1683 20.9474 41.1683 21.2144 41.1683 21.4895C41.0289 21.4895 40.8896 21.4895 40.7461 21.4895C40.7461 20.7553 40.7461 20.0211 40.7461 19.2647ZM41.1683 19.6692C41.1683 19.8694 41.1683 20.0696 41.1683 20.2759C41.4946 20.3057 41.4946 20.3057 41.7839 20.1748C41.8274 20.1247 41.8274 20.1247 41.8719 20.0737C41.8594 19.9253 41.8594 19.9253 41.825 19.7703C41.6645 19.655 41.6053 19.6581 41.4174 19.6629C41.3352 19.6649 41.253 19.667 41.1683 19.6692Z" fill="#FEFEFE"/>
<path d="M45.0137 19.2656C45.153 19.2656 45.2923 19.2656 45.4358 19.2656C45.545 19.3954 45.6062 19.4877 45.6792 19.6385C45.6973 19.6729 45.7154 19.7072 45.734 19.7426C45.792 19.8527 45.8484 19.9637 45.9049 20.0746C45.9978 20.2415 46.0907 20.4084 46.1863 20.5803C46.2018 20.1464 46.2173 19.7126 46.2333 19.2656C46.3571 19.2656 46.4809 19.2656 46.6085 19.2656C46.6085 19.9998 46.6085 20.734 46.6085 21.4904C46.4847 21.4904 46.3608 21.4904 46.2333 21.4904C46.1277 21.3697 46.1277 21.3697 46.0456 21.2028C46.0149 21.1429 45.9841 21.083 45.9533 21.0231C45.9379 20.992 45.9224 20.9608 45.9066 20.9287C45.8258 20.7697 45.736 20.617 45.6469 20.4634C45.5927 20.3684 45.5386 20.2735 45.4827 20.1758C45.4673 20.6096 45.4518 21.0434 45.4358 21.4904C45.2965 21.4904 45.1572 21.4904 45.0137 21.4904C45.0137 20.7562 45.0137 20.0221 45.0137 19.2656Z" fill="#FEFEFE"/>
<path d="M33.9902 19.2656C34.1295 19.2656 34.2689 19.2656 34.4124 19.2656C34.5225 19.3863 34.5225 19.3863 34.603 19.5532C34.6333 19.6131 34.6636 19.6731 34.694 19.7329C34.7091 19.7641 34.7243 19.7952 34.7399 19.8273C34.8196 19.9868 34.9096 20.1392 34.9987 20.2927C35.0529 20.3876 35.1071 20.4825 35.1629 20.5803C35.1784 20.1464 35.1939 19.7126 35.2098 19.2656C35.3336 19.2656 35.4575 19.2656 35.5851 19.2656C35.5851 19.9998 35.5851 20.734 35.5851 21.4904C35.2098 21.4904 35.2098 21.4904 35.1286 21.4242C35.1048 21.3782 35.1048 21.3782 35.0805 21.3312C35.0618 21.297 35.0431 21.2628 35.0238 21.2275C35.0059 21.1912 34.9879 21.1549 34.9694 21.1175C34.9419 21.066 34.9419 21.066 34.9139 21.0134C34.8553 20.9033 34.798 20.7923 34.7407 20.6814C34.6479 20.5145 34.555 20.3477 34.4593 20.1758C34.4438 20.6096 34.4283 21.0434 34.4124 21.4904C34.2731 21.4904 34.1338 21.4904 33.9902 21.4904C33.9902 20.7562 33.9902 20.0221 33.9902 19.2656Z" fill="#FEFEFE"/>
<path d="M49.4707 19.2656C49.966 19.2656 50.4614 19.2656 50.9717 19.2656C50.9717 19.3991 50.9717 19.5326 50.9717 19.6701C50.6312 19.6701 50.2906 19.6701 49.9398 19.6701C49.9398 19.8203 49.9398 19.9705 49.9398 20.1252C50.2494 20.1252 50.5589 20.1252 50.8779 20.1252C50.8779 20.2587 50.8779 20.3922 50.8779 20.5297C50.5683 20.5297 50.2587 20.5297 49.9398 20.5297C49.9398 20.6966 49.9398 20.8634 49.9398 21.0354C50.3113 21.0354 50.6828 21.0354 51.0655 21.0354C51.0655 21.1855 51.0655 21.3357 51.0655 21.4904C50.5392 21.4904 50.0129 21.4904 49.4707 21.4904C49.4707 20.7562 49.4707 20.0221 49.4707 19.2656Z" fill="#FEFEFE"/>
<path d="M38.4944 19.2656C38.6338 19.2656 38.7731 19.2656 38.9166 19.2656C38.9173 19.338 38.9173 19.338 38.9179 19.4117C38.9198 19.5907 38.9229 19.7696 38.9263 19.9486C38.9277 20.026 38.9287 20.1035 38.9293 20.1809C38.9303 20.2923 38.9325 20.4036 38.9349 20.5149C38.935 20.5495 38.935 20.5841 38.9351 20.6198C38.9397 20.779 38.9457 20.8632 39.0489 20.9814C39.1994 21.0608 39.3144 21.0544 39.4795 21.0354C39.5874 20.9864 39.5874 20.9864 39.6671 20.8837C39.6872 20.754 39.6955 20.6448 39.6957 20.5149C39.6965 20.4792 39.6973 20.4435 39.698 20.4067C39.7003 20.2929 39.7013 20.179 39.7023 20.0652C39.7036 19.9879 39.705 19.9106 39.7065 19.8334C39.71 19.6441 39.7123 19.4549 39.714 19.2656C39.8533 19.2656 39.9926 19.2656 40.1362 19.2656C40.142 19.5193 40.1462 19.7729 40.1491 20.0267C40.1502 20.1129 40.1518 20.1991 40.1539 20.2853C40.1567 20.4096 40.1581 20.5338 40.1591 20.6581C40.1603 20.6964 40.1615 20.7346 40.1628 20.774C40.1629 20.9779 40.1445 21.0997 40.0231 21.2604C39.8157 21.4804 39.6035 21.5471 39.3153 21.56C39.0271 21.5471 38.8149 21.4804 38.6075 21.2604C38.4617 21.0674 38.4639 20.8993 38.4715 20.6581C38.4719 20.6181 38.4722 20.5782 38.4725 20.537C38.4738 20.4102 38.4768 20.2835 38.4798 20.1568C38.481 20.0705 38.482 19.9842 38.483 19.8979C38.4856 19.6871 38.4896 19.4764 38.4944 19.2656Z" fill="#FEFEFE"/>
<path d="M48.6048 19.2749C48.8282 19.4539 48.9262 19.6354 49.0005 19.9227C48.8612 19.9561 48.7219 19.9894 48.5784 20.0238C48.559 19.9842 48.5397 19.9446 48.5197 19.9037C48.4324 19.7625 48.3998 19.7147 48.25 19.6699C48.0689 19.6769 47.959 19.69 47.8132 19.8089C47.6457 20.0497 47.605 20.2815 47.6402 20.58C47.7124 20.7861 47.7814 20.937 47.9686 21.0351C48.0992 21.0612 48.2139 21.0667 48.3438 21.0351C48.4516 20.9219 48.5118 20.8248 48.5784 20.6812C48.7536 20.7063 48.851 20.7254 49.0005 20.8328C48.9404 21.0864 48.86 21.2226 48.6722 21.389C48.3879 21.5599 48.1357 21.5875 47.8213 21.5188C47.566 21.4343 47.4081 21.2758 47.265 21.0351C47.1047 20.6961 47.1173 20.2058 47.2018 19.8411C47.3052 19.5948 47.4803 19.4149 47.6871 19.2654C47.9758 19.1617 48.3178 19.1717 48.6048 19.2749Z" fill="#FEFEFE"/>
<path d="M43.3715 19.2656C43.5418 19.2656 43.7121 19.2656 43.8875 19.2656C44.0367 19.6541 44.1665 20.0477 44.2897 20.4464C44.3217 20.5497 44.3542 20.6528 44.3866 20.7559C44.4072 20.822 44.4277 20.8882 44.4482 20.9544C44.4667 21.0136 44.4851 21.0729 44.5041 21.134C44.5442 21.2882 44.5442 21.2882 44.5442 21.4904C44.4049 21.4904 44.2656 21.4904 44.1221 21.4904C44.0756 21.3569 44.0292 21.2234 43.9813 21.0859C43.7491 21.0692 43.517 21.0525 43.2777 21.0354C43.2468 21.1855 43.2158 21.3357 43.1839 21.4904C43.0291 21.4904 42.8743 21.4904 42.7148 21.4904C42.7735 21.1862 42.8456 20.8968 42.9409 20.6038C42.9533 20.5651 42.9657 20.5265 42.9784 20.4867C43.0174 20.3651 43.0567 20.2436 43.096 20.122C43.1227 20.0389 43.1494 19.9557 43.176 19.8725C43.241 19.6701 43.3062 19.4678 43.3715 19.2656ZM43.6061 19.8218C43.5746 19.9281 43.5433 20.0346 43.5123 20.141C43.4948 20.2003 43.4774 20.2595 43.4595 20.3205C43.4121 20.4761 43.4121 20.4761 43.4184 20.6308C43.5732 20.6308 43.728 20.6308 43.8875 20.6308C43.8101 20.3639 43.7327 20.0969 43.653 19.8218C43.6375 19.8218 43.622 19.8218 43.6061 19.8218Z" fill="#FEFEFE"/>
<path d="M32.8652 19.2656C33.0045 19.2656 33.1439 19.2656 33.2874 19.2656C33.2874 19.9998 33.2874 20.734 33.2874 21.4904C33.1481 21.4904 33.0088 21.4904 32.8652 21.4904C32.8652 20.7562 32.8652 20.0221 32.8652 19.2656Z" fill="#FEFEFE"/>
<path d="M34.6004 5.35967C34.74 5.44931 34.855 5.55465 34.9287 5.71361C34.9464 5.96628 34.9331 6.11765 34.788 6.32038C34.5995 6.45584 34.4467 6.4567 34.2251 6.4215C34.0905 6.3308 34.0145 6.27069 33.9437 6.11812C33.924 5.96344 33.9209 5.81743 33.9437 5.66305C34.1414 5.39384 34.2842 5.32558 34.6004 5.35967Z" fill="#FEFEFE"/>
<path d="M51.9558 15.4218C52.077 15.5325 52.1661 15.6224 52.2372 15.7757C52.2392 15.9989 52.228 16.1784 52.0995 16.3572C51.9434 16.4796 51.8276 16.5043 51.6324 16.5008C51.4477 16.4687 51.3749 16.3824 51.2522 16.2308C51.1899 16.0175 51.1986 15.9024 51.2551 15.6872C51.4267 15.3771 51.641 15.3231 51.9558 15.4218ZM51.5805 15.5735C51.5805 15.5902 51.5805 15.6069 51.5805 15.624C51.6734 15.624 51.7663 15.624 51.862 15.624C51.862 15.6074 51.862 15.5907 51.862 15.5735C51.7691 15.5735 51.6762 15.5735 51.5805 15.5735ZM51.4867 15.6746C51.3789 15.7696 51.3789 15.7696 51.3783 15.9243C51.3793 16.0963 51.3793 16.0963 51.5336 16.2308C51.5336 16.0473 51.5336 15.8637 51.5336 15.6746C51.5182 15.6746 51.5027 15.6746 51.4867 15.6746ZM51.9558 15.6746C51.9558 15.7747 51.9558 15.8748 51.9558 15.978C51.9094 16.003 51.9094 16.003 51.862 16.0286C51.9084 16.0786 51.9549 16.1287 52.0027 16.1802C52.068 16.1211 52.068 16.1211 52.0584 15.9559C52.0682 15.7732 52.0682 15.7732 51.9558 15.6746ZM51.6744 15.7757C51.6744 15.8091 51.6744 15.8425 51.6744 15.8769C51.7208 15.8769 51.7672 15.8769 51.8151 15.8769C51.8151 15.8435 51.8151 15.8101 51.8151 15.7757C51.7686 15.7757 51.7222 15.7757 51.6744 15.7757ZM51.6744 16.0286C51.6589 16.1287 51.6434 16.2288 51.6275 16.3319C51.6894 16.3319 51.7513 16.3319 51.8151 16.3319C51.7882 16.187 51.7747 16.1367 51.6744 16.0286Z" fill="#FEFEFE"/>
<path d="M19.3085 0C19.396 0.0062894 19.3965 0.00661093 19.496 0.0507812C19.6189 0.221173 19.6537 0.342196 19.6367 0.556641C19.9014 0.50938 20.0966 0.464411 20.2929 0.25293C20.3238 0.203017 20.3549 0.152979 20.3867 0.101562C20.4891 0.101562 20.4896 0.100998 20.621 0.151367C20.8023 0.348912 20.8728 0.559128 20.8827 0.833984C20.8664 1.17808 20.7759 1.40664 20.5449 1.64355C20.3524 1.81078 20.1313 1.89474 19.9023 1.98828C19.6955 2.07846 19.5909 2.14639 19.496 2.37695C19.5559 2.37487 19.616 2.37226 19.6777 2.37012C19.7797 2.36657 19.7798 2.36708 19.871 2.37695C19.9019 2.41022 19.933 2.44327 19.9648 2.47754C19.9571 2.56914 19.9571 2.56926 19.9355 2.67969C19.9096 2.87751 19.9288 2.98755 20.0087 3.16699C20.1526 3.51997 20.1908 3.92772 20.0732 4.29785C19.9896 4.5092 19.8865 4.70701 19.7773 4.9043C19.7187 5.00258 19.7184 5.00307 19.7548 5.10547C19.7688 5.14515 19.7834 5.18471 19.7978 5.22559C19.8202 5.29011 19.8198 5.29061 19.8427 5.35645C19.8587 5.40128 19.875 5.446 19.8915 5.49219C19.9153 5.5602 19.9151 5.56058 19.9394 5.62988C19.9787 5.74221 20.0186 5.85473 20.0585 5.9668C20.1022 5.94053 20.1463 5.91378 20.1913 5.88672C21.2613 5.25196 22.1805 5.12939 23.3886 5.15723C23.3911 5.125 23.3938 5.09278 23.3964 5.05957C23.4185 4.79799 23.4507 4.5477 23.5087 4.29199C23.5214 4.23555 23.5348 4.17827 23.5478 4.12012C23.5621 4.05821 23.5624 4.05762 23.5771 3.99414C23.6544 4.0108 23.7318 4.02776 23.8115 4.04492C23.8586 4.23551 23.9054 4.42647 23.9521 4.61719C23.9655 4.67128 23.9783 4.72552 23.9921 4.78125C24.0048 4.83313 24.0181 4.88503 24.0312 4.93848C24.0489 5.01031 24.0483 5.01083 24.0663 5.08398C24.0922 5.20786 24.0927 5.20806 24.0927 5.35938C24.1488 5.36876 24.2048 5.379 24.2626 5.38867C24.8527 5.53327 25.3233 5.91496 25.7812 6.32031C25.8592 6.38773 25.9374 6.45521 26.0156 6.52246C26.083 6.46459 26.1503 6.40658 26.2177 6.34863C26.2602 6.31226 26.3028 6.27575 26.3466 6.23828C26.4403 6.15651 26.5328 6.07324 26.624 5.98828C26.6689 5.9467 26.7144 5.90515 26.7607 5.8623C26.8021 5.82318 26.843 5.78347 26.8857 5.74316C27.0002 5.66287 27.0008 5.66299 27.1093 5.67578C27.1353 5.68823 27.1616 5.70104 27.1884 5.71387C27.1603 5.93623 27.1089 6.12909 27.0331 6.33789C27.0119 6.39759 26.9906 6.45802 26.9687 6.51953C26.9238 6.64434 26.8782 6.76891 26.8329 6.89355C26.8119 6.95307 26.7902 7.01291 26.7685 7.07422C26.7391 7.15553 26.7399 7.15631 26.7099 7.23926C26.6313 7.54467 26.8117 7.78486 26.9413 8.05078C27.0012 8.19107 27.0009 8.19134 27.0009 8.34277C27.0986 8.30598 27.1962 8.26925 27.2939 8.23242C27.3784 8.20057 27.4633 8.16847 27.5478 8.13672C27.7575 8.05783 27.9671 7.97871 28.1757 7.89648C28.2118 7.88236 28.2479 7.86806 28.2851 7.85352C28.354 7.8265 28.4234 7.79913 28.4921 7.77148C28.5726 7.7401 28.6543 7.71219 28.7363 7.68555C28.7672 7.70221 28.7982 7.71916 28.83 7.73633C28.8055 7.93349 28.7652 8.03468 28.6367 8.17676C28.5915 8.22755 28.5909 8.22748 28.5449 8.2793C28.5133 8.3138 28.4817 8.34824 28.4492 8.38379C28.3874 8.45252 28.3252 8.52195 28.2636 8.59082C28.2332 8.6246 28.2031 8.65856 28.1718 8.69336C28.0527 8.82915 27.9387 8.97026 27.8261 9.1123C27.7502 9.20416 27.6694 9.28815 27.5868 9.37305C27.5055 9.47664 27.4724 9.53208 27.4599 9.66797C27.4711 9.802 27.4919 9.93056 27.5165 10.0625C27.5325 10.1698 27.5482 10.2774 27.5634 10.3848C27.5711 10.4341 27.5789 10.4834 27.5868 10.5342C27.6504 11.0363 27.666 11.5369 27.6659 12.043C27.6661 12.15 27.667 12.2573 27.6679 12.3643C27.6696 12.8355 27.6325 13.2874 27.5634 13.7529C27.5331 13.7562 27.5028 13.7603 27.4716 13.7637C25.1518 14.0206 23.1233 14.9542 21.6064 16.9385C21.2694 17.4082 20.9543 17.8974 20.6689 18.4053C20.6003 18.3838 20.5311 18.3615 20.4628 18.3389C20.4248 18.3266 20.3867 18.3144 20.3476 18.3018C20.2461 18.2538 20.2461 18.2532 20.1523 18.1016C20.8827 16.5793 22.1147 15.4014 23.4824 14.5625C23.5607 14.5122 23.6397 14.461 23.7177 14.4102C22.9156 14.7281 22.1647 15.124 21.5126 15.7256C21.489 15.7469 21.4647 15.768 21.4404 15.79C20.9035 16.2775 20.4986 16.861 20.122 17.4961C20.0201 17.6666 19.9162 17.8131 19.7773 17.9502C18.5933 16.9791 18.08 15.1503 17.8798 13.6318C17.7046 12.1262 17.7225 10.4095 18.2128 8.96777C18.2869 8.73832 18.2927 8.53012 18.2851 8.28906C18.2841 8.23086 18.2841 8.23042 18.2831 8.1709C18.2815 8.07656 18.279 7.98201 18.2763 7.8877C18.2457 7.89004 18.215 7.89309 18.1835 7.89551C17.8532 7.91021 17.6966 7.84338 17.4433 7.60938C17.385 7.53393 17.3847 7.53334 17.3408 7.43555C17.2968 7.32438 17.2965 7.32422 17.1952 7.25684C17.0517 7.05739 17.0835 6.85593 17.0917 6.61133C17.0926 6.56401 17.0938 6.51653 17.0947 6.46777C17.0969 6.3512 17.0996 6.23469 17.1035 6.11816C17.0595 6.09491 17.0594 6.09501 17.0146 6.07129C16.9035 6.01041 16.8471 5.97582 16.7753 5.86523C16.7599 5.76187 16.7515 5.65897 16.7431 5.55469C16.7239 5.43225 16.6693 5.39372 16.5878 5.30957C16.583 5.25331 16.5782 5.19663 16.5732 5.13867C16.5363 4.9293 16.4875 4.9001 16.3359 4.77734C16.1283 4.57553 16.0396 4.31344 16.0019 4.02051C15.9875 3.60639 16.0553 3.27479 16.2031 2.89355C16.2624 2.72083 16.2841 2.55903 16.3056 2.37695C16.3287 2.35205 16.3291 2.35134 16.3525 2.32617C16.4622 2.3407 16.5725 2.35771 16.6816 2.37695C16.6971 2.3269 16.7125 2.27618 16.7285 2.22461C16.7746 2.19972 16.7749 2.19931 16.8222 2.17383C16.7962 2.0243 16.7645 1.88399 16.7226 1.73828C16.6437 1.39442 16.6654 1.04408 16.8339 0.736328C17.0596 0.398874 17.3418 0.248139 17.7128 0.151367C18.0024 0.125415 18.2736 0.138733 18.5576 0.202148C18.8294 0.228648 19.0239 0.210972 19.2617 0.0507812C19.2771 0.034134 19.2926 0.0171517 19.3085 0ZM21.9345 11.3262C21.5387 11.3041 21.1429 11.2473 20.8017 11.501C20.758 11.5402 20.7576 11.5406 20.7148 11.5791C20.656 11.631 20.5981 11.685 20.5419 11.7402C19.8744 12.5181 19.8745 12.5185 19.9179 14.5273C19.9326 15.2072 19.958 15.8616 19.7929 16.5234C19.7562 16.6667 19.7131 16.7493 19.7773 16.8877C20.0634 16.4997 20.3888 16.1112 20.5751 15.6543C20.5907 15.6095 20.6059 15.5659 20.621 15.5225C20.7611 15.1216 20.8599 14.7317 20.913 14.3066C20.9796 13.7467 21.042 13.2284 21.3867 12.7783C21.6595 12.4767 21.9069 12.4087 22.2939 12.3896C22.3494 12.3886 22.3498 12.3888 22.4042 12.3877C22.4042 12.2866 22.4033 12.2862 22.3603 12.1865C22.3401 12.1458 22.3213 12.1059 22.3017 12.0664C22.2799 12.0222 22.2584 11.9794 22.2372 11.9365C22.2142 11.8902 22.1913 11.8448 22.1689 11.7998C22.091 11.6418 22.0129 11.4839 21.9345 11.3262ZM22.2499 12.6885C22.0645 12.6856 21.942 12.7068 21.7812 12.8145C21.5121 13.0911 21.3722 13.3924 21.3027 13.7852C21.2542 14.0924 21.1934 14.393 21.123 14.6953C21.1096 14.7521 21.0959 14.8071 21.0829 14.8623C21.047 15.0157 21.0108 15.17 20.9745 15.3232C20.9666 15.3568 20.9588 15.3893 20.9511 15.4219C20.983 15.439 21.0139 15.456 21.0449 15.4727C22.0026 14.7295 22.0031 14.7293 23.0966 14.2285C23.1486 14.2045 23.1995 14.1815 23.2499 14.1582C23.1254 14.0741 23.061 14.0051 22.9843 13.8682C22.9591 13.8124 22.9346 13.7582 22.9101 13.7041C22.8689 13.6141 22.8276 13.524 22.787 13.4336C22.7589 13.3708 22.7305 13.3078 22.7021 13.2451C22.636 13.1003 22.5702 12.9548 22.5048 12.8096C22.4869 12.7695 22.4695 12.7303 22.4521 12.6914C22.4082 12.6905 22.408 12.6903 22.3652 12.6895C22.3072 12.6888 22.3068 12.6892 22.2499 12.6885ZM24.8974 8.44922C24.2094 7.99448 23.2861 7.69283 22.5898 8.29883C22.3251 8.57666 22.208 8.85003 22.1865 9.24707C22.1859 9.42133 22.1946 9.52047 22.1005 9.66406C22.0302 9.75884 22.0306 9.75959 22.0136 9.86426C22.0177 10.0418 22.0043 10.1346 22.1249 10.2646C22.237 9.972 22.3336 9.81111 22.5937 9.6582C22.5842 9.7773 22.5842 9.7776 22.5468 9.91113C22.4501 9.99958 22.4501 9.99958 22.3593 10.1133C22.3428 10.2663 22.3484 10.415 22.3593 10.5684H22.4999C22.5637 10.534 22.6256 10.5002 22.6874 10.4668C22.6715 10.7419 22.656 11.0094 22.6406 11.2764C22.8694 11.309 22.8694 11.3088 23.0156 11.4277C22.924 11.5264 22.8821 11.6067 22.8281 11.7314C22.9555 11.7658 23.0793 11.7987 23.2031 11.832C22.9901 11.8575 22.99 11.8578 22.7812 11.8828C22.7971 11.9515 22.8126 12.0183 22.8281 12.085C23.0412 12.0594 23.0412 12.0592 23.2499 12.0342C23.2063 12.1526 23.2065 12.1529 23.0595 12.2178C23.0127 12.2414 22.9672 12.2642 22.9218 12.2871C22.9365 12.4546 22.9364 12.4551 22.9687 12.6416C23.0272 12.7393 23.0274 12.7394 23.1093 12.793C23.2473 12.8056 23.3463 12.7924 23.4794 12.749C23.526 12.7297 23.572 12.7102 23.6171 12.6914C23.6641 12.6721 23.7102 12.6535 23.7558 12.6348C23.7912 12.6198 23.8259 12.6054 23.8603 12.5908C23.8329 12.6298 23.8058 12.6673 23.7792 12.7051C23.7438 12.7564 23.7101 12.8067 23.6757 12.8564C23.6097 12.9513 23.545 13.0475 23.4843 13.1465C23.4243 13.2898 23.4249 13.2902 23.4745 13.5127C23.493 13.5731 23.5103 13.6318 23.5283 13.6904C23.5601 13.7959 23.5931 13.9017 23.6259 14.0068C23.7193 14.0068 23.7196 14.0064 23.8749 13.9473C24.2893 13.7812 24.6992 13.6478 25.1308 13.5449C25.3662 13.489 25.5982 13.4208 25.83 13.3496C25.785 13.1975 25.7373 13.0485 25.6796 12.9014C25.6585 12.8512 25.6376 12.8026 25.6171 12.7539C25.5708 12.6426 25.525 12.5311 25.4784 12.4199C25.3335 12.0759 25.1973 11.7483 25.1269 11.377C25.2731 11.3675 25.2734 11.3672 25.455 11.3262C25.6492 11.2046 25.7677 11.056 25.83 10.8213C25.6426 10.8213 25.6423 10.8206 25.5136 10.8711C25.4778 10.8882 25.4429 10.9052 25.4081 10.9219V10.6191C25.2551 10.6643 25.2548 10.6644 25.1396 10.6768C24.9294 10.6219 24.929 10.6214 24.7607 10.4648C24.5276 10.241 24.2955 10.011 24.0273 9.83691C23.6796 9.664 23.2425 9.62324 22.8788 9.76074C22.8457 9.77749 22.8133 9.79331 22.7812 9.80957C22.7812 9.70871 22.781 9.70864 22.7109 9.60156C22.687 9.56945 22.6637 9.538 22.6406 9.50684C22.787 9.49258 22.9334 9.4792 23.08 9.46777C23.1378 9.46369 23.1939 9.46002 23.2499 9.45605C23.5495 9.43357 23.8244 9.44973 24.1171 9.52051C24.1522 9.52955 24.1866 9.53907 24.2206 9.54785C24.3402 9.57794 24.4475 9.61225 24.5634 9.6582C24.5793 9.70967 24.5948 9.75961 24.6103 9.80957C24.7736 10.0223 24.9899 10.197 25.2206 10.3154C25.4133 10.3471 25.6058 10.3602 25.7831 10.2646V10.1641C25.7315 10.105 25.6774 10.0482 25.622 9.99316C25.4992 9.87175 25.4251 9.79058 25.4081 9.60742C25.4716 9.51799 25.4717 9.51807 25.5488 9.45605L25.6923 9.53516C25.7378 9.56376 25.7817 9.59527 25.8261 9.63281C25.8552 9.66057 25.8838 9.6879 25.912 9.71484C25.9417 9.74289 25.9702 9.77063 25.999 9.79785C26.0211 9.81917 26.0429 9.83966 26.0644 9.86035C26.0703 9.74342 26.0703 9.74331 26.0644 9.60742C25.775 9.13966 25.3287 8.75812 24.8974 8.44922ZM26.1562 11.125C25.9697 11.1254 25.7727 11.4202 25.6874 11.5801C25.6498 11.8274 25.6685 11.9695 25.7812 12.1865C25.8874 12.3736 25.9826 12.5635 26.0732 12.7598C26.0907 12.798 26.1069 12.8359 26.124 12.873C26.157 12.9447 26.1906 13.0163 26.2236 13.0879C26.2486 13.1426 26.2734 13.196 26.2978 13.249H26.8134C26.8134 13.0973 26.8128 13.0971 26.7626 12.9805C26.4757 12.416 26.1969 11.8991 26.1572 11.248C26.1569 11.2062 26.1564 11.1656 26.1562 11.125ZM17.9482 4.24805C17.9335 4.36473 17.9335 4.36518 17.9482 4.50098C18.0578 4.67104 18.1219 4.70013 18.3124 4.74121C18.3641 4.74549 18.4146 4.74975 18.4648 4.75391C18.4602 5.0403 18.4608 5.32715 18.4736 5.61328C18.4906 5.80813 18.4888 5.845 18.6318 5.97656C18.6706 5.9905 18.7084 6.00405 18.746 6.01758C18.6522 6.11871 18.6518 6.11869 18.6445 6.2207C18.6466 6.26388 18.6493 6.30575 18.6513 6.34766C18.6534 6.39675 18.6551 6.44454 18.6572 6.49219C18.66 6.54565 18.6632 6.59752 18.666 6.64941C18.6711 6.76055 18.6763 6.87227 18.6816 6.9834C18.6903 7.15515 18.699 7.32722 18.707 7.49902C18.7193 7.77186 18.7318 8.04465 18.746 8.31738C18.7518 8.42694 18.7579 8.53692 18.7636 8.64648C18.7716 8.81452 18.7792 8.98338 18.788 9.15137C18.7909 9.20548 18.794 9.25802 18.7968 9.31055C18.8105 9.61831 18.8321 9.88618 18.9433 10.1719C18.9783 10.2605 19.0074 10.3521 19.0361 10.4434C19.0543 10.5041 19.0721 10.5632 19.0898 10.6221C19.1099 10.689 19.1303 10.7563 19.1503 10.8232C19.181 10.926 19.2122 11.0291 19.2431 11.1318C19.3528 11.4963 19.4582 11.8611 19.5527 12.2305C19.5966 12.4078 19.6108 12.5116 19.7314 12.6416C19.8359 12.3236 19.943 12.0078 20.0947 11.7119C20.329 11.3157 20.6326 11.1077 21.0507 10.9932C21.0803 10.9862 21.1089 10.9794 21.1376 10.9727V10.8721C20.9908 10.6047 20.9256 10.363 20.8827 10.0566C20.8385 9.68791 20.7349 9.35631 20.6132 9.00879C20.6002 8.97174 20.5878 8.93538 20.5751 8.89941C20.3714 8.31659 20.1639 7.73537 19.956 7.1543C19.8457 6.8466 19.7357 6.5386 19.6288 6.22949C19.566 6.04711 19.5024 5.86453 19.4384 5.68262C19.4087 5.5984 19.379 5.514 19.3495 5.42969C19.2739 5.20574 19.1994 4.98143 19.1093 4.76367C18.9543 4.4568 18.7702 4.3881 18.4736 4.28906C18.4158 4.27714 18.3597 4.26548 18.3036 4.25391C18.2016 4.23174 18.0982 4.21206 17.9951 4.19727C17.9791 4.21441 17.9636 4.23141 17.9482 4.24805ZM21.1845 9.30371C21.1689 9.50275 21.1555 9.66554 21.1845 9.86035C21.3014 10.022 21.3021 10.0216 21.748 10.2139C21.7799 10.0077 21.8108 9.80755 21.8417 9.60742C21.5101 9.45421 21.5096 9.45389 21.1845 9.30371ZM28.1728 8.29297C28.0322 8.24247 28.0324 8.24198 27.9091 8.28711C27.8589 8.31157 27.8104 8.33563 27.7617 8.35938C27.6783 8.39965 27.5947 8.43947 27.5117 8.48047C27.4682 8.50193 27.4683 8.50242 27.4257 8.52344C27.0132 8.72293 26.6059 8.93099 26.2031 9.15234C26.2968 9.40495 26.3906 9.65755 26.4843 9.91016C26.6275 9.86052 26.7179 9.80997 26.831 9.70117C26.9771 9.53506 27.1218 9.36735 27.2802 9.21484C27.5691 8.95229 27.5694 8.95233 28.1728 8.29297ZM26.2333 6.79199C26.1668 6.86346 26.1006 6.93539 26.0341 7.00684C25.9366 7.11133 25.8385 7.21563 25.7411 7.32031C25.7095 7.35438 25.6791 7.38783 25.6484 7.4209C25.4318 7.65243 25.2272 7.88949 25.0312 8.1416C25.0947 8.19488 25.1587 8.24797 25.2226 8.30078C25.2493 8.32284 25.2748 8.34479 25.3007 8.36621C25.4519 8.49353 25.5859 8.61922 25.7822 8.64746C25.8721 8.41625 25.9673 8.18872 26.0683 7.96289C26.1053 7.88033 26.1428 7.79752 26.1796 7.71484C26.2386 7.58209 26.2972 7.44908 26.3564 7.31641C26.4163 7.18296 26.4767 7.04974 26.5361 6.91602C26.5551 6.87309 26.5733 6.83073 26.5917 6.78906C26.6542 6.65091 26.7119 6.51427 26.7665 6.37207C26.7428 6.321 26.7429 6.32057 26.7197 6.27051C26.5575 6.44427 26.3953 6.61798 26.2333 6.79199ZM20.8105 6.21973C20.8105 6.32066 20.8109 6.32059 20.8681 6.42773C21.1075 6.83105 21.3298 7.24523 21.5497 7.66113C21.596 7.74917 21.5961 7.74951 21.6415 7.83594C21.6717 7.89282 21.7011 7.9487 21.7304 8.00391C21.8333 8.19924 21.9435 8.37334 22.0771 8.5459C22.1039 8.51447 22.1302 8.48363 22.1562 8.45312C22.1911 8.41164 22.2249 8.37132 22.2587 8.33105C22.3781 8.1899 22.4748 8.06427 22.5458 7.88867C22.1897 7.57192 21.8468 7.24175 21.5117 6.89941C21.2831 6.66588 21.0512 6.43869 20.8105 6.21973ZM23.6718 4.65234C23.5471 5.64544 23.4221 6.63688 23.3437 7.63574C23.6467 7.67013 23.9412 7.70296 24.2353 7.73633C24.1476 7.11126 24.062 6.4853 23.957 5.86328C23.9333 5.72377 23.91 5.58427 23.8886 5.44434C23.8823 5.40262 23.8761 5.36178 23.8701 5.32129C23.8578 5.24169 23.8451 5.16163 23.8329 5.08203C23.8144 4.95357 23.7928 4.83003 23.7656 4.70312C23.7337 4.68596 23.7027 4.66901 23.6718 4.65234ZM17.9169 5.42383C17.8802 5.45382 17.8442 5.48261 17.8085 5.51172C17.7666 5.53757 17.7252 5.5628 17.6845 5.58789C17.5476 5.74327 17.5481 5.74381 17.5556 6.07129C17.56 6.16044 17.5634 6.24965 17.5663 6.33887C17.5676 6.38234 17.569 6.4246 17.5702 6.4668C17.5734 6.53599 17.5754 6.60555 17.5742 6.6748C17.5583 6.69192 17.5427 6.70898 17.5273 6.72559C17.5254 6.80983 17.5253 6.89427 17.5273 6.97852C17.8299 6.92416 18.1187 6.88686 18.4179 6.97852C18.4889 7.00404 18.489 7.0043 18.5585 7.0293C18.5605 6.9282 18.5604 6.82669 18.5585 6.72559C18.4816 6.52231 18.4816 6.52212 18.4941 6.28027C18.4928 6.22419 18.4934 6.22386 18.4921 6.16895C18.4805 5.88385 18.4263 5.76645 18.2382 5.57715C18.2087 5.5507 18.18 5.5247 18.1513 5.49902C18.0997 5.45254 18.0479 5.40635 17.996 5.36035C17.9691 5.38184 17.943 5.40297 17.9169 5.42383ZM17.7607 4.39844C17.4954 4.36984 17.3273 4.4634 17.1035 4.60059V4.80273C17.0716 4.81991 17.0406 4.83685 17.0097 4.85352V5.15723C17.1518 5.18275 17.1518 5.183 17.291 5.20801C17.1945 5.29312 17.1943 5.29333 17.1035 5.41016C17.1035 5.54271 17.1034 5.54305 17.1503 5.66309C17.2469 5.72934 17.2472 5.72902 17.3378 5.76367C17.3664 5.6678 17.3665 5.66764 17.4316 5.56152C17.5273 5.49754 17.6213 5.43014 17.7128 5.35938C17.7188 5.31219 17.7256 5.2665 17.7314 5.2207C17.7254 5.18202 17.7186 5.14399 17.7128 5.10645C17.7766 5.08925 17.8394 5.07235 17.9013 5.05566V4.80273C17.7592 4.7772 17.7584 4.77796 17.6191 4.75293C17.6669 4.71855 17.7142 4.68474 17.7607 4.65137C17.7695 4.51883 17.7695 4.51847 17.7607 4.39844ZM18.538 3.67871C18.1186 3.46447 17.6619 3.5464 17.3398 3.89355C17.3222 4.06067 17.3222 4.06072 17.3398 4.19629C17.3867 4.17103 17.3873 4.17142 17.4335 4.14648C17.5473 4.07833 17.6375 4.03191 17.7617 3.99414C18.1418 3.94349 18.4258 3.98616 18.7587 4.19141C18.7863 4.21021 18.814 4.22882 18.8408 4.24707C18.8428 4.16286 18.8426 4.07835 18.8408 3.99414C18.7717 3.84057 18.6713 3.76382 18.538 3.67871ZM17.874 2.32031C17.6655 2.44196 17.6656 2.4418 17.4199 2.43066C17.2726 2.41981 17.2725 2.42005 17.1503 2.42773C17.1009 2.50772 17.0511 2.5878 16.998 2.66504C16.9131 2.74638 16.9127 2.7458 16.7665 2.74023C16.7217 2.73701 16.6773 2.73457 16.6337 2.73145C16.6203 2.95635 16.6066 3.1431 16.5136 3.34766C16.4908 3.39583 16.4684 3.4425 16.4462 3.48926C16.4271 3.69927 16.4299 3.76623 16.54 3.94434C16.5569 3.88224 16.5734 3.822 16.5898 3.76172C16.6966 3.46273 16.8641 3.31681 17.1249 3.17285C17.6249 2.9574 18.2748 2.94042 18.7841 3.13672C19.1276 3.28428 19.3776 3.40473 19.5331 3.7832C19.552 3.83783 19.5705 3.89132 19.5888 3.94434C19.6362 3.9188 19.6371 3.91956 19.6835 3.89453C19.6948 3.66688 19.694 3.49573 19.6122 3.28418C19.5575 3.14434 19.5323 3.03498 19.5331 2.88281C19.5376 2.80637 19.5376 2.80626 19.5419 2.73145H19.1201C19.0722 2.6111 19.0259 2.49376 18.9794 2.37695C18.9359 2.3819 18.8937 2.3868 18.8515 2.3916C18.7669 2.40018 18.7664 2.40078 18.6835 2.40918C18.5206 2.42932 18.5203 2.42893 18.3701 2.42773C18.2383 2.33303 18.1476 2.26408 17.9941 2.22559C17.9533 2.25776 17.9136 2.28908 17.874 2.32031ZM18.6171 0.619141C18.5514 0.621158 18.4856 0.623069 18.4199 0.625C18.3223 0.627337 18.2244 0.629802 18.1269 0.632812C18.0954 0.633818 18.0646 0.634766 18.0341 0.635742C17.9754 0.637376 17.9182 0.639039 17.8613 0.640625C17.6072 0.668301 17.4603 0.789246 17.3007 0.99707C17.1877 1.22505 17.2057 1.46958 17.2441 1.71875C17.3298 1.89323 17.3787 1.94852 17.5458 2.02246C17.666 2.02246 17.666 2.02181 17.7802 1.94922C17.9291 1.85136 18.0109 1.84256 18.1826 1.87012C18.2431 1.93961 18.3056 2.00796 18.3701 2.07324C18.4228 2.06895 18.4741 2.06472 18.5253 2.06055C18.5841 2.04766 18.6411 2.03497 18.6982 2.02246C18.7569 2.02568 18.814 2.02813 18.871 2.03125C19.0263 2.02178 19.0269 2.0225 19.1161 1.92773C19.2078 1.81637 19.2077 1.81565 19.3222 1.75977C19.3621 1.74324 19.4007 1.72698 19.4394 1.71094C19.5272 1.67293 19.6159 1.6357 19.704 1.59863C19.9419 1.50038 20.1741 1.42104 20.3466 1.21094C20.4521 1.0303 20.453 0.917556 20.4335 0.708008C19.8633 1.00789 19.8627 1.00722 19.2138 0.959961C19.2297 0.839769 19.2452 0.723109 19.2607 0.606445C19.054 0.606445 19.0537 0.606119 18.6171 0.619141Z" fill="#FEFEFE"/>
</svg>
