<svg width="126" height="32" viewBox="0 0 126 32" fill="none" xmlns="http://www.w3.org/2000/svg">
<rect width="126" height="32" rx="4" fill="#B87AFF" fill-opacity="0.03"/>
<path d="M24 22H22.544L16.688 13.12V22H15.232V10.832H16.688L22.544 19.696V10.832H24V22ZM33.074 19.52H28.21L27.314 22H25.778L29.81 10.912H31.49L35.506 22H33.97L33.074 19.52ZM32.658 18.336L30.642 12.704L28.626 18.336H32.658ZM44.1273 10.848V12.032H41.0873V22H39.6313V12.032H36.5753V10.848H44.1273ZM47.3755 10.848V22H45.9195V10.848H47.3755ZM54.913 22.112C53.8783 22.112 52.9343 21.872 52.081 21.392C51.2277 20.9013 50.5503 20.224 50.049 19.36C49.5583 18.4853 49.313 17.504 49.313 16.416C49.313 15.328 49.5583 14.352 50.049 13.488C50.5503 12.6133 51.2277 11.936 52.081 11.456C52.9343 10.9653 53.8783 10.72 54.913 10.72C55.9583 10.72 56.9077 10.9653 57.761 11.456C58.6143 11.936 59.2863 12.608 59.777 13.472C60.2677 14.336 60.513 15.3173 60.513 16.416C60.513 17.5147 60.2677 18.496 59.777 19.36C59.2863 20.224 58.6143 20.9013 57.761 21.392C56.9077 21.872 55.9583 22.112 54.913 22.112ZM54.913 20.848C55.6917 20.848 56.3903 20.6667 57.009 20.304C57.6383 19.9413 58.129 19.424 58.481 18.752C58.8437 18.08 59.025 17.3013 59.025 16.416C59.025 15.52 58.8437 14.7413 58.481 14.08C58.129 13.408 57.6437 12.8907 57.025 12.528C56.4063 12.1653 55.7023 11.984 54.913 11.984C54.1237 11.984 53.4197 12.1653 52.801 12.528C52.1823 12.8907 51.6917 13.408 51.329 14.08C50.977 14.7413 50.801 15.52 50.801 16.416C50.801 17.3013 50.977 18.08 51.329 18.752C51.6917 19.424 52.1823 19.9413 52.801 20.304C53.4303 20.6667 54.1343 20.848 54.913 20.848ZM71.2031 22H69.7471L63.8911 13.12V22H62.4351V10.832H63.8911L69.7471 19.696V10.832H71.2031V22ZM87.7011 10.848L84.4691 22H82.8371L80.2451 13.024L77.5571 22L75.9411 22.016L72.8211 10.848H74.3731L76.8051 20.304L79.4931 10.848H81.1251L83.6851 20.272L86.1331 10.848H87.7011ZM90.7505 10.848V22H89.2945V10.848H90.7505ZM96.704 10.848C97.92 10.848 98.9707 11.0773 99.856 11.536C100.752 11.984 101.435 12.6293 101.904 13.472C102.384 14.3147 102.624 15.3067 102.624 16.448C102.624 17.5893 102.384 18.5813 101.904 19.424C101.435 20.256 100.752 20.896 99.856 21.344C98.9707 21.7813 97.92 22 96.704 22H93.232V10.848H96.704ZM96.704 20.8C98.144 20.8 99.2427 20.4213 100 19.664C100.757 18.896 101.136 17.824 101.136 16.448C101.136 15.0613 100.752 13.9787 99.984 13.2C99.2267 12.4213 98.1333 12.032 96.704 12.032H94.688V20.8H96.704ZM106.001 12.032V15.76H110.065V16.96H106.001V20.8H110.545V22H104.545V10.832H110.545V12.032H106.001Z" fill="white"/>
</svg>
