<svg width="564" height="509" viewBox="0 0 564 509" fill="none" xmlns="http://www.w3.org/2000/svg">
<circle cx="266.666" cy="249.477" r="179.983" fill="#E0E0E0" fill-opacity="0.13"/>
<circle cx="266.666" cy="249.477" r="179.399" stroke="#5B35E0" stroke-opacity="0.05" stroke-width="1.16771"/>
<circle cx="266.668" cy="249.492" r="113.813" fill="#E0DCFF"/>
<circle cx="266.668" cy="249.492" r="113.229" stroke="#5B35E0" stroke-opacity="0.05" stroke-width="1.16771"/>
<rect x="229.812" y="211.941" width="71.8866" height="71.8866" rx="35.9433" fill="url(#paint0_linear_985_14110)"/>
<path d="M250.783 256.385H247.571L253.418 239.776H257.132L262.987 256.385H259.776L255.34 243.182H255.21L250.783 256.385ZM250.888 249.873H259.646V252.289H250.888V249.873ZM265.175 256.385V239.776H271.403C272.679 239.776 273.75 240.014 274.615 240.49C275.485 240.966 276.142 241.62 276.585 242.453C277.034 243.28 277.258 244.22 277.258 245.275C277.258 246.34 277.034 247.286 276.585 248.113C276.136 248.94 275.474 249.592 274.598 250.067C273.722 250.538 272.644 250.773 271.363 250.773H267.235V248.3H270.957C271.703 248.3 272.314 248.17 272.79 247.91C273.266 247.651 273.617 247.294 273.844 246.84C274.077 246.386 274.193 245.864 274.193 245.275C274.193 244.685 274.077 244.166 273.844 243.718C273.617 243.269 273.263 242.92 272.782 242.671C272.306 242.417 271.692 242.29 270.941 242.29H268.184V256.385H265.175ZM282.88 239.776V256.385H279.872V239.776H282.88Z" fill="white"/>
<circle cx="292.388" cy="71.6045" r="8.46978" fill="#D5C6FF"/>
<circle cx="95.4659" cy="304.528" r="8.46978" fill="#D5C6FF"/>
<circle cx="226.755" cy="355.331" r="6.35234" fill="#D5C6FF"/>
<circle cx="353.793" cy="406.163" r="4.23489" fill="#D5C6FF"/>
<circle cx="443.786" cy="227.225" r="5.29361" fill="#D5C6FF"/>
<path d="M135.711 118.191C155.981 118.191 172.413 134.624 172.413 154.894V210.42C172.413 217.264 174.315 223.973 177.905 229.799C184.63 240.71 196.531 247.356 209.349 247.356H218.291" stroke="#33259F" stroke-width="1.05872" stroke-linecap="round" stroke-dasharray="4.23 4.23"/>
<path d="M394.039 118.191C373.769 118.191 357.337 134.624 357.337 154.894V210.42C357.337 217.264 355.435 223.973 351.845 229.799C345.12 240.71 333.219 247.356 320.401 247.356H311.459" stroke="#33259F" stroke-width="1.05872" stroke-linecap="round" stroke-dasharray="4.23 4.23"/>
<path d="M135.711 376.531C155.981 376.531 172.413 360.099 172.413 339.829V284.303C172.413 277.459 174.315 270.75 177.905 264.924C184.63 254.012 196.531 247.367 209.349 247.367H218.291" stroke="#33259F" stroke-width="1.05872" stroke-linecap="round" stroke-dasharray="4.23 4.23"/>
<path d="M394.039 376.531C373.769 376.531 357.337 360.099 357.337 339.829V284.303C357.337 277.459 355.435 270.75 351.845 264.924C345.12 254.012 333.219 247.367 320.401 247.367H311.459" stroke="#33259F" stroke-width="1.05872" stroke-linecap="round" stroke-dasharray="4.23 4.23"/>
<g filter="url(#filter0_d_985_14110)">
<rect x="61.0039" y="325.822" width="74.7087" height="86.7585" rx="18.6833" fill="white" shape-rendering="crispEdges"/>
<path d="M99.5284 371.5H90.1867C87.8513 371.5 86.6836 370.333 86.6836 367.997V358.655C86.6836 356.32 87.8513 355.152 90.1867 355.152H96.0253V367.997C96.0253 370.333 97.193 371.5 99.5284 371.5Z" stroke="#72AF23" stroke-width="1.86833" stroke-miterlimit="10" stroke-linecap="round" stroke-linejoin="round"/>
<path d="M96.1545 350.486C96.0611 350.837 96.026 351.222 96.026 351.654V355.157H90.1875V352.822C90.1875 351.537 91.2384 350.486 92.5229 350.486H96.1545Z" stroke="#72AF23" stroke-width="1.86833" stroke-miterlimit="10" stroke-linecap="round" stroke-linejoin="round"/>
<path d="M100.698 355.152V360.991" stroke="#72AF23" stroke-width="1.86833" stroke-miterlimit="10" stroke-linecap="round" stroke-linejoin="round"/>
<path d="M105.366 355.152V360.991" stroke="#72AF23" stroke-width="1.86833" stroke-miterlimit="10" stroke-linecap="round" stroke-linejoin="round"/>
<path d="M104.201 365.664H101.866C101.224 365.664 100.698 366.19 100.698 366.832V371.503H105.369V366.832C105.369 366.19 104.844 365.664 104.201 365.664Z" stroke="#72AF23" stroke-width="1.86833" stroke-miterlimit="10" stroke-linecap="round" stroke-linejoin="round"/>
<path d="M91.3555 360.988V365.659" stroke="#72AF23" stroke-width="1.86833" stroke-miterlimit="10" stroke-linecap="round" stroke-linejoin="round"/>
<path d="M96.0254 367.996V351.648C96.0254 349.312 97.1931 348.145 99.5285 348.145H106.535C108.87 348.145 110.038 349.312 110.038 351.648V367.996C110.038 370.331 108.87 371.499 106.535 371.499H99.5285C97.1931 371.499 96.0254 370.331 96.0254 367.996Z" stroke="#72AF23" stroke-width="1.86833" stroke-miterlimit="10" stroke-linecap="round" stroke-linejoin="round"/>
<path d="M74.9736 392.586V384.094H78.0007C78.6614 384.094 79.2088 384.214 79.6428 384.454C80.0768 384.695 80.4017 385.024 80.6173 385.441C80.8329 385.856 80.9407 386.323 80.9407 386.843C80.9407 387.365 80.8315 387.835 80.6131 388.253C80.3975 388.667 80.0713 388.996 79.6345 389.24C79.2005 389.48 78.6545 389.6 77.9966 389.6H75.9149V388.514H77.8805C78.2979 388.514 78.6366 388.442 78.8964 388.298C79.1563 388.152 79.347 387.953 79.4687 387.701C79.5903 387.45 79.6511 387.163 79.6511 386.843C79.6511 386.522 79.5903 386.237 79.4687 385.989C79.347 385.74 79.1549 385.545 78.8923 385.404C78.6324 385.263 78.2896 385.192 77.8639 385.192H76.255V392.586H74.9736ZM82.3434 392.586V386.217H83.5417V387.228H83.6081C83.7242 386.886 83.9288 386.616 84.2218 386.42C84.5176 386.221 84.8521 386.121 85.2253 386.121C85.3027 386.121 85.3939 386.124 85.499 386.13C85.6068 386.135 85.6911 386.142 85.7519 386.15V387.336C85.7022 387.322 85.6137 387.307 85.4865 387.291C85.3594 387.271 85.2322 387.262 85.105 387.262C84.812 387.262 84.5508 387.324 84.3213 387.448C84.0946 387.57 83.9149 387.74 83.7823 387.958C83.6496 388.174 83.5832 388.42 83.5832 388.696V392.586H82.3434ZM89.2797 392.714C88.6826 392.714 88.1615 392.578 87.7164 392.304C87.2714 392.03 86.9258 391.647 86.6798 391.155C86.4337 390.663 86.3107 390.088 86.3107 389.43C86.3107 388.77 86.4337 388.192 86.6798 387.697C86.9258 387.202 87.2714 386.818 87.7164 386.544C88.1615 386.271 88.6826 386.134 89.2797 386.134C89.8769 386.134 90.398 386.271 90.843 386.544C91.2881 386.818 91.6337 387.202 91.8797 387.697C92.1257 388.192 92.2488 388.77 92.2488 389.43C92.2488 390.088 92.1257 390.663 91.8797 391.155C91.6337 391.647 91.2881 392.03 90.843 392.304C90.398 392.578 89.8769 392.714 89.2797 392.714ZM89.2839 391.674C89.6709 391.674 89.9916 391.571 90.2459 391.367C90.5002 391.162 90.6882 390.89 90.8099 390.55C90.9343 390.21 90.9965 389.835 90.9965 389.426C90.9965 389.02 90.9343 388.647 90.8099 388.307C90.6882 387.964 90.5002 387.689 90.2459 387.481C89.9916 387.274 89.6709 387.17 89.2839 387.17C88.8941 387.17 88.5706 387.274 88.3136 387.481C88.0592 387.689 87.8699 387.964 87.7455 388.307C87.6238 388.647 87.563 389.02 87.563 389.426C87.563 389.835 87.6238 390.21 87.7455 390.55C87.8699 390.89 88.0592 391.162 88.3136 391.367C88.5706 391.571 88.8941 391.674 89.2839 391.674ZM93.6327 394.974V386.217H94.8436V387.249H94.9472C95.0191 387.116 95.1228 386.963 95.2582 386.789C95.3937 386.615 95.5817 386.463 95.8222 386.333C96.0627 386.2 96.3806 386.134 96.7759 386.134C97.2901 386.134 97.749 386.264 98.1526 386.523C98.5562 386.783 98.8728 387.158 99.1022 387.647C99.3344 388.137 99.4505 388.725 99.4505 389.414C99.4505 390.102 99.3358 390.692 99.1064 391.184C98.8769 391.674 98.5618 392.051 98.1609 392.316C97.7601 392.579 97.3025 392.71 96.7884 392.71C96.4013 392.71 96.0848 392.645 95.8388 392.515C95.5955 392.386 95.4047 392.233 95.2665 392.059C95.1283 391.885 95.0219 391.73 94.9472 391.595H94.8726V394.974H93.6327ZM94.8477 389.401C94.8477 389.849 94.9127 390.242 95.0426 390.579C95.1725 390.916 95.3605 391.18 95.6065 391.371C95.8526 391.559 96.1539 391.653 96.5105 391.653C96.881 391.653 97.1906 391.555 97.4394 391.359C97.6882 391.159 97.8762 390.89 98.0033 390.55C98.1333 390.21 98.1982 389.827 98.1982 389.401C98.1982 388.981 98.1346 388.604 98.0075 388.269C97.8831 387.935 97.6951 387.671 97.4435 387.477C97.1947 387.284 96.8837 387.187 96.5105 387.187C96.1511 387.187 95.8471 387.28 95.5983 387.465C95.3522 387.65 95.1656 387.908 95.0385 388.24C94.9113 388.572 94.8477 388.959 94.8477 389.401ZM103.585 392.714C102.957 392.714 102.417 392.58 101.963 392.312C101.513 392.041 101.164 391.661 100.918 391.172C100.675 390.68 100.554 390.103 100.554 389.443C100.554 388.79 100.675 388.215 100.918 387.718C101.164 387.22 101.507 386.832 101.947 386.552C102.389 386.273 102.906 386.134 103.498 386.134C103.857 386.134 104.205 386.193 104.543 386.312C104.88 386.431 105.183 386.617 105.451 386.872C105.719 387.126 105.93 387.456 106.085 387.863C106.24 388.266 106.317 388.757 106.317 389.335V389.774H101.254V388.846H105.102C105.102 388.519 105.036 388.231 104.903 387.979C104.771 387.725 104.584 387.524 104.344 387.378C104.106 387.231 103.827 387.158 103.506 387.158C103.158 387.158 102.854 387.244 102.594 387.415C102.337 387.584 102.138 387.805 101.997 388.078C101.858 388.349 101.789 388.644 101.789 388.962V389.687C101.789 390.113 101.864 390.475 102.013 390.774C102.165 391.072 102.377 391.3 102.648 391.458C102.919 391.613 103.235 391.69 103.597 391.69C103.832 391.69 104.046 391.657 104.24 391.591C104.433 391.522 104.601 391.419 104.742 391.284C104.883 391.148 104.991 390.981 105.065 390.782L106.239 390.994C106.145 391.339 105.976 391.642 105.733 391.902C105.492 392.159 105.19 392.359 104.825 392.503C104.463 392.644 104.049 392.714 103.585 392.714ZM107.693 392.586V386.217H108.892V387.228H108.958C109.074 386.886 109.279 386.616 109.572 386.42C109.867 386.221 110.202 386.121 110.575 386.121C110.652 386.121 110.744 386.124 110.849 386.13C110.957 386.135 111.041 386.142 111.102 386.15V387.336C111.052 387.322 110.963 387.307 110.836 387.291C110.709 387.271 110.582 387.262 110.455 387.262C110.162 387.262 109.901 387.324 109.671 387.448C109.444 387.57 109.265 387.74 109.132 387.958C108.999 388.174 108.933 388.42 108.933 388.696V392.586H107.693ZM115.524 386.217V387.212H112.045V386.217H115.524ZM112.978 384.691H114.218V390.716C114.218 390.956 114.254 391.137 114.326 391.259C114.398 391.378 114.49 391.459 114.604 391.504C114.72 391.545 114.845 391.566 114.981 391.566C115.08 391.566 115.168 391.559 115.242 391.545C115.317 391.531 115.375 391.52 115.416 391.512L115.64 392.536C115.568 392.564 115.466 392.591 115.333 392.619C115.201 392.65 115.035 392.666 114.836 392.669C114.51 392.674 114.206 392.616 113.924 392.495C113.642 392.373 113.413 392.185 113.239 391.931C113.065 391.676 112.978 391.357 112.978 390.973V384.691ZM117.679 394.974C117.494 394.974 117.326 394.959 117.174 394.929C117.021 394.901 116.908 394.871 116.833 394.838L117.132 393.822C117.359 393.882 117.561 393.909 117.737 393.9C117.914 393.892 118.071 393.826 118.206 393.701C118.344 393.577 118.466 393.374 118.571 393.092L118.724 392.669L116.394 386.217H117.721L119.334 391.159H119.4L121.013 386.217H122.344L119.72 393.436C119.598 393.768 119.443 394.048 119.255 394.278C119.067 394.51 118.843 394.684 118.583 394.8C118.324 394.916 118.022 394.974 117.679 394.974Z" fill="#111827" fill-opacity="0.6"/>
</g>
<g filter="url(#filter1_d_985_14110)">
<rect x="395.988" y="325.822" width="74.7087" height="86.7585" rx="18.6833" fill="white" shape-rendering="crispEdges"/>
<path d="M426.855 348.145H439.828C443.985 348.145 445.024 349.184 445.024 353.329V360.721C445.024 364.878 443.985 365.905 439.839 365.905H426.855C422.709 365.917 421.67 364.878 421.67 360.732V353.329C421.67 349.184 422.709 348.145 426.855 348.145Z" stroke="#1B78FB" stroke-width="1.86833" stroke-linecap="round" stroke-linejoin="round"/>
<path d="M433.348 365.916V371.498" stroke="#1B78FB" stroke-width="1.86833" stroke-linecap="round" stroke-linejoin="round"/>
<path d="M421.67 360.988H445.024" stroke="#1B78FB" stroke-width="1.86833" stroke-linecap="round" stroke-linejoin="round"/>
<path d="M428.094 371.5H438.603" stroke="#1B78FB" stroke-width="1.86833" stroke-linecap="round" stroke-linejoin="round"/>
<path d="M422.297 392.586V384.094H425.324C425.984 384.094 426.532 384.214 426.966 384.454C427.4 384.695 427.725 385.024 427.94 385.441C428.156 385.856 428.264 386.323 428.264 386.843C428.264 387.365 428.155 387.835 427.936 388.253C427.72 388.667 427.394 388.996 426.958 389.24C426.523 389.48 425.978 389.6 425.32 389.6H423.238V388.514H425.203C425.621 388.514 425.96 388.442 426.219 388.298C426.479 388.152 426.67 387.953 426.792 387.701C426.913 387.45 426.974 387.163 426.974 386.843C426.974 386.522 426.913 386.237 426.792 385.989C426.67 385.74 426.478 385.545 426.215 385.404C425.955 385.263 425.613 385.192 425.187 385.192H423.578V392.586H422.297ZM437.143 388.34C437.143 389.246 436.977 390.026 436.645 390.678C436.313 391.328 435.859 391.828 435.281 392.18C434.706 392.528 434.052 392.702 433.32 392.702C432.584 392.702 431.928 392.528 431.35 392.18C430.775 391.828 430.322 391.327 429.99 390.674C429.658 390.022 429.492 389.244 429.492 388.34C429.492 387.433 429.658 386.655 429.99 386.005C430.322 385.353 430.775 384.852 431.35 384.504C431.928 384.153 432.584 383.977 433.32 383.977C434.052 383.977 434.706 384.153 435.281 384.504C435.859 384.852 436.313 385.353 436.645 386.005C436.977 386.655 437.143 387.433 437.143 388.34ZM435.874 388.34C435.874 387.649 435.762 387.067 435.538 386.594C435.317 386.118 435.013 385.759 434.626 385.516C434.242 385.27 433.806 385.147 433.32 385.147C432.83 385.147 432.393 385.27 432.009 385.516C431.625 385.759 431.321 386.118 431.097 386.594C430.876 387.067 430.765 387.649 430.765 388.34C430.765 389.031 430.876 389.614 431.097 390.09C431.321 390.562 431.625 390.922 432.009 391.168C432.393 391.411 432.83 391.533 433.32 391.533C433.806 391.533 434.242 391.411 434.626 391.168C435.013 390.922 435.317 390.562 435.538 390.09C435.762 389.614 435.874 389.031 435.874 388.34ZM443.372 386.324C443.328 385.932 443.146 385.628 442.825 385.412C442.504 385.194 442.101 385.085 441.614 385.085C441.266 385.085 440.964 385.14 440.71 385.25C440.456 385.358 440.258 385.508 440.117 385.698C439.979 385.886 439.91 386.101 439.91 386.341C439.91 386.543 439.957 386.717 440.051 386.864C440.147 387.01 440.273 387.133 440.428 387.233C440.586 387.329 440.754 387.411 440.934 387.477C441.114 387.541 441.286 387.593 441.452 387.635L442.282 387.85C442.553 387.917 442.83 388.007 443.115 388.12C443.4 388.233 443.664 388.383 443.907 388.568C444.15 388.753 444.347 388.982 444.496 389.256C444.648 389.53 444.724 389.857 444.724 390.239C444.724 390.72 444.6 391.147 444.351 391.52C444.105 391.893 443.747 392.188 443.277 392.403C442.81 392.619 442.244 392.727 441.581 392.727C440.945 392.727 440.395 392.626 439.93 392.424C439.466 392.222 439.102 391.936 438.84 391.566C438.577 391.193 438.432 390.75 438.404 390.239H439.69C439.715 390.546 439.814 390.801 439.988 391.006C440.165 391.208 440.391 391.359 440.664 391.458C440.941 391.555 441.244 391.603 441.573 391.603C441.935 391.603 442.257 391.546 442.539 391.433C442.823 391.317 443.047 391.157 443.21 390.952C443.374 390.745 443.455 390.503 443.455 390.226C443.455 389.975 443.383 389.769 443.239 389.609C443.099 389.448 442.906 389.316 442.663 389.211C442.423 389.105 442.15 389.013 441.846 388.933L440.843 388.659C440.163 388.474 439.624 388.202 439.226 387.842C438.83 387.483 438.633 387.007 438.633 386.416C438.633 385.926 438.765 385.499 439.031 385.134C439.296 384.769 439.655 384.486 440.109 384.284C440.562 384.08 441.074 383.977 441.643 383.977C442.218 383.977 442.725 384.078 443.165 384.28C443.607 384.482 443.955 384.76 444.21 385.114C444.464 385.465 444.597 385.868 444.608 386.324H443.372Z" fill="#111827" fill-opacity="0.6"/>
</g>
<g filter="url(#filter2_d_985_14110)">
<rect x="61.0039" y="58.3184" width="74.7087" height="86.7585" rx="18.6833" fill="white" shape-rendering="crispEdges"/>
<path d="M105.368 86.6914C105.298 86.6797 105.216 86.6797 105.146 86.6914C103.534 86.633 102.25 85.3135 102.25 83.6787C102.25 82.0089 103.593 80.666 105.263 80.666C106.933 80.666 108.275 82.0206 108.275 83.6787C108.264 85.3135 106.979 86.633 105.368 86.6914Z" stroke="#5B35E0" stroke-width="2.33542" stroke-linecap="round" stroke-linejoin="round"/>
<path d="M104.165 95.1945C105.765 95.463 107.528 95.1828 108.766 94.3537C110.412 93.2561 110.412 91.4578 108.766 90.3601C107.516 89.5311 105.73 89.2508 104.13 89.5311" stroke="#5B35E0" stroke-width="2.33542" stroke-linecap="round" stroke-linejoin="round"/>
<path d="M91.3178 86.6914C91.3878 86.6797 91.4696 86.6797 91.5396 86.6914C93.1511 86.633 94.4355 85.3135 94.4355 83.6787C94.4355 82.0089 93.0927 80.666 91.4228 80.666C89.753 80.666 88.4102 82.0206 88.4102 83.6787C88.4218 85.3135 89.7063 86.633 91.3178 86.6914Z" stroke="#5B35E0" stroke-width="2.33542" stroke-linecap="round" stroke-linejoin="round"/>
<path d="M92.5221 95.1945C90.9224 95.463 89.1591 95.1828 87.9214 94.3537C86.2749 93.2561 86.2749 91.4578 87.9214 90.3601C89.1708 89.5311 90.9574 89.2508 92.5572 89.5311" stroke="#5B35E0" stroke-width="2.33542" stroke-linecap="round" stroke-linejoin="round"/>
<path d="M98.36 95.4141C98.2899 95.4024 98.2082 95.4024 98.1381 95.4141C96.5267 95.3557 95.2422 94.0362 95.2422 92.4014C95.2422 90.7315 96.5851 89.3887 98.2549 89.3887C99.9247 89.3887 101.268 90.7432 101.268 92.4014C101.256 94.0362 99.9714 95.3673 98.36 95.4141Z" stroke="#5B35E0" stroke-width="2.33542" stroke-linecap="round" stroke-linejoin="round"/>
<path d="M94.9614 99.0846C93.3149 100.182 93.3149 101.98 94.9614 103.078C96.8297 104.328 99.8891 104.328 101.757 103.078C103.404 101.98 103.404 100.182 101.757 99.0846C99.9008 97.8468 96.8297 97.8468 94.9614 99.0846Z" stroke="#5B35E0" stroke-width="2.33542" stroke-linecap="round" stroke-linejoin="round"/>
<path d="M91.1951 125.082V116.59H92.4764V120.28H96.7102V116.59H97.9957V125.082H96.7102V121.379H92.4764V125.082H91.1951ZM99.8617 125.082V116.59H102.889C103.547 116.59 104.093 116.703 104.527 116.93C104.964 117.156 105.29 117.47 105.505 117.871C105.721 118.269 105.829 118.729 105.829 119.252C105.829 119.771 105.72 120.229 105.501 120.624C105.286 121.017 104.959 121.322 104.523 121.541C104.089 121.759 103.543 121.868 102.885 121.868H100.592V120.765H102.769C103.183 120.765 103.52 120.706 103.78 120.587C104.043 120.468 104.235 120.295 104.357 120.069C104.478 119.842 104.539 119.57 104.539 119.252C104.539 118.931 104.477 118.653 104.353 118.418C104.231 118.183 104.039 118.004 103.776 117.879C103.516 117.752 103.175 117.688 102.752 117.688H101.143V125.082H99.8617ZM104.054 121.25L106.152 125.082H104.693L102.636 121.25H104.054Z" fill="#111827" fill-opacity="0.6"/>
</g>
<g filter="url(#filter3_d_985_14110)">
<rect x="395.988" y="58.3184" width="74.7087" height="86.7585" rx="18.6833" fill="white" shape-rendering="crispEdges"/>
<path d="M436.85 80.666V92.3431C436.85 93.6276 435.799 94.6785 434.515 94.6785H421.67V87.2285C422.522 88.2444 423.83 88.875 425.278 88.84C426.458 88.8166 427.52 88.3612 428.314 87.6022C428.676 87.2986 428.98 86.9132 429.213 86.4929C429.634 85.7806 429.867 84.9398 429.844 84.064C429.809 82.6978 429.202 81.4951 428.256 80.666H436.85Z" stroke="#B87AFF" stroke-width="1.86833" stroke-linecap="round" stroke-linejoin="round"/>
<path d="M445.024 94.6793V98.1824C445.024 100.121 443.459 101.686 441.521 101.686H440.353C440.353 100.401 439.302 99.3501 438.018 99.3501C436.733 99.3501 435.682 100.401 435.682 101.686H431.012C431.012 100.401 429.961 99.3501 428.676 99.3501C427.392 99.3501 426.341 100.401 426.341 101.686H425.173C423.235 101.686 421.67 100.121 421.67 98.1824V94.6793H434.515C435.799 94.6793 436.85 93.6284 436.85 92.3439V84.1699H438.999C439.84 84.1699 440.61 84.6253 441.031 85.3493L443.027 88.8408H441.521C440.879 88.8408 440.353 89.3662 440.353 90.0085V93.5116C440.353 94.1538 440.879 94.6793 441.521 94.6793H445.024Z" stroke="#B87AFF" stroke-width="1.86833" stroke-linecap="round" stroke-linejoin="round"/>
<path d="M428.678 104.026C429.968 104.026 431.014 102.981 431.014 101.691C431.014 100.401 429.968 99.3555 428.678 99.3555C427.388 99.3555 426.343 100.401 426.343 101.691C426.343 102.981 427.388 104.026 428.678 104.026Z" stroke="#B87AFF" stroke-width="1.86833" stroke-linecap="round" stroke-linejoin="round"/>
<path d="M438.018 104.026C439.308 104.026 440.353 102.981 440.353 101.691C440.353 100.401 439.308 99.3555 438.018 99.3555C436.728 99.3555 435.683 100.401 435.683 101.691C435.683 102.981 436.728 104.026 438.018 104.026Z" stroke="#B87AFF" stroke-width="1.86833" stroke-linecap="round" stroke-linejoin="round"/>
<path d="M445.023 92.3488V94.6842H441.52C440.878 94.6842 440.353 94.1588 440.353 93.5165V90.0134C440.353 89.3712 440.878 88.8457 441.52 88.8457H443.027L445.023 92.3488Z" stroke="#B87AFF" stroke-width="1.86833" stroke-linecap="round" stroke-linejoin="round"/>
<path d="M429.842 84.0666C429.865 84.9424 429.632 85.7831 429.211 86.4954C428.978 86.9158 428.674 87.3012 428.312 87.6048C427.518 88.3638 426.456 88.8192 425.276 88.8426C423.828 88.8776 422.521 88.247 421.668 87.2311C421.505 87.0559 421.364 86.8575 421.236 86.6589C420.781 85.97 420.524 85.1526 420.5 84.2768C420.465 82.8055 421.119 81.4626 422.17 80.5868C422.964 79.9329 423.968 79.5242 425.066 79.5009C426.292 79.4775 427.413 79.9213 428.254 80.6686C429.2 81.4977 429.807 82.7004 429.842 84.0666Z" stroke="#B87AFF" stroke-width="1.86833" stroke-miterlimit="10" stroke-linecap="round" stroke-linejoin="round"/>
<path d="M423.353 84.1988L424.532 85.3197L426.972 82.9609" stroke="#B87AFF" stroke-width="1.86833" stroke-linecap="round" stroke-linejoin="round"/>
<path d="M420.375 125.082V116.59H425.641V117.693H421.656V120.28H425.264V121.379H421.656V125.082H420.375ZM428.357 116.59V125.082H427.118V116.59H428.357ZM432.771 125.211C432.143 125.211 431.603 125.077 431.149 124.808C430.699 124.537 430.35 124.157 430.104 123.668C429.861 123.176 429.739 122.6 429.739 121.939C429.739 121.286 429.861 120.711 430.104 120.214C430.35 119.716 430.693 119.328 431.133 119.049C431.575 118.769 432.092 118.63 432.683 118.63C433.043 118.63 433.391 118.689 433.728 118.808C434.066 118.927 434.368 119.114 434.637 119.368C434.905 119.622 435.116 119.953 435.271 120.359C435.426 120.763 435.503 121.253 435.503 121.831V122.271H430.44V121.342H434.288C434.288 121.016 434.222 120.727 434.089 120.475C433.956 120.221 433.77 120.02 433.529 119.874C433.292 119.727 433.012 119.654 432.692 119.654C432.343 119.654 432.039 119.74 431.779 119.911C431.522 120.08 431.323 120.301 431.182 120.575C431.044 120.845 430.975 121.14 430.975 121.458V122.183C430.975 122.609 431.05 122.971 431.199 123.27C431.351 123.568 431.562 123.797 431.833 123.954C432.104 124.109 432.421 124.186 432.783 124.186C433.018 124.186 433.232 124.153 433.426 124.087C433.619 124.018 433.786 123.915 433.927 123.78C434.068 123.645 434.176 123.477 434.251 123.278L435.424 123.49C435.33 123.835 435.162 124.138 434.919 124.398C434.678 124.655 434.375 124.855 434.01 124.999C433.648 125.14 433.235 125.211 432.771 125.211ZM439.624 125.211C438.996 125.211 438.456 125.077 438.003 124.808C437.552 124.537 437.204 124.157 436.958 123.668C436.714 123.176 436.593 122.6 436.593 121.939C436.593 121.286 436.714 120.711 436.958 120.214C437.204 119.716 437.546 119.328 437.986 119.049C438.428 118.769 438.945 118.63 439.537 118.63C439.896 118.63 440.245 118.689 440.582 118.808C440.919 118.927 441.222 119.114 441.49 119.368C441.758 119.622 441.97 119.953 442.124 120.359C442.279 120.763 442.357 121.253 442.357 121.831V122.271H437.294V121.342H441.142C441.142 121.016 441.075 120.727 440.943 120.475C440.81 120.221 440.623 120.02 440.383 119.874C440.145 119.727 439.866 119.654 439.545 119.654C439.197 119.654 438.893 119.74 438.633 119.911C438.376 120.08 438.177 120.301 438.036 120.575C437.898 120.845 437.828 121.14 437.828 121.458V122.183C437.828 122.609 437.903 122.971 438.052 123.27C438.204 123.568 438.416 123.797 438.687 123.954C438.958 124.109 439.274 124.186 439.636 124.186C439.871 124.186 440.086 124.153 440.279 124.087C440.473 124.018 440.64 123.915 440.781 123.78C440.922 123.645 441.03 123.477 441.104 123.278L442.278 123.49C442.184 123.835 442.015 124.138 441.772 124.398C441.531 124.655 441.229 124.855 440.864 124.999C440.502 125.14 440.088 125.211 439.624 125.211ZM446.705 118.713V119.708H443.226V118.713H446.705ZM444.159 117.187H445.399V123.212C445.399 123.452 445.435 123.633 445.507 123.755C445.579 123.874 445.672 123.956 445.785 124C445.901 124.041 446.027 124.062 446.162 124.062C446.262 124.062 446.349 124.055 446.424 124.041C446.498 124.027 446.556 124.016 446.598 124.008L446.822 125.032C446.75 125.06 446.647 125.088 446.515 125.115C446.382 125.146 446.216 125.162 446.017 125.165C445.691 125.17 445.387 125.112 445.105 124.991C444.823 124.869 444.595 124.681 444.421 124.427C444.247 124.173 444.159 123.853 444.159 123.469V117.187Z" fill="#111827" fill-opacity="0.6"/>
</g>
<defs>
<filter id="filter0_d_985_14110" x="-0.000419617" y="267.504" width="228.946" height="240.995" filterUnits="userSpaceOnUse" color-interpolation-filters="sRGB">
<feFlood flood-opacity="0" result="BackgroundImageFix"/>
<feColorMatrix in="SourceAlpha" type="matrix" values="0 0 0 0 0 0 0 0 0 0 0 0 0 0 0 0 0 0 127 0" result="hardAlpha"/>
<feOffset dx="16.1144" dy="18.8001"/>
<feGaussianBlur stdDeviation="38.5594"/>
<feComposite in2="hardAlpha" operator="out"/>
<feColorMatrix type="matrix" values="0 0 0 0 0.356863 0 0 0 0 0.207843 0 0 0 0 0.878431 0 0 0 0.1 0"/>
<feBlend mode="normal" in2="BackgroundImageFix" result="effect1_dropShadow_985_14110"/>
<feBlend mode="normal" in="SourceGraphic" in2="effect1_dropShadow_985_14110" result="shape"/>
</filter>
<filter id="filter1_d_985_14110" x="334.984" y="267.504" width="228.946" height="240.995" filterUnits="userSpaceOnUse" color-interpolation-filters="sRGB">
<feFlood flood-opacity="0" result="BackgroundImageFix"/>
<feColorMatrix in="SourceAlpha" type="matrix" values="0 0 0 0 0 0 0 0 0 0 0 0 0 0 0 0 0 0 127 0" result="hardAlpha"/>
<feOffset dx="16.1144" dy="18.8001"/>
<feGaussianBlur stdDeviation="38.5594"/>
<feComposite in2="hardAlpha" operator="out"/>
<feColorMatrix type="matrix" values="0 0 0 0 0.356863 0 0 0 0 0.207843 0 0 0 0 0.878431 0 0 0 0.1 0"/>
<feBlend mode="normal" in2="BackgroundImageFix" result="effect1_dropShadow_985_14110"/>
<feBlend mode="normal" in="SourceGraphic" in2="effect1_dropShadow_985_14110" result="shape"/>
</filter>
<filter id="filter2_d_985_14110" x="-0.000419617" y="-0.000234604" width="228.946" height="240.995" filterUnits="userSpaceOnUse" color-interpolation-filters="sRGB">
<feFlood flood-opacity="0" result="BackgroundImageFix"/>
<feColorMatrix in="SourceAlpha" type="matrix" values="0 0 0 0 0 0 0 0 0 0 0 0 0 0 0 0 0 0 127 0" result="hardAlpha"/>
<feOffset dx="16.1144" dy="18.8001"/>
<feGaussianBlur stdDeviation="38.5594"/>
<feComposite in2="hardAlpha" operator="out"/>
<feColorMatrix type="matrix" values="0 0 0 0 0.356863 0 0 0 0 0.207843 0 0 0 0 0.878431 0 0 0 0.1 0"/>
<feBlend mode="normal" in2="BackgroundImageFix" result="effect1_dropShadow_985_14110"/>
<feBlend mode="normal" in="SourceGraphic" in2="effect1_dropShadow_985_14110" result="shape"/>
</filter>
<filter id="filter3_d_985_14110" x="334.984" y="-0.000234604" width="228.946" height="240.995" filterUnits="userSpaceOnUse" color-interpolation-filters="sRGB">
<feFlood flood-opacity="0" result="BackgroundImageFix"/>
<feColorMatrix in="SourceAlpha" type="matrix" values="0 0 0 0 0 0 0 0 0 0 0 0 0 0 0 0 0 0 127 0" result="hardAlpha"/>
<feOffset dx="16.1144" dy="18.8001"/>
<feGaussianBlur stdDeviation="38.5594"/>
<feComposite in2="hardAlpha" operator="out"/>
<feColorMatrix type="matrix" values="0 0 0 0 0.356863 0 0 0 0 0.207843 0 0 0 0 0.878431 0 0 0 0.1 0"/>
<feBlend mode="normal" in2="BackgroundImageFix" result="effect1_dropShadow_985_14110"/>
<feBlend mode="normal" in="SourceGraphic" in2="effect1_dropShadow_985_14110" result="shape"/>
</filter>
<linearGradient id="paint0_linear_985_14110" x1="265.756" y1="211.941" x2="265.756" y2="283.828" gradientUnits="userSpaceOnUse">
<stop stop-color="#1F1199"/>
<stop offset="0.87996" stop-color="#9F7CFF"/>
</linearGradient>
</defs>
</svg>
