<svg width="34" height="34" viewBox="0 0 34 34" fill="none" xmlns="http://www.w3.org/2000/svg">
<circle cx="16.9124" cy="16.9124" r="16.9124" fill="#EFF6E7"/>
<g clip-path="url(#clip0_985_11333)">
<path d="M24.1451 15.3185C24.1028 15.2552 23.9865 15.2974 23.9865 15.2974L22.1361 16.0152C21.9987 15.6563 21.8189 15.3185 21.6392 15.0335L22.2419 13.3867C22.2419 13.3867 22.3053 13.2284 22.2419 13.1861C22.1784 13.1439 22.0621 13.2495 22.0621 13.2495L20.973 14.1362C20.5501 13.6928 20.032 13.3128 19.4716 13.0383C19.2495 12.9539 19.0275 12.8589 18.8054 12.7956L18.4671 11.4971C18.4671 11.4971 18.4459 11.3599 18.3508 11.3599C18.2662 11.3599 18.2345 11.4971 18.2345 11.4971L18.0124 12.6583C17.7692 12.6372 17.5155 12.6161 17.2723 12.6161C16.4475 12.6161 15.7285 12.7744 15.0836 13.0595C14.8192 13.1756 14.5443 13.3234 14.3223 13.5028C14.28 13.5239 14.2588 13.5662 14.206 13.5873C13.9839 13.0067 13.8042 12.5422 13.7619 12.3839C13.8993 12.2677 14.1425 11.8455 14.206 11.5816C14.2905 11.1804 14.2694 11.001 14.1848 10.716C14.1214 10.4943 13.9839 10.2937 13.9839 10.1565C13.9839 10.0404 14.0474 9.97704 14.1002 9.93482C14.0791 9.79758 13.9839 9.73425 13.8782 9.71313C13.7724 9.69202 13.6984 9.73425 13.6138 9.73425C13.5927 9.69202 13.5504 9.69202 13.5715 9.55479C13.6138 9.33311 14.0685 9.21699 14.3963 9.09032C14.8404 8.91086 15.0941 8.59417 15.1153 8.08748C15.1153 7.70745 14.9144 7.44355 14.65 7.30632C14.6077 7.46466 14.3857 7.66523 14.2271 7.74968C14.0685 7.83413 13.8676 7.8658 13.709 7.83413C13.7301 7.57022 13.6244 7.31687 13.4235 7.23242C13.3601 7.34854 13.1063 7.51744 12.7574 7.49633C12.3979 7.49633 12.3767 7.41188 11.8586 7.41188C11.1185 7.41188 10.5158 7.85524 10.4523 8.50973C10.4101 8.93197 10.5687 9.29089 10.6955 9.47034C10.6109 9.53368 10.3783 9.73425 10.3572 9.80814C10.3149 9.7448 10.1563 9.67091 9.97653 9.78703C10.0188 9.87148 10.0188 9.9876 9.99768 10.1037C9.97653 10.2093 9.7122 10.7265 9.65933 11.1488C9.61703 11.8666 10.0188 12.3311 10.3572 12.4683C10.2937 12.5844 10.2726 12.7111 10.3149 12.8061C10.3572 12.8694 10.4312 12.9433 10.5581 12.9433C10.4735 13.0278 10.4418 13.165 10.4946 13.3023C10.5581 13.4606 10.7378 13.6823 10.8753 13.6823C10.8753 13.8195 10.9176 14.1045 10.9599 14.2418C10.9176 14.3262 10.8436 14.4212 10.8753 14.6007C10.8753 14.7801 11.0127 14.9385 11.1608 14.9807C11.2031 15.0651 11.2242 15.1813 11.2771 15.2235C11.3194 15.2868 11.3617 15.3607 11.4991 15.4241C11.6154 15.4874 11.7423 15.5613 11.9009 15.5613C12.0595 15.5613 12.1864 15.5613 12.2604 15.5402C12.2604 15.5824 12.2816 15.9835 12.3027 16.4374C11.9221 17.5036 11.7212 18.7387 11.7212 20.0477C11.7212 22.4123 12.3873 24.5341 13.6878 25.8958C13.6878 25.8958 13.7513 25.9803 13.9733 26.1175C13.9733 26.1175 14.3751 25.4208 14.999 24.6396C15.1576 24.4391 15.3373 24.2385 15.5382 24.059C15.8554 23.7951 16.1409 23.5629 16.4053 23.3623C17.2088 22.824 18.1287 22.4017 18.9746 22.2223C17.9913 22.7395 17.452 23.0034 16.5427 23.7846C15.9612 24.2807 15.0413 25.1674 14.3963 26.3497C14.5337 26.4659 14.7135 26.5503 14.9144 26.5714C15.0518 26.4131 15.7391 25.1674 16.7965 24.1435C18.9429 22.1589 21.4488 21.6839 22.76 21.7156C22.8234 21.1772 22.8763 20.5966 22.8763 20.016C22.8763 19.0554 22.7917 18.1687 22.5908 17.3136L24.1451 15.5613C24.0816 15.4979 24.1874 15.3924 24.1451 15.3185Z" fill="#1A1446"/>
<path d="M12.4592 14.5387C12.3746 14.4964 12.1209 14.3592 11.92 14.3803C11.7191 14.3803 11.5393 14.4225 11.3807 14.5387C11.3173 14.4964 11.2961 14.4014 11.3384 14.2959C11.3807 14.1797 11.4547 14.1797 11.4547 14.1797L11.3913 13.1769C11.3913 13.1769 11.6768 12.9763 11.7508 12.9552C11.8142 12.9341 11.8671 12.8708 11.8671 12.7969C12.0045 12.8813 12.1843 13.0608 12.2689 13.198C12.3535 13.3352 12.4063 13.4619 12.4275 13.6203C12.4275 13.7786 12.4275 13.9792 12.4063 14.1797C12.4698 14.222 12.5226 14.2642 12.5438 14.3592C12.5226 14.4542 12.5015 14.4753 12.4592 14.5387Z" fill="white"/>
<path d="M21.5525 17.6438C21.5525 17.4433 21.3093 16.926 21.1719 16.8205L23.5403 15.7754L21.5525 17.6438Z" fill="white"/>
<path d="M15.0508 13.7188L17.0598 15.5239C16.8589 15.64 16.5628 15.925 16.4994 16.1678L15.0508 13.7188Z" fill="white"/>
<path d="M16.234 17.3062C16.1705 17.4223 16.1494 17.4856 16.1176 17.5912C16.0965 17.7284 16.1176 17.7918 16.1176 17.9079L15.515 17.4856C15.515 17.3484 15.4938 17.1056 15.4727 16.9895C15.4727 16.9684 15.4727 16.9473 15.4727 16.9473L16.234 17.3062Z" fill="white"/>
<path d="M12.8299 17.4818C12.7876 17.4185 12.6078 13.7343 12.6078 13.5971L12.8087 13.4599V13.4177C12.6713 13.4177 12.4915 13.3543 12.4492 13.2593L12.4069 12.1509C12.206 12.1298 12.0051 12.0665 11.9417 11.9926C11.8571 11.9081 11.762 11.792 11.8783 11.5703C11.9628 11.6336 12.2589 11.7287 12.5232 11.7287C12.5655 11.7287 12.6819 11.8448 12.7453 11.8659C12.8087 11.887 12.9462 11.9503 12.9885 11.982C13.0308 12.0031 13.0731 12.1192 13.0731 12.1615C13.0942 12.2037 14.9234 16.954 14.9552 17.0068C14.9869 17.0595 15.0926 17.8513 15.0926 17.9252C15.0926 17.9885 15.3781 18.6219 15.431 18.6852C15.1878 18.6852 14.786 18.8224 14.4688 19.1286C14.1516 19.4453 13.8661 20.1314 13.8026 20.4481C13.7709 20.3003 12.8827 17.5557 12.8299 17.4818Z" fill="white"/>
<path d="M15.1553 22.0453C15.0708 22.7843 14.9121 23.4071 14.6372 23.8504C14.4575 24.1355 13.9923 24.7477 13.8125 24.9483C13.9923 24.5894 14.1297 23.7027 14.1297 23.0271C14.1297 22.5837 13.9923 21.602 14.1086 20.9475C14.246 20.2508 14.4469 19.8496 14.891 19.4274C15.1342 19.2057 15.61 18.9312 16.3184 19.1107L16.8788 20.1558C16.5933 20.0924 16.181 20.1558 15.9166 20.3563C15.4303 20.768 15.2505 21.2853 15.1553 22.0453Z" fill="white"/>
<path d="M15.2266 23.4687C15.364 23.1521 15.5438 22.2864 15.5861 21.9909C15.6495 21.6108 15.7235 21.0725 16.1676 20.6925C16.3897 20.513 16.7492 20.4919 16.9078 20.5341L17.5316 21.8325C17.595 21.9698 17.7748 22.012 17.9122 22.012C17.299 22.1914 15.8081 22.9093 15.2266 23.4687Z" fill="white"/>
<path d="M20.6352 19.3356C20.5189 19.4939 20.5718 19.6523 20.6352 19.7578C20.6987 19.8739 21.037 20.4968 21.037 20.4968C21.1533 20.7818 21.2168 20.919 21.3225 21.0985C21.5022 21.0985 21.7031 21.0985 21.904 21.0985C21.682 20.6023 21.1639 19.6523 21.1639 19.6523L21.1216 18.8711C20.9947 18.9555 20.7515 19.1772 20.6352 19.3356Z" fill="white"/>
<path d="M17.9258 15.2145C18.169 15.1723 18.7505 15.2145 18.9303 15.299L18.3487 12.0371L17.9258 15.2145Z" fill="white"/>
<path d="M13.0848 12.1751C13.0636 12.1329 13.0425 12.0168 13.0002 11.9957C12.9368 11.9746 12.8205 11.9112 12.757 11.8796C12.6936 11.8584 12.5773 11.7423 12.535 11.7423C12.2918 11.7423 11.9957 11.6579 11.89 11.584C11.7737 11.7846 11.8688 11.9007 11.9534 12.0062C12.0169 12.0696 12.2389 12.1435 12.4187 12.1646L12.461 13.3046C12.5032 13.3891 12.683 13.4419 12.8205 13.4419V13.4841L12.6196 13.6213C12.6196 13.7586 12.7993 17.4321 12.8416 17.506C12.8839 17.5694 13.7826 20.314 13.8038 20.4723C13.8672 20.1556 14.1633 19.4695 14.4699 19.1528C14.8083 18.8361 15.1889 18.6883 15.4321 18.7094C15.3898 18.6461 15.0938 18.0127 15.0938 17.9494C15.0938 17.8861 14.9775 17.1049 14.9563 17.031C14.9352 16.9782 13.1059 12.249 13.0848 12.1751Z" fill="white"/>
<path d="M11.9239 11.2901C12.442 11.2901 12.6852 11.5118 12.8227 11.6279C12.8438 11.4485 12.8015 11.2901 12.6429 11.1635C12.5055 11.0473 12.2623 10.9629 11.9028 10.9629C11.6596 10.9629 11.4058 11.0262 11.2578 11.1635C11.1203 11.2796 11.0992 11.4063 11.1203 11.6068C11.1626 11.4696 11.501 11.2901 11.9239 11.2901Z" fill="white"/>
<path d="M10.9806 8.59017C10.9595 8.79074 11.0229 8.99131 11.1181 9.12854C11.1604 9.19188 11.2978 9.32911 11.3824 9.32911C11.5199 9.32911 11.6256 9.08632 11.9428 9.08632C12.1437 9.08632 12.2812 9.37133 12.4398 9.37133C12.5772 9.37133 12.6407 9.25522 12.7781 9.2341C12.8944 9.21299 12.9367 9.27633 13.0002 9.35022C13.0425 9.2341 13.1165 9.17077 13.2857 9.03353C13.4866 8.87519 14.1844 8.74852 14.4911 8.47405C14.6497 8.33682 14.6708 8.09403 14.6285 7.93569C14.5122 8.09403 14.2056 8.27349 13.8884 8.27349C13.7298 8.27349 13.3703 8.21015 13.2434 8.13626C13.3068 8.02014 13.328 7.89346 13.2645 7.77734C13.1799 7.84068 12.7253 7.89346 12.5667 7.89346C12.4081 7.89346 12.0697 7.83012 11.8265 7.85124C11.2767 7.87235 11.0018 8.25237 10.9806 8.59017Z" fill="white"/>
<path d="M11.9385 10.3116C13.1439 10.3327 13.6831 10.8922 13.7043 11.3356C13.7677 11.1983 13.7465 11.0717 13.7465 10.9133C13.7465 10.7972 13.5668 10.4489 13.5457 10.3327C13.5457 10.2166 13.5668 10.1322 13.5879 10.0477C13.5245 10.0688 13.2496 10.1638 13.1439 10.0688C13.0275 9.98438 13.1016 9.73103 12.943 9.66769C12.7844 9.60435 12.5412 9.80492 12.3614 9.78381C12.2028 9.7627 12.0759 9.54102 11.8962 9.54102C11.7164 9.54102 11.653 9.74158 11.4521 9.78381C11.2935 9.82603 11.0926 9.72047 11.008 9.74158C10.8917 9.74158 10.8494 9.82603 10.8071 9.92104C10.7648 10.0055 10.7225 10.0583 10.6062 10.1005C10.5216 10.1216 10.363 10.0372 10.289 10.0583C10.3313 10.1005 10.3736 10.3222 10.3101 10.4594C10.2467 10.6178 10.1092 10.7972 10.1092 10.9978C10.0775 11.1561 10.1515 11.2195 10.1938 11.3567C10.1727 10.7128 10.8917 10.28 11.9385 10.3116Z" fill="white"/>
<path d="M11.1789 12.5961C11.0944 12.6172 10.9146 12.7544 10.8406 12.8811C10.8617 12.9655 10.9781 13.1978 11.0626 13.24C11.0838 13.1556 11.2001 12.9761 11.2424 12.9233C11.3058 12.8811 11.401 12.8389 11.4433 12.8072C11.5067 12.7861 11.5279 12.7439 11.5279 12.67C11.5279 12.6066 11.5279 12.5539 11.4856 12.4905C11.549 12.4905 11.6653 12.4905 11.6865 12.4483C11.7288 12.4061 11.7499 12.3322 11.7499 12.2688C11.7499 12.2055 11.7288 12.1844 11.6653 12.1844C11.6019 12.1844 11.401 12.1633 11.3058 12.1844C11.3058 12.1844 11.4644 12.0999 11.5067 12.0683C11.549 12.0472 11.5702 12.0049 11.5702 11.9521C11.5702 11.8994 11.5702 11.8149 11.549 11.7305C11.327 11.7305 10.9252 11.931 10.8089 12.0472L10.8935 12.2477H10.7349C10.7137 12.3638 10.7349 12.5116 10.7772 12.6066C10.9358 12.5961 11.0944 12.5961 11.1789 12.5961Z" fill="white"/>
<path d="M21.0153 17.3559C20.9941 17.1976 20.6135 16.7753 19.9897 16.2897C19.4927 15.9097 18.7843 15.5508 18.1816 15.5508C17.1771 15.5508 16.7753 16.2475 16.6801 16.5958C16.6378 16.8175 16.6378 17.0392 16.6801 17.1764C16.5215 17.3137 16.4581 17.4192 16.4369 17.5776C16.4158 17.6937 16.4369 17.8415 16.5532 17.9576C16.5532 17.7993 16.6378 17.6409 16.733 17.5354C16.8176 17.3981 16.9762 17.3559 17.1136 17.2714L17.1348 17.5354C16.9973 17.5987 16.8493 17.757 16.8493 17.852V18.2954L17.1877 18.0948L17.2511 18.2321L17.1136 19.0343L17.3145 18.9921L17.674 19.1293L17.3357 19.446V19.5621C17.3357 19.5621 17.378 19.4988 17.5154 19.4988C17.6318 19.4988 17.9384 19.636 17.9384 19.636L17.9172 19.6994H17.7798H17.3145C17.2934 19.7838 17.3568 19.8366 17.3991 19.8788C17.4837 19.8577 17.5577 19.8155 17.6 19.8155C17.6423 19.8155 17.7586 19.8366 17.8432 19.8577L17.7269 20.0161C17.7269 20.0161 17.6635 20.0583 17.5683 20.0372C17.5049 20.0161 17.452 20.1005 17.452 20.1744C17.452 20.2377 17.4943 20.4172 17.4943 20.4172C17.5577 20.66 17.8115 20.6178 17.8538 20.6178C18.0124 20.5967 18.5728 20.4172 18.5728 20.4172L18.0547 21.1561L18.2767 21.9373C18.6151 21.8001 19.6407 21.42 20.7615 21.2406C20.6452 21.04 20.6241 20.9556 20.476 20.66L19.8945 19.3405L19.9791 19.1399C20.1165 19.1821 20.2963 19.0977 20.4232 18.9816C20.5501 18.8654 20.6875 18.6965 20.7615 18.5804C20.6769 18.5382 20.6029 18.5382 20.5395 18.6015C20.476 18.6438 20.4232 18.7388 20.3174 18.686C20.2117 18.6332 20.2751 18.5276 20.2751 18.4221C20.2963 18.306 20.1588 18.306 20.0742 18.401C19.9897 18.4854 19.7888 18.4432 19.6724 18.3165C19.535 18.1793 18.9323 17.6937 18.7314 17.5565C18.4142 17.377 17.9913 17.3348 17.7058 17.377C17.526 17.3981 17.3886 17.4931 17.3251 17.4403L17.1031 17.0603L17.1454 17.0392C17.23 17.0814 17.304 17.1237 17.4097 17.1025C17.526 17.0603 17.8326 16.9864 18.1499 16.9864C18.5939 16.9864 19.1543 17.1448 19.3975 17.2503C19.3975 17.5354 20.0002 17.9154 20.2646 17.9682C20.4866 17.9893 20.6241 17.947 20.7615 17.852L20.18 17.3348L20.4972 16.9548C20.4972 16.9548 20.9941 17.4192 21.0576 17.5142C21.0576 17.5037 21.0364 17.4192 21.0153 17.3559ZM17.526 17.9576C17.526 17.9576 17.7692 17.8204 18.023 17.757C18.3825 17.6937 18.7631 17.8943 19.0275 18.1159L18.9852 18.2004L18.5834 18.2848C18.5199 18.2215 18.3613 18.2004 18.2027 18.2004C18.0653 18.2004 17.9595 18.2637 17.9595 18.2637L18.023 18.401L17.8432 18.4432C17.7586 18.3271 17.6423 18.2215 17.526 18.1793V17.9576ZM16.9233 17.0392C16.807 16.7014 17.1031 16.3425 17.2088 16.2369L17.4097 16.6803C17.2617 16.7542 17.0396 16.9231 16.9233 17.0392ZM18.742 16.6592C18.5622 16.522 17.9595 16.5431 17.7163 16.617L17.5366 16.0786C17.674 15.9625 17.9384 15.8991 18.1816 15.8991C18.4248 15.8991 18.6785 15.9625 18.8794 16.0575L18.742 16.6592ZM19.9262 17.1976C19.683 17.0392 19.1861 16.7964 19.0275 16.7542L19.2495 16.1947C19.4293 16.2792 20.0954 16.6909 20.2117 16.7964L19.9262 17.1976Z" fill="white"/>
<path d="M19.832 15.7033C20.0541 15.7878 20.5299 16.1995 20.6568 16.2839L21.8622 13.7188L19.832 15.7033Z" fill="white"/>
</g>
<defs>
<clipPath id="clip0_985_11333">
<rect width="14.4963" height="19.3284" fill="white" transform="translate(9.66406 7.25195)"/>
</clipPath>
</defs>
</svg>
