<svg width="34" height="34" viewBox="0 0 34 34" fill="none" xmlns="http://www.w3.org/2000/svg">
<circle cx="16.9124" cy="16.9124" r="16.9124" fill="#F7F0FF"/>
<g clip-path="url(#clip0_985_11315)">
<path d="M18.4955 21.0245C18.1659 21.3967 17.6951 21.9433 17.7893 22.362C17.8835 22.6877 18.3543 22.9203 18.3543 22.9203L19.3783 23.4785L18.7191 24.0368L19.5195 24.2694C19.5195 24.2694 18.7662 25.0138 18.7191 25.1068C18.5308 25.1533 18.2954 25.1533 18.06 25.1533C16.3769 25.1533 14.0347 24.188 13.4815 24.188C12.7753 24.188 11.8925 24.5602 11.8925 24.5602L12.3633 24.0484C12.3633 24.0484 11.7513 24.188 11.1981 24.1415L11.9985 23.5832C11.2923 23.5832 10.6449 23.3506 10.3624 23.118C10.3624 23.118 11.6689 23.025 13.4933 23.025C14.2465 23.025 15.4588 23.118 15.4588 23.118C14.8468 22.8389 14.2936 22.5132 14.0582 21.92L15.2234 22.1061C14.7526 21.827 14.0111 21.0943 13.917 20.4895L15.2234 20.9547C14.988 20.7221 14.1995 19.9894 14.0582 19.1055L15.0822 19.7568C14.7997 19.4776 14.1053 18.0936 14.1877 17.6749L15.1175 18.3262C14.6467 17.7679 14.1406 16.2909 14.5055 15.6861C14.788 16.791 15.4353 17.2097 15.4353 17.2097C15.0116 16.6049 14.0818 14.4416 14.9645 13.5112C15.1999 15.6395 16.1297 16.3723 16.1297 16.3723C15.3765 15.1743 14.4937 11.4758 16.1297 10.7314C15.8002 13.0924 16.6005 14.3834 16.6005 14.3834C16.1297 12.2085 16.1297 9.1148 17.7658 8.83566C16.9654 11.1501 17.5304 12.9529 17.5304 12.9529C17.2479 7.49815 19.0252 7.59119 19.0252 7.59119C19.0252 7.59119 18.7427 9.1148 18.7427 11.8945V19.8498C18.778 20.4313 18.7309 20.757 18.4955 21.0245ZM19.5783 22.9668C20.2845 23.0133 20.7906 23.0598 21.3085 23.1529C21.4968 23.1994 21.591 23.3855 21.591 23.5251C21.3556 23.4785 20.979 23.432 20.979 23.432V23.6646C20.979 23.6646 21.3085 23.5716 21.6852 23.5716C21.6852 23.5716 22.4384 23.5716 22.3914 24.0833C22.203 23.9438 21.7793 23.9903 21.6381 24.0368C21.2614 24.0833 20.8848 24.2694 20.5199 24.502C20.1433 24.6881 19.7196 24.9207 19.2606 25.0603C19.4489 24.8742 20.0138 24.2694 20.0138 24.2694L19.2606 23.8972L19.8726 23.3855L18.9428 22.8738C19.1546 22.9203 19.3429 22.9203 19.5783 22.9668ZM19.6254 22.141H22.9446V11.3711H19.8961V18.0703L19.0016 17.2329V11.8712C19.0016 8.73099 19.3783 7.25391 19.3783 7.25391C18.3543 7.25391 17.8364 8.21924 17.6951 8.49838C17.1302 8.5449 16.6712 8.87055 16.3887 9.51024C16.2004 9.88241 16.1062 10.2081 16.1062 10.3942C14.8939 10.6733 14.7997 12.8017 14.8939 13.1622L13.0225 11.3595H9.65625V22.1294H12.6929V15.6163L14.1406 17.0003C14.2819 17.3725 14.4231 17.5586 14.4231 17.5586L13.8581 17.0468C13.764 18.1052 14.0465 18.6635 14.3289 19.0357L13.6227 18.4309C13.5757 19.4893 14.0935 20.1406 14.4231 20.4197L13.4933 19.9545C13.4462 20.6058 14.0582 21.4781 14.4231 21.6642L13.6227 21.5711C13.8111 22.4551 14.4231 22.7226 14.4231 22.7226C14.4231 22.7226 13.0695 22.7691 12.4575 22.7691C10.7744 22.7691 9.65625 22.9086 9.65625 22.9086C9.65625 22.9086 10.4095 23.653 11.3864 23.6995L10.539 24.2113C11.151 24.4439 11.7042 24.3508 11.7042 24.3508L11.1863 24.9556C11.1863 24.9556 12.7282 24.3508 13.3873 24.3974C13.9052 24.4439 16.3298 25.3627 17.9659 25.3627C19.084 25.3627 19.8844 24.944 20.4964 24.6183C20.873 24.4322 21.2497 24.2462 21.5675 24.1996C22.1795 24.1066 22.4149 24.3392 22.4149 24.3392C22.462 24.1066 22.6503 23.4553 21.7087 23.3273C21.6616 23.1413 21.5204 22.9552 21.2379 22.9086C20.72 22.8156 18.519 22.676 18.4837 22.676C18.2954 22.676 17.6834 22.5365 18.2483 21.7107C18.2954 21.6642 18.5779 21.292 18.5779 21.292L19.6254 22.141Z" fill="#1658A5"/>
<path d="M18.5002 21.0232C18.1707 21.3954 17.6999 21.9421 17.794 22.3608C17.8882 22.6864 18.359 22.919 18.359 22.919L19.383 23.4773L18.7239 24.0356L19.5242 24.2682C19.5242 24.2682 18.771 25.0125 18.7239 25.1056C18.5356 25.1521 18.3002 25.1521 18.0648 25.1521C16.3816 25.1521 14.0394 24.1868 13.4862 24.1868C12.78 24.1868 11.8973 24.5589 11.8973 24.5589L12.3681 24.0472C12.3681 24.0472 11.756 24.1868 11.2029 24.1402L12.0032 23.582C11.297 23.582 10.6497 23.3494 10.3672 23.1167C10.3672 23.1167 11.6737 23.0237 13.498 23.0237C14.2513 23.0237 15.4636 23.1167 15.4636 23.1167C14.8515 22.8376 14.2984 22.512 14.063 21.9188L15.2282 22.1049C14.7574 21.8258 14.0159 21.093 13.9217 20.4882L15.2282 20.9535C14.9928 20.7209 14.2042 19.9881 14.063 19.1042L15.0869 19.7555C14.8045 19.4764 14.11 18.0923 14.1924 17.6736L15.1223 18.325C14.6515 17.7667 14.1454 16.2896 14.5102 15.6848C14.7927 16.7897 15.44 17.2084 15.44 17.2084C15.0163 16.6036 14.0865 14.4403 14.9692 13.5099C15.2046 15.6383 16.1345 16.371 16.1345 16.371C15.3812 15.1731 14.4985 11.4746 16.1345 10.7302C15.8049 13.0912 16.6053 14.3822 16.6053 14.3822C16.1345 12.2073 16.1345 9.11355 17.7705 8.83442C16.9701 11.1489 17.5351 12.9516 17.5351 12.9516C17.2526 7.4969 19.0299 7.58995 19.0299 7.58995C19.0299 7.58995 18.7474 9.11355 18.7474 11.8933V19.8486C18.7827 20.4301 18.7356 20.7557 18.5002 21.0232ZM19.5831 22.9656C20.2893 23.0121 20.7954 23.0586 21.3133 23.1516C21.5016 23.1982 21.5957 23.3842 21.5957 23.5238C21.3603 23.4773 20.9837 23.4308 20.9837 23.4308V23.6634C20.9837 23.6634 21.3133 23.5703 21.6899 23.5703C21.6899 23.5703 22.4432 23.5703 22.3961 24.0821C22.2078 23.9425 21.7841 23.989 21.6428 24.0356C21.2662 24.0821 20.8895 24.2682 20.5247 24.5008C20.148 24.6869 19.7243 24.9195 19.2653 25.0591C19.4536 24.873 20.0186 24.2682 20.0186 24.2682L19.2653 23.896L19.8773 23.3843L18.9475 22.8725C19.1594 22.919 19.3477 22.919 19.5831 22.9656Z" fill="white"/>
</g>
<defs>
<clipPath id="clip0_985_11315">
<rect width="13.2883" height="18.1204" fill="white" transform="translate(9.66406 7.24609)"/>
</clipPath>
</defs>
</svg>
