<svg width="26" height="26" viewBox="0 0 26 26" fill="none" xmlns="http://www.w3.org/2000/svg">
<circle cx="12.9703" cy="12.9703" r="12.9703" fill="#F7F0FF"/>
<mask id="mask0_985_9780" style="mask-type:luminance" maskUnits="userSpaceOnUse" x="8" y="7" width="10" height="12">
<path d="M17.105 16.5144H17.1823C17.221 16.5144 17.2597 16.524 17.2597 16.5723C17.2597 16.6302 17.221 16.6302 17.1727 16.6302H17.105V16.5144ZM17.047 16.4661V16.8425H17.105V16.6784H17.1727L17.2693 16.8425H17.3273L17.221 16.6784C17.279 16.6688 17.3176 16.6398 17.3176 16.5723C17.3176 16.4951 17.2693 16.4661 17.1823 16.4661H17.047ZM9.634 16.3889L9.49869 17.1031C9.47936 17.1996 9.46003 17.3154 9.45037 17.4409C9.4407 17.3636 9.4407 17.2961 9.43104 17.2285C9.42137 17.161 9.41171 17.1031 9.40204 17.0548L9.28606 16.3889H8.59985L8.43555 18.3577H8.92846L9.01544 17.1706L9.20874 18.3577H9.65333L9.87563 17.1706L9.94328 18.3577H10.4169L10.2816 16.3889H9.634ZM11.1997 17.383L11.2384 17.1417C11.2384 17.1417 11.2384 17.1224 11.248 17.1031C11.248 17.0838 11.2577 17.0452 11.2577 16.9969C11.2577 16.968 11.2674 16.9487 11.2674 16.9197C11.2674 16.9004 11.277 16.8811 11.277 16.8618L11.2964 17.0452C11.2964 17.0838 11.306 17.1127 11.306 17.1417C11.306 17.1706 11.306 17.1899 11.3157 17.1996C11.335 17.325 11.3447 17.4023 11.3447 17.4216C11.3447 17.4409 11.3447 17.4505 11.3544 17.4602L11.393 17.6918H11.1417L11.1997 17.383ZM10.9581 16.3889L10.4845 18.3577H11.0354L11.0837 18.1068H11.4317L11.4703 18.3577H12.0212L11.6057 16.3889H10.9581ZM12.6108 16.8039H12.6301C12.7848 16.8039 12.8621 16.8811 12.8621 17.0259C12.8621 17.1031 12.8428 17.161 12.8041 17.1996C12.7654 17.2478 12.7171 17.2671 12.6495 17.2671H12.6108V16.8039ZM12.0696 16.3889V18.3577H12.6011V17.6725V17.5374C12.6108 17.5663 12.6205 17.5856 12.6205 17.6049C12.6301 17.6242 12.6301 17.6435 12.6301 17.6532L12.8911 18.3577H13.471L13.0747 17.5374C13.2777 17.4505 13.384 17.2864 13.384 17.0452C13.384 16.8232 13.3067 16.6495 13.152 16.5337C13.0361 16.4372 12.8524 16.3889 12.6108 16.3889H12.0696ZM14.3312 16.3889L14.0412 17.2382L14.0509 16.3889H13.5193V18.3577H14.0509L14.0412 17.4505L14.3988 18.3577H14.9691L14.4955 17.3347L14.9014 16.3793H14.3312V16.3889ZM15.0174 16.3889V18.3577H15.9935V17.9041H15.5296V17.5856H15.9356V17.1224H15.5296V16.8522H15.9935V16.3986H15.0174V16.3889ZM16.1095 16.3889V18.3577H17.047V17.9041H16.6218V16.3889H16.1095ZM16.9117 16.6495C16.9117 16.4951 17.0277 16.3793 17.1727 16.3793C17.3176 16.3793 17.4336 16.4951 17.4336 16.6495C17.4336 16.8039 17.3176 16.9197 17.1727 16.9197C17.0277 16.9197 16.9117 16.8039 16.9117 16.6495ZM16.8441 16.6495C16.8441 16.8329 16.989 16.968 17.1727 16.968C17.3466 16.968 17.5013 16.8329 17.5013 16.6495C17.5013 16.4661 17.3563 16.331 17.1727 16.331C16.989 16.331 16.8441 16.4661 16.8441 16.6495ZM8.44521 10.9459V15.8099H11.1514V9.87466L8.44521 10.9459ZM11.393 9.77815V15.8002H14.0992V8.70692L11.393 9.77815ZM14.3408 8.62006V15.8002H17.047V7.54883L14.3408 8.62006Z" fill="white"/>
</mask>
<g mask="url(#mask0_985_9780)">
<path d="M3.11914 13.8931L12.1849 3.10352L22.826 12.0208L13.7603 22.8104L3.11914 13.8931Z" fill="url(#paint0_linear_985_9780)"/>
</g>
<defs>
<linearGradient id="paint0_linear_985_9780" x1="8.43556" y1="18.3527" x2="17.3024" y2="7.77011" gradientUnits="userSpaceOnUse">
<stop stop-color="#A29265"/>
<stop offset="0.1232" stop-color="#AA996A"/>
<stop offset="0.3151" stop-color="#C0AC77"/>
<stop offset="0.3571" stop-color="#C6B17A"/>
<stop offset="0.4849" stop-color="#BEAA73"/>
<stop offset="0.6845" stop-color="#A8955F"/>
<stop offset="0.9297" stop-color="#84753E"/>
<stop offset="1" stop-color="#786A34"/>
</linearGradient>
</defs>
</svg>
