<svg width="26" height="26" viewBox="0 0 26 26" fill="none" xmlns="http://www.w3.org/2000/svg">
<circle cx="12.9703" cy="12.9703" r="12.9703" fill="#EFF6E7"/>
<g clip-path="url(#clip0_985_9795)">
<path d="M7.83269 10.8781H7.81294C7.79319 10.8781 7.77344 10.8557 7.77344 10.8332C7.77344 10.822 7.77344 10.822 7.77344 10.8108C9.18569 7.15522 12.9484 5.4844 16.1679 7.08793C17.6295 7.81681 18.8048 9.15122 19.4467 10.8108C19.4566 10.8333 19.4467 10.8557 19.427 10.8669H19.4171H19.3973C18.8542 10.5305 18.232 10.3623 17.6197 10.3735C16.9185 10.3511 16.2272 10.5641 15.6445 11.0127C15.6346 11.0127 15.6247 11.0127 15.6247 11.0127H15.605C14.3903 10.1604 12.8595 10.1604 11.6448 11.0127C11.6349 11.0127 11.625 11.0127 11.625 11.0127H11.6053C11.0226 10.5753 10.3313 10.3511 9.6301 10.3735C8.99804 10.3735 8.38574 10.5417 7.83269 10.8781Z" fill="#CB2D2F"/>
<path d="M13.9587 10.9252C13.9587 10.9028 13.9488 10.8916 13.9291 10.8916C13.8205 10.8804 13.7217 10.8691 13.6131 10.8691C13.5242 10.8691 13.4353 10.8691 13.3464 10.8691C13.3267 10.8691 13.3168 10.8804 13.3168 10.9028V16.8235C13.3168 17.1599 13.0798 17.429 12.7835 17.429C12.5563 17.429 12.349 17.2608 12.2798 17.0254C12.2107 16.8347 12.023 16.7562 11.865 16.8235C11.7268 16.8908 11.6379 17.059 11.6774 17.2384C11.8749 17.9337 12.5366 18.3261 13.1489 18.1019C13.6328 17.9224 13.9686 17.4066 13.9587 16.8235V10.9252Z" fill="#CB2D2F"/>
</g>
<defs>
<clipPath id="clip0_985_9795">
<rect width="11.6733" height="11.6733" fill="white" transform="translate(7.78125 6.47852)"/>
</clipPath>
</defs>
</svg>
