<svg width="34" height="34" viewBox="0 0 34 34" fill="none" xmlns="http://www.w3.org/2000/svg">
<circle cx="16.9124" cy="16.9124" r="16.9124" fill="#F92020" fill-opacity="0.05"/>
<g clip-path="url(#clip0_985_11364)">
<path d="M8.52725 14.8175H8.49864C8.47002 14.8175 8.44141 14.785 8.44141 14.7526C8.44141 14.7363 8.44141 14.7363 8.44141 14.7201C10.4875 9.42377 15.9389 7.00307 20.6034 9.32629C22.7211 10.3823 24.4238 12.3156 25.3538 14.7201C25.3681 14.7526 25.3538 14.7851 25.3252 14.8013H25.3109H25.2823C24.4953 14.3139 23.5939 14.0702 22.7068 14.0865C21.6909 14.054 20.6893 14.3626 19.8451 15.0125C19.8308 15.0125 19.8165 15.0125 19.8165 15.0125H19.7879C18.028 13.7778 15.8102 13.7778 14.0503 15.0125C14.0359 15.0125 14.0216 15.0125 14.0216 15.0125H13.993C13.1488 14.3789 12.1473 14.054 11.1314 14.0865C10.2156 14.0865 9.32852 14.3302 8.52725 14.8175Z" fill="#CB2D2F"/>
<path d="M17.4009 14.8918C17.4009 14.8593 17.3866 14.843 17.358 14.843C17.2006 14.8268 17.0575 14.8105 16.9001 14.8105C16.7713 14.8105 16.6426 14.8105 16.5138 14.8105C16.4852 14.8105 16.4709 14.8268 16.4709 14.8593V23.4373C16.4709 23.9247 16.1275 24.3146 15.6982 24.3146C15.3691 24.3146 15.0686 24.0709 14.9685 23.7298C14.8683 23.4536 14.5965 23.3399 14.3675 23.4373C14.1672 23.5348 14.0385 23.7785 14.0957 24.0384C14.3819 25.0457 15.3405 25.6143 16.2276 25.2894C16.9287 25.0295 17.4152 24.2821 17.4009 23.4373V14.8918Z" fill="#CB2D2F"/>
</g>
<defs>
<clipPath id="clip0_985_11364">
<rect width="16.9124" height="16.9124" fill="white" transform="translate(8.45312 8.45117)"/>
</clipPath>
</defs>
</svg>
