<svg width="1440" height="400" viewBox="0 0 1440 400" fill="none" xmlns="http://www.w3.org/2000/svg" aria-hidden="true">
  <g opacity="0.85">
    <path d="M-80 280C120 180 280 220 480 200C680 180 820 240 1040 210C1260 180 1380 200 1520 190" stroke="#3B82F6" stroke-width="1" stroke-opacity="0.35"/>
    <path d="M-80 290C120 190 280 230 480 210C680 190 820 250 1040 220C1260 190 1380 210 1520 200" stroke="#60A5FA" stroke-width="1" stroke-opacity="0.4"/>
    <path d="M-80 300C120 200 280 240 480 220C680 200 820 260 1040 230C1260 200 1380 220 1520 210" stroke="#93C5FD" stroke-width="1" stroke-opacity="0.45"/>
    <path d="M-80 270C120 170 280 210 480 190C680 170 820 230 1040 200C1260 170 1380 190 1520 180" stroke="#2563EB" stroke-width="1" stroke-opacity="0.3"/>
    <path d="M-80 260C120 160 280 200 480 180C680 160 820 220 1040 190C1260 160 1380 180 1520 170" stroke="#1D4ED8" stroke-width="1" stroke-opacity="0.25"/>
    <path d="M-80 310C120 210 280 250 480 230C680 210 820 270 1040 240C1260 210 1380 230 1520 220" stroke="#BFDBFE" stroke-width="1" stroke-opacity="0.35"/>
    <path d="M-80 250C120 150 280 190 480 170C680 150 820 210 1040 180C1260 150 1380 170 1520 160" stroke="#1E40AF" stroke-width="1" stroke-opacity="0.2"/>
    <path d="M-80 320C120 220 280 260 480 240C680 220 820 280 1040 250C1260 220 1380 240 1520 230" stroke="#DBEAFE" stroke-width="1" stroke-opacity="0.3"/>
  </g>
  <g opacity="0.5">
    <path d="M0 200 Q360 80 720 200 T1440 200" stroke="#60A5FA" stroke-width="0.75" fill="none"/>
    <path d="M0 210 Q360 90 720 210 T1440 210" stroke="#93C5FD" stroke-width="0.75" fill="none"/>
    <path d="M0 190 Q360 70 720 190 T1440 190" stroke="#3B82F6" stroke-width="0.75" fill="none"/>
    <path d="M0 220 Q360 100 720 220 T1440 220" stroke="#BFDBFE" stroke-width="0.75" fill="none"/>
    <path d="M0 180 Q360 60 720 180 T1440 180" stroke="#2563EB" stroke-width="0.75" fill="none"/>
  </g>
</svg>
