<svg width="250" height="50" viewBox="0 0 250 50" fill="none" xmlns="http://www.w3.org/2000/svg">
<g clip-path="url(#clip0_944_1354)">
<path d="M58.1543 23.7909C58.1543 22.4026 58.4225 21.0251 58.959 19.6585C59.4954 18.2918 60.2778 17.0554 61.3061 15.949C62.3344 14.8427 63.5862 13.9642 65.0613 13.3134C66.5367 12.6409 68.2131 12.3047 70.0907 12.3047C72.3035 12.3047 74.2373 12.7711 75.8913 13.7038C77.5453 14.6366 78.7748 15.8514 79.5795 17.3482L75.3548 20.2116C74.9969 19.409 74.5167 18.7799 73.9129 18.3244C73.3094 17.8471 72.6614 17.5217 71.9683 17.3482C71.2756 17.153 70.6048 17.0554 69.9568 17.0554C68.5483 17.0554 67.3861 17.4024 66.4698 18.0966C65.5531 18.7908 64.8716 19.6693 64.4244 20.7322C63.9772 21.7952 63.7536 22.8798 63.7536 23.9861C63.7536 25.2009 64.0107 26.3506 64.5248 27.4352C65.039 28.4982 65.7655 29.355 66.7042 30.0058C67.6431 30.6566 68.7495 30.982 70.0237 30.982C70.6941 30.982 71.376 30.8844 72.0687 30.6892C72.7618 30.4722 73.3987 30.1251 73.9802 29.6479C74.5836 29.1707 75.0419 28.5524 75.3548 27.7932L79.8478 30.3637C79.3783 31.5134 78.6071 32.4896 77.5341 33.2922C76.4612 34.0732 75.2428 34.6806 73.8794 35.1144C72.5382 35.5266 71.2082 35.7326 69.8894 35.7326C68.1684 35.7326 66.5925 35.3964 65.1621 34.7239C63.7313 34.0298 62.491 33.1187 61.4404 31.9907C60.3898 30.841 59.5739 29.5611 58.9928 28.1511C58.4337 26.7194 58.1543 25.266 58.1543 23.7909Z" fill="#5C35E1"/>
<path d="M91.2666 35.8626C89.2547 35.8626 87.5449 35.4504 86.1364 34.6261C84.7506 33.8018 83.6889 32.7171 82.9515 31.3722C82.2138 30.0273 81.8447 28.5739 81.8447 27.012C81.8447 25.4285 82.2138 23.9642 82.9515 22.6193C83.6889 21.2743 84.7618 20.1897 86.1702 19.3654C87.5784 18.5411 89.277 18.1289 91.2666 18.1289C93.2558 18.1289 94.9545 18.5411 96.363 19.3654C97.7711 20.1897 98.844 21.2743 99.5817 22.6193C100.319 23.9642 100.688 25.4285 100.688 27.012C100.688 28.5739 100.319 30.0273 99.5817 31.3722C98.844 32.7171 97.7711 33.8018 96.363 34.6261C94.9545 35.4504 93.2558 35.8626 91.2666 35.8626ZM87.3436 27.012C87.3436 28.3353 87.7123 29.409 88.45 30.2333C89.2101 31.0577 90.149 31.4698 91.2666 31.4698C92.3618 31.4698 93.2781 31.0577 94.0159 30.2333C94.7759 29.409 95.1557 28.3353 95.1557 27.012C95.1557 25.6888 94.7759 24.615 94.0159 23.7907C93.2781 22.9663 92.3618 22.5542 91.2666 22.5542C90.149 22.5542 89.2101 22.9663 88.45 23.7907C87.7123 24.615 87.3436 25.6888 87.3436 27.012Z" fill="#5C35E1"/>
<path d="M108.157 35.5399L101.92 18.457H107.452L111.308 30.8544L115.164 18.457H120.193L113.99 35.5399H108.157Z" fill="#5C35E1"/>
<path d="M130.892 35.8626C128.903 35.8626 127.205 35.4613 125.796 34.6586C124.388 33.856 123.304 32.7931 122.544 31.4698C121.806 30.1466 121.438 28.7149 121.438 27.1747C121.438 25.5261 121.806 24.0184 122.544 22.6518C123.282 21.2852 124.355 20.1897 125.763 19.3654C127.171 18.5411 128.881 18.1289 130.892 18.1289C132.882 18.1289 134.581 18.5411 135.989 19.3654C137.397 20.1897 138.459 21.2743 139.174 22.6193C139.912 23.9642 140.281 25.4068 140.281 26.9469C140.281 27.576 140.236 28.1292 140.147 28.6064H127.137C127.227 29.7561 127.651 30.6347 128.411 31.242C129.194 31.8278 130.077 32.1206 131.06 32.1206C131.843 32.1206 132.592 31.9362 133.307 31.5674C134.022 31.1987 134.514 30.6997 134.782 30.0706L139.342 31.3071C138.649 32.6521 137.565 33.7475 136.09 34.5936C134.637 35.4396 132.904 35.8626 130.892 35.8626ZM127.003 25.4176H134.648C134.536 24.333 134.122 23.4761 133.407 22.847C132.714 22.1962 131.854 21.8709 130.826 21.8709C129.797 21.8709 128.926 22.1962 128.21 22.847C127.517 23.4978 127.115 24.3547 127.003 25.4176Z" fill="#5C35E1"/>
<path d="M154.715 22.9135C153.418 22.9352 152.245 23.1412 151.195 23.5317C150.144 23.9222 149.384 24.5078 148.914 25.2888V35.5385H143.55V18.4556H148.479V21.9048C149.082 20.7551 149.865 19.8548 150.825 19.204C151.787 18.5532 152.793 18.217 153.843 18.1953C154.29 18.1953 154.581 18.2062 154.715 18.2279V22.9135Z" fill="#5C35E1"/>
<path d="M158.248 35.5401V12.4375H174.409V17.1231H163.747V22.1015H172.532V26.4292H163.747V35.5401H158.248Z" fill="#5C35E1"/>
<path d="M185.108 35.8626C183.097 35.8626 181.387 35.4504 179.978 34.6261C178.592 33.8018 177.531 32.7171 176.793 31.3722C176.056 30.0273 175.687 28.5739 175.687 27.012C175.687 25.4285 176.056 23.9642 176.793 22.6193C177.531 21.2743 178.604 20.1897 180.012 19.3654C181.42 18.5411 183.119 18.1289 185.108 18.1289C187.098 18.1289 188.796 18.5411 190.205 19.3654C191.613 20.1897 192.686 21.2743 193.424 22.6193C194.161 23.9642 194.53 25.4285 194.53 27.012C194.53 28.5739 194.161 30.0273 193.424 31.3722C192.686 32.7171 191.613 33.8018 190.205 34.6261C188.796 35.4504 187.098 35.8626 185.108 35.8626ZM181.185 27.012C181.185 28.3353 181.554 29.409 182.292 30.2333C183.052 31.0577 183.99 31.4698 185.108 31.4698C186.204 31.4698 187.12 31.0577 187.858 30.2333C188.618 29.409 188.998 28.3353 188.998 27.012C188.998 25.6888 188.618 24.615 187.858 23.7907C187.12 22.9663 186.204 22.5542 185.108 22.5542C183.99 22.5542 183.052 22.9663 182.292 23.7907C181.554 24.615 181.185 25.6888 181.185 27.012Z" fill="#5C35E1"/>
<path d="M209.193 22.9135C207.897 22.9352 206.723 23.1412 205.673 23.5317C204.622 23.9222 203.862 24.5078 203.393 25.2888V35.5385H198.028V18.4556H202.957V21.9048C203.56 20.7551 204.343 19.8548 205.304 19.204C206.265 18.5532 207.271 18.217 208.321 18.1953C208.769 18.1953 209.059 18.2062 209.193 18.2279V22.9135Z" fill="#5C35E1"/>
<path d="M220.575 35.8626C218.608 35.8626 216.91 35.4504 215.479 34.6261C214.071 33.8018 212.987 32.7171 212.227 31.3722C211.489 30.0273 211.12 28.563 211.12 26.9795C211.12 25.4176 211.489 23.9642 212.227 22.6193C212.987 21.2743 214.071 20.1897 215.479 19.3654C216.887 18.5411 218.586 18.1289 220.575 18.1289C222.587 18.1289 224.286 18.5519 225.672 19.3979C227.08 20.2222 228.131 21.3068 228.823 22.6518L223.593 24.1811C222.9 23.0965 221.883 22.5542 220.542 22.5542C219.446 22.5542 218.519 22.9555 217.759 23.7581C216.999 24.5608 216.619 25.6345 216.619 26.9795C216.619 28.3244 216.999 29.409 217.759 30.2333C218.519 31.0577 219.446 31.4698 220.542 31.4698C221.212 31.4698 221.827 31.318 222.386 31.0143C222.945 30.6889 223.358 30.2767 223.626 29.7778L228.857 31.3397C228.209 32.6629 227.169 33.7475 225.739 34.5936C224.331 35.4396 222.609 35.8626 220.575 35.8626Z" fill="#5C35E1"/>
<path d="M240.372 35.8626C238.383 35.8626 236.684 35.4613 235.276 34.6586C233.868 33.856 232.783 32.7931 232.023 31.4698C231.286 30.1466 230.917 28.7149 230.917 27.1747C230.917 25.5261 231.286 24.0184 232.023 22.6518C232.761 21.2852 233.834 20.1897 235.242 19.3654C236.65 18.5411 238.36 18.1289 240.372 18.1289C242.362 18.1289 244.06 18.5411 245.468 19.3654C246.877 20.1897 247.939 21.2743 248.654 22.6193C249.391 23.9642 249.76 25.4068 249.76 26.9469C249.76 27.576 249.715 28.1292 249.626 28.6064H236.617C236.706 29.7561 237.131 30.6347 237.891 31.242C238.673 31.8278 239.556 32.1206 240.54 32.1206C241.322 32.1206 242.071 31.9362 242.786 31.5674C243.501 31.1987 243.993 30.6997 244.261 30.0706L248.821 31.3071C248.128 32.6521 247.044 33.7475 245.569 34.5936C244.116 35.4396 242.384 35.8626 240.372 35.8626ZM236.483 25.4176H244.127C244.016 24.333 243.602 23.4761 242.887 22.847C242.194 22.1962 241.333 21.8709 240.305 21.8709C239.277 21.8709 238.405 22.1962 237.69 22.847C236.997 23.4978 236.594 24.3547 236.483 25.4176Z" fill="#5C35E1"/>
<path d="M38.526 28.0174L43.2574 20.5117H30.0833C29.1546 20.5117 28.2892 20.989 27.7929 21.7762L23.0615 29.2818H36.2371C37.1659 29.2818 38.0297 28.8046 38.526 28.0174Z" fill="#3F278F"/>
<path d="M45.3976 16.6737L50.129 9.16797H24.9993C24.0706 9.16797 23.2052 9.64528 22.7089 10.4325L17.9775 17.9381H43.1085C44.0374 17.9381 44.9013 17.4609 45.3976 16.6737Z" fill="#3F278F"/>
<path d="M15.8212 40.6506H27.5414L22.9252 33.1661C22.432 32.3668 21.5629 31.8804 20.6264 31.8804H15.5958C11.737 31.8804 8.60871 28.7592 8.60871 24.9092C8.60871 21.0592 11.737 17.9381 15.5958 17.9381H20.4424C21.37 17.9381 22.2331 17.4609 22.7285 16.6737L27.4544 9.16797H15.8212C7.10763 9.16797 0.0439453 16.2156 0.0439453 24.9092C0.0439453 33.6029 7.10763 40.6506 15.8212 40.6506Z" fill="#5F37E9"/>
</g>
<defs>
<clipPath id="clip0_944_1354">
<rect width="250" height="31.622" fill="white" transform="translate(0 9.16406)"/>
</clipPath>
</defs>
</svg>
