<svg width="180" height="34" viewBox="0 0 180 34" fill="none" xmlns="http://www.w3.org/2000/svg">
<g clip-path="url(#clip0_643_716)">
<path d="M14.0664 0.216298C14.2007 0.216255 14.335 0.216169 14.4693 0.216044C14.8373 0.215826 15.2054 0.216217 15.5734 0.216708C15.9706 0.217131 16.3679 0.216988 16.7651 0.216914C17.453 0.216862 18.141 0.217169 18.8289 0.21772C19.8235 0.218516 20.8182 0.218771 21.8128 0.218894C23.4266 0.219108 25.0403 0.21976 26.6541 0.220687C28.2216 0.221586 29.7892 0.222279 31.3567 0.222695C31.5016 0.222733 31.5016 0.222733 31.6495 0.222773C32.1344 0.222901 32.6192 0.223024 33.104 0.223146C37.1254 0.224161 41.1467 0.225886 45.1681 0.228074C45.057 0.561391 44.9382 0.853607 44.7719 1.1542C44.726 1.2377 44.6801 1.32121 44.6329 1.40725C44.5832 1.49681 44.5335 1.58638 44.4824 1.67865C44.3755 1.87305 44.2688 2.06751 44.1621 2.26202C44.1069 2.36259 44.0517 2.46315 43.9948 2.56676C43.7266 3.05796 43.4633 3.55263 43.1999 4.04732C42.6507 5.07744 42.096 6.10339 41.5359 7.12546C41.4386 7.3045 41.3423 7.48436 41.2467 7.66474C41.196 7.76 41.1452 7.85526 41.0929 7.95341C41.0245 8.08306 41.0245 8.08306 40.9547 8.21533C40.5573 8.8846 40.0337 9.30099 39.3582 9.48852C39.1293 9.53304 38.9163 9.54372 38.6843 9.54386C38.5938 9.54416 38.5033 9.54445 38.4101 9.54475C38.3111 9.54458 38.2122 9.54441 38.1102 9.54424C37.952 9.54455 37.952 9.54455 37.7906 9.54486C37.559 9.54531 37.3274 9.54545 37.0959 9.54535C36.719 9.5452 36.3422 9.54571 35.9654 9.5463C35.4181 9.54709 34.8708 9.54758 34.3236 9.54789C33.4577 9.54843 32.5919 9.55009 31.726 9.55194C31.4296 9.55256 31.1332 9.55318 30.8368 9.5538C30.7256 9.55403 30.7256 9.55403 30.6123 9.55427C29.769 9.55603 28.9257 9.55762 28.0824 9.55909C28.0053 9.55922 27.9282 9.55936 27.8488 9.55949C26.6013 9.56164 25.3538 9.56269 24.1063 9.56343C22.8243 9.56422 21.5423 9.56651 20.2604 9.57009C19.4704 9.57224 18.6805 9.57319 17.8905 9.57258C17.3483 9.57227 16.8062 9.57339 16.264 9.57561C15.9517 9.57684 15.6395 9.57746 15.3272 9.57635C13.8707 9.57165 12.5385 9.57169 11.2216 10.3883C11.166 10.4219 11.1104 10.4556 11.0531 10.4902C9.49611 11.4623 8.58501 13.0481 8.05762 14.9691C7.64421 16.8135 7.89892 18.7312 8.66418 20.3935C8.88369 20.8217 9.12027 21.2052 9.4052 21.5767C9.46199 21.6511 9.51878 21.7254 9.57729 21.802C10.6599 23.1422 12.2092 23.9648 13.787 24.0378C13.8829 24.0381 13.9788 24.0385 14.0775 24.0388C14.1871 24.0395 14.2967 24.0402 14.4096 24.0409C14.4674 24.0411 14.5252 24.0413 14.5848 24.0415C14.7676 24.0422 14.9505 24.0437 15.1334 24.0455C15.653 24.0506 16.1726 24.0553 16.6922 24.0569C17.0111 24.0579 17.33 24.0607 17.6489 24.0648C17.7695 24.066 17.8902 24.0665 18.0108 24.0663C18.9182 24.0651 19.7198 24.1679 20.4067 24.919C20.6948 25.302 20.9124 25.7371 21.136 26.1733C21.1902 26.2769 21.2445 26.3806 21.3004 26.4873C21.4681 26.8084 21.6345 27.1303 21.8008 27.4525C21.9 27.6434 21.9994 27.8343 22.0988 28.0251C22.2429 28.3017 22.3869 28.5784 22.5306 28.8553C22.9933 29.7467 23.4652 30.6314 23.9388 31.515C23.9862 31.6036 24.0336 31.6921 24.0824 31.7834C24.1858 31.9743 24.2908 32.164 24.3969 32.353C24.4506 32.4491 24.5044 32.5452 24.5597 32.6443C24.6088 32.7309 24.6579 32.8175 24.7085 32.9068C24.8159 33.1324 24.8159 33.1324 24.8159 33.4262C23.3408 33.4331 21.8656 33.4382 20.3904 33.4414C19.7053 33.4429 19.0202 33.445 18.335 33.4483C17.7369 33.4513 17.1388 33.4532 16.5407 33.4538C16.2249 33.4542 15.909 33.4551 15.5932 33.4572C11.9432 33.4813 8.47844 32.7237 5.55253 29.9986C5.50639 29.9557 5.46024 29.9128 5.41271 29.8686C2.39818 27.0339 0.477242 23.0087 0.0512729 18.4992C-0.243124 14.1714 0.722023 9.68463 3.15957 6.33093C3.54955 5.81148 3.96208 5.31939 4.37997 4.83076C4.42629 4.77206 4.47261 4.71336 4.52033 4.65288C5.42391 3.52576 6.56176 2.69017 7.73013 1.99081C7.80764 1.94408 7.80764 1.94408 7.88672 1.89641C9.21049 1.10913 10.6205 0.60499 12.0853 0.326004C12.1729 0.30931 12.2605 0.292616 12.3508 0.275416C12.9197 0.193939 13.4943 0.214945 14.0664 0.216298Z" fill="white"/>
<path d="M26.7106 0.0692837C26.9126 0.0677235 27.1147 0.0652932 27.3168 0.0620634C27.8064 0.0564312 28.2956 0.0597966 28.7852 0.0672389C29.3554 0.075412 29.9254 0.0723278 30.4956 0.0686021C31.5121 0.0622544 32.5285 0.0646813 33.5451 0.0727075C34.5319 0.0804798 35.5186 0.084069 36.5054 0.0820888C36.5968 0.0819075 36.5968 0.0819076 36.6901 0.0817226C36.9958 0.0810907 37.3016 0.0803772 37.6073 0.0796231C40.1394 0.0734834 42.6713 0.0817648 45.2033 0.0991698C45.0955 0.435415 44.9794 0.730422 44.8157 1.03435C44.7706 1.11878 44.7255 1.20321 44.679 1.29019C44.6057 1.42603 44.6057 1.42603 44.5309 1.56462C44.4258 1.76117 44.3207 1.95777 44.2158 2.15443C44.1615 2.25611 44.1072 2.35779 44.0512 2.46254C43.7874 2.95915 43.5285 3.4592 43.2696 3.95928C42.7296 5.00061 42.1841 6.0378 41.6331 7.07115C41.5374 7.25217 41.4427 7.43398 41.3488 7.61632C41.2989 7.71262 41.249 7.80892 41.1976 7.90813C41.1303 8.03919 41.1303 8.03919 41.0617 8.17289C40.6718 8.847 40.1617 9.25187 39.4975 9.46937C39.1392 9.5363 38.7841 9.53305 38.4216 9.53552C38.3372 9.53649 38.2528 9.53746 38.1659 9.53846C37.8828 9.54158 37.5997 9.54401 37.3166 9.54643C37.1138 9.54853 36.9109 9.55067 36.7081 9.55285C36.2713 9.55745 35.8345 9.56174 35.3977 9.56576C34.7662 9.57158 34.1346 9.57793 33.5031 9.58442C32.4784 9.59494 31.4537 9.60501 30.4291 9.61481C29.4337 9.62433 28.4384 9.63406 27.4431 9.64406C27.3817 9.64468 27.3204 9.6453 27.2572 9.64593C26.9493 9.64903 26.6415 9.65213 26.3336 9.65523C23.7802 9.68095 21.3753 9.59345 18.8219 9.61799C19.1334 9.42766 19.3031 9.39311 19.6315 9.2474C20.2105 8.91953 20.4645 8.38944 20.7846 7.76384C20.8344 7.66809 20.8842 7.57234 20.9356 7.47369C21.0413 7.27029 21.1467 7.06665 21.2518 6.86278C21.4097 6.55642 21.5685 6.2507 21.7277 5.94519C21.936 5.54526 22.144 5.14515 22.3517 4.74485C23.087 3.32888 23.087 3.32888 23.2558 3.02061C23.4748 2.61618 23.673 2.21375 23.8473 1.78014C24.5362 0.162547 25.238 0.0278115 26.7106 0.0692837Z" fill="#5B35E0"/>
<path d="M27.7138 12.145C27.8368 12.145 27.9599 12.145 28.0829 12.1448C28.4153 12.1447 28.7476 12.1465 29.08 12.1485C29.428 12.1504 29.7759 12.1505 30.1239 12.1509C30.7821 12.1518 31.4403 12.1542 32.0985 12.1572C32.8481 12.1604 33.5977 12.1621 34.3474 12.1635C35.8887 12.1666 37.4301 12.1718 38.9715 12.1783C38.8686 12.4852 38.7645 12.7627 38.6119 13.0402C38.5736 13.1104 38.5353 13.1806 38.4958 13.253C38.4541 13.3286 38.4124 13.4041 38.3695 13.482C38.2781 13.6492 38.1869 13.8165 38.0956 13.9839C38.0473 14.0724 37.999 14.1609 37.9492 14.252C37.6906 14.7279 37.4362 15.2068 37.1812 15.6854C36.6702 16.643 36.155 17.5974 35.6344 18.5479C35.4712 18.8463 35.3103 19.1459 35.1528 19.4484C34.6455 20.4162 34.1415 21.1625 33.1652 21.4388C32.9162 21.4864 32.6821 21.4936 32.4298 21.4934C32.327 21.4935 32.2243 21.4937 32.1184 21.4938C32.0052 21.4934 31.892 21.4931 31.7788 21.4927C31.6591 21.4927 31.5394 21.4927 31.4197 21.4928C31.0953 21.4928 30.7709 21.4922 30.4464 21.4915C30.1072 21.4909 29.7679 21.4909 29.4287 21.4908C28.7865 21.4905 28.1443 21.4896 27.5022 21.4887C26.771 21.4876 26.0398 21.487 25.3086 21.4865C23.8047 21.4855 22.3008 21.4838 20.7969 21.4816C20.8629 21.1402 20.9674 20.9001 21.1283 20.6029C21.1795 20.5077 21.2308 20.4125 21.2836 20.3144C21.3389 20.2128 21.3942 20.1112 21.4512 20.0065C21.508 19.9014 21.5647 19.7962 21.6232 19.6878C21.7941 19.3715 21.9655 19.0555 22.1369 18.7396C22.2275 18.5718 22.318 18.404 22.4085 18.2362C22.6121 17.8584 22.8162 17.4809 23.0204 17.1036C23.1866 16.7965 23.3525 16.4893 23.5184 16.182C23.6019 16.0274 23.6856 15.8729 23.7695 15.7185C23.9864 15.3185 24.2003 14.9169 24.4101 14.5118C24.4537 14.4285 24.4973 14.3453 24.5422 14.2595C24.6247 14.1019 24.7064 13.9437 24.787 13.7848C25.5181 12.3969 26.3759 12.1323 27.7138 12.145Z" fill="#5B35E0"/>
</g>
<g clip-path="url(#clip1_643_716)">
<path d="M64.0646 10.3357C64.6083 10.8225 65.0242 11.3386 65.3754 11.9773C65.3754 12.0207 65.3754 12.064 65.3754 12.1087C65.2477 12.2086 65.2477 12.2086 65.0682 12.3259C64.9697 12.3909 64.9697 12.3909 64.8692 12.4572C64.7983 12.5034 64.7275 12.5495 64.6545 12.5971C64.51 12.6922 64.3656 12.7875 64.2213 12.8828C64.15 12.9297 64.0788 12.9766 64.0053 13.025C63.7335 13.2049 63.4643 13.3885 63.1962 13.5738C63.1545 13.6025 63.1129 13.6312 63.07 13.6608C62.9112 13.7706 62.7559 13.8799 62.6073 14.0035C62.5692 14.0283 62.531 14.0531 62.4916 14.0787C62.2374 13.9938 62.2082 13.8961 62.0738 13.6682C61.9067 13.3968 61.7497 13.1738 61.5085 12.9623C61.4595 12.9152 61.4595 12.9152 61.4094 12.8672C60.6164 12.1319 59.4292 11.882 58.374 11.8981C57.1839 11.9758 56.2224 12.4067 55.4132 13.2907C54.4605 14.4253 54.2117 15.9252 54.299 17.362C54.4227 18.6399 55.0183 19.8808 56.003 20.711C57.0324 21.4731 58.1691 21.7062 59.4288 21.5457C60.3696 21.3847 61.3451 20.9356 61.915 20.1415C62.0752 19.9002 62.2204 19.6513 62.3605 19.3976C62.5855 19.4833 62.7925 19.5815 63.0016 19.7008C63.0616 19.7349 63.1216 19.769 63.1834 19.8042C63.2471 19.8407 63.3108 19.8772 63.3764 19.9148C63.4422 19.9522 63.508 19.9897 63.5758 20.0283C63.7825 20.1462 63.9891 20.2644 64.1957 20.3826C64.3308 20.4598 64.4659 20.5371 64.601 20.6143C64.9248 20.7994 65.2485 20.9849 65.5721 21.1706C65.2902 22.3188 64.3254 23.1552 63.359 23.7573C61.4506 24.8999 58.9765 25.4097 56.7872 24.9157C55.2179 24.5195 53.9694 23.7928 52.7915 22.681C52.748 22.6416 52.7045 22.6022 52.6597 22.5617C51.4607 21.4335 50.726 19.8673 50.3665 18.2813C50.3516 18.2173 50.3368 18.1533 50.3214 18.0874C50.1101 16.9872 50.1487 15.7541 50.432 14.6696C50.444 14.6236 50.456 14.5776 50.4683 14.5302C50.804 13.2991 51.4111 12.1359 52.2672 11.1893C52.3001 11.1528 52.3331 11.1163 52.367 11.0786C53.1533 10.2214 54.0337 9.63702 55.0855 9.15367C55.1521 9.12193 55.2188 9.09018 55.2875 9.05748C58.0915 7.79307 61.7615 8.32323 64.0646 10.3357Z" fill="white"/>
<path d="M176.801 13.8439C178.026 14.9613 178.849 16.3779 178.99 18.0589C179.015 18.6586 178.999 19.2356 178.925 19.8319C175.897 19.8319 172.869 19.8319 169.749 19.8319C169.843 20.3031 169.923 20.6664 170.142 21.0795C170.164 21.1201 170.185 21.1606 170.207 21.2024C170.509 21.6944 171.097 22.0264 171.646 22.1671C172.641 22.3099 173.529 22.1961 174.39 21.6518C174.58 21.5025 174.712 21.3354 174.845 21.1341C174.927 21.0129 175.019 20.9191 175.123 20.8168C175.57 20.9353 176.017 21.0545 176.464 21.1744C176.616 21.2151 176.768 21.2556 176.92 21.2959C177.139 21.3537 177.357 21.4123 177.575 21.4709C177.643 21.4889 177.712 21.5069 177.782 21.5255C177.845 21.5426 177.908 21.5596 177.973 21.5772C178.029 21.5921 178.085 21.607 178.142 21.6223C178.269 21.6705 178.269 21.6705 178.335 21.8018C177.692 23.1431 176.348 24.1096 174.98 24.595C172.986 25.2632 170.717 25.1718 168.825 24.2318C167.501 23.5291 166.441 22.3475 165.96 20.9213C165.786 20.3529 165.636 19.7718 165.62 19.1752C165.617 19.1253 165.613 19.0755 165.61 19.0241C165.545 17.346 166.116 15.644 167.238 14.3938C168.143 13.4347 169.318 12.8124 170.601 12.5429C170.664 12.5281 170.727 12.5134 170.792 12.4982C172.808 12.1007 175.208 12.4845 176.801 13.8439ZM170.253 15.9657C169.863 16.4336 169.703 16.9374 169.618 17.5335C171.37 17.5335 173.122 17.5335 174.927 17.5335C174.841 16.7581 174.611 16.2224 174.037 15.6887C172.89 14.7858 171.263 14.9195 170.253 15.9657Z" fill="white"/>
<path d="M105.454 13.9042C105.508 13.9533 105.562 14.0024 105.617 14.053C105.668 14.098 105.719 14.143 105.772 14.1894C106.823 15.1701 107.532 16.7512 107.583 18.19C107.596 18.7193 107.599 19.2419 107.518 19.7659C107.405 19.8793 107.253 19.841 107.098 19.842C107.022 19.8426 106.945 19.8433 106.866 19.844C106.781 19.8443 106.696 19.8447 106.608 19.8451C106.519 19.8457 106.429 19.8464 106.339 19.8471C106.095 19.8488 105.85 19.8502 105.606 19.8515C105.351 19.853 105.096 19.8548 104.84 19.8565C104.357 19.8598 103.873 19.8628 103.39 19.8656C102.84 19.8688 102.289 19.8724 101.739 19.8761C100.607 19.8836 99.4743 19.8906 98.3419 19.8973C98.3706 20.0323 98.3999 20.1672 98.4295 20.3021C98.4539 20.4148 98.4539 20.4148 98.4788 20.5297C98.6413 21.1309 98.9936 21.549 99.5217 21.8673C100.319 22.252 101.217 22.3344 102.074 22.093C102.814 21.8245 103.223 21.4681 103.651 20.8166C103.992 20.9065 104.334 20.9964 104.675 21.0863C104.791 21.1169 104.907 21.1474 105.023 21.1779C106.257 21.5027 106.257 21.5027 106.862 21.6703C106.862 22.1873 106.319 22.7225 105.982 23.0836C104.581 24.4345 102.76 25.0518 100.833 25.0193C98.8253 24.9468 97.0446 24.3443 95.6548 22.8523C94.6118 21.6558 94.1251 20.0305 94.2029 18.4579C94.3247 16.7909 94.9416 15.1983 96.174 14.0358C97.0848 13.2724 98.0325 12.7957 99.194 12.5426C99.2571 12.5278 99.3202 12.513 99.3852 12.4978C101.447 12.0936 103.845 12.5017 105.454 13.9042ZM98.8417 15.9819C98.4251 16.4868 98.3336 16.8569 98.2109 17.5333C99.9628 17.5333 101.715 17.5333 103.52 17.5333C103.418 16.715 103.123 16.1573 102.495 15.6177C101.379 14.753 99.7837 14.9682 98.8417 15.9819Z" fill="white"/>
<path d="M117.105 8.375C120.89 8.375 124.675 8.375 128.575 8.375C128.575 9.48017 128.575 10.5853 128.575 11.724C126.087 11.724 123.6 11.724 121.037 11.724C121.037 12.8725 121.037 14.021 121.037 15.2043C123.092 15.2043 125.147 15.2043 127.264 15.2043C127.264 16.2228 127.264 17.2413 127.264 18.2906C125.209 18.2906 123.154 18.2906 121.037 18.2906C121.037 20.4143 121.037 22.5379 121.037 24.7259C119.74 24.7259 118.442 24.7259 117.105 24.7259C117.105 19.3301 117.105 13.9343 117.105 8.375Z" fill="white"/>
<path d="M77.3859 13.7627C77.5005 13.8625 77.6139 13.9637 77.7259 14.0664C77.7818 14.1163 77.8376 14.1661 77.8952 14.2175C79.0122 15.2678 79.6514 16.8158 79.7068 18.3401C79.7465 20.1126 79.2566 21.7927 78.0181 23.0973C76.7588 24.3721 75.0455 24.9929 73.2735 25.035C71.299 25.0417 69.5074 24.5412 68.0709 23.1448C66.8411 21.8952 66.3677 20.2456 66.3667 18.5286C66.3848 16.8584 66.9902 15.4415 68.1283 14.22C70.5018 11.9372 74.7941 11.6955 77.3859 13.7627ZM71.1063 16.3647C70.3411 17.3083 70.2404 18.2724 70.3198 19.451C70.396 19.9981 70.6303 20.4698 70.9752 20.8957C71.0081 20.9368 71.0409 20.9778 71.0748 21.0201C71.4665 21.4584 72.0831 21.7945 72.6713 21.8307C73.608 21.853 74.2193 21.6814 74.9141 21.0293C75.5189 20.403 75.7467 19.5974 75.7802 18.741C75.7559 17.8387 75.4796 16.9973 74.8585 16.336C73.7981 15.3452 72.153 15.316 71.1063 16.3647Z" fill="white"/>
<path d="M140.383 13.7574C140.498 13.8572 140.611 13.9585 140.723 14.0611C140.779 14.111 140.835 14.1608 140.892 14.2122C142.005 15.2583 142.646 16.8016 142.704 18.3202C142.746 20.0866 142.248 21.7933 141.015 23.092C139.703 24.4208 137.954 25.0092 136.112 25.0292C134.141 25.0088 132.373 24.4648 130.971 23.0404C129.667 21.6472 129.324 19.8789 129.373 18.0296C129.45 16.5151 130.208 15.1017 131.285 14.0611C133.74 11.9786 137.805 11.7011 140.383 13.7574ZM134.104 16.3594C133.338 17.303 133.238 18.2671 133.317 19.4458C133.393 19.9928 133.628 20.4646 133.972 20.8904C134.005 20.9315 134.038 20.9725 134.072 21.0148C134.464 21.4532 135.08 21.7892 135.669 21.8254C136.605 21.8477 137.216 21.6761 137.911 21.0241C138.53 20.3838 138.739 19.5716 138.777 18.6988C138.75 17.8111 138.465 16.9799 137.856 16.3307C136.795 15.3399 135.15 15.3107 134.104 16.3594Z" fill="white"/>
<path d="M163.544 13.9769C163.62 14.0456 163.62 14.0456 163.697 14.1157C163.739 14.154 163.782 14.1924 163.826 14.2319C164.228 14.6112 164.542 15.079 164.811 15.5604C164.811 15.6037 164.811 15.647 164.811 15.6917C164.344 15.829 163.878 15.966 163.411 16.1027C163.194 16.1661 162.978 16.2297 162.761 16.2935C162.512 16.3668 162.263 16.4397 162.014 16.5125C161.936 16.5355 161.858 16.5585 161.778 16.5822C161.706 16.6032 161.634 16.6242 161.559 16.6459C161.496 16.6646 161.432 16.6832 161.366 16.7025C161.206 16.7424 161.206 16.7424 161.009 16.7424C160.92 16.639 160.92 16.639 160.829 16.5002C160.46 15.9857 159.998 15.7631 159.38 15.6607C158.653 15.5787 158.029 15.6955 157.405 16.0857C157.247 16.2265 157.247 16.2265 157.142 16.3484C157.099 16.3484 157.056 16.3484 157.011 16.3484C156.994 16.3854 156.976 16.4225 156.958 16.4607C156.849 16.6725 156.717 16.8693 156.588 17.0691C156.321 17.5947 156.259 18.0959 156.266 18.6795C156.265 18.7431 156.264 18.8067 156.264 18.8722C156.267 19.6495 156.506 20.3961 157.031 20.9814C157.362 21.2957 157.691 21.5249 158.126 21.6673C158.163 21.6798 158.201 21.6922 158.24 21.705C158.981 21.8457 159.75 21.7731 160.389 21.3644C160.683 21.1484 160.896 20.9358 161.075 20.6167C161.765 20.7752 162.44 20.9833 163.118 21.1897C163.313 21.2493 163.509 21.3085 163.705 21.3677C163.829 21.4055 163.954 21.4433 164.078 21.4811C164.137 21.4988 164.195 21.5165 164.255 21.5348C164.336 21.5595 164.336 21.5595 164.419 21.5846C164.466 21.5991 164.513 21.6135 164.562 21.6284C164.68 21.6673 164.68 21.6673 164.811 21.733C164.498 22.8359 163.409 23.682 162.451 24.2283C160.736 25.1104 158.528 25.2768 156.679 24.7123C155.09 24.188 153.736 23.1928 152.949 21.6884C152.23 20.2417 151.996 18.4223 152.468 16.8591C152.496 16.7761 152.525 16.6934 152.555 16.611C152.57 16.5668 152.586 16.5227 152.602 16.4772C153.198 14.8771 154.349 13.7204 155.864 12.9788C158.326 11.8997 161.488 12.1935 163.544 13.9769Z" fill="white"/>
<path d="M80.5015 12.3496C81.7992 12.3496 83.0969 12.3496 84.4339 12.3496C84.6512 13.0404 84.8683 13.7313 85.0852 14.4222C85.1014 14.4738 85.1176 14.5253 85.1343 14.5784C85.4969 15.7329 85.8589 16.8876 86.2151 18.0441C86.2281 18.0863 86.2411 18.1286 86.2545 18.1721C86.3885 18.6072 86.5221 19.0424 86.6554 19.4778C86.6882 19.5845 86.6882 19.5845 86.7216 19.6935C86.7619 19.8248 86.8021 19.9561 86.8421 20.0875C86.9254 20.3585 87.0093 20.6253 87.1211 20.8862C87.2824 20.3746 87.4435 19.863 87.6045 19.3513C87.6291 19.2731 87.6537 19.1949 87.6791 19.1143C87.9741 18.1762 88.2677 17.2378 88.5582 16.2983C88.5713 16.2558 88.5845 16.2132 88.598 16.1694C88.7381 15.7164 88.8779 15.2634 89.0174 14.8102C89.0642 14.6586 89.111 14.5071 89.1578 14.3555C89.178 14.2896 89.1982 14.2236 89.2191 14.1556C89.4062 13.5501 89.6081 12.9515 89.8083 12.3496C90.9762 12.3496 92.1442 12.3496 93.3475 12.3496C93.4131 12.4809 93.4131 12.4809 93.378 12.6161C93.3575 12.6722 93.3371 12.7283 93.316 12.7861C93.2928 12.8504 93.2697 12.9147 93.2458 12.9809C93.2067 13.0871 93.2067 13.0871 93.1668 13.1953C93.1399 13.2695 93.113 13.3436 93.0853 13.42C93.0112 13.624 92.9367 13.8277 92.8619 14.0315C92.7831 14.2465 92.7049 14.4618 92.6267 14.6771C92.1686 15.9356 91.7052 17.1921 91.2417 18.4486C90.7856 19.685 90.3394 20.9247 89.9017 22.1677C89.711 22.7089 89.5187 23.2494 89.3242 23.7892C89.3015 23.8524 89.2789 23.9156 89.2556 23.9807C89.2346 24.0388 89.2135 24.0969 89.1919 24.1567C89.1733 24.2084 89.1546 24.2601 89.1355 24.3133C89.0874 24.4322 89.0874 24.4322 89.0218 24.4979C88.8911 24.5041 88.7602 24.5056 88.6293 24.5054C88.5453 24.5053 88.4614 24.5053 88.3748 24.5053C88.2825 24.505 88.1902 24.5047 88.0978 24.5043C88.0039 24.5042 87.9099 24.5041 87.816 24.504C87.5683 24.5038 87.3206 24.5031 87.0728 24.5024C86.8202 24.5017 86.5676 24.5014 86.315 24.5011C85.8191 24.5004 85.3231 24.4993 84.8272 24.4979C84.8052 24.437 84.8052 24.437 84.7829 24.375C84.1257 22.5521 83.4676 20.7297 82.7993 18.9109C82.3508 17.6904 81.905 16.4689 81.46 15.2471C81.4267 15.1557 81.3934 15.0643 81.3601 14.9729C80.9332 13.8011 80.9332 13.8011 80.8375 13.5366C80.7878 13.4007 80.7373 13.2651 80.6859 13.1298C80.6618 13.0659 80.6377 13.0019 80.6129 12.936C80.5807 12.8516 80.5807 12.8516 80.5478 12.7656C80.5015 12.6123 80.5015 12.6123 80.5015 12.3496Z" fill="white"/>
<path d="M116.313 12.3496C116.313 13.4548 116.313 14.5599 116.313 15.6986C116.041 15.7352 115.769 15.7717 115.489 15.8094C114.363 15.9721 113.191 16.2096 112.414 17.1174C112.235 17.4003 112.252 17.6826 112.257 18.0094C112.256 18.0812 112.255 18.153 112.255 18.227C112.253 18.4629 112.254 18.6988 112.256 18.9347C112.255 19.0989 112.254 19.263 112.253 19.4271C112.251 19.8141 112.251 20.2011 112.253 20.5881C112.254 21.1497 112.251 21.7113 112.249 22.2729C112.247 23.0584 112.248 23.8437 112.249 24.6292C110.973 24.6292 109.697 24.6292 108.382 24.6292C108.382 20.6203 108.382 16.6114 108.382 12.4809C109.55 12.4809 110.718 12.4809 111.922 12.4809C111.943 13.196 111.965 13.9112 111.987 14.6479C112.16 14.4096 112.333 14.1712 112.511 13.9256C113.583 12.6855 114.695 12.3496 116.313 12.3496Z" fill="white"/>
<path d="M151.43 12.3496C151.43 13.4548 151.43 14.5599 151.43 15.6986C150.933 15.7636 150.435 15.8286 149.923 15.8956C148.929 16.1409 147.96 16.4475 147.366 17.3403C147.346 17.482 147.346 17.482 147.348 17.6407C147.347 17.7023 147.347 17.7639 147.346 17.8273C147.346 17.8948 147.346 17.9622 147.346 18.0317C147.345 18.1384 147.345 18.1384 147.344 18.2472C147.342 18.4828 147.34 18.7184 147.339 18.954C147.338 19.1171 147.337 19.2802 147.335 19.4434C147.332 19.8292 147.33 20.215 147.328 20.6008C147.325 21.1602 147.32 21.7196 147.316 22.279C147.31 23.0624 147.306 23.8458 147.301 24.6292C146.046 24.6292 144.792 24.6292 143.5 24.6292C143.5 20.6203 143.5 16.6114 143.5 12.4809C144.646 12.4809 145.792 12.4809 146.973 12.4809C147.099 12.6072 147.055 12.8402 147.059 13.0127C147.061 13.0592 147.062 13.1058 147.064 13.1537C147.068 13.3029 147.072 13.4522 147.076 13.6014C147.078 13.7023 147.081 13.8032 147.084 13.9042C147.091 14.1521 147.098 14.4 147.104 14.6479C147.135 14.604 147.165 14.5601 147.196 14.5148C147.237 14.4566 147.277 14.3983 147.319 14.3383C147.359 14.2809 147.398 14.2234 147.44 14.1642C148.444 12.7586 149.729 12.3496 151.43 12.3496Z" fill="white"/>
</g>
<defs>
<clipPath id="clip0_643_716">
<rect width="45.1682" height="33.4579" fill="white"/>
</clipPath>
<clipPath id="clip1_643_716">
<rect width="128.979" height="16.7075" fill="white" transform="translate(50.187 8.375)"/>
</clipPath>
</defs>
</svg>
