<svg width="66" height="78" viewBox="0 0 66 78" fill="none" xmlns="http://www.w3.org/2000/svg">
<g filter="url(#filter0_d_1392_1589)">
<rect x="16.0044" width="42.9439" height="56.9256" rx="3.43179" transform="rotate(8.76938 16.0044 0)" fill="white" shape-rendering="crispEdges"/>
<rect x="20.0259" y="6.68359" width="32.9569" height="1.99739" rx="0.998695" transform="rotate(8.76938 20.0259 6.68359)" fill="#D9D9D9"/>
<rect x="18.96" y="13.5918" width="15.9791" height="1.99739" rx="0.998695" transform="rotate(8.76938 18.96 13.5918)" fill="#D9D9D9"/>
<rect x="17.894" y="20.502" width="32.9569" height="1.99739" rx="0.998695" transform="rotate(8.76938 17.894 20.502)" fill="#D9D9D9"/>
<rect x="16.8286" y="27.4102" width="21.9713" height="1.99739" rx="0.998695" transform="rotate(8.76938 16.8286 27.4102)" fill="#D9D9D9"/>
<rect x="15.7627" y="34.3203" width="32.9569" height="1.99739" rx="0.998695" transform="rotate(8.76938 15.7627 34.3203)" fill="#D9D9D9"/>
<rect x="14.6968" y="41.2285" width="11.9843" height="1.99739" rx="0.998695" transform="rotate(8.76938 14.6968 41.2285)" fill="#D9D9D9"/>
<rect x="13.6309" y="48.1387" width="32.9569" height="1.99739" rx="0.998695" transform="rotate(8.76938 13.6309 48.1387)" fill="#D9D9D9"/>
</g>
<defs>
<filter id="filter0_d_1392_1589" x="-0.482296" y="0" width="66.7366" height="78.4226" filterUnits="userSpaceOnUse" color-interpolation-filters="sRGB">
<feFlood flood-opacity="0" result="BackgroundImageFix"/>
<feColorMatrix in="SourceAlpha" type="matrix" values="0 0 0 0 0 0 0 0 0 0 0 0 0 0 0 0 0 0 127 0" result="hardAlpha"/>
<feOffset dy="7.80798"/>
<feGaussianBlur stdDeviation="3.90399"/>
<feComposite in2="hardAlpha" operator="out"/>
<feColorMatrix type="matrix" values="0 0 0 0 0.623967 0 0 0 0 0.584278 0 0 0 0 0.584278 0 0 0 0.25 0"/>
<feBlend mode="normal" in2="BackgroundImageFix" result="effect1_dropShadow_1392_1589"/>
<feBlend mode="normal" in="SourceGraphic" in2="effect1_dropShadow_1392_1589" result="shape"/>
</filter>
</defs>
</svg>
