<svg width="69" height="75" viewBox="0 0 69 75" fill="none" xmlns="http://www.w3.org/2000/svg">
<g filter="url(#filter0_d_1392_1598)">
<rect x="9.9126" width="51.1819" height="56.9256" rx="3.43179" transform="rotate(2.25177 9.9126 0)" fill="white" shape-rendering="crispEdges"/>
<rect x="14.667" y="6.18359" width="38.8057" height="1.99739" rx="0.998695" transform="rotate(2.25177 14.667 6.18359)" fill="#D9D9D9"/>
<rect x="14.3921" y="13.1699" width="15.9791" height="1.99739" rx="0.998695" transform="rotate(2.25177 14.3921 13.1699)" fill="#D9D9D9"/>
<rect x="14.1177" y="20.1543" width="38.8057" height="1.99739" rx="0.998695" transform="rotate(2.25177 14.1177 20.1543)" fill="#D9D9D9"/>
<rect x="13.8428" y="27.1406" width="21.9713" height="1.99739" rx="0.998695" transform="rotate(2.25177 13.8428 27.1406)" fill="#D9D9D9"/>
<rect x="13.5684" y="34.125" width="38.8057" height="1.99739" rx="0.998695" transform="rotate(2.25177 13.5684 34.125)" fill="#D9D9D9"/>
<rect x="13.2935" y="41.1113" width="11.9843" height="1.99739" rx="0.998695" transform="rotate(2.25177 13.2935 41.1113)" fill="#D9D9D9"/>
<rect x="13.019" y="48.0957" width="38.8057" height="1.99739" rx="0.998695" transform="rotate(2.25177 13.019 48.0957)" fill="#D9D9D9"/>
</g>
<defs>
<filter id="filter0_d_1392_1598" x="-0.132198" y="0" width="68.9954" height="74.5085" filterUnits="userSpaceOnUse" color-interpolation-filters="sRGB">
<feFlood flood-opacity="0" result="BackgroundImageFix"/>
<feColorMatrix in="SourceAlpha" type="matrix" values="0 0 0 0 0 0 0 0 0 0 0 0 0 0 0 0 0 0 127 0" result="hardAlpha"/>
<feOffset dy="7.80798"/>
<feGaussianBlur stdDeviation="3.90399"/>
<feComposite in2="hardAlpha" operator="out"/>
<feColorMatrix type="matrix" values="0 0 0 0 0.623967 0 0 0 0 0.584278 0 0 0 0 0.584278 0 0 0 0.25 0"/>
<feBlend mode="normal" in2="BackgroundImageFix" result="effect1_dropShadow_1392_1598"/>
<feBlend mode="normal" in="SourceGraphic" in2="effect1_dropShadow_1392_1598" result="shape"/>
</filter>
</defs>
</svg>
