<svg width="75" height="80" viewBox="0 0 75 80" fill="none" xmlns="http://www.w3.org/2000/svg">
<g filter="url(#filter0_d_1392_1588)">
<rect x="7.31689" y="7.95508" width="51.1819" height="56.9256" rx="3.43179" transform="rotate(-8.94151 7.31689 7.95508)" fill="white" shape-rendering="crispEdges"/>
<rect x="13.1812" y="13.0977" width="38.8057" height="1.99739" rx="0.998695" transform="rotate(-8.94151 13.1812 13.0977)" fill="#D9D9D9"/>
<rect x="14.2676" y="20.0039" width="15.9791" height="1.99739" rx="0.998695" transform="rotate(-8.94151 14.2676 20.0039)" fill="#D9D9D9"/>
<rect x="15.3545" y="26.9102" width="38.8057" height="1.99739" rx="0.998695" transform="rotate(-8.94151 15.3545 26.9102)" fill="#D9D9D9"/>
<rect x="16.4409" y="33.8145" width="21.9713" height="1.99739" rx="0.998695" transform="rotate(-8.94151 16.4409 33.8145)" fill="#D9D9D9"/>
<rect x="17.5273" y="40.7207" width="38.8057" height="1.99739" rx="0.998695" transform="rotate(-8.94151 17.5273 40.7207)" fill="#D9D9D9"/>
<rect x="18.6138" y="47.627" width="11.9843" height="1.99739" rx="0.998695" transform="rotate(-8.94151 18.6138 47.627)" fill="#D9D9D9"/>
<rect x="19.7007" y="54.5332" width="38.8057" height="1.99739" rx="0.998695" transform="rotate(-8.94151 19.7007 54.5332)" fill="#D9D9D9"/>
</g>
<defs>
<filter id="filter0_d_1392_1588" x="-0.491085" y="0" width="75.0237" height="79.8054" filterUnits="userSpaceOnUse" color-interpolation-filters="sRGB">
<feFlood flood-opacity="0" result="BackgroundImageFix"/>
<feColorMatrix in="SourceAlpha" type="matrix" values="0 0 0 0 0 0 0 0 0 0 0 0 0 0 0 0 0 0 127 0" result="hardAlpha"/>
<feOffset dy="7.80798"/>
<feGaussianBlur stdDeviation="3.90399"/>
<feComposite in2="hardAlpha" operator="out"/>
<feColorMatrix type="matrix" values="0 0 0 0 0.623967 0 0 0 0 0.584278 0 0 0 0 0.584278 0 0 0 0.25 0"/>
<feBlend mode="normal" in2="BackgroundImageFix" result="effect1_dropShadow_1392_1588"/>
<feBlend mode="normal" in="SourceGraphic" in2="effect1_dropShadow_1392_1588" result="shape"/>
</filter>
</defs>
</svg>
